<svg xmlns="http://www.w3.org/2000/svg" width="65" height="64" viewBox="0 0 65 64" fill="none">
  <path d="M44.3334 32L33.0534 28C31.8 27.5467 30.84 26.5067 30.52 25.2267L26.3334 8.69336L22.1467 25.2267C21.8267 26.5334 20.8667 27.5734 19.6134 28L8.33337 32L19.6134 36C20.8667 36.4534 21.8267 37.4934 22.1467 38.7734L26.3334 55.3067L30.52 38.7734C30.84 37.4667 31.8 36.4267 33.0534 36L44.3334 32Z" stroke="#F9F9F9" stroke-opacity="0.64" stroke-linecap="round" stroke-linejoin="round"/>
  <path d="M57.6667 46.6668L54.2801 45.7868C52.7867 45.3868 51.6667 44.1868 51.3734 42.6934L50.3334 37.3601L49.2934 42.6934C49.0001 44.2134 47.8534 45.4134 46.3867 45.7868L43.0001 46.6668L46.3867 47.5468C47.8801 47.9468 49.0001 49.1468 49.2934 50.6401L50.3334 55.9734L51.3734 50.6401C51.6667 49.1201 52.8134 47.9201 54.2801 47.5468L57.6667 46.6668Z" stroke="#F9F9F9" stroke-opacity="0.64" stroke-linecap="round" stroke-linejoin="round" stroke-dasharray="2 2"/>
  <path d="M57.6667 17.3333L54.2801 16.4533C52.7867 16.0533 51.6667 14.8533 51.3734 13.3599L50.3334 8.02661L49.2934 13.3599C49.0001 14.8799 47.8534 16.0799 46.3867 16.4533L43.0001 17.3333L46.3867 18.2133C47.8801 18.6133 49.0001 19.8133 49.2934 21.3066L50.3334 26.6399L51.3734 21.3066C51.6667 19.7866 52.8134 18.5866 54.2801 18.2133L57.6667 17.3333Z" stroke="#F9F9F9" stroke-opacity="0.64" stroke-linecap="round" stroke-linejoin="round" stroke-dasharray="2 2"/>
</svg>