<svg xmlns="http://www.w3.org/2000/svg" width="64" height="64" viewBox="0 0 64 64" fill="none">
  <g opacity="0.64">
    <path d="M8.13334 20.0801C6.34668 23.6534 5.33334 27.7067 5.33334 32.0001C5.33334 46.7201 17.28 58.6667 32 58.6667C40.9333 58.6667 48.8533 54.2667 53.7067 47.4934" stroke="#F9F9F9" stroke-linecap="round" stroke-linejoin="round" stroke-dasharray="2 2"/>
    <path d="M58.2935 36.5599C58.5601 35.0933 58.6668 33.5733 58.6668 31.9999C58.6668 17.2799 46.7201 5.33325 32.0001 5.33325C26.2135 5.33325 20.8535 7.17325 16.4801 10.3199" stroke="#F9F9F9" stroke-linecap="round" stroke-linejoin="round"/>
    <path d="M32 37.3334C34.9455 37.3334 37.3333 34.9456 37.3333 32.0001C37.3333 29.0546 34.9455 26.6667 32 26.6667C29.0545 26.6667 26.6667 29.0546 26.6667 32.0001C26.6667 34.9456 29.0545 37.3334 32 37.3334Z" stroke="#F9F9F9" stroke-linecap="round" stroke-linejoin="round"/>
    <path d="M42.6667 24.0001C44.1394 24.0001 45.3333 22.8062 45.3333 21.3334C45.3333 19.8607 44.1394 18.6667 42.6667 18.6667C41.1939 18.6667 40 19.8607 40 21.3334C40 22.8062 41.1939 24.0001 42.6667 24.0001Z" fill="#F9F9F9" stroke="#F9F9F9" stroke-linecap="round" stroke-linejoin="round"/>
    <path d="M53.3333 50.6666C54.8061 50.6666 56 49.4727 56 47.9999C56 46.5272 54.8061 45.3333 53.3333 45.3333C51.8606 45.3333 50.6667 46.5272 50.6667 47.9999C50.6667 49.4727 51.8606 50.6666 53.3333 50.6666Z" fill="#F9F9F9" stroke="#F9F9F9" stroke-linecap="round" stroke-linejoin="round"/>
    <path d="M16 13.3333C17.4728 13.3333 18.6667 12.1394 18.6667 10.6667C18.6667 9.19391 17.4728 8 16 8C14.5273 8 13.3333 9.19391 13.3333 10.6667C13.3333 12.1394 14.5273 13.3333 16 13.3333Z" fill="#F9F9F9" stroke="#F9F9F9" stroke-linecap="round" stroke-linejoin="round"/>
  </g>
</svg>