<svg xmlns="http://www.w3.org/2000/svg" width="65" height="64" viewBox="0 0 65 64" fill="none">
  <g opacity="0.64">
    <path d="M45.7362 53.3333H13.6237C10.7141 53.3333 8.3334 50.9333 8.3334 48L8.33337 17.3334C8.33337 13.3067 10.7781 10.6667 14.7781 10.6667H18.6724C24.1114 10.6667 25.0236 10.4267 26.778 12.0001L30.5793 15.7867C31.5845 16.8 31.9198 17.36 37.2101 17.36H42.479C46.4467 17.36 48.3334 20 48.3334 24V32.0267" stroke="#F9F9F9" stroke-linecap="round" stroke-linejoin="round" stroke-dasharray="2 2"/>
    <path d="M9.66669 50.6667L14.268 35.52C15.027 33.4133 16.9898 32 19.1882 32H52.3997C55.1215 32 57.032 34.7467 56.0899 37.36L51.6407 49.8133C50.8818 51.92 48.9189 53.3333 46.7205 53.3333H13.5091" stroke="#F9F9F9" stroke-linecap="round" stroke-linejoin="round"/>
  </g>
</svg>