<svg width="24" height="24" viewBox="0 0 24 24" fill="none" xmlns="http://www.w3.org/2000/svg">
<path d="M8.53039 8.53024C8.82328 8.23735 8.82328 7.76247 8.53039 7.46958C8.2375 7.17669 7.76262 7.17669 7.46973 7.46958L8.53039 8.53024ZM4.00006 11.9999L3.46973 11.4696C3.32908 11.6102 3.25006 11.801 3.25006 11.9999C3.25006 12.1988 3.32908 12.3896 3.46973 12.5302L4.00006 11.9999ZM7.46973 16.5302C7.76262 16.8231 8.2375 16.8231 8.53039 16.5302C8.82328 16.2373 8.82328 15.7625 8.53039 15.4696L7.46973 16.5302ZM9.27892 18.7939C9.16512 19.1921 9.39574 19.6073 9.79402 19.7211C10.1923 19.8348 10.6074 19.6042 10.7212 19.2059L9.27892 18.7939ZM14.7212 5.20595C14.835 4.80767 14.6044 4.39256 14.2061 4.27877C13.8078 4.16497 13.3927 4.39559 13.2789 4.79387L14.7212 5.20595ZM20.0001 11.9999L20.5304 12.5302C20.671 12.3896 20.7501 12.1988 20.7501 11.9999C20.7501 11.801 20.671 11.6102 20.5304 11.4696L20.0001 11.9999ZM15.4697 15.4696C15.1768 15.7625 15.1768 16.2373 15.4697 16.5302C15.7626 16.8231 16.2375 16.8231 16.5304 16.5302L15.4697 15.4696ZM16.5304 7.46958C16.2375 7.17669 15.7626 7.17669 15.4697 7.46958C15.1768 7.76247 15.1768 8.23734 15.4697 8.53024L16.5304 7.46958ZM16.1769 9.23741C16.4698 9.5303 16.9447 9.5303 17.2376 9.23741C17.5305 8.94451 17.5305 8.46964 17.2376 8.17675L16.1769 9.23741ZM19.3589 10.2981C19.066 10.0052 18.5911 10.0052 18.2982 10.2981C18.0053 10.591 18.0053 11.0658 18.2982 11.3587L19.3589 10.2981ZM7.46973 7.46958L3.46973 11.4696L4.53039 12.5302L8.53039 8.53024L7.46973 7.46958ZM3.46973 12.5302L7.46973 16.5302L8.53039 15.4696L4.53039 11.4696L3.46973 12.5302ZM10.7212 19.2059L14.7212 5.20595L13.2789 4.79387L9.27892 18.7939L10.7212 19.2059ZM19.4697 11.4696L15.4697 15.4696L16.5304 16.5302L20.5304 12.5302L19.4697 11.4696ZM15.4697 8.53024L16.1769 9.23741L17.2376 8.17675L16.5304 7.46958L15.4697 8.53024ZM18.2982 11.3587L19.4697 12.5302L20.5304 11.4696L19.3589 10.2981L18.2982 11.3587Z" fill="#292556"/>
</svg>
