<svg width="24" height="24" viewBox="0 0 24 24" fill="none" xmlns="http://www.w3.org/2000/svg">
<path d="M5.4 10.0001V10.0001C4.22163 10.5357 3.63245 10.8036 3.39765 11.1377C3.034 11.6551 3.034 12.3451 3.39765 12.8626C3.63245 13.1967 4.22163 13.4645 5.4 14.0001V14.0001M5.4 10.0001V10.0001C4.22163 9.4645 3.63245 9.19669 3.39765 8.86259C3.034 8.34511 3.034 7.65513 3.39765 7.13766C3.63245 6.80355 4.22163 6.53574 5.4 6.00012L10.8939 3.50289C11.3771 3.28326 11.6187 3.17344 11.8739 3.15084C11.9582 3.14337 12.0429 3.14305 12.1273 3.14988C12.3826 3.17055 12.625 3.27854 13.1099 3.49453L15.4636 4.54304M5.4 10.0001L10.8827 12.4923C11.3707 12.7141 11.6146 12.8249 11.8722 12.847C11.9572 12.8543 12.0428 12.8543 12.1278 12.847C12.3854 12.8249 12.6293 12.7141 13.1173 12.4923L18.6 10.0001M5.4 14.0001V14.0001C4.22163 14.5357 3.63245 14.8036 3.39765 15.1377C3.034 15.6551 3.034 16.3451 3.39765 16.8626C3.63245 17.1967 4.22163 17.4645 5.4 18.0001L10.8827 20.4923C11.3707 20.7141 11.6146 20.8249 11.8722 20.847C11.9572 20.8543 12.0428 20.8543 12.1278 20.847C12.3854 20.8249 12.6293 20.7141 13.1173 20.4923L18.6 18.0001C19.7784 17.4645 20.3675 17.1967 20.6023 16.8626C20.966 16.3451 20.966 15.6551 20.6023 15.1377C20.3675 14.8036 19.7784 14.5357 18.6 14.0001V14.0001M5.4 14.0001L10.8827 16.4923C11.3707 16.7141 11.6146 16.8249 11.8722 16.847C11.9572 16.8543 12.0428 16.8543 12.1278 16.847C12.3854 16.8249 12.6293 16.7141 13.1173 16.4923L18.6 14.0001M18.6 14.0001V14.0001C19.7784 13.4645 20.3675 13.1967 20.6023 12.8626C20.966 12.3451 20.966 11.6551 20.6023 11.1377C20.3675 10.8036 19.7784 10.5357 18.6 10.0001V10.0001M18.6 10.0001L19.1842 9.73459C19.8673 9.42409 20.2088 9.26884 20.3821 9.11193C21.0397 8.51652 21.0397 7.48362 20.3822 6.88817C20.2089 6.73125 19.8674 6.57598 19.1843 6.26544V6.26544L19.0931 6.22427" stroke="#292556" stroke-width="1.5" stroke-linecap="round" stroke-linejoin="round"/>
</svg>
