<svg width="24" height="24" viewBox="0 0 24 24" fill="none" xmlns="http://www.w3.org/2000/svg">
<path d="M12.8703 17.2901L8.21808 20.1598C7.16915 20.8068 6.64468 21.1304 6.3893 20.9899C6.31178 20.9473 6.24696 20.8849 6.20145 20.809C6.05154 20.559 6.35516 20.0228 6.96241 18.9504L9.21879 14.9654C9.47562 14.5119 9.60404 14.2851 9.55226 14.0884C9.53581 14.0259 9.50742 13.9672 9.46865 13.9156C9.34658 13.7529 9.08905 13.7128 8.574 13.6327L5.23807 13.1136C4.40472 12.984 3.98805 12.9191 3.87277 12.6878C3.83714 12.6163 3.81915 12.5374 3.82032 12.4575C3.8241 12.1991 4.17164 11.9603 4.86671 11.4826L15.669 4.05905C16.7185 3.3378 17.2433 2.97718 17.5065 3.10774C17.5863 3.14732 17.6541 3.2075 17.7028 3.28205C17.8636 3.52797 17.5676 4.09171 16.9756 5.21918L14.6318 9.6829C14.4123 10.1008 14.3026 10.3098 14.3492 10.4951C14.3641 10.5542 14.3896 10.6102 14.4246 10.6601C14.5343 10.8165 14.7641 10.8702 15.2238 10.9777L18.8666 11.8291C19.6646 12.0156 20.0636 12.1088 20.1622 12.3445C20.1928 12.4175 20.2056 12.4967 20.1996 12.5755C20.1801 12.8303 19.8308 13.0445 19.1321 13.4728L16.29 15.215" stroke="#292556" stroke-width="1.5" stroke-linecap="round" stroke-linejoin="round"/>
</svg>
