<svg xmlns="http://www.w3.org/2000/svg" width="24" height="24" viewBox="0 0 24 24" fill="none">
<path d="M2.99997 12.0001C2.99997 9.67035 2.99997 8.5055 3.38057 7.58664C3.88804 6.3615 4.86141 5.38813 6.08655 4.88066C7.00541 4.50006 8.17026 4.50006 10.5 4.50006H13.5C15.8297 4.50006 16.9945 4.50006 17.9134 4.88066C19.1385 5.38813 20.1119 6.3615 20.6194 7.58664C21 8.5055 21 9.67035 21 12.0001V12.0001C21 14.3298 21 15.4946 20.6194 16.4135C20.1119 17.6386 19.1385 18.612 17.9134 19.1195C16.9945 19.5001 15.8297 19.5001 13.5 19.5001H10.5C8.17026 19.5001 7.00541 19.5001 6.08655 19.1195C4.86141 18.612 3.88804 17.6386 3.38057 16.4135C2.99997 15.4946 2.99997 14.3298 2.99997 12.0001V12.0001Z" stroke="#292556" stroke-width="1.5" stroke-linejoin="round"/>
<path d="M17.7458 9.60168C17.42 9.85744 17.3632 10.3289 17.619 10.6547C17.8748 10.9805 18.3462 11.0373 18.6721 10.7816L17.7458 9.60168ZM15.5022 13.227C15.8292 12.9727 15.8881 12.5015 15.6338 12.1745C15.3795 11.8476 14.9083 11.7887 14.5813 12.043L15.5022 13.227ZM8.96037 12.6351L8.49993 13.2272L8.96037 12.6351ZM2.54026 8.59209L8.49993 13.2272L9.42081 12.0431L3.46114 7.40804L2.54026 8.59209ZM18.6721 10.7816L21.4638 8.59L20.5376 7.41012L17.7458 9.60168L18.6721 10.7816ZM8.49993 13.2272C10.5593 14.8288 13.4429 14.8288 15.5022 13.227L14.5813 12.043C13.0637 13.2234 10.9385 13.2235 9.42081 12.0431L8.49993 13.2272Z" fill="#292556"/>
</svg>
