<svg width="24" height="24" viewBox="0 0 24 24" fill="none" xmlns="http://www.w3.org/2000/svg">
<path d="M14.8518 9.2346L15.069 9.37945C16.6364 10.4245 17.4201 10.947 17.5618 11.6588C17.6067 11.8844 17.6067 12.1167 17.5618 12.3423C17.42 13.0541 16.6363 13.5765 15.0688 14.6214L11.8975 16.7353C9.99926 18.0007 9.05012 18.6334 8.27424 18.414C8.03094 18.3452 7.80544 18.2245 7.61325 18.0602C7.00037 17.5363 7.00037 16.3956 7.00037 14.1143L7.00037 9.88591C7.00037 7.6043 7.00037 6.46349 7.6133 5.93957C7.80551 5.77528 8.03103 5.6546 8.27434 5.58582C9.05027 5.36648 9.99945 5.99933 11.8978 7.26504L12.3525 7.56817" stroke="#292556" stroke-width="1.5" stroke-linecap="round" stroke-linejoin="round"/>
</svg>
