<svg xmlns="http://www.w3.org/2000/svg" width="24" height="24" viewBox="0 0 24 24" fill="none">
<path d="M12 21.0004C16.9706 21.0004 21 16.9709 21 12.0004C21 10.759 20.7487 9.57626 20.2941 8.50038M12 21.0004C7.02944 21.0004 3 16.9709 3 12.0004C3 10.759 3.25134 9.57625 3.70591 8.50035M12 21.0004C14.412 19.3858 16 15.1208 16 12.0004C16 8.87995 14.412 4.61489 12 3.00037M12 21.0004C9.58803 19.3858 8 15.1208 8 12.0004C8 8.87995 9.58803 4.61489 12 3.00037M12 3.00037C8.27085 3.00037 5.07143 5.26842 3.70591 8.50035M12 3.00037C13.7609 3.00037 15.4038 3.5061 16.7911 4.38025M3.70591 8.50035C5.07143 11.7323 8.27085 14.0004 12 14.0004C15.7292 14.0004 18.9286 11.7323 20.2941 8.50038M20.2941 8.50038C20.1039 8.05011 19.878 7.61855 19.6201 7.20922" stroke="#292556" stroke-width="1.5" stroke-linecap="round" stroke-linejoin="round"/>
</svg>