<svg width="28" height="20" viewBox="0 0 28 20" fill="none" xmlns="http://www.w3.org/2000/svg">
<mask id="mask0_1095_5939" style="mask-type:alpha" maskUnits="userSpaceOnUse" x="12" y="0" width="16" height="20">
<rect width="15.9328" height="20" transform="matrix(-1 -8.74228e-08 -8.74228e-08 1 27.9326 0)" fill="black"/>
</mask>
<g mask="url(#mask0_1095_5939)">
<path d="M14.7756 8.13899L14.7756 12.0135L17.1567 12.0135L17.1567 8.13899L14.7756 8.13899ZM28.0878 26.2187L31.3174 23.3668L14.7756 10.0742L31.3174 -3.32442L28.2176 -6.17627L9.47961 8.89148L9.47961 11.205L28.0878 26.2187Z" fill="#F9F9F9"/>
</g>
<mask id="mask1_1095_5939" style="mask-type:alpha" maskUnits="userSpaceOnUse" x="0" y="0" width="16" height="20">
<rect x="0.0673828" width="15.9328" height="20" fill="black"/>
</mask>
<g mask="url(#mask1_1095_5939)">
<path d="M13.2244 8.13899L13.2244 12.0135L10.8433 12.0135L10.8433 8.13899L13.2244 8.13899ZM-0.0878492 26.2187L-3.31738 23.3668L13.2244 10.0742L-3.31738 -3.32442L-0.217609 -6.17627L18.5204 8.89148L18.5204 11.205L-0.0878492 26.2187Z" fill="#F9F9F9"/>
</g>
</svg>
