<svg xmlns="http://www.w3.org/2000/svg" width="19" height="18" viewBox="0 0 19 18" fill="none">
  <g clip-path="url(#clip0_1160_8113)">
    <path fill-rule="evenodd" clip-rule="evenodd" d="M9.47239 0C4.36009 0 0.227295 4.125 0.227295 9.22818C0.227295 13.3074 2.87532 16.7604 6.54883 17.9826C7.00812 18.0744 7.17635 17.784 7.17635 17.5397C7.17635 17.3257 7.16121 16.5924 7.16121 15.8284C4.58945 16.3785 4.0539 14.7283 4.0539 14.7283C3.6406 13.6588 3.02823 13.3839 3.02823 13.3839C2.18649 12.8186 3.08954 12.8186 3.08954 12.8186C4.02325 12.8797 4.51319 13.7659 4.51319 13.7659C5.33959 15.1714 6.59099 14.7283 7.17635 14.6882C7.16121 14.1037 6.77139 13.447 7.78873 13.2922C5.73757 13.0783 3.57948 12.2839 3.57948 8.73919C3.57948 7.73081 3.9466 6.90581 4.52833 6.26419C4.43654 6.03506 4.11503 5.08762 4.6203 3.81956C4.6203 3.81956 5.40091 3.57506 7.16102 4.76681C7.91459 4.56481 8.69173 4.46205 9.47239 4.46119C10.253 4.46119 11.0488 4.56825 11.7836 4.76681C13.5439 3.57506 14.3245 3.81956 14.3245 3.81956C14.8298 5.08762 14.508 6.03506 14.4163 6.26419C15.0133 6.90581 15.3653 7.73081 15.3653 8.73919C15.3653 12.2839 13.2072 13.0629 11.1407 13.2922C12.1474 13.4687 11.7682 14.1324 11.7682 15.0034C11.7531 16.2829 11.7531 17.2341 11.7531 17.5395C11.7531 17.784 11.9215 18.0744 12.3806 17.9827C16.0541 16.7602 18.7022 13.3074 18.7022 9.22818C18.7173 4.125 14.5694 0 9.47239 0Z" fill="#F9F9F9"/>
  </g>
  <defs>
    <clipPath id="clip0_1160_8113">
      <rect width="18.5455" height="18" fill="white" transform="translate(0.227295)"/>
    </clipPath>
  </defs>
</svg>