<svg width="303" height="160" viewBox="0 0 303 160" fill="none" xmlns="http://www.w3.org/2000/svg">
<path opacity="0.8" d="M131.852 68C131.852 63.5817 135.433 60 139.852 60H163.852C168.27 60 171.852 63.5817 171.852 68V92C171.852 96.4183 168.27 100 163.852 100H139.852C135.433 100 131.852 96.4183 131.852 92V68Z" fill="#242023"/>
<path opacity="0.8" fill-rule="evenodd" clip-rule="evenodd" d="M163.852 61H139.852C135.986 61 132.852 64.134 132.852 68V92C132.852 95.866 135.986 99 139.852 99H163.852C167.718 99 170.852 95.866 170.852 92V68C170.852 64.134 167.718 61 163.852 61ZM139.852 60C135.433 60 131.852 63.5817 131.852 68V92C131.852 96.4183 135.433 100 139.852 100H163.852C168.27 100 171.852 96.4183 171.852 92V68C171.852 63.5817 168.27 60 163.852 60H139.852Z" fill="#F9F9F9"/>
<path opacity="0.32" d="M88.7031 28C88.7031 34.6274 83.3305 40 76.7031 40C70.0757 40 64.7031 34.6274 64.7031 28C64.7031 21.3726 70.0757 16 76.7031 16C83.3305 16 88.7031 21.3726 88.7031 28Z" fill="#242023"/>
<path opacity="0.32" fill-rule="evenodd" clip-rule="evenodd" d="M88.6667 28.9424L87.6697 28.865C87.6918 28.5798 87.7031 28.2913 87.7031 28C87.7031 27.7087 87.6918 27.4202 87.6697 27.135L88.6667 27.0576C88.6908 27.3685 88.7031 27.6828 88.7031 28C88.7031 28.3172 88.6908 28.6315 88.6667 28.9424ZM88.3741 25.1974L87.4015 25.4301C87.2664 24.8651 87.0875 24.317 86.8688 23.7896L87.7926 23.4065C88.0313 23.9823 88.2265 24.5806 88.3741 25.1974ZM86.9364 21.7293L86.0842 22.2526C85.7819 21.7603 85.4419 21.2936 85.0681 20.8563L85.8282 20.2065C86.2358 20.6833 86.6066 21.1923 86.9364 21.7293ZM84.4966 18.8749L83.8468 19.635C83.4096 19.2612 82.9428 18.9212 82.4505 18.6189L82.9738 17.7668C83.5108 18.0965 84.0199 18.4674 84.4966 18.8749ZM81.2966 16.9106L80.9135 17.8343C80.3861 17.6156 79.838 17.4368 79.273 17.3016L79.5057 16.329C80.1225 16.4766 80.7209 16.6718 81.2966 16.9106ZM77.6456 16.0365L77.5681 17.0335C77.2829 17.0113 76.9944 17 76.7031 17C76.4118 17 76.1234 17.0113 75.8381 17.0335L75.7607 16.0365C76.0717 16.0123 76.386 16 76.7031 16C77.0203 16 77.3346 16.0123 77.6456 16.0365ZM73.9006 16.329L74.1333 17.3016C73.5682 17.4368 73.0201 17.6156 72.4927 17.8343L72.1097 16.9106C72.6854 16.6718 73.2837 16.4766 73.9006 16.329ZM70.4324 17.7668C69.8954 18.0965 69.3864 18.4674 68.9097 18.8749L69.5595 19.635C69.9967 19.2612 70.4635 18.9212 70.9557 18.6189L70.4324 17.7668ZM67.578 20.2065L68.3381 20.8563C67.9644 21.2936 67.6243 21.7603 67.322 22.2526L66.4699 21.7293C66.7997 21.1923 67.1705 20.6833 67.578 20.2065ZM65.6137 23.4065L66.5374 23.7896C66.3187 24.317 66.1399 24.8651 66.0047 25.4301L65.0322 25.1974C65.1797 24.5806 65.3749 23.9823 65.6137 23.4065ZM64.7396 27.0576C64.7154 27.3685 64.7031 27.6828 64.7031 28C64.7031 28.3172 64.7154 28.6315 64.7396 28.9424L65.7366 28.865C65.7144 28.5798 65.7031 28.2913 65.7031 28C65.7031 27.7087 65.7144 27.4202 65.7366 27.135L64.7396 27.0576ZM65.0322 30.8026L66.0047 30.5699C66.1399 31.1349 66.3187 31.683 66.5374 32.2104L65.6137 32.5935C65.3749 32.0177 65.1797 31.4194 65.0322 30.8026ZM66.4699 34.2707L67.322 33.7474C67.6243 34.2397 67.9644 34.7064 68.3381 35.1437L67.578 35.7935C67.1705 35.3167 66.7997 34.8077 66.4699 34.2707ZM68.9097 37.1251L69.5595 36.365C69.9967 36.7388 70.4635 37.0788 70.9557 37.3811L70.4324 38.2332C69.8954 37.9035 69.3864 37.5326 68.9097 37.1251ZM72.1097 39.0894L72.4927 38.1657C73.0201 38.3844 73.5682 38.5632 74.1333 38.6984L73.9006 39.671C73.2837 39.5234 72.6854 39.3282 72.1097 39.0894ZM75.7607 39.9635L75.8381 38.9665C76.1234 38.9887 76.4118 39 76.7031 39C76.9944 39 77.2829 38.9887 77.5681 38.9665L77.6456 39.9635C77.3346 39.9877 77.0203 40 76.7031 40C76.386 40 76.0717 39.9877 75.7607 39.9635ZM79.5057 39.671L79.273 38.6984C79.838 38.5632 80.3861 38.3844 80.9135 38.1657L81.2966 39.0894C80.7209 39.3282 80.1225 39.5234 79.5057 39.671ZM82.9738 38.2332L82.4505 37.3811C82.9428 37.0788 83.4096 36.7388 83.8468 36.365L84.4966 37.1251C84.0199 37.5326 83.5108 37.9035 82.9738 38.2332ZM85.8282 35.7935L85.0681 35.1437C85.4419 34.7064 85.7819 34.2397 86.0842 33.7474L86.9364 34.2707C86.6066 34.8077 86.2358 35.3167 85.8282 35.7935ZM87.7926 32.5935L86.8688 32.2104C87.0875 31.683 87.2664 31.1349 87.4015 30.5699L88.3741 30.8026C88.2265 31.4194 88.0313 32.0177 87.7926 32.5935Z" fill="#F9F9F9"/>
<path opacity="0.32" d="M238.703 28C238.703 34.6274 233.331 40 226.703 40C220.076 40 214.703 34.6274 214.703 28C214.703 21.3726 220.076 16 226.703 16C233.331 16 238.703 21.3726 238.703 28Z" fill="#242023"/>
<path opacity="0.32" fill-rule="evenodd" clip-rule="evenodd" d="M238.667 28.9424L237.67 28.865C237.692 28.5798 237.703 28.2913 237.703 28C237.703 27.7087 237.692 27.4202 237.67 27.135L238.667 27.0576C238.691 27.3685 238.703 27.6828 238.703 28C238.703 28.3172 238.691 28.6315 238.667 28.9424ZM238.374 25.1974L237.402 25.4301C237.266 24.8651 237.088 24.317 236.869 23.7896L237.793 23.4065C238.031 23.9823 238.227 24.5806 238.374 25.1974ZM236.936 21.7293L236.084 22.2526C235.782 21.7603 235.442 21.2936 235.068 20.8563L235.828 20.2065C236.236 20.6833 236.607 21.1923 236.936 21.7293ZM234.497 18.8749L233.847 19.635C233.41 19.2612 232.943 18.9212 232.451 18.6189L232.974 17.7668C233.511 18.0965 234.02 18.4674 234.497 18.8749ZM231.297 16.9106L230.914 17.8343C230.386 17.6156 229.838 17.4368 229.273 17.3016L229.506 16.329C230.123 16.4766 230.721 16.6718 231.297 16.9106ZM227.646 16.0365L227.568 17.0335C227.283 17.0113 226.994 17 226.703 17C226.412 17 226.123 17.0113 225.838 17.0335L225.761 16.0365C226.072 16.0123 226.386 16 226.703 16C227.02 16 227.335 16.0123 227.646 16.0365ZM223.901 16.329L224.133 17.3016C223.568 17.4368 223.02 17.6156 222.493 17.8343L222.11 16.9106C222.685 16.6718 223.284 16.4766 223.901 16.329ZM220.432 17.7668C219.895 18.0965 219.386 18.4674 218.91 18.8749L219.559 19.635C219.997 19.2612 220.463 18.9212 220.956 18.6189L220.432 17.7668ZM217.578 20.2065L218.338 20.8563C217.964 21.2936 217.624 21.7603 217.322 22.2526L216.47 21.7293C216.8 21.1923 217.17 20.6833 217.578 20.2065ZM215.614 23.4065L216.537 23.7896C216.319 24.317 216.14 24.8651 216.005 25.4301L215.032 25.1974C215.18 24.5806 215.375 23.9823 215.614 23.4065ZM214.74 27.0576C214.715 27.3685 214.703 27.6828 214.703 28C214.703 28.3172 214.715 28.6315 214.74 28.9424L215.737 28.865C215.714 28.5798 215.703 28.2913 215.703 28C215.703 27.7087 215.714 27.4202 215.737 27.135L214.74 27.0576ZM215.032 30.8026L216.005 30.5699C216.14 31.1349 216.319 31.683 216.537 32.2104L215.614 32.5935C215.375 32.0177 215.18 31.4194 215.032 30.8026ZM216.47 34.2707L217.322 33.7474C217.624 34.2397 217.964 34.7064 218.338 35.1437L217.578 35.7935C217.17 35.3167 216.8 34.8077 216.47 34.2707ZM218.91 37.1251L219.559 36.365C219.997 36.7388 220.463 37.0788 220.956 37.3811L220.432 38.2332C219.895 37.9035 219.386 37.5326 218.91 37.1251ZM222.11 39.0894L222.493 38.1657C223.02 38.3844 223.568 38.5632 224.133 38.6984L223.901 39.671C223.284 39.5234 222.685 39.3282 222.11 39.0894ZM225.761 39.9635L225.838 38.9665C226.123 38.9887 226.412 39 226.703 39C226.994 39 227.283 38.9887 227.568 38.9665L227.646 39.9635C227.335 39.9877 227.02 40 226.703 40C226.386 40 226.072 39.9877 225.761 39.9635ZM229.506 39.671L229.273 38.6984C229.838 38.5632 230.386 38.3844 230.914 38.1657L231.297 39.0894C230.721 39.3282 230.123 39.5234 229.506 39.671ZM232.974 38.2332L232.451 37.3811C232.943 37.0788 233.41 36.7388 233.847 36.365L234.497 37.1251C234.02 37.5326 233.511 37.9035 232.974 38.2332ZM235.828 35.7935L235.068 35.1437C235.442 34.7064 235.782 34.2397 236.084 33.7474L236.936 34.2707C236.607 34.8077 236.236 35.3167 235.828 35.7935ZM237.793 32.5935L236.869 32.2104C237.088 31.683 237.266 31.1349 237.402 30.5699L238.374 30.8026C238.227 31.4194 238.031 32.0177 237.793 32.5935Z" fill="#F9F9F9"/>
<path opacity="0.8" d="M242.703 128C242.703 136.837 235.54 144 226.703 144C217.867 144 210.703 136.837 210.703 128C210.703 119.163 217.867 112 226.703 112C235.54 112 242.703 119.163 242.703 128Z" fill="#242023"/>
<path opacity="0.8" fill-rule="evenodd" clip-rule="evenodd" d="M226.703 143C234.987 143 241.703 136.284 241.703 128C241.703 119.716 234.987 113 226.703 113C218.419 113 211.703 119.716 211.703 128C211.703 136.284 218.419 143 226.703 143ZM226.703 144C235.54 144 242.703 136.837 242.703 128C242.703 119.163 235.54 112 226.703 112C217.867 112 210.703 119.163 210.703 128C210.703 136.837 217.867 144 226.703 144Z" fill="#F9F9F9"/>
<path opacity="0.8" d="M167.852 16.1251C167.852 24.9617 160.688 32.1251 151.852 32.1251C143.015 32.1251 135.852 24.9617 135.852 16.1251C135.852 7.28857 143.015 0.125122 151.852 0.125122C160.688 0.125122 167.852 7.28857 167.852 16.1251Z" fill="#242023"/>
<path opacity="0.8" fill-rule="evenodd" clip-rule="evenodd" d="M151.852 31.1251C160.136 31.1251 166.852 24.4094 166.852 16.1251C166.852 7.84085 160.136 1.12512 151.852 1.12512C143.567 1.12512 136.852 7.84085 136.852 16.1251C136.852 24.4094 143.567 31.1251 151.852 31.1251ZM151.852 32.1251C160.688 32.1251 167.852 24.9617 167.852 16.1251C167.852 7.28857 160.688 0.125122 151.852 0.125122C143.015 0.125122 135.852 7.28857 135.852 16.1251C135.852 24.9617 143.015 32.1251 151.852 32.1251Z" fill="#F9F9F9"/>
<path opacity="0.32" d="M163.852 148C163.852 154.627 158.479 160 151.852 160C145.224 160 139.852 154.627 139.852 148C139.852 141.373 145.224 136 151.852 136C158.479 136 163.852 141.373 163.852 148Z" fill="#242023"/>
<path opacity="0.32" fill-rule="evenodd" clip-rule="evenodd" d="M163.815 148.942L162.818 148.865C162.84 148.58 162.852 148.291 162.852 148C162.852 147.709 162.84 147.42 162.818 147.135L163.815 147.058C163.839 147.369 163.852 147.683 163.852 148C163.852 148.317 163.839 148.631 163.815 148.942ZM163.523 145.197L162.55 145.43C162.415 144.865 162.236 144.317 162.017 143.79L162.941 143.407C163.18 143.982 163.375 144.581 163.523 145.197ZM162.085 141.729L161.233 142.253C160.93 141.76 160.59 141.294 160.217 140.856L160.977 140.207C161.384 140.683 161.755 141.192 162.085 141.729ZM159.645 138.875L158.995 139.635C158.558 139.261 158.091 138.921 157.599 138.619L158.122 137.767C158.659 138.097 159.168 138.467 159.645 138.875ZM156.445 136.911L156.062 137.834C155.535 137.616 154.986 137.437 154.421 137.302L154.654 136.329C155.271 136.477 155.869 136.672 156.445 136.911ZM152.794 136.036L152.717 137.033C152.431 137.011 152.143 137 151.852 137C151.56 137 151.272 137.011 150.987 137.033L150.909 136.036C151.22 136.012 151.534 136 151.852 136C152.169 136 152.483 136.012 152.794 136.036ZM149.049 136.329L149.282 137.302C148.717 137.437 148.169 137.616 147.641 137.834L147.258 136.911C147.834 136.672 148.432 136.477 149.049 136.329ZM145.581 137.767C145.044 138.097 144.535 138.467 144.058 138.875L144.708 139.635C145.145 139.261 145.612 138.921 146.104 138.619L145.581 137.767ZM142.726 140.207L143.487 140.856C143.113 141.294 142.773 141.76 142.47 142.253L141.618 141.729C141.948 141.192 142.319 140.683 142.726 140.207ZM140.762 143.407L141.686 143.79C141.467 144.317 141.288 144.865 141.153 145.43L140.181 145.197C140.328 144.581 140.523 143.982 140.762 143.407ZM139.888 147.058C139.864 147.369 139.852 147.683 139.852 148C139.852 148.317 139.864 148.631 139.888 148.942L140.885 148.865C140.863 148.58 140.852 148.291 140.852 148C140.852 147.709 140.863 147.42 140.885 147.135L139.888 147.058ZM140.181 150.803L141.153 150.57C141.288 151.135 141.467 151.683 141.686 152.21L140.762 152.593C140.523 152.018 140.328 151.419 140.181 150.803ZM141.618 154.271L142.47 153.747C142.773 154.24 143.113 154.706 143.487 155.144L142.726 155.793C142.319 155.317 141.948 154.808 141.618 154.271ZM144.058 157.125L144.708 156.365C145.145 156.739 145.612 157.079 146.104 157.381L145.581 158.233C145.044 157.903 144.535 157.533 144.058 157.125ZM147.258 159.089L147.641 158.166C148.169 158.384 148.717 158.563 149.282 158.698L149.049 159.671C148.432 159.523 147.834 159.328 147.258 159.089ZM150.909 159.964L150.987 158.967C151.272 158.989 151.56 159 151.852 159C152.143 159 152.431 158.989 152.717 158.967L152.794 159.964C152.483 159.988 152.169 160 151.852 160C151.534 160 151.22 159.988 150.909 159.964ZM154.654 159.671L154.421 158.698C154.986 158.563 155.535 158.384 156.062 158.166L156.445 159.089C155.869 159.328 155.271 159.523 154.654 159.671ZM158.122 158.233L157.599 157.381C158.091 157.079 158.558 156.739 158.995 156.365L159.645 157.125C159.168 157.533 158.659 157.903 158.122 158.233ZM160.977 155.793L160.217 155.144C160.59 154.706 160.93 154.24 161.233 153.747L162.085 154.271C161.755 154.808 161.384 155.317 160.977 155.793ZM162.941 152.593L162.017 152.21C162.236 151.683 162.415 151.135 162.55 150.57L163.523 150.803C163.375 151.419 163.18 152.018 162.941 152.593Z" fill="#F9F9F9"/>
<path opacity="0.32" d="M303 80C303 86.6274 297.627 92 291 92C284.373 92 279 86.6274 279 80C279 73.3726 284.373 68 291 68C297.627 68 303 73.3726 303 80Z" fill="#242023"/>
<path opacity="0.32" fill-rule="evenodd" clip-rule="evenodd" d="M302.964 80.9424L301.967 80.865C301.989 80.5798 302 80.2913 302 80C302 79.7087 301.989 79.4202 301.967 79.135L302.964 79.0576C302.988 79.3685 303 79.6828 303 80C303 80.3172 302.988 80.6315 302.964 80.9424ZM302.671 77.1974L301.698 77.4301C301.563 76.8651 301.384 76.317 301.166 75.7896L302.089 75.4065C302.328 75.9823 302.523 76.5806 302.671 77.1974ZM301.233 73.7293L300.381 74.2526C300.079 73.7603 299.739 73.2936 299.365 72.8563L300.125 72.2065C300.533 72.6833 300.903 73.1923 301.233 73.7293ZM298.793 70.8749L298.144 71.635C297.706 71.2612 297.24 70.9212 296.747 70.6189L297.271 69.7668C297.808 70.0965 298.317 70.4674 298.793 70.8749ZM295.593 68.9106L295.21 69.8343C294.683 69.6156 294.135 69.4368 293.57 69.3016L293.803 68.329C294.419 68.4766 295.018 68.6718 295.593 68.9106ZM291.942 68.0365L291.865 69.0335C291.58 69.0113 291.291 69 291 69C290.709 69 290.42 69.0113 290.135 69.0335L290.058 68.0365C290.369 68.0123 290.683 68 291 68C291.317 68 291.631 68.0123 291.942 68.0365ZM288.197 68.329L288.43 69.3016C287.865 69.4368 287.317 69.6156 286.79 69.8343L286.407 68.9106C286.982 68.6718 287.581 68.4766 288.197 68.329ZM284.729 69.7668C284.192 70.0965 283.683 70.4674 283.207 70.8749L283.856 71.635C284.294 71.2612 284.76 70.9212 285.253 70.6189L284.729 69.7668ZM281.875 72.2065L282.635 72.8563C282.261 73.2936 281.921 73.7603 281.619 74.2526L280.767 73.7293C281.097 73.1923 281.467 72.6833 281.875 72.2065ZM279.911 75.4065L280.834 75.7896C280.616 76.317 280.437 76.8651 280.302 77.4301L279.329 77.1974C279.477 76.5806 279.672 75.9823 279.911 75.4065ZM279.036 79.0576C279.012 79.3685 279 79.6828 279 80C279 80.3172 279.012 80.6315 279.036 80.9424L280.033 80.865C280.011 80.5798 280 80.2913 280 80C280 79.7087 280.011 79.4202 280.033 79.135L279.036 79.0576ZM279.329 82.8026L280.302 82.5699C280.437 83.1349 280.616 83.683 280.834 84.2104L279.911 84.5935C279.672 84.0177 279.477 83.4194 279.329 82.8026ZM280.767 86.2707L281.619 85.7474C281.921 86.2397 282.261 86.7064 282.635 87.1437L281.875 87.7935C281.467 87.3167 281.097 86.8077 280.767 86.2707ZM283.207 89.1251L283.856 88.365C284.294 88.7388 284.76 89.0788 285.253 89.3811L284.729 90.2332C284.192 89.9035 283.683 89.5326 283.207 89.1251ZM286.407 91.0894L286.79 90.1657C287.317 90.3844 287.865 90.5632 288.43 90.6984L288.197 91.671C287.581 91.5234 286.982 91.3282 286.407 91.0894ZM290.058 91.9635L290.135 90.9665C290.42 90.9887 290.709 91 291 91C291.291 91 291.58 90.9887 291.865 90.9665L291.942 91.9635C291.631 91.9877 291.317 92 291 92C290.683 92 290.369 91.9877 290.058 91.9635ZM293.803 91.671L293.57 90.6984C294.135 90.5632 294.683 90.3844 295.21 90.1657L295.593 91.0894C295.018 91.3282 294.419 91.5234 293.803 91.671ZM297.271 90.2332L296.747 89.3811C297.24 89.0788 297.706 88.7388 298.144 88.365L298.793 89.1251C298.317 89.5326 297.808 89.9035 297.271 90.2332ZM300.125 87.7935L299.365 87.1437C299.739 86.7064 300.079 86.2397 300.381 85.7474L301.233 86.2707C300.903 86.8077 300.533 87.3167 300.125 87.7935ZM302.089 84.5935L301.166 84.2104C301.384 83.683 301.563 83.1349 301.698 82.5699L302.671 82.8026C302.523 83.4194 302.328 84.0177 302.089 84.5935Z" fill="#F9F9F9"/>
<path opacity="0.8" fill-rule="evenodd" clip-rule="evenodd" d="M33.326 80.6251H32.3308V79.6251H33.326V80.6251ZM37.3068 80.6251H35.3164V79.6251H37.3068V80.6251ZM41.2877 80.6251H39.2973V79.6251H41.2877V80.6251ZM45.2685 80.6251H43.2781V79.6251H45.2685V80.6251ZM49.2493 80.6251H47.2589V79.6251H49.2493V80.6251ZM53.2302 80.6251H51.2398V79.6251H53.2302V80.6251ZM57.211 80.6251H55.2206V79.6251H57.211V80.6251ZM61.1918 80.6251H59.2014V79.6251H61.1918V80.6251ZM65.1727 80.6251H63.1822V79.6251H65.1727V80.6251ZM69.1535 80.6251H67.1631V79.6251H69.1535V80.6251ZM73.1343 80.6251H71.1439V79.6251H73.1343V80.6251ZM77.1151 80.6251H75.1247V79.6251H77.1151V80.6251ZM81.096 80.6251H79.1056V79.6251H81.096V80.6251ZM85.0768 80.6251H83.0864V79.6251H85.0768V80.6251ZM89.0576 80.6251H87.0672V79.6251H89.0576V80.6251ZM93.0385 80.6251H91.048V79.6251H93.0385V80.6251ZM97.0193 80.6251H95.0289V79.6251H97.0193V80.6251ZM101 80.6251H99.0097V79.6251H101V80.6251ZM104.981 80.6251H102.991V79.6251H104.981V80.6251ZM108.962 80.6251H106.971V79.6251H108.962V80.6251ZM112.943 80.6251H110.952V79.6251H112.943V80.6251ZM116.923 80.6251H114.933V79.6251H116.923V80.6251ZM120.904 80.6251H118.914V79.6251H120.904V80.6251ZM124.885 80.6251H122.895V79.6251H124.885V80.6251ZM128.866 80.6251H126.876V79.6251H128.866V80.6251ZM131.852 80.6251H130.856V79.6251H131.852V80.6251Z" fill="#F9F9F9"/>
<path opacity="0.32" fill-rule="evenodd" clip-rule="evenodd" d="M172.844 80.1874L171.852 80.1874L171.852 79.1874L172.844 79.1874L172.844 80.1874ZM176.812 80.1874L174.828 80.1874L174.828 79.1874L176.812 79.1874L176.812 80.1874ZM180.781 80.1874L178.796 80.1874L178.796 79.1874L180.781 79.1874L180.781 80.1874ZM184.749 80.1874L182.765 80.1874L182.765 79.1874L184.749 79.1874L184.749 80.1874ZM188.718 80.1874L186.733 80.1874L186.733 79.1874L188.718 79.1874L188.718 80.1874ZM192.686 80.1874L190.702 80.1874L190.702 79.1874L192.686 79.1874L192.686 80.1874ZM196.654 80.1874L194.67 80.1874L194.67 79.1874L196.654 79.1874L196.654 80.1874ZM200.623 80.1874L198.639 80.1874L198.639 79.1874L200.623 79.1874L200.623 80.1874ZM204.591 80.1874L202.607 80.1874L202.607 79.1874L204.591 79.1874L204.591 80.1874ZM208.56 80.1874L206.576 80.1874L206.576 79.1874L208.56 79.1874L208.56 80.1874ZM212.528 80.1874L210.544 80.1874L210.544 79.1874L212.528 79.1874L212.528 80.1874ZM216.497 80.1874L214.513 80.1874L214.513 79.1874L216.497 79.1874L216.497 80.1874ZM220.465 80.1874L218.481 80.1874L218.481 79.1874L220.465 79.1874L220.465 80.1874ZM224.434 80.1874L222.449 80.1874L222.449 79.1874L224.434 79.1874L224.434 80.1874ZM228.402 80.1874L226.418 80.1874L226.418 79.1874L228.402 79.1874L228.402 80.1874ZM232.371 80.1874L230.386 80.1874L230.386 79.1874L232.371 79.1874L232.371 80.1874ZM236.339 80.1874L234.355 80.1874L234.355 79.1874L236.339 79.1874L236.339 80.1874ZM240.308 80.1874L238.323 80.1874L238.323 79.1874L240.308 79.1874L240.308 80.1874ZM244.276 80.1874L242.292 80.1874L242.292 79.1874L244.276 79.1874L244.276 80.1874ZM248.244 80.1874L246.26 80.1874L246.26 79.1874L248.244 79.1874L248.244 80.1874ZM252.213 80.1874L250.229 80.1874L250.229 79.1874L252.213 79.1874L252.213 80.1874ZM256.181 80.1874L254.197 80.1874L254.197 79.1874L256.181 79.1874L256.181 80.1874ZM260.15 80.1874L258.166 80.1874L258.166 79.1874L260.15 79.1874L260.15 80.1874ZM264.118 80.1874L262.134 80.1874L262.134 79.1874L264.118 79.1874L264.118 80.1874ZM268.087 80.1874L266.102 80.1874L266.102 79.1874L268.087 79.1874L268.087 80.1874ZM272.055 80.1874L270.071 80.1874L270.071 79.1874L272.055 79.1874L272.055 80.1874ZM276.024 80.1874L274.039 80.1874L274.039 79.1874L276.024 79.1874L276.024 80.1874ZM279 80.1874L278.008 80.1874L278.008 79.1874L279 79.1874L279 80.1874Z" fill="#F9F9F9"/>
<path opacity="0.8" fill-rule="evenodd" clip-rule="evenodd" d="M151.352 32.7108L151.352 31.6766L152.352 31.6766L152.352 32.7108L151.352 32.7108ZM151.352 36.8476L151.352 34.7792L152.352 34.7792L152.352 36.8476L151.352 36.8476ZM151.352 40.9845L151.352 38.9161L152.352 38.9161L152.352 40.9845L151.352 40.9845ZM151.352 45.1214L151.352 43.0529L152.352 43.0529L152.352 45.1214L151.352 45.1214ZM151.352 49.2582L151.352 47.1898L152.352 47.1898L152.352 49.2582L151.352 49.2582ZM151.352 53.3951L151.352 51.3267L152.352 51.3267L152.352 53.3951L151.352 53.3951ZM151.352 57.5319L151.352 55.4635L152.352 55.4635L152.352 57.5319L151.352 57.5319ZM151.352 60.6346L151.352 59.6004L152.352 59.6004L152.352 60.6346L151.352 60.6346Z" fill="#F9F9F9"/>
<path opacity="0.32" fill-rule="evenodd" clip-rule="evenodd" d="M151.352 101L151.352 100L152.352 100L152.352 101L151.352 101ZM151.352 105L151.352 103L152.352 103L152.352 105L151.352 105ZM151.352 109L151.352 107L152.352 107L152.352 109L151.352 109ZM151.352 113L151.352 111L152.352 111L152.352 113L151.352 113ZM151.352 117L151.352 115L152.352 115L152.352 117L151.352 117ZM151.352 121L151.352 119L152.352 119L152.352 121L151.352 121ZM151.352 125L151.352 123L152.352 123L152.352 125L151.352 125ZM151.352 129L151.352 127L152.352 127L152.352 129L151.352 129ZM151.352 133L151.352 131L152.352 131L152.352 133L151.352 133ZM151.352 136L151.352 135L152.352 135L152.352 136L151.352 136Z" fill="#F9F9F9"/>
<path opacity="0.8" fill-rule="evenodd" clip-rule="evenodd" d="M172.829 80.1874H171.852V79.1874H172.829V80.1874ZM176.738 80.1874H174.783V79.1874H176.738V80.1874ZM180.647 80.1874H178.693V79.1874H180.647V80.1874ZM184.556 80.1874H182.602V79.1874H184.556V80.1874ZM188.465 80.1874H186.511V79.1874H188.465V80.1874ZM192.374 80.1874H190.42V79.1874H192.374V80.1874ZM196.284 80.1874H194.329V79.1874H196.284V80.1874ZM200.193 80.1874H198.238V79.1874H200.193V80.1874ZM204.102 80.1874H202.147V79.1874H204.102V80.1874ZM208.011 80.1874H206.056V79.1874H208.011V80.1874ZM211.92 80.1874H209.965V79.1874H211.92V80.1874ZM215.829 80.1874H213.875V79.1874H215.829V80.1874ZM218.761 80.1874H217.784V79.1874H218.761C219.137 79.1874 219.507 79.2118 219.871 79.2592L219.741 80.2508C219.421 80.209 219.093 80.1874 218.761 80.1874ZM223.327 81.7366C222.81 81.3399 222.241 81.009 221.632 80.7563L222.015 79.8326C222.706 80.1192 223.351 80.4944 223.936 80.9437L223.327 81.7366ZM225.692 84.8166C225.439 84.2071 225.108 83.638 224.712 83.1218L225.505 82.5124C225.954 83.0972 226.329 83.7422 226.616 84.4335L225.692 84.8166ZM226.261 87.6874C226.261 87.3549 226.239 87.0278 226.198 86.7072L227.189 86.5778C227.237 86.9412 227.261 87.3116 227.261 87.6874V88.7143H226.261V87.6874ZM226.261 92.8221V90.7682H227.261V92.8221H226.261ZM226.261 96.9298V94.8759H227.261V96.9298H226.261ZM226.261 101.038V98.9837H227.261V101.038H226.261ZM226.261 105.145V103.091H227.261V105.145H226.261ZM226.261 109.253V107.199H227.261V109.253H226.261ZM226.261 112.334V111.307H227.261V112.334H226.261Z" fill="#F9F9F9"/>
<path opacity="0.32" fill-rule="evenodd" clip-rule="evenodd" d="M172.849 79.1874H171.872V80.1874H172.849V79.1874ZM176.756 79.1874H174.803V80.1874H176.756V79.1874ZM180.664 79.1874H178.71V80.1874H180.664V79.1874ZM184.571 79.1874H182.618V80.1874H184.571V79.1874ZM188.479 79.1874H186.525V80.1874H188.479V79.1874ZM192.386 79.1874H190.432V80.1874H192.386V79.1874ZM196.293 79.1874H194.34V80.1874H196.293V79.1874ZM200.201 79.1874H198.247V80.1874H200.201V79.1874ZM204.108 79.1874H202.155V80.1874H204.108V79.1874ZM208.016 79.1874H206.062V80.1874H208.016V79.1874ZM211.923 79.1874H209.969V80.1874H211.923V79.1874ZM215.83 79.1874H213.877V80.1874H215.83V79.1874ZM218.761 79.1874H217.784V80.1874H218.761C219.137 80.1874 219.507 80.163 219.871 80.1156L219.741 79.124C219.421 79.1658 219.093 79.1874 218.761 79.1874ZM223.327 77.6381C222.81 78.0348 222.241 78.3657 221.632 78.6185L222.015 79.5422C222.706 79.2555 223.351 78.8804 223.936 78.431L223.327 77.6381ZM225.692 74.5582C225.439 75.1676 225.108 75.7367 224.712 76.253L225.505 76.8623C225.954 76.2776 226.329 75.6325 226.616 74.9412L225.692 74.5582ZM226.261 71.6874C226.261 72.0198 226.239 72.347 226.198 72.6676L227.189 72.7969C227.237 72.4336 227.261 72.0632 227.261 71.6874V70.6954H226.261V71.6874ZM226.261 66.7274V68.7114H227.261V66.7274H226.261ZM226.261 62.7594V64.7434H227.261V62.7594H226.261ZM226.261 58.7915V60.7754H227.261V58.7915H226.261ZM226.261 54.8235V56.8075H227.261V54.8235H226.261ZM226.261 50.8555V52.8395H227.261V50.8555H226.261ZM226.261 46.8875V48.8715H227.261V46.8875H226.261ZM226.261 42.9195V44.9035H227.261V42.9195H226.261ZM226.261 39.9436V40.9355H227.261V39.9436H226.261Z" fill="#F9F9F9"/>
<path opacity="0.32" fill-rule="evenodd" clip-rule="evenodd" d="M95.4077 79.6251H96.3809V80.6251H95.4077V79.6251ZM91.5151 79.6251H93.4614V80.6251H91.5151V79.6251ZM87.6225 79.6251H89.5688V80.6251H87.6225V79.6251ZM84.7031 79.6251H85.6762V80.6251H84.7031C84.3273 80.6251 83.9569 80.6007 83.5936 80.5533L83.7229 79.5617C84.0435 79.6035 84.3706 79.6251 84.7031 79.6251ZM80.1375 78.0759C80.6537 78.4726 81.2229 78.8035 81.8323 79.0562L81.4493 79.9799C80.758 79.6933 80.1129 79.3181 79.5282 78.8688L80.1375 78.0759ZM77.772 74.9959C78.0247 75.6054 78.3556 76.1745 78.7524 76.6907L77.9594 77.3001C77.5101 76.7153 77.1349 76.0703 76.8483 75.379L77.772 74.9959ZM77.2031 72.1251C77.2031 72.4576 77.2247 72.7847 77.2665 73.1053L76.2749 73.2347C76.2275 72.8713 76.2031 72.5009 76.2031 72.1251V71.1064H77.2031V72.1251ZM77.2031 67.0316V69.069H76.2031V67.0316H77.2031ZM77.2031 62.9568V64.9942H76.2031V62.9568H77.2031ZM77.2031 58.882V60.9194H76.2031V58.882H77.2031ZM77.2031 54.8072V56.8446H76.2031V54.8072H77.2031ZM77.2031 50.7324V52.7698H76.2031V50.7324H77.2031ZM77.2031 46.6576V48.695H76.2031V46.6576H77.2031ZM77.2031 42.5828V44.6202H76.2031V42.5828H77.2031ZM77.2031 39.5267V40.5454H76.2031V39.5267H77.2031Z" fill="#F9F9F9"/>
<path opacity="0.32" fill-rule="evenodd" clip-rule="evenodd" d="M95.4077 81.0267H96.3809V80.0267H95.4077V81.0267ZM91.5151 81.0267H93.4614V80.0267H91.5151V81.0267ZM87.6225 81.0267H89.5688V80.0267H87.6225V81.0267ZM84.7031 81.0267H85.6762V80.0267H84.7031C84.3273 80.0267 83.9569 80.0512 83.5936 80.0986L83.7229 81.0902C84.0435 81.0483 84.3706 81.0267 84.7031 81.0267ZM80.1375 82.576C80.6537 82.1793 81.2229 81.8484 81.8323 81.5956L81.4493 80.6719C80.758 80.9586 80.1129 81.3337 79.5282 81.7831L80.1375 82.576ZM77.772 85.656C78.0247 85.0465 78.3556 84.4774 78.7524 83.9611L77.9594 83.3518C77.5101 83.9365 77.1349 84.5816 76.8483 85.2729L77.772 85.656ZM77.2031 88.5267C77.2031 88.1943 77.2247 87.8671 77.2665 87.5465L76.2749 87.4172C76.2275 87.7805 76.2031 88.1509 76.2031 88.5267V89.5454H77.2031V88.5267ZM77.2031 93.6202V91.5828H76.2031V93.6202H77.2031ZM77.2031 97.695V95.6576H76.2031V97.695H77.2031ZM77.2031 101.77V99.7324H76.2031V101.77H77.2031ZM77.2031 105.845V103.807H76.2031V105.845H77.2031ZM77.2031 109.919V107.882H76.2031V109.919H77.2031ZM77.2031 113.994V111.957H76.2031V113.994H77.2031ZM77.2031 118.069V116.032H76.2031V118.069H77.2031ZM77.2031 121.125V120.106H76.2031V121.125H77.2031Z" fill="#F9F9F9"/>
<path opacity="0.8" d="M32.7031 80C32.7031 88.8366 25.5397 96 16.7031 96C7.86657 96 0.703125 88.8366 0.703125 80C0.703125 71.1634 7.86657 64 16.7031 64C25.5397 64 32.7031 71.1634 32.7031 80Z" fill="#242023"/>
<path opacity="0.8" fill-rule="evenodd" clip-rule="evenodd" d="M16.7031 95C24.9874 95 31.7031 88.2843 31.7031 80C31.7031 71.7157 24.9874 65 16.7031 65C8.41885 65 1.70312 71.7157 1.70312 80C1.70312 88.2843 8.41885 95 16.7031 95ZM16.7031 96C25.5397 96 32.7031 88.8366 32.7031 80C32.7031 71.1634 25.5397 64 16.7031 64C7.86657 64 0.703125 71.1634 0.703125 80C0.703125 88.8366 7.86657 96 16.7031 96Z" fill="#F9F9F9"/>
<path opacity="0.32" d="M88.7031 132C88.7031 138.627 83.3305 144 76.7031 144C70.0757 144 64.7031 138.627 64.7031 132C64.7031 125.373 70.0757 120 76.7031 120C83.3305 120 88.7031 125.373 88.7031 132Z" fill="#242023"/>
<path opacity="0.32" fill-rule="evenodd" clip-rule="evenodd" d="M88.6667 132.942L87.6697 132.865C87.6918 132.58 87.7031 132.291 87.7031 132C87.7031 131.709 87.6918 131.42 87.6697 131.135L88.6667 131.058C88.6908 131.369 88.7031 131.683 88.7031 132C88.7031 132.317 88.6908 132.631 88.6667 132.942ZM88.3741 129.197L87.4015 129.43C87.2664 128.865 87.0875 128.317 86.8688 127.79L87.7926 127.407C88.0313 127.982 88.2265 128.581 88.3741 129.197ZM86.9364 125.729L86.0842 126.253C85.7819 125.76 85.4419 125.294 85.0681 124.856L85.8282 124.207C86.2358 124.683 86.6066 125.192 86.9364 125.729ZM84.4966 122.875L83.8468 123.635C83.4096 123.261 82.9428 122.921 82.4505 122.619L82.9738 121.767C83.5108 122.097 84.0199 122.467 84.4966 122.875ZM81.2966 120.911L80.9135 121.834C80.3861 121.616 79.838 121.437 79.273 121.302L79.5057 120.329C80.1225 120.477 80.7209 120.672 81.2966 120.911ZM77.6456 120.036L77.5681 121.033C77.2829 121.011 76.9944 121 76.7031 121C76.4118 121 76.1234 121.011 75.8381 121.033L75.7607 120.036C76.0717 120.012 76.386 120 76.7031 120C77.0203 120 77.3346 120.012 77.6456 120.036ZM73.9006 120.329L74.1333 121.302C73.5682 121.437 73.0201 121.616 72.4927 121.834L72.1097 120.911C72.6854 120.672 73.2837 120.477 73.9006 120.329ZM70.4324 121.767C69.8954 122.097 69.3864 122.467 68.9097 122.875L69.5595 123.635C69.9967 123.261 70.4635 122.921 70.9557 122.619L70.4324 121.767ZM67.578 124.207L68.3381 124.856C67.9644 125.294 67.6243 125.76 67.322 126.253L66.4699 125.729C66.7997 125.192 67.1705 124.683 67.578 124.207ZM65.6137 127.407L66.5374 127.79C66.3187 128.317 66.1399 128.865 66.0047 129.43L65.0322 129.197C65.1797 128.581 65.3749 127.982 65.6137 127.407ZM64.7396 131.058C64.7154 131.369 64.7031 131.683 64.7031 132C64.7031 132.317 64.7154 132.631 64.7396 132.942L65.7366 132.865C65.7144 132.58 65.7031 132.291 65.7031 132C65.7031 131.709 65.7144 131.42 65.7366 131.135L64.7396 131.058ZM65.0322 134.803L66.0047 134.57C66.1399 135.135 66.3187 135.683 66.5374 136.21L65.6137 136.593C65.3749 136.018 65.1797 135.419 65.0322 134.803ZM66.4699 138.271L67.322 137.747C67.6243 138.24 67.9644 138.706 68.3381 139.144L67.578 139.793C67.1705 139.317 66.7997 138.808 66.4699 138.271ZM68.9097 141.125L69.5595 140.365C69.9967 140.739 70.4635 141.079 70.9557 141.381L70.4324 142.233C69.8954 141.903 69.3864 141.533 68.9097 141.125ZM72.1097 143.089L72.4927 142.166C73.0201 142.384 73.5682 142.563 74.1333 142.698L73.9006 143.671C73.2837 143.523 72.6854 143.328 72.1097 143.089ZM75.7607 143.964L75.8381 142.967C76.1234 142.989 76.4118 143 76.7031 143C76.9944 143 77.2829 142.989 77.5681 142.967L77.6456 143.964C77.3346 143.988 77.0203 144 76.7031 144C76.386 144 76.0717 143.988 75.7607 143.964ZM79.5057 143.671L79.273 142.698C79.838 142.563 80.3861 142.384 80.9135 142.166L81.2966 143.089C80.7209 143.328 80.1225 143.523 79.5057 143.671ZM82.9738 142.233L82.4505 141.381C82.9428 141.079 83.4096 140.739 83.8468 140.365L84.4966 141.125C84.0199 141.533 83.5108 141.903 82.9738 142.233ZM85.8282 139.793L85.0681 139.144C85.4419 138.706 85.7819 138.24 86.0842 137.747L86.9364 138.271C86.6066 138.808 86.2358 139.317 85.8282 139.793ZM87.7926 136.593L86.8688 136.21C87.0875 135.683 87.2664 135.135 87.4015 134.57L88.3741 134.803C88.2265 135.419 88.0313 136.018 87.7926 136.593Z" fill="#F9F9F9"/>
</svg>
