<svg width="303" height="160" viewBox="0 0 303 160" fill="none" xmlns="http://www.w3.org/2000/svg">
<path opacity="0.72" fill-rule="evenodd" clip-rule="evenodd" d="M179.148 49H123.148C119.282 49 116.148 52.134 116.148 56V104C116.148 107.866 119.282 111 123.148 111H179.148C183.014 111 186.148 107.866 186.148 104V56C186.148 52.134 183.014 49 179.148 49ZM123.148 48C118.73 48 115.148 51.5817 115.148 56V104C115.148 108.418 118.73 112 123.148 112H179.148C183.567 112 187.148 108.418 187.148 104V56C187.148 51.5817 183.567 48 179.148 48H123.148Z" fill="#F9F9F9"/>
<g clip-path="url(#clip0_588_69)">
<path d="M150.504 74.8705C153.707 74.8705 156.328 77.3926 156.328 80.5275C156.328 83.6624 153.732 86.1845 150.504 86.1845C147.277 86.1845 144.68 83.6389 144.68 80.5275C144.68 77.4162 147.301 74.8705 150.504 74.8705ZM150.504 74.0848C146.848 74.0848 143.871 76.9762 143.871 80.5275C143.871 84.0788 146.848 86.9702 150.504 86.9702C154.16 86.9702 157.137 84.0788 157.137 80.5275C157.137 76.9762 154.16 74.0848 150.504 74.0848Z" fill="#F9F9F9"/>
<path d="M147.034 66.7857V72.3013L146.84 72.3956L137.497 76.6147C135.92 77.3454 134.949 78.8068 134.949 80.5039C134.949 82.201 135.92 83.686 137.497 84.3931L144.171 87.4102V87.363L147.034 88.6123V94.1515H136.308C134.925 94.1515 133.809 93.0672 133.809 91.7237V69.2135C133.809 67.87 134.925 66.7857 136.308 66.7857H147.034ZM147.843 66H136.308C134.48 66 133 67.4378 133 69.2135V91.7158C133 93.4836 134.48 94.9293 136.308 94.9293H147.843V88.0937L147.366 87.8816L144.502 86.6324L143.362 86.1374V86.1688L137.837 83.6703C136.551 83.0967 135.758 81.8789 135.758 80.4961C135.758 79.1133 136.535 77.919 137.845 77.314L147.18 73.1027L147.398 73.0005L147.843 72.7805V66Z" fill="#F9F9F9"/>
<path d="M164.668 66.8328L164.692 66.8564C166.075 66.8564 167.191 67.9407 167.191 69.2842V91.7865C167.191 93.13 166.075 94.2143 164.692 94.2143H153.99V88.6751L155.374 88.0859L163.527 84.4088C165.104 83.6781 166.075 82.2167 166.075 80.5196C166.075 78.8225 165.104 77.3376 163.527 76.6304C163.527 76.6304 156.838 73.6134 156.781 73.6134L153.966 72.3877V66.8328H164.668ZM164.668 66.0471H153.157V72.9063L153.634 73.1105L156.449 74.3362L156.611 74.4069C157.347 74.7212 160.833 76.2926 163.179 77.3533C164.465 77.9268 165.258 79.1447 165.258 80.5275C165.258 81.9103 164.481 83.1046 163.171 83.7096L155.026 87.3788L153.659 87.9602L153.173 88.1644V95H164.684C166.504 95 167.992 93.5622 167.992 91.7865V69.2842C167.992 67.6264 166.698 66.2593 165.04 66.0864L165.023 66.0707L164.668 66.0471Z" fill="#F9F9F9"/>
</g>
<path opacity="0.64" fill-rule="evenodd" clip-rule="evenodd" d="M199.148 37H103.148C97.0733 37 92.1484 41.9249 92.1484 48V112C92.1484 118.075 97.0733 123 103.148 123H199.148C205.224 123 210.148 118.075 210.148 112V48C210.148 41.9249 205.224 37 199.148 37ZM103.148 36C96.521 36 91.1484 41.3726 91.1484 48V112C91.1484 118.627 96.521 124 103.148 124H199.148C205.776 124 211.148 118.627 211.148 112V48C211.148 41.3726 205.776 36 199.148 36H103.148Z" fill="#F9F9F9"/>
<path opacity="0.48" fill-rule="evenodd" clip-rule="evenodd" d="M74.101 137.966L74.1655 136.968C74.4903 136.989 74.818 137 75.1484 137H76.1484V138H75.1484C74.7965 138 74.4472 137.989 74.101 137.966ZM226.148 138V137H227.148C227.479 137 227.807 136.989 228.131 136.968L228.196 137.966C227.85 137.989 227.5 138 227.148 138H226.148ZM230.271 137.695L230.077 136.714C230.725 136.586 231.357 136.416 231.972 136.208L232.293 137.155C231.637 137.377 230.962 137.559 230.271 137.695ZM234.227 136.353L233.784 135.457C234.373 135.166 234.94 134.837 235.482 134.474L236.038 135.305C235.46 135.692 234.855 136.043 234.227 136.353ZM237.698 134.03L237.038 133.278C237.531 132.846 237.994 132.382 238.426 131.89L239.178 132.55C238.717 133.074 238.223 133.569 237.698 134.03ZM240.453 130.89L239.623 130.334C239.986 129.791 240.314 129.224 240.605 128.635L241.502 129.078C241.191 129.706 240.841 130.311 240.453 130.89ZM242.303 127.145L241.356 126.824C241.565 126.209 241.735 125.576 241.863 124.929L242.844 125.123C242.707 125.814 242.526 126.489 242.303 127.145ZM243.148 39H242.148V38C242.148 37.6696 242.138 37.3419 242.117 37.017L243.115 36.9526C243.137 37.2988 243.148 37.6481 243.148 38V39ZM242.844 34.8774L241.863 35.0715C241.735 34.4238 241.565 33.7911 241.356 33.1765L242.303 32.8551C242.526 33.5111 242.707 34.1863 242.844 34.8774ZM241.502 30.9218L240.605 31.3648C240.314 30.7759 239.986 30.2087 239.623 29.6665L240.453 29.1102C240.841 29.6885 241.191 30.2935 241.502 30.9218ZM239.178 27.4504L238.427 28.11C237.994 27.6178 237.531 27.154 237.038 26.7219L237.698 25.9704C238.223 26.431 238.717 26.9255 239.178 27.4504ZM236.038 24.695L235.482 25.5259C234.94 25.1629 234.373 24.8343 233.784 24.5434L234.227 23.6468C234.855 23.9573 235.46 24.3078 236.038 24.695ZM232.293 22.8452L231.972 23.7921C231.357 23.5835 230.725 23.4137 230.077 23.2855L230.271 22.3045C230.962 22.4413 231.637 22.6225 232.293 22.8452ZM76.1484 22H75.1484C74.7965 22 74.4473 22.0114 74.101 22.0337L74.1655 23.0317C74.4903 23.0107 74.818 23 75.1484 23H76.1484V22ZM72.0258 22.3045L72.2199 23.2855C71.5722 23.4137 70.9396 23.5835 70.3249 23.7921L70.0035 22.8452C70.6596 22.6225 71.3347 22.4413 72.0258 22.3045ZM68.0703 23.6468L68.5132 24.5434C67.9243 24.8343 67.3572 25.1629 66.8149 25.5259L66.2586 24.695C66.8369 24.3078 67.442 23.9573 68.0703 23.6468ZM64.5988 25.9704L65.2585 26.7219C64.7662 27.154 64.3024 27.6178 63.8704 28.11L63.1188 27.4504C63.5795 26.9255 64.0739 26.431 64.5988 25.9704ZM61.8434 29.1101L62.6744 29.6665C62.3113 30.2087 61.9828 30.7759 61.6918 31.3648L60.7953 30.9218C61.1057 30.2935 61.4562 29.6885 61.8434 29.1101ZM59.9936 32.8551L60.9406 33.1765C60.7319 33.7911 60.5621 34.4238 60.434 35.0715L59.453 34.8774C59.5897 34.1863 59.771 33.5111 59.9936 32.8551ZM59.1484 121H60.1484V122C60.1484 122.33 60.1591 122.658 60.1801 122.983L59.1822 123.047C59.1598 122.701 59.1484 122.352 59.1484 122V121ZM59.453 125.123L60.434 124.929C60.5621 125.576 60.7319 126.209 60.9405 126.824L59.9936 127.145C59.771 126.489 59.5897 125.814 59.453 125.123ZM60.7953 129.078L61.6918 128.635C61.9828 129.224 62.3113 129.791 62.6744 130.334L61.8434 130.89C61.4562 130.311 61.1057 129.706 60.7953 129.078ZM63.1188 132.55L63.8704 131.89C64.3024 132.382 64.7662 132.846 65.2585 133.278L64.5988 134.03C64.0739 133.569 63.5795 133.074 63.1188 132.55ZM66.2586 135.305L66.8149 134.474C67.3572 134.837 67.9243 135.166 68.5132 135.457L68.0703 136.353C67.4419 136.043 66.8369 135.692 66.2586 135.305ZM72.0258 137.695C71.3347 137.559 70.6595 137.377 70.0035 137.155L70.3249 136.208C70.9396 136.416 71.5722 136.586 72.2199 136.714L72.0258 137.695ZM59.1484 119H60.1484V117H59.1484V119ZM59.1484 115H60.1484V113H59.1484V115ZM59.1484 111H60.1484V109H59.1484V111ZM59.1484 107H60.1484V105H59.1484V107ZM59.1484 103H60.1484V101H59.1484V103ZM59.1484 99H60.1484V97H59.1484V99ZM59.1484 95H60.1484V93H59.1484V95ZM59.1484 91H60.1484V89H59.1484V91ZM59.1484 87H60.1484V85H59.1484V87ZM59.1484 83H60.1484V81H59.1484V83ZM59.1484 79H60.1484V77H59.1484V79ZM59.1484 75H60.1484V73H59.1484V75ZM59.1484 71H60.1484V69H59.1484V71ZM59.1484 67H60.1484V65H59.1484V67ZM59.1484 63H60.1484V61H59.1484V63ZM59.1484 59H60.1484V57H59.1484V59ZM59.1484 55H60.1484V53H59.1484V55ZM59.1484 51H60.1484V49H59.1484V51ZM59.1484 47H60.1484V45H59.1484V47ZM59.1484 43H60.1484V41H59.1484V43ZM59.1484 39H60.1484V38C60.1484 37.6696 60.1591 37.3419 60.1801 37.017L59.1822 36.9526C59.1598 37.2988 59.1484 37.6481 59.1484 38V39ZM78.1484 22V23H80.1484V22H78.1484ZM82.1484 22V23H84.1484V22H82.1484ZM86.1484 22V23H88.1484V22H86.1484ZM90.1484 22V23H92.1484V22H90.1484ZM94.1484 22V23H96.1484V22H94.1484ZM98.1484 22V23H100.148V22H98.1484ZM102.148 22V23H104.148V22H102.148ZM106.148 22V23H108.148V22H106.148ZM110.148 22V23H112.148V22H110.148ZM114.148 22V23H116.148V22H114.148ZM118.148 22V23H120.148V22H118.148ZM122.148 22V23H124.148V22H122.148ZM126.148 22V23H128.148V22H126.148ZM130.148 22V23H132.148V22H130.148ZM134.148 22V23H136.148V22H134.148ZM138.148 22V23H140.148V22H138.148ZM142.148 22V23H144.148V22H142.148ZM146.148 22V23H148.148V22H146.148ZM150.148 22V23H152.148V22H150.148ZM154.148 22V23H156.148V22H154.148ZM158.148 22V23H160.148V22H158.148ZM162.148 22V23H164.148V22H162.148ZM166.148 22V23H168.148V22H166.148ZM170.148 22V23H172.148V22H170.148ZM174.148 22V23H176.148V22H174.148ZM178.148 22V23H180.148V22H178.148ZM182.148 22V23H184.148V22H182.148ZM186.148 22V23H188.148V22H186.148ZM190.148 22V23H192.148V22H190.148ZM194.148 22V23H196.148V22H194.148ZM198.148 22V23H200.148V22H198.148ZM202.148 22V23H204.148V22H202.148ZM206.148 22V23H208.148V22H206.148ZM210.148 22V23H212.148V22H210.148ZM214.148 22V23H216.148V22H214.148ZM218.148 22V23H220.148V22H218.148ZM222.148 22V23H224.148V22H222.148ZM226.148 22V23H227.148C227.479 23 227.807 23.0107 228.131 23.0317L228.196 22.0337C227.85 22.0114 227.5 22 227.148 22H226.148ZM243.148 41H242.148V43H243.148V41ZM243.148 45H242.148V47H243.148V45ZM243.148 49H242.148V51H243.148V49ZM243.148 53H242.148V55H243.148V53ZM243.148 57H242.148V59H243.148V57ZM243.148 61H242.148V63H243.148V61ZM243.148 65H242.148V67H243.148V65ZM243.148 69H242.148V71H243.148V69ZM243.148 73H242.148V75H243.148V73ZM243.148 77H242.148V79H243.148V77ZM243.148 81H242.148V83H243.148V81ZM243.148 85H242.148V87H243.148V85ZM243.148 89H242.148V91H243.148V89ZM243.148 93H242.148V95H243.148V93ZM243.148 97H242.148V99H243.148V97ZM243.148 101H242.148V103H243.148V101ZM243.148 105H242.148V107H243.148V105ZM243.148 109H242.148V111H243.148V109ZM243.148 113H242.148V115H243.148V113ZM243.148 117H242.148V119H243.148V117ZM243.148 121H242.148V122C242.148 122.33 242.138 122.658 242.117 122.983L243.115 123.047C243.137 122.701 243.148 122.352 243.148 122V121ZM224.148 138V137H222.148V138H224.148ZM220.148 138V137H218.148V138H220.148ZM216.148 138V137H214.148V138H216.148ZM212.148 138V137H210.148V138H212.148ZM208.148 138V137H206.148V138H208.148ZM204.148 138V137H202.148V138H204.148ZM200.148 138V137H198.148V138H200.148ZM196.148 138V137H194.148V138H196.148ZM192.148 138V137H190.148V138H192.148ZM188.148 138V137H186.148V138H188.148ZM184.148 138V137H182.148V138H184.148ZM180.148 138V137H178.148V138H180.148ZM176.148 138V137H174.148V138H176.148ZM172.148 138V137H170.148V138H172.148ZM168.148 138V137H166.148V138H168.148ZM164.148 138V137H162.148V138H164.148ZM160.148 138V137H158.148V138H160.148ZM156.148 138V137H154.148V138H156.148ZM152.148 138V137H150.148V138H152.148ZM148.148 138V137H146.148V138H148.148ZM144.148 138V137H142.148V138H144.148ZM140.148 138V137H138.148V138H140.148ZM136.148 138V137H134.148V138H136.148ZM132.148 138V137H130.148V138H132.148ZM128.148 138V137H126.148V138H128.148ZM124.148 138V137H122.148V138H124.148ZM120.148 138V137H118.148V138H120.148ZM116.148 138V137H114.148V138H116.148ZM112.148 138V137H110.148V138H112.148ZM108.148 138V137H106.148V138H108.148ZM104.148 138V137H102.148V138H104.148ZM100.148 138V137H98.1484V138H100.148ZM96.1484 138V137H94.1484V138H96.1484ZM92.1484 138V137H90.1484V138H92.1484ZM88.1484 138V137H86.1484V138H88.1484ZM84.1484 138V137H82.1484V138H84.1484ZM80.1484 138V137H78.1484V138H80.1484Z" fill="#F9F9F9"/>
<path opacity="0.32" fill-rule="evenodd" clip-rule="evenodd" d="M42.101 137.966L42.1655 136.968C42.4903 136.989 42.818 137 43.1484 137H44.1484V138H43.1484C42.7965 138 42.4473 137.989 42.101 137.966ZM258.148 138V137H259.148C259.479 137 259.807 136.989 260.131 136.968L260.196 137.966C259.85 137.989 259.5 138 259.148 138H258.148ZM262.271 137.695L262.077 136.714C262.725 136.586 263.357 136.416 263.972 136.208L264.293 137.155C263.637 137.377 262.962 137.559 262.271 137.695ZM266.227 136.353L265.784 135.457C266.373 135.166 266.94 134.837 267.482 134.474L268.038 135.305C267.46 135.692 266.855 136.043 266.227 136.353ZM269.698 134.03L269.038 133.278C269.531 132.846 269.994 132.382 270.426 131.89L271.178 132.55C270.717 133.075 270.223 133.569 269.698 134.03ZM272.453 130.89L271.623 130.334C271.986 129.791 272.314 129.224 272.605 128.635L273.502 129.078C273.191 129.706 272.841 130.312 272.453 130.89ZM274.303 127.145L273.356 126.824C273.565 126.209 273.735 125.576 273.863 124.929L274.844 125.123C274.707 125.814 274.526 126.489 274.303 127.145ZM275.148 39H274.148V38C274.148 37.6696 274.138 37.3419 274.117 37.017L275.115 36.9526C275.137 37.2988 275.148 37.6481 275.148 38V39ZM274.844 34.8774C274.707 34.1863 274.526 33.5111 274.303 32.8551L273.356 33.1765C273.565 33.7911 273.735 34.4238 273.863 35.0715L274.844 34.8774ZM273.502 30.9218L272.605 31.3648C272.314 30.7759 271.986 30.2087 271.623 29.6665L272.453 29.1101C272.841 29.6885 273.191 30.2935 273.502 30.9218ZM271.178 27.4504L270.427 28.11C269.994 27.6178 269.531 27.154 269.038 26.7219L269.698 25.9703C270.223 26.431 270.717 26.9255 271.178 27.4504ZM268.038 24.695L267.482 25.5259C266.94 25.1629 266.373 24.8343 265.784 24.5434L266.227 23.6468C266.855 23.9573 267.46 24.3078 268.038 24.695ZM264.293 22.8452L263.972 23.7921C263.357 23.5835 262.725 23.4137 262.077 23.2855L262.271 22.3045C262.962 22.4413 263.637 22.6225 264.293 22.8452ZM44.1484 22H43.1484C42.7965 22 42.4473 22.0114 42.101 22.0337L42.1655 23.0317C42.4903 23.0107 42.818 23 43.1484 23H44.1484V22ZM40.0258 22.3045L40.2199 23.2855C39.5722 23.4137 38.9396 23.5835 38.3249 23.7921L38.0035 22.8452C38.6596 22.6225 39.3347 22.4413 40.0258 22.3045ZM36.0703 23.6468L36.5132 24.5434C35.9243 24.8343 35.3572 25.1629 34.8149 25.5259L34.2586 24.695C34.8369 24.3078 35.442 23.9573 36.0703 23.6468ZM32.5988 25.9704L33.2585 26.7219C32.7662 27.154 32.3024 27.6178 31.8704 28.11L31.1188 27.4504C31.5795 26.9255 32.0739 26.431 32.5988 25.9704ZM29.8434 29.1101L30.6744 29.6665C30.3113 30.2087 29.9828 30.7759 29.6918 31.3648L28.7953 30.9218C29.1057 30.2935 29.4562 29.6885 29.8434 29.1101ZM27.9936 32.8551L28.9406 33.1765C28.7319 33.7911 28.5621 34.4238 28.434 35.0715L27.453 34.8774C27.5897 34.1863 27.771 33.5111 27.9936 32.8551ZM27.1484 121H28.1484V122C28.1484 122.33 28.1591 122.658 28.1801 122.983L27.1822 123.047C27.1598 122.701 27.1484 122.352 27.1484 122V121ZM27.453 125.123L28.434 124.929C28.5621 125.576 28.7319 126.209 28.9406 126.824L27.9936 127.145C27.771 126.489 27.5897 125.814 27.453 125.123ZM28.7953 129.078L29.6918 128.635C29.9828 129.224 30.3113 129.791 30.6744 130.334L29.8434 130.89C29.4562 130.311 29.1057 129.706 28.7953 129.078ZM31.1188 132.55L31.8704 131.89C32.3024 132.382 32.7662 132.846 33.2585 133.278L32.5988 134.03C32.0739 133.569 31.5795 133.074 31.1188 132.55ZM34.2586 135.305L34.8149 134.474C35.3572 134.837 35.9243 135.166 36.5132 135.457L36.0703 136.353C35.442 136.043 34.8369 135.692 34.2586 135.305ZM40.0258 137.695C39.3347 137.559 38.6596 137.377 38.0035 137.155L38.3249 136.208C38.9396 136.416 39.5722 136.586 40.2199 136.714L40.0258 137.695ZM27.1484 119H28.1484V117H27.1484V119ZM27.1484 115H28.1484V113H27.1484V115ZM27.1484 111H28.1484V109H27.1484V111ZM27.1484 107H28.1484V105H27.1484V107ZM27.1484 103H28.1484V101H27.1484V103ZM27.1484 99H28.1484V97H27.1484V99ZM27.1484 95H28.1484V93H27.1484V95ZM27.1484 91H28.1484V89H27.1484V91ZM27.1484 87H28.1484V85H27.1484V87ZM27.1484 83H28.1484V81H27.1484V83ZM27.1484 79H28.1484V77H27.1484V79ZM27.1484 75H28.1484V73H27.1484V75ZM27.1484 71H28.1484V69H27.1484V71ZM27.1484 67H28.1484V65H27.1484V67ZM27.1484 63H28.1484V61H27.1484V63ZM27.1484 59H28.1484V57H27.1484V59ZM27.1484 55H28.1484V53H27.1484V55ZM27.1484 51H28.1484V49H27.1484V51ZM27.1484 47H28.1484V45H27.1484V47ZM27.1484 43H28.1484V41H27.1484V43ZM27.1484 39H28.1484V38C28.1484 37.6696 28.1591 37.3419 28.1801 37.017L27.1822 36.9526C27.1598 37.2988 27.1484 37.6481 27.1484 38V39ZM46.1484 22V23H48.1484V22H46.1484ZM50.1484 22V23H52.1484V22H50.1484ZM54.1484 22V23H56.1484V22H54.1484ZM58.1484 22V23H60.1484V22H58.1484ZM62.1484 22V23H64.1484V22H62.1484ZM66.1484 22V23H68.1484V22H66.1484ZM70.1484 22V23H72.1484V22H70.1484ZM74.1484 22V23H76.1484V22H74.1484ZM78.1484 22V23H80.1484V22H78.1484ZM82.1484 22V23H84.1484V22H82.1484ZM86.1484 22V23H88.1484V22H86.1484ZM90.1484 22V23H92.1484V22H90.1484ZM94.1484 22V23H96.1484V22H94.1484ZM98.1484 22V23H100.148V22H98.1484ZM102.148 22V23H104.148V22H102.148ZM106.148 22V23H108.148V22H106.148ZM110.148 22V23H112.148V22H110.148ZM114.148 22V23H116.148V22H114.148ZM118.148 22V23H120.148V22H118.148ZM122.148 22V23H124.148V22H122.148ZM126.148 22V23H128.148V22H126.148ZM130.148 22V23H132.148V22H130.148ZM134.148 22V23H136.148V22H134.148ZM138.148 22V23H140.148V22H138.148ZM142.148 22V23H144.148V22H142.148ZM146.148 22V23H148.148V22H146.148ZM150.148 22V23H152.148V22H150.148ZM154.148 22V23H156.148V22H154.148ZM158.148 22V23H160.148V22H158.148ZM162.148 22V23H164.148V22H162.148ZM166.148 22V23H168.148V22H166.148ZM170.148 22V23H172.148V22H170.148ZM174.148 22V23H176.148V22H174.148ZM178.148 22V23H180.148V22H178.148ZM182.148 22V23H184.148V22H182.148ZM186.148 22V23H188.148V22H186.148ZM190.148 22V23H192.148V22H190.148ZM194.148 22V23H196.148V22H194.148ZM198.148 22V23H200.148V22H198.148ZM202.148 22V23H204.148V22H202.148ZM206.148 22V23H208.148V22H206.148ZM210.148 22V23H212.148V22H210.148ZM214.148 22V23H216.148V22H214.148ZM218.148 22V23H220.148V22H218.148ZM222.148 22V23H224.148V22H222.148ZM226.148 22V23H228.148V22H226.148ZM230.148 22V23H232.148V22H230.148ZM234.148 22V23H236.148V22H234.148ZM238.148 22V23H240.148V22H238.148ZM242.148 22V23H244.148V22H242.148ZM246.148 22V23H248.148V22H246.148ZM250.148 22V23H252.148V22H250.148ZM254.148 22V23H256.148V22H254.148ZM258.148 22V23H259.148C259.479 23 259.807 23.0107 260.131 23.0317L260.196 22.0337C259.85 22.0114 259.5 22 259.148 22H258.148ZM275.148 41H274.148V43H275.148V41ZM275.148 45H274.148V47H275.148V45ZM275.148 49H274.148V51H275.148V49ZM275.148 53H274.148V55H275.148V53ZM275.148 57H274.148V59H275.148V57ZM275.148 61H274.148V63H275.148V61ZM275.148 65H274.148V67H275.148V65ZM275.148 69H274.148V71H275.148V69ZM275.148 73H274.148V75H275.148V73ZM275.148 77H274.148V79H275.148V77ZM275.148 81H274.148V83H275.148V81ZM275.148 85H274.148V87H275.148V85ZM275.148 89H274.148V91H275.148V89ZM275.148 93H274.148V95H275.148V93ZM275.148 97H274.148V99H275.148V97ZM275.148 101H274.148V103H275.148V101ZM275.148 105H274.148V107H275.148V105ZM275.148 109H274.148V111H275.148V109ZM275.148 113H274.148V115H275.148V113ZM275.148 117H274.148V119H275.148V117ZM275.148 121H274.148V122C274.148 122.33 274.138 122.658 274.117 122.983L275.115 123.047C275.137 122.701 275.148 122.352 275.148 122V121ZM256.148 138V137H254.148V138H256.148ZM252.148 138V137H250.148V138H252.148ZM248.148 138V137H246.148V138H248.148ZM244.148 138V137H242.148V138H244.148ZM240.148 138V137H238.148V138H240.148ZM236.148 138V137H234.148V138H236.148ZM232.148 138V137H230.148V138H232.148ZM228.148 138V137H226.148V138H228.148ZM224.148 138V137H222.148V138H224.148ZM220.148 138V137H218.148V138H220.148ZM216.148 138V137H214.148V138H216.148ZM212.148 138V137H210.148V138H212.148ZM208.148 138V137H206.148V138H208.148ZM204.148 138V137H202.148V138H204.148ZM200.148 138V137H198.148V138H200.148ZM196.148 138V137H194.148V138H196.148ZM192.148 138V137H190.148V138H192.148ZM188.148 138V137H186.148V138H188.148ZM184.148 138V137H182.148V138H184.148ZM180.148 138V137H178.148V138H180.148ZM176.148 138V137H174.148V138H176.148ZM172.148 138V137H170.148V138H172.148ZM168.148 138V137H166.148V138H168.148ZM164.148 138V137H162.148V138H164.148ZM160.148 138V137H158.148V138H160.148ZM156.148 138V137H154.148V138H156.148ZM152.148 138V137H150.148V138H152.148ZM148.148 138V137H146.148V138H148.148ZM144.148 138V137H142.148V138H144.148ZM140.148 138V137H138.148V138H140.148ZM136.148 138V137H134.148V138H136.148ZM132.148 138V137H130.148V138H132.148ZM128.148 138V137H126.148V138H128.148ZM124.148 138V137H122.148V138H124.148ZM120.148 138V137H118.148V138H120.148ZM116.148 138V137H114.148V138H116.148ZM112.148 138V137H110.148V138H112.148ZM108.148 138V137H106.148V138H108.148ZM104.148 138V137H102.148V138H104.148ZM100.148 138V137H98.1484V138H100.148ZM96.1484 138V137H94.1484V138H96.1484ZM92.1484 138V137H90.1484V138H92.1484ZM88.1484 138V137H86.1484V138H88.1484ZM84.1484 138V137H82.1484V138H84.1484ZM80.1484 138V137H78.1484V138H80.1484ZM76.1484 138V137H74.1484V138H76.1484ZM72.1484 138V137H70.1484V138H72.1484ZM68.1484 138V137H66.1484V138H68.1484ZM64.1484 138V137H62.1484V138H64.1484ZM60.1484 138V137H58.1484V138H60.1484ZM56.1484 138V137H54.1484V138H56.1484ZM52.1484 138V137H50.1484V138H52.1484ZM48.1484 138V137H46.1484V138H48.1484Z" fill="#F9F9F9"/>
<path opacity="0.16" fill-rule="evenodd" clip-rule="evenodd" d="M22.9521 159.978L22.995 158.978C23.3281 158.993 23.6632 159 24 159H24.9933V160H24C23.6489 160 23.2995 159.992 22.9521 159.978ZM20.8654 159.797L20.9947 158.806C20.3265 158.718 19.6675 158.603 19.0188 158.459L18.8032 159.436C19.4803 159.585 20.1681 159.706 20.8654 159.797ZM16.7809 158.895L17.0813 157.941C16.4404 157.74 15.8115 157.51 15.1961 157.255L14.8131 158.179C15.4554 158.445 16.1118 158.684 16.7809 158.895ZM12.9157 157.293L13.3782 156.406C12.7836 156.096 12.2042 155.76 11.6414 155.401L11.1033 156.244C11.6906 156.619 12.2952 156.969 12.9157 157.293ZM9.38918 155.042L9.9985 154.249C9.46743 153.841 8.95464 153.41 8.46161 152.958L7.78583 153.695C8.30016 154.166 8.83511 154.616 9.38918 155.042ZM6.30515 152.214L7.04225 151.538C6.59023 151.045 6.15944 150.533 5.75133 150.001L4.95841 150.611C5.38419 151.165 5.8336 151.7 6.30515 152.214ZM3.75597 148.897L4.59886 148.359C4.23958 147.796 3.90416 147.216 3.59399 146.622L2.70736 147.084C3.03106 147.705 3.38109 148.309 3.75597 148.897ZM1.82113 145.187L2.74486 144.804C2.48967 144.188 2.26044 143.56 2.05854 142.919L1.10474 143.219C1.3155 143.888 1.55477 144.545 1.82113 145.187ZM0.56415 141.197L1.54064 140.981C1.39744 140.333 1.28161 139.673 1.19445 139.005L0.202854 139.135C0.293804 139.832 0.414679 140.52 0.56415 141.197ZM0.0224663 137.048L1.02155 137.005C1.00723 136.672 1 136.337 1 136V135H0V136C0 136.351 0.0075398 136.7 0.0224663 137.048ZM0 133H1V131H0V133ZM0 129H1V127H0V129ZM0 125H1V123H0V125ZM0 121H1V119H0V121ZM0 117H1V115H0V117ZM0 113H1V111H0V113ZM0 109H1V107H0V109ZM0 105H1V103H0V105ZM0 101H1V99H0V101ZM0 97H1V95H0V97ZM0 93H1V91H0V93ZM0 89H1V87H0V89ZM0 85H1V83H0V85ZM0 81H1V79H0V81ZM0 77H1V75H0V77ZM0 73H1V71H0V73ZM0 69H1V67H0V69ZM0 65H1V63H0V65ZM0 61H1V59H0V61ZM0 57H1V55H0V57ZM0 53H1V51H0V53ZM0 49H1V47H0V49ZM0 45H1V43H0V45ZM0 41H1V39H0V41ZM0 37H1V35H0V37ZM0 33H1V31H0V33ZM0 29H1V27H0V29ZM0 25H1V24C1 23.6632 1.00723 23.3282 1.02155 22.995L0.0224667 22.9521C0.00753994 23.2995 0 23.6489 0 24V25ZM0.202855 20.8654L1.19445 20.9947C1.28161 20.3265 1.39744 19.6675 1.54064 19.0188L0.564151 18.8032C0.41468 19.4803 0.293804 20.1681 0.202855 20.8654ZM1.10475 16.7809L2.05854 17.0813C2.26044 16.4404 2.48967 15.8115 2.74486 15.1961L1.82113 14.8131C1.55477 15.4554 1.3155 16.1118 1.10475 16.7809ZM2.70737 12.9158L3.59399 13.3782C3.90416 12.7836 4.23959 12.2042 4.59886 11.6414L3.75598 11.1033C3.3811 11.6906 3.03106 12.2952 2.70737 12.9158ZM4.95842 9.38918L5.75133 9.9985C6.15945 9.46743 6.59023 8.95465 7.04225 8.46161L6.30516 7.78583C5.83361 8.30016 5.38419 8.83511 4.95842 9.38918ZM7.78583 6.30515L8.46162 7.04225C8.95465 6.59023 9.46743 6.15944 9.99851 5.75133L9.38918 4.95841C8.83512 5.38419 8.30016 5.8336 7.78583 6.30515ZM11.1033 3.75597L11.6414 4.59886C12.2042 4.23959 12.7836 3.90416 13.3782 3.59399L12.9158 2.70736C12.2952 3.03106 11.6906 3.38109 11.1033 3.75597ZM14.8131 1.82113L15.1961 2.74486C15.8115 2.48967 16.4404 2.26044 17.0813 2.05854L16.7809 1.10474C16.1118 1.3155 15.4554 1.55477 14.8131 1.82113ZM18.8032 0.56415L19.0188 1.54064C19.6675 1.39744 20.3265 1.28161 20.9947 1.19445L20.8654 0.202854C20.1681 0.293804 19.4803 0.414679 18.8032 0.56415ZM22.9521 0.0224666C23.2995 0.0075399 23.6489 0 24 0H24.9933V1H24C23.6632 1 23.3282 1.00723 22.995 1.02155L22.9521 0.0224666ZM26.98 0V1H28.9667V0H26.98ZM30.9534 0V1H32.9401V0H30.9534ZM34.9268 0V1H36.9135V0H34.9268ZM38.9002 0V1H40.8869V0H38.9002ZM42.8736 0V1H44.8603V0H42.8736ZM46.847 0V1H48.8337V0H46.847ZM50.8204 0V1H52.8071V0H50.8204ZM54.7938 0V1H56.7805V0H54.7938ZM58.7672 0V1H60.7538V0H58.7672ZM62.7405 0V1H64.7272V0H62.7405ZM66.7139 0V1H68.7006V0H66.7139ZM70.6873 0V1H72.674V0H70.6873ZM74.6607 0V1H76.6474V0H74.6607ZM78.6341 0V1H80.6208V0H78.6341ZM82.6075 0V1H84.5942V0H82.6075ZM86.5809 0V1H88.5676V0H86.5809ZM90.5543 0V1H92.541V0H90.5543ZM94.5276 0V1H96.5143V0H94.5276ZM98.501 0V1H100.488V0H98.501ZM102.474 0V1H104.461V0H102.474ZM106.448 0V1H108.435V0H106.448ZM110.421 0V1H112.408V0H110.421ZM114.395 0V1H116.381V0H114.395ZM118.368 0V1H120.355V0H118.368ZM122.341 0V1H124.328V0H122.341ZM126.315 0V1H128.301V0H126.315ZM130.288 0V1H132.275V0H130.288ZM134.262 0V1H136.248V0H134.262ZM138.235 0V1H140.222V0H138.235ZM142.208 0V1H144.195V0H142.208ZM146.182 0V1H148.168V0H146.182ZM150.155 0V1H152.142V0H150.155ZM154.128 0V1H156.115V0H154.128ZM158.102 0V1H160.089V0H158.102ZM162.075 0V1H164.062V0H162.075ZM166.049 0V1H168.035V0H166.049ZM170.022 0V1H172.009V0H170.022ZM173.995 0V1H175.982V0H173.995ZM177.969 0V1H179.956V0H177.969ZM181.942 0V1H183.929V0H181.942ZM185.916 0V1H187.902V0H185.916ZM189.889 0V1H191.876V0H189.889ZM193.862 0V1H195.849V0H193.862ZM197.836 0V1H199.822V0H197.836ZM201.809 0V1H203.796V0H201.809ZM205.783 0V1H207.769V0H205.783ZM209.756 0V1H211.743V0H209.756ZM213.729 0V1H215.716V0H213.729ZM217.703 0V1H219.689V0H217.703ZM221.676 0V1H223.663V0H221.676ZM225.649 0V1H227.636V0H225.649ZM229.623 0V1H231.61V0H229.623ZM233.596 0V1H235.583V0H233.596ZM237.57 0V1H239.556V0H237.57ZM241.543 0V1H243.53V0H241.543ZM245.516 0V1H247.503V0H245.516ZM249.49 0V1H251.477V0H249.49ZM253.463 0V1H255.45V0H253.463ZM257.437 0V1H259.423V0H257.437ZM261.41 0V1H263.397V0H261.41ZM265.383 0V1H267.37V0H265.383ZM269.357 0V1H271.343V0H269.357ZM273.33 0V1H275.317V0H273.33ZM277.304 0V1H278.297C278.634 1 278.969 1.00723 279.302 1.02155L279.345 0.0224666M277.304 160V159H278.297C278.634 159 278.969 158.993 279.302 158.978L279.345 159.978C278.997 159.992 278.648 160 278.297 160H277.304ZM281.431 159.797L281.302 158.806C281.97 158.718 282.629 158.603 283.278 158.459L283.494 159.436C282.817 159.585 282.129 159.706 281.431 159.797ZM285.516 158.895L285.216 157.941C285.857 157.74 286.485 157.51 287.101 157.255L287.484 158.179C286.841 158.445 286.185 158.684 285.516 158.895ZM289.381 157.293L288.919 156.406C289.513 156.096 290.093 155.76 290.655 155.401L291.194 156.244C290.606 156.619 290.002 156.969 289.381 157.293ZM292.908 155.042L292.298 154.249C292.829 153.841 293.342 153.41 293.835 152.958L294.511 153.695C293.997 154.166 293.462 154.616 292.908 155.042ZM295.992 152.214L295.255 151.538C295.707 151.045 296.137 150.533 296.546 150.001L297.338 150.611C296.913 151.165 296.463 151.7 295.992 152.214ZM298.541 148.897L297.698 148.359C298.057 147.796 298.393 147.216 298.703 146.622L299.59 147.084C299.266 147.705 298.916 148.309 298.541 148.897ZM300.476 145.187L299.552 144.804C299.807 144.188 300.036 143.56 300.238 142.919L301.192 143.219C300.981 143.888 300.742 144.545 300.476 145.187ZM301.733 141.197L300.756 140.981C300.899 140.333 301.015 139.673 301.102 139.005L302.094 139.135C302.003 139.832 301.882 140.52 301.733 141.197ZM302.297 25H301.297V24C301.297 23.6632 301.29 23.3282 301.275 22.995L302.274 22.9521C302.289 23.2995 302.297 23.6489 302.297 24V25ZM302.094 20.8654L301.102 20.9947C301.015 20.3265 300.899 19.6675 300.756 19.0188L301.733 18.8032C301.882 19.4803 302.003 20.1681 302.094 20.8654ZM301.192 16.7809C300.981 16.1118 300.742 15.4554 300.476 14.8131L299.552 15.1961C299.807 15.8115 300.036 16.4404 300.238 17.0813L301.192 16.7809ZM299.59 12.9158L298.703 13.3783C298.393 12.7836 298.057 12.2042 297.698 11.6414L298.541 11.1033C298.916 11.6906 299.266 12.2952 299.59 12.9158ZM297.338 9.38918L296.546 9.99851C296.137 9.46743 295.707 8.95465 295.255 8.46162L295.992 7.78583C296.463 8.30016 296.913 8.83512 297.338 9.38918ZM294.511 6.30515L293.835 7.04226C293.342 6.59024 292.829 6.15945 292.298 5.75133L292.908 4.95841C293.462 5.38419 293.997 5.83361 294.511 6.30515ZM291.194 3.75598L290.655 4.59886C290.093 4.23959 289.513 3.90416 288.919 3.59399L289.381 2.70736C290.002 3.03106 290.606 3.38109 291.194 3.75598ZM287.484 1.82113L287.101 2.74486C286.485 2.48967 285.857 2.26044 285.216 2.05854L285.516 1.10475C286.185 1.3155 286.841 1.55477 287.484 1.82113ZM283.494 0.564151L283.278 1.54064C282.629 1.39744 281.97 1.28161 281.302 1.19445L281.431 0.202855C282.129 0.293805 282.817 0.41468 283.494 0.564151ZM302.297 27H301.297V29H302.297V27ZM302.297 31H301.297V33H302.297V31ZM302.297 35H301.297V37H302.297V35ZM302.297 39H301.297V41H302.297V39ZM302.297 43H301.297V45H302.297V43ZM302.297 47H301.297V49H302.297V47ZM302.297 51H301.297V53H302.297V51ZM302.297 55H301.297V57H302.297V55ZM302.297 59H301.297V61H302.297V59ZM302.297 63H301.297V65H302.297V63ZM302.297 67H301.297V69H302.297V67ZM302.297 71H301.297V73H302.297V71ZM302.297 75H301.297V77H302.297V75ZM302.297 79H301.297V81H302.297V79ZM302.297 83H301.297V85H302.297V83ZM302.297 87H301.297V89H302.297V87ZM302.297 91H301.297V93H302.297V91ZM302.297 95H301.297V97H302.297V95ZM302.297 99H301.297V101H302.297V99ZM302.297 103H301.297V105H302.297V103ZM302.297 107H301.297V109H302.297V107ZM302.297 111H301.297V113H302.297V111ZM302.297 115H301.297V117H302.297V115ZM302.297 119H301.297V121H302.297V119ZM302.297 123H301.297V125H302.297V123ZM302.297 127H301.297V129H302.297V127ZM302.297 131H301.297V133H302.297V131ZM302.297 135H301.297V136C301.297 136.337 301.29 136.672 301.275 137.005L302.274 137.048C302.289 136.7 302.297 136.351 302.297 136V135ZM275.317 160V159H273.33V160H275.317ZM271.343 160V159H269.357V160H271.343ZM267.37 160V159H265.383V160H267.37ZM263.397 160V159H261.41V160H263.397ZM259.423 160V159H257.437V160H259.423ZM255.45 160V159H253.463V160H255.45ZM251.477 160V159H249.49V160H251.477ZM247.503 160V159H245.516V160H247.503ZM243.53 160V159H241.543V160H243.53ZM239.556 160V159H237.57V160H239.556ZM235.583 160V159H233.596V160H235.583ZM231.61 160V159H229.623V160H231.61ZM227.636 160V159H225.649V160H227.636ZM223.663 160V159H221.676V160H223.663ZM219.689 160V159H217.703V160H219.689ZM215.716 160V159H213.729V160H215.716ZM211.743 160V159H209.756V160H211.743ZM207.769 160V159H205.783V160H207.769ZM203.796 160V159H201.809V160H203.796ZM199.822 160V159H197.836V160H199.822ZM195.849 160V159H193.862V160H195.849ZM191.876 160V159H189.889V160H191.876ZM187.902 160V159H185.916V160H187.902ZM183.929 160V159H181.942V160H183.929ZM179.956 160V159H177.969V160H179.956ZM175.982 160V159H173.995V160H175.982ZM172.009 160V159H170.022V160H172.009ZM168.035 160V159H166.049V160H168.035ZM164.062 160V159H162.075V160H164.062ZM160.089 160V159H158.102V160H160.089ZM156.115 160V159H154.128V160H156.115ZM152.142 160V159H150.155V160H152.142ZM148.168 160V159H146.182V160H148.168ZM144.195 160V159H142.208V160H144.195ZM140.222 160V159H138.235V160H140.222ZM136.248 160V159H134.262V160H136.248ZM132.275 160V159H130.288V160H132.275ZM128.301 160V159H126.315V160H128.301ZM124.328 160V159H122.341V160H124.328ZM120.355 160V159H118.368V160H120.355ZM116.381 160V159H114.395V160H116.381ZM112.408 160V159H110.421V160H112.408ZM108.435 160V159H106.448V160H108.435ZM104.461 160V159H102.474V160H104.461ZM100.488 160V159H98.501V160H100.488ZM96.5143 160V159H94.5276V160H96.5143ZM92.5409 160V159H90.5543V160H92.5409ZM88.5676 160V159H86.5809V160H88.5676ZM84.5942 160V159H82.6075V160H84.5942ZM80.6208 160V159H78.6341V160H80.6208ZM76.6474 160V159H74.6607V160H76.6474ZM72.674 160V159H70.6873V160H72.674ZM68.7006 160V159H66.7139V160H68.7006ZM64.7272 160V159H62.7405V160H64.7272ZM60.7538 160V159H58.7671V160H60.7538ZM56.7805 160V159H54.7938V160H56.7805ZM52.8071 160V159H50.8204V160H52.8071ZM48.8337 160V159H46.847V160H48.8337ZM44.8603 160V159H42.8736V160H44.8603ZM40.8869 160V159H38.9002V160H40.8869ZM36.9135 160V159H34.9268V160H36.9135ZM32.9401 160V159H30.9534V160H32.9401ZM28.9667 160V159H26.98V160H28.9667Z" fill="#F9F9F9"/>
<defs>
<clipPath id="clip0_588_69">
<rect width="35" height="29" fill="white" transform="translate(133 66)"/>
</clipPath>
</defs>
</svg>
