<svg width="304" height="160" viewBox="0 0 304 160" fill="none" xmlns="http://www.w3.org/2000/svg">
<path opacity="0.32" fill-rule="evenodd" clip-rule="evenodd" d="M7.80669 71.9324L7.93604 70.9408C8.23524 70.9798 8.54079 71 8.85157 71H9.90404V72H8.85157C8.49743 72 8.14867 71.977 7.80669 71.9324ZM28.8486 72V71H29.9011C30.2118 71 30.5174 70.9798 30.8166 70.9408L30.9459 71.9324C30.6039 71.977 30.2552 72 29.9011 72H28.8486ZM32.9634 71.393L32.5803 70.4692C33.1488 70.2335 33.68 69.9247 34.162 69.5543L34.7713 70.3472C34.2208 70.7702 33.6137 71.1233 32.9634 71.393ZM36.2482 68.8703L35.4553 68.2609C35.8257 67.7789 36.1345 67.2478 36.3703 66.6793L37.294 67.0623C37.0243 67.7127 36.6713 68.3198 36.2482 68.8703ZM37.9011 9H36.9011V8C36.9011 7.68923 36.8809 7.38367 36.8418 7.08447L37.8334 6.95513C37.878 7.2971 37.9011 7.64586 37.9011 8V9ZM37.294 4.9377L36.3703 5.32075C36.1345 4.75221 35.8257 4.22105 35.4553 3.73905L36.2482 3.12973C36.6713 3.68022 37.0243 4.28732 37.294 4.9377ZM34.7713 1.6528L34.162 2.44572C33.68 2.07533 33.1488 1.76653 32.5803 1.53077L32.9633 0.607044C33.6137 0.876746 34.2208 1.22977 34.7713 1.6528ZM9.90404 0H8.85156C8.49743 0 8.14866 0.0230106 7.80669 0.0676182L7.93603 1.05922C8.23523 1.02019 8.54079 1 8.85156 1H9.90404V0ZM5.78926 0.607044C5.13888 0.876746 4.53178 1.22977 3.98129 1.6528L4.59062 2.44572C5.07261 2.07533 5.60378 1.76653 6.17231 1.53077L5.78926 0.607044ZM2.50437 3.12973L3.29729 3.73905C2.92689 4.22105 2.6181 4.75221 2.38233 5.32075L1.45861 4.9377C1.72831 4.28732 2.08133 3.68022 2.50437 3.12973ZM0.851562 63H1.85156V64C1.85156 64.3108 1.87175 64.6163 1.91078 64.9155L0.919181 65.0449C0.874573 64.7029 0.851562 64.3541 0.851562 64V63ZM1.45861 67.0623L2.38233 66.6792C2.6181 67.2478 2.92689 67.7789 3.29729 68.2609L2.50437 68.8703C2.08133 68.3198 1.72831 67.7127 1.45861 67.0623ZM5.78926 71.393L6.17232 70.4692C5.60378 70.2335 5.07262 69.9247 4.59062 69.5543L3.98129 70.3472C4.53179 70.7702 5.13888 71.1233 5.78926 71.393ZM0.851562 61H1.85156V59H0.851562V61ZM0.851562 57H1.85156V55H0.851562V57ZM0.851562 53H1.85156V51H0.851562V53ZM0.851562 49H1.85156V47H0.851562V49ZM0.851562 45H1.85156V43H0.851562V45ZM0.851562 41H1.85156V39H0.851562V41ZM0.851562 37H1.85156V35H0.851562V37ZM0.851562 33H1.85156V31H0.851562V33ZM0.851562 29H1.85156V27H0.851562V29ZM0.851562 25H1.85156V23H0.851562V25ZM0.851562 21H1.85156V19H0.851562V21ZM0.851562 17H1.85156V15H0.851562V17ZM0.851562 13H1.85156V11H0.851562V13ZM0.851562 9H1.85156V8C1.85156 7.68923 1.87175 7.38367 1.91078 7.08447L0.919181 6.95513C0.874573 7.2971 0.851562 7.64586 0.851562 8V9ZM12.009 0V1H14.1139V0H12.009ZM16.2189 0V1H18.3238V0H16.2189ZM20.4288 0V1H22.5337V0H20.4288ZM24.6387 0V1H26.7436V0H24.6387ZM28.8486 0V1H29.901C30.2118 1 30.5174 1.02019 30.8166 1.05922L30.9459 0.0676185C30.6039 0.0230107 30.2552 0 29.901 0H28.8486ZM37.9011 11H36.9011V13H37.9011V11ZM37.9011 15H36.9011V17H37.9011V15ZM37.9011 19H36.9011V21H37.9011V19ZM37.9011 23H36.9011V25H37.9011V23ZM37.9011 27H36.9011V29H37.9011V27ZM37.9011 31H36.9011V33H37.9011V31ZM37.9011 35H36.9011V37H37.9011V35ZM37.9011 39H36.9011V41H37.9011V39ZM37.9011 43H36.9011V45H37.9011V43ZM37.9011 47H36.9011V49H37.9011V47ZM37.9011 51H36.9011V53H37.9011V51ZM37.9011 55H36.9011V57H37.9011V55ZM37.9011 59H36.9011V61H37.9011V59ZM37.9011 63H36.9011V64C36.9011 64.3108 36.8809 64.6163 36.8418 64.9155L37.8334 65.0449C37.878 64.7029 37.9011 64.3541 37.9011 64V63ZM26.7436 72V71H24.6387V72H26.7436ZM22.5337 72V71H20.4288V72H22.5337ZM18.3238 72V71H16.2189V72H18.3238ZM14.1139 72V71H12.009V72H14.1139Z" fill="#F9F9F9"/>
<path opacity="0.32" fill-rule="evenodd" clip-rule="evenodd" d="M60.8561 71.9324L60.9855 70.9408C61.2847 70.9798 61.5902 71 61.901 71H62.9535V72H61.901C61.5469 72 61.1981 71.977 60.8561 71.9324ZM81.898 72V71H82.9505C83.2613 71 83.5668 70.9798 83.866 70.9408L83.9954 71.9324C83.6534 71.977 83.3046 72 82.9505 72H81.898ZM86.0128 71.393L85.6297 70.4692C86.1983 70.2335 86.7294 69.9247 87.2114 69.5543L87.8208 70.3472C87.2703 70.7702 86.6632 71.1233 86.0128 71.393ZM89.2977 68.8703L88.5048 68.2609C88.8752 67.7789 89.184 67.2478 89.4197 66.6793L90.3434 67.0623C90.0737 67.7127 89.7207 68.3198 89.2977 68.8703ZM90.9505 9H89.9505V8C89.9505 7.68923 89.9303 7.38367 89.8913 7.08447L90.8829 6.95513C90.9275 7.2971 90.9505 7.64586 90.9505 8V9ZM90.3434 4.9377L89.4197 5.32075C89.184 4.75221 88.8752 4.22105 88.5048 3.73905L89.2977 3.12973C89.7207 3.68022 90.0737 4.28732 90.3434 4.9377ZM87.8208 1.6528L87.2114 2.44572C86.7294 2.07533 86.1983 1.76653 85.6297 1.53077L86.0128 0.607044C86.6632 0.876746 87.2703 1.22977 87.8208 1.6528ZM62.9535 0H61.901C61.5469 0 61.1981 0.0230106 60.8561 0.0676182L60.9855 1.05922C61.2847 1.02019 61.5902 1 61.901 1H62.9535V0ZM58.8387 0.607044L59.2218 1.53077C58.6532 1.76653 58.1221 2.07533 57.6401 2.44572L57.0307 1.6528C57.5812 1.22977 58.1883 0.876746 58.8387 0.607044ZM55.5538 3.12973L56.3467 3.73905C55.9763 4.22105 55.6675 4.75221 55.4318 5.32075L54.508 4.9377C54.7777 4.28732 55.1308 3.68022 55.5538 3.12973ZM53.901 63H54.901V64C54.901 64.3108 54.9212 64.6163 54.9602 64.9155L53.9686 65.0449C53.924 64.7029 53.901 64.3541 53.901 64V63ZM54.508 67.0623L55.4318 66.6792C55.6675 67.2478 55.9763 67.7789 56.3467 68.2609L55.5538 68.8703C55.1308 68.3198 54.7777 67.7127 54.508 67.0623ZM58.8387 71.393L59.2218 70.4692C58.6532 70.2335 58.1221 69.9247 57.6401 69.5543L57.0307 70.3472C57.5812 70.7702 58.1883 71.1233 58.8387 71.393ZM53.901 61H54.901V59H53.901V61ZM53.901 57H54.901V55H53.901V57ZM53.901 53H54.901V51H53.901V53ZM53.901 49H54.901V47H53.901V49ZM53.901 45H54.901V43H53.901V45ZM53.901 41H54.901V39H53.901V41ZM53.901 37H54.901V35H53.901V37ZM53.901 33H54.901V31H53.901V33ZM53.901 29H54.901V27H53.901V29ZM53.901 25H54.901V23H53.901V25ZM53.901 21H54.901V19H53.901V21ZM53.901 17H54.901V15H53.901V17ZM53.901 13H54.901V11H53.901V13ZM53.901 9H54.901V8C54.901 7.68923 54.9212 7.38367 54.9602 7.08447L53.9686 6.95513C53.924 7.2971 53.901 7.64586 53.901 8V9ZM65.0584 0V1H67.1634V0H65.0584ZM69.2683 0V1H71.3733V0H69.2683ZM73.4782 0V1H75.5832V0H73.4782ZM77.6881 0V1H79.7931V0H77.6881ZM81.898 0V1H82.9505C83.2613 1 83.5668 1.02019 83.866 1.05922L83.9954 0.0676183C83.6534 0.0230106 83.3046 0 82.9505 0H81.898ZM90.9505 11H89.9505V13H90.9505V11ZM90.9505 15H89.9505V17H90.9505V15ZM90.9505 19H89.9505V21H90.9505V19ZM90.9505 23H89.9505V25H90.9505V23ZM90.9505 27H89.9505V29H90.9505V27ZM90.9505 31H89.9505V33H90.9505V31ZM90.9505 35H89.9505V37H90.9505V35ZM90.9505 39H89.9505V41H90.9505V39ZM90.9505 43H89.9505V45H90.9505V43ZM90.9505 47H89.9505V49H90.9505V47ZM90.9505 51H89.9505V53H90.9505V51ZM90.9505 55H89.9505V57H90.9505V55ZM90.9505 59H89.9505V61H90.9505V59ZM90.9505 63H89.9505V64C89.9505 64.3108 89.9303 64.6163 89.8913 64.9155L90.8829 65.0449C90.9275 64.7029 90.9505 64.3541 90.9505 64V63ZM79.7931 72V71H77.6881V72H79.7931ZM75.5832 72V71H73.4782V72H75.5832ZM71.3733 72V71H69.2683V72H71.3733ZM67.1634 72V71H65.0584V72H67.1634Z" fill="#F9F9F9"/>
<path opacity="0.32" fill-rule="evenodd" clip-rule="evenodd" d="M113.906 71.9324L114.035 70.9408C114.334 70.9798 114.64 71 114.951 71H116.003V72H114.951C114.596 72 114.248 71.977 113.906 71.9324ZM134.948 72V71H136C136.311 71 136.616 70.9798 136.916 70.9408L137.045 71.9324C136.703 71.977 136.354 72 136 72H134.948ZM139.062 71.393L138.679 70.4692C139.248 70.2335 139.779 69.9247 140.261 69.5543L140.87 70.3472C140.32 70.7702 139.713 71.1233 139.062 71.393ZM142.347 68.8703L141.554 68.2609C141.925 67.7789 142.234 67.2478 142.469 66.6793L143.393 67.0623C143.123 67.7127 142.77 68.3198 142.347 68.8703ZM144 9H143V8C143 7.68923 142.98 7.38367 142.941 7.08447L143.932 6.95513C143.977 7.2971 144 7.64586 144 8V9ZM143.393 4.9377L142.469 5.32075C142.234 4.75221 141.925 4.22105 141.554 3.73905L142.347 3.12973C142.77 3.68022 143.123 4.28732 143.393 4.9377ZM140.87 1.6528L140.261 2.44572C139.779 2.07533 139.248 1.76653 138.679 1.53077L139.062 0.607044C139.713 0.876746 140.32 1.22977 140.87 1.6528ZM116.003 0H114.951C114.596 0 114.248 0.0230106 113.906 0.0676182L114.035 1.05922C114.334 1.02019 114.64 1 114.951 1H116.003V0ZM111.888 0.607044L112.271 1.53077C111.703 1.76653 111.172 2.07533 110.69 2.44572L110.08 1.6528C110.631 1.22977 111.238 0.876746 111.888 0.607044ZM108.603 3.12973L109.396 3.73905C109.026 4.22105 108.717 4.75221 108.481 5.32075L107.558 4.9377C107.827 4.28732 108.18 3.68022 108.603 3.12973ZM106.951 63H107.951V64C107.951 64.3108 107.971 64.6163 108.01 64.9155L107.018 65.0449C106.974 64.7029 106.951 64.3541 106.951 64V63ZM107.558 67.0623L108.481 66.6792C108.717 67.2478 109.026 67.7789 109.396 68.2609L108.603 68.8703C108.18 68.3198 107.827 67.7127 107.558 67.0623ZM111.888 71.393L112.271 70.4692C111.703 70.2335 111.172 69.9247 110.69 69.5543L110.08 70.3472C110.631 70.7702 111.238 71.1233 111.888 71.393ZM106.951 61H107.951V59H106.951V61ZM106.951 57H107.951V55H106.951V57ZM106.951 53H107.951V51H106.951V53ZM106.951 49H107.951V47H106.951V49ZM106.951 45H107.951V43H106.951V45ZM106.951 41H107.951V39H106.951V41ZM106.951 37H107.951V35H106.951V37ZM106.951 33H107.951V31H106.951V33ZM106.951 29H107.951V27H106.951V29ZM106.951 25H107.951V23H106.951V25ZM106.951 21H107.951V19H106.951V21ZM106.951 17H107.951V15H106.951V17ZM106.951 13H107.951V11H106.951V13ZM106.951 9H107.951V8C107.951 7.68923 107.971 7.38367 108.01 7.08447L107.018 6.95513C106.974 7.2971 106.951 7.64586 106.951 8V9ZM118.108 0V1H120.213V0H118.108ZM122.318 0V1H124.423V0H122.318ZM126.528 0V1H128.633V0H126.528ZM130.738 0V1H132.843V0H130.738ZM134.948 0V1H136C136.311 1 136.616 1.02019 136.916 1.05922L137.045 0.0676183C136.703 0.0230106 136.354 0 136 0H134.948ZM144 11H143V13H144V11ZM144 15H143V17H144V15ZM144 19H143V21H144V19ZM144 23H143V25H144V23ZM144 27H143V29H144V27ZM144 31H143V33H144V31ZM144 35H143V37H144V35ZM144 39H143V41H144V39ZM144 43H143V45H144V43ZM144 47H143V49H144V47ZM144 51H143V53H144V51ZM144 55H143V57H144V55ZM144 59H143V61H144V59ZM144 63H143V64C143 64.3108 142.98 64.6163 142.941 64.9155L143.932 65.0449C143.977 64.7029 144 64.3541 144 64V63ZM132.843 72V71H130.738V72H132.843ZM128.633 72V71H126.528V72H128.633ZM124.423 72V71H122.318V72H124.423ZM120.213 72V71H118.108V72H120.213Z" fill="#F9F9F9"/>
<path opacity="0.8" fill-rule="evenodd" clip-rule="evenodd" d="M189.049 1H168C164.134 1 161 4.13401 161 8V64C161 67.866 164.134 71 168 71H189.049C192.915 71 196.049 67.866 196.049 64V8C196.049 4.13401 192.915 1 189.049 1ZM168 0C163.582 0 160 3.58172 160 8V64C160 68.4183 163.582 72 168 72H189.049C193.468 72 197.049 68.4183 197.049 64V8C197.049 3.58172 193.468 0 189.049 0H168Z" fill="#F9F9F9"/>
<path opacity="0.32" fill-rule="evenodd" clip-rule="evenodd" d="M220.005 71.9324L220.134 70.9408C220.433 70.9798 220.739 71 221.05 71H222.102V72H221.05C220.695 72 220.347 71.977 220.005 71.9324ZM241.047 72V71H242.099C242.41 71 242.715 70.9798 243.015 70.9408L243.144 71.9324C242.802 71.977 242.453 72 242.099 72H241.047ZM245.161 71.393L244.778 70.4692C245.347 70.2335 245.878 69.9247 246.36 69.5543L246.969 70.3472C246.419 70.7702 245.812 71.1233 245.161 71.393ZM248.446 68.8703L247.653 68.2609C248.024 67.7789 248.333 67.2478 248.568 66.6793L249.492 67.0623C249.222 67.7127 248.869 68.3198 248.446 68.8703ZM250.099 9H249.099V8C249.099 7.68923 249.079 7.38367 249.04 7.08447L250.031 6.95513C250.076 7.2971 250.099 7.64586 250.099 8V9ZM249.492 4.9377L248.568 5.32075C248.333 4.75221 248.024 4.22105 247.653 3.73905L248.446 3.12973C248.869 3.68022 249.222 4.28732 249.492 4.9377ZM246.969 1.6528L246.36 2.44572C245.878 2.07533 245.347 1.76653 244.778 1.53077L245.161 0.607044C245.812 0.876746 246.419 1.22977 246.969 1.6528ZM222.102 0H221.05C220.695 0 220.347 0.0230106 220.005 0.0676182L220.134 1.05922C220.433 1.02019 220.739 1 221.05 1H222.102V0ZM217.987 0.607044L218.37 1.53077C217.802 1.76653 217.271 2.07533 216.789 2.44572L216.179 1.6528C216.73 1.22977 217.337 0.876746 217.987 0.607044ZM214.702 3.12973L215.495 3.73905C215.125 4.22105 214.816 4.75221 214.58 5.32075L213.657 4.9377C213.926 4.28732 214.279 3.68022 214.702 3.12973ZM213.05 63H214.05V64C214.05 64.3108 214.07 64.6163 214.109 64.9155L213.117 65.0449C213.073 64.7029 213.05 64.3541 213.05 64V63ZM213.657 67.0623L214.58 66.6792C214.816 67.2478 215.125 67.7789 215.495 68.2609L214.702 68.8703C214.279 68.3198 213.926 67.7127 213.657 67.0623ZM217.987 71.393L218.37 70.4692C217.802 70.2335 217.271 69.9247 216.789 69.5543L216.179 70.3472C216.73 70.7702 217.337 71.1233 217.987 71.393ZM213.05 61H214.05V59H213.05V61ZM213.05 57H214.05V55H213.05V57ZM213.05 53H214.05V51H213.05V53ZM213.05 49H214.05V47H213.05V49ZM213.05 45H214.05V43H213.05V45ZM213.05 41H214.05V39H213.05V41ZM213.05 37H214.05V35H213.05V37ZM213.05 33H214.05V31H213.05V33ZM213.05 29H214.05V27H213.05V29ZM213.05 25H214.05V23H213.05V25ZM213.05 21H214.05V19H213.05V21ZM213.05 17H214.05V15H213.05V17ZM213.05 13H214.05V11H213.05V13ZM213.05 9H214.05V8C214.05 7.68923 214.07 7.38367 214.109 7.08447L213.117 6.95513C213.073 7.2971 213.05 7.64586 213.05 8V9ZM224.207 0V1H226.312V0H224.207ZM228.417 0V1H230.522V0H228.417ZM232.627 0V1H234.732V0H232.627ZM236.837 0V1H238.942V0H236.837ZM241.047 0V1H242.099C242.41 1 242.715 1.02019 243.015 1.05922L243.144 0.0676183C242.802 0.0230106 242.453 0 242.099 0H241.047ZM250.099 11H249.099V13H250.099V11ZM250.099 15H249.099V17H250.099V15ZM250.099 19H249.099V21H250.099V19ZM250.099 23H249.099V25H250.099V23ZM250.099 27H249.099V29H250.099V27ZM250.099 31H249.099V33H250.099V31ZM250.099 35H249.099V37H250.099V35ZM250.099 39H249.099V41H250.099V39ZM250.099 43H249.099V45H250.099V43ZM250.099 47H249.099V49H250.099V47ZM250.099 51H249.099V53H250.099V51ZM250.099 55H249.099V57H250.099V55ZM250.099 59H249.099V61H250.099V59ZM250.099 63H249.099V64C249.099 64.3108 249.079 64.6163 249.04 64.9155L250.031 65.0449C250.076 64.7029 250.099 64.3541 250.099 64V63ZM238.942 72V71H236.837V72H238.942ZM234.732 72V71H232.627V72H234.732ZM230.522 72V71H228.417V72H230.522ZM226.312 72V71H224.207V72H226.312Z" fill="#F9F9F9"/>
<path opacity="0.32" fill-rule="evenodd" clip-rule="evenodd" d="M273.054 71.9324L273.183 70.9408C273.483 70.9798 273.788 71 274.099 71H275.151V72H274.099C273.745 72 273.396 71.977 273.054 71.9324ZM294.096 72V71H295.148C295.459 71 295.765 70.9798 296.064 70.9408L296.193 71.9324C295.851 71.977 295.503 72 295.148 72H294.096ZM298.211 71.393L297.828 70.4692C298.396 70.2335 298.927 69.9247 299.409 69.5543L300.019 70.3472C299.468 70.7702 298.861 71.1233 298.211 71.393ZM301.496 68.8703L300.703 68.2609C301.073 67.7789 301.382 67.2478 301.618 66.6793L302.541 67.0623C302.272 67.7127 301.919 68.3198 301.496 68.8703ZM303.148 9H302.148V8C302.148 7.68923 302.128 7.38367 302.089 7.08447L303.081 6.95513C303.125 7.2971 303.148 7.64586 303.148 8V9ZM302.541 4.9377L301.618 5.32075C301.382 4.75221 301.073 4.22105 300.703 3.73905L301.496 3.12973C301.919 3.68022 302.272 4.28732 302.541 4.9377ZM300.019 1.6528L299.409 2.44572C298.927 2.07533 298.396 1.76653 297.828 1.53077L298.211 0.607044C298.861 0.876746 299.468 1.22977 300.019 1.6528ZM275.151 0H274.099C273.745 0 273.396 0.0230106 273.054 0.0676182L273.183 1.05922C273.483 1.02019 273.788 1 274.099 1H275.151V0ZM271.037 0.607044L271.42 1.53077C270.851 1.76653 270.32 2.07533 269.838 2.44572L269.229 1.6528C269.779 1.22977 270.386 0.876746 271.037 0.607044ZM267.752 3.12973L268.545 3.73905C268.174 4.22105 267.866 4.75221 267.63 5.32075L266.706 4.9377C266.976 4.28732 267.329 3.68022 267.752 3.12973ZM266.099 63H267.099V64C267.099 64.3108 267.119 64.6163 267.158 64.9155L266.167 65.0449C266.122 64.7029 266.099 64.3541 266.099 64V63ZM266.706 67.0623L267.63 66.6792C267.866 67.2478 268.174 67.7789 268.545 68.2609L267.752 68.8703C267.329 68.3198 266.976 67.7127 266.706 67.0623ZM271.037 71.393L271.42 70.4692C270.851 70.2335 270.32 69.9247 269.838 69.5543L269.229 70.3472C269.779 70.7702 270.386 71.1233 271.037 71.393ZM266.099 61H267.099V59H266.099V61ZM266.099 57H267.099V55H266.099V57ZM266.099 53H267.099V51H266.099V53ZM266.099 49H267.099V47H266.099V49ZM266.099 45H267.099V43H266.099V45ZM266.099 41H267.099V39H266.099V41ZM266.099 37H267.099V35H266.099V37ZM266.099 33H267.099V31H266.099V33ZM266.099 29H267.099V27H266.099V29ZM266.099 25H267.099V23H266.099V25ZM266.099 21H267.099V19H266.099V21ZM266.099 17H267.099V15H266.099V17ZM266.099 13H267.099V11H266.099V13ZM266.099 9H267.099V8C267.099 7.68923 267.119 7.38367 267.158 7.08447L266.167 6.95513C266.122 7.2971 266.099 7.64586 266.099 8V9ZM277.256 0V1H279.361V0H277.256ZM281.466 0V1H283.571V0H281.466ZM285.676 0V1H287.781V0H285.676ZM289.886 0V1H291.991V0H289.886ZM294.096 0V1H295.148C295.459 1 295.765 1.02019 296.064 1.05922L296.193 0.0676183C295.851 0.0230106 295.503 0 295.148 0H294.096ZM303.148 11H302.148V13H303.148V11ZM303.148 15H302.148V17H303.148V15ZM303.148 19H302.148V21H303.148V19ZM303.148 23H302.148V25H303.148V23ZM303.148 27H302.148V29H303.148V27ZM303.148 31H302.148V33H303.148V31ZM303.148 35H302.148V37H303.148V35ZM303.148 39H302.148V41H303.148V39ZM303.148 43H302.148V45H303.148V43ZM303.148 47H302.148V49H303.148V47ZM303.148 51H302.148V53H303.148V51ZM303.148 55H302.148V57H303.148V55ZM303.148 59H302.148V61H303.148V59ZM303.148 63H302.148V64C302.148 64.3108 302.128 64.6163 302.089 64.9155L303.081 65.0449C303.125 64.7029 303.148 64.3541 303.148 64V63ZM291.991 72V71H289.886V72H291.991ZM287.781 72V71H285.676V72H287.781ZM283.571 72V71H281.466V72H283.571ZM279.361 72V71H277.256V72H279.361Z" fill="#F9F9F9"/>
<path opacity="0.32" fill-rule="evenodd" clip-rule="evenodd" d="M7.80669 159.932L7.93604 158.941C8.23524 158.98 8.54079 159 8.85157 159H9.90404V160H8.85157C8.49743 160 8.14867 159.977 7.80669 159.932ZM28.8486 160V159H29.9011C30.2118 159 30.5174 158.98 30.8166 158.941L30.9459 159.932C30.6039 159.977 30.2552 160 29.9011 160H28.8486ZM32.9634 159.393L32.5803 158.469C33.1488 158.233 33.68 157.925 34.162 157.554L34.7713 158.347C34.2208 158.77 33.6137 159.123 32.9634 159.393ZM36.2482 156.87L35.4553 156.261C35.8257 155.779 36.1345 155.248 36.3703 154.679L37.294 155.062C37.0243 155.713 36.6713 156.32 36.2482 156.87ZM37.9011 97H36.9011V96C36.9011 95.6892 36.8809 95.3837 36.8418 95.0845L37.8334 94.9551C37.878 95.2971 37.9011 95.6459 37.9011 96V97ZM37.294 92.9377L36.3703 93.3208C36.1345 92.7522 35.8257 92.2211 35.4553 91.7391L36.2482 91.1297C36.6713 91.6802 37.0243 92.2873 37.294 92.9377ZM34.7713 89.6528L34.162 90.4457C33.68 90.0753 33.1488 89.7665 32.5803 89.5308L32.9633 88.607C33.6137 88.8767 34.2208 89.2298 34.7713 89.6528ZM9.90404 88H8.85156C8.49743 88 8.14866 88.023 7.80669 88.0676L7.93603 89.0592C8.23523 89.0202 8.54079 89 8.85156 89H9.90404V88ZM5.78926 88.607C5.13888 88.8767 4.53178 89.2298 3.98129 89.6528L4.59062 90.4457C5.07261 90.0753 5.60378 89.7665 6.17231 89.5308L5.78926 88.607ZM2.50437 91.1297L3.29729 91.7391C2.92689 92.2211 2.6181 92.7522 2.38233 93.3208L1.45861 92.9377C1.72831 92.2873 2.08133 91.6802 2.50437 91.1297ZM0.851562 151H1.85156V152C1.85156 152.311 1.87175 152.616 1.91078 152.916L0.919181 153.045C0.874573 152.703 0.851562 152.354 0.851562 152V151ZM1.45861 155.062L2.38233 154.679C2.6181 155.248 2.92689 155.779 3.29729 156.261L2.50437 156.87C2.08133 156.32 1.72831 155.713 1.45861 155.062ZM5.78926 159.393L6.17232 158.469C5.60378 158.233 5.07262 157.925 4.59062 157.554L3.98129 158.347C4.53179 158.77 5.13888 159.123 5.78926 159.393ZM0.851562 149H1.85156V147H0.851562V149ZM0.851562 145H1.85156V143H0.851562V145ZM0.851562 141H1.85156V139H0.851562V141ZM0.851562 137H1.85156V135H0.851562V137ZM0.851562 133H1.85156V131H0.851562V133ZM0.851562 129H1.85156V127H0.851562V129ZM0.851562 125H1.85156V123H0.851562V125ZM0.851562 121H1.85156V119H0.851562V121ZM0.851562 117H1.85156V115H0.851562V117ZM0.851562 113H1.85156V111H0.851562V113ZM0.851562 109H1.85156V107H0.851562V109ZM0.851562 105H1.85156V103H0.851562V105ZM0.851562 101H1.85156V99H0.851562V101ZM0.851562 97H1.85156V96C1.85156 95.6892 1.87175 95.3837 1.91078 95.0845L0.919181 94.9551C0.874573 95.2971 0.851562 95.6459 0.851562 96V97ZM12.009 88V89H14.1139V88H12.009ZM16.2189 88V89H18.3238V88H16.2189ZM20.4288 88V89H22.5337V88H20.4288ZM24.6387 88V89H26.7436V88H24.6387ZM28.8486 88V89H29.901C30.2118 89 30.5174 89.0202 30.8166 89.0592L30.9459 88.0676C30.6039 88.023 30.2552 88 29.901 88H28.8486ZM37.9011 99H36.9011V101H37.9011V99ZM37.9011 103H36.9011V105H37.9011V103ZM37.9011 107H36.9011V109H37.9011V107ZM37.9011 111H36.9011V113H37.9011V111ZM37.9011 115H36.9011V117H37.9011V115ZM37.9011 119H36.9011V121H37.9011V119ZM37.9011 123H36.9011V125H37.9011V123ZM37.9011 127H36.9011V129H37.9011V127ZM37.9011 131H36.9011V133H37.9011V131ZM37.9011 135H36.9011V137H37.9011V135ZM37.9011 139H36.9011V141H37.9011V139ZM37.9011 143H36.9011V145H37.9011V143ZM37.9011 147H36.9011V149H37.9011V147ZM37.9011 151H36.9011V152C36.9011 152.311 36.8809 152.616 36.8418 152.916L37.8334 153.045C37.878 152.703 37.9011 152.354 37.9011 152V151ZM26.7436 160V159H24.6387V160H26.7436ZM22.5337 160V159H20.4288V160H22.5337ZM18.3238 160V159H16.2189V160H18.3238ZM14.1139 160V159H12.009V160H14.1139Z" fill="#F9F9F9"/>
<path opacity="0.8" fill-rule="evenodd" clip-rule="evenodd" d="M82.9505 89H61.901C58.035 89 54.901 92.134 54.901 96V152C54.901 155.866 58.035 159 61.901 159H82.9505C86.8165 159 89.9505 155.866 89.9505 152V96C89.9505 92.134 86.8165 89 82.9505 89ZM61.901 88C57.4827 88 53.901 91.5817 53.901 96V152C53.901 156.418 57.4827 160 61.901 160H82.9505C87.3688 160 90.9505 156.418 90.9505 152V96C90.9505 91.5817 87.3688 88 82.9505 88H61.901Z" fill="#F9F9F9"/>
<path opacity="0.32" fill-rule="evenodd" clip-rule="evenodd" d="M113.906 159.932L114.035 158.941C114.334 158.98 114.64 159 114.951 159H116.003V160H114.951C114.596 160 114.248 159.977 113.906 159.932ZM134.948 160V159H136C136.311 159 136.616 158.98 136.916 158.941L137.045 159.932C136.703 159.977 136.354 160 136 160H134.948ZM139.062 159.393L138.679 158.469C139.248 158.233 139.779 157.925 140.261 157.554L140.87 158.347C140.32 158.77 139.713 159.123 139.062 159.393ZM142.347 156.87L141.554 156.261C141.925 155.779 142.234 155.248 142.469 154.679L143.393 155.062C143.123 155.713 142.77 156.32 142.347 156.87ZM144 97H143V96C143 95.6892 142.98 95.3837 142.941 95.0845L143.932 94.9551C143.977 95.2971 144 95.6459 144 96V97ZM143.393 92.9377L142.469 93.3208C142.234 92.7522 141.925 92.2211 141.554 91.7391L142.347 91.1297C142.77 91.6802 143.123 92.2873 143.393 92.9377ZM140.87 89.6528L140.261 90.4457C139.779 90.0753 139.248 89.7665 138.679 89.5308L139.062 88.607C139.713 88.8767 140.32 89.2298 140.87 89.6528ZM116.003 88H114.951C114.596 88 114.248 88.023 113.906 88.0676L114.035 89.0592C114.334 89.0202 114.64 89 114.951 89H116.003V88ZM111.888 88.607L112.271 89.5308C111.703 89.7665 111.172 90.0753 110.69 90.4457L110.08 89.6528C110.631 89.2298 111.238 88.8767 111.888 88.607ZM108.603 91.1297L109.396 91.7391C109.026 92.2211 108.717 92.7522 108.481 93.3208L107.558 92.9377C107.827 92.2873 108.18 91.6802 108.603 91.1297ZM106.951 151H107.951V152C107.951 152.311 107.971 152.616 108.01 152.916L107.018 153.045C106.974 152.703 106.951 152.354 106.951 152V151ZM107.558 155.062L108.481 154.679C108.717 155.248 109.026 155.779 109.396 156.261L108.603 156.87C108.18 156.32 107.827 155.713 107.558 155.062ZM111.888 159.393L112.271 158.469C111.703 158.233 111.172 157.925 110.69 157.554L110.08 158.347C110.631 158.77 111.238 159.123 111.888 159.393ZM106.951 149H107.951V147H106.951V149ZM106.951 145H107.951V143H106.951V145ZM106.951 141H107.951V139H106.951V141ZM106.951 137H107.951V135H106.951V137ZM106.951 133H107.951V131H106.951V133ZM106.951 129H107.951V127H106.951V129ZM106.951 125H107.951V123H106.951V125ZM106.951 121H107.951V119H106.951V121ZM106.951 117H107.951V115H106.951V117ZM106.951 113H107.951V111H106.951V113ZM106.951 109H107.951V107H106.951V109ZM106.951 105H107.951V103H106.951V105ZM106.951 101H107.951V99H106.951V101ZM106.951 97H107.951V96C107.951 95.6892 107.971 95.3837 108.01 95.0845L107.018 94.9551C106.974 95.2971 106.951 95.6459 106.951 96V97ZM118.108 88V89H120.213V88H118.108ZM122.318 88V89H124.423V88H122.318ZM126.528 88V89H128.633V88H126.528ZM130.738 88V89H132.843V88H130.738ZM134.948 88V89H136C136.311 89 136.616 89.0202 136.916 89.0592L137.045 88.0676C136.703 88.023 136.354 88 136 88H134.948ZM144 99H143V101H144V99ZM144 103H143V105H144V103ZM144 107H143V109H144V107ZM144 111H143V113H144V111ZM144 115H143V117H144V115ZM144 119H143V121H144V119ZM144 123H143V125H144V123ZM144 127H143V129H144V127ZM144 131H143V133H144V131ZM144 135H143V137H144V135ZM144 139H143V141H144V139ZM144 143H143V145H144V143ZM144 147H143V149H144V147ZM144 151H143V152C143 152.311 142.98 152.616 142.941 152.916L143.932 153.045C143.977 152.703 144 152.354 144 152V151ZM132.843 160V159H130.738V160H132.843ZM128.633 160V159H126.528V160H128.633ZM124.423 160V159H122.318V160H124.423ZM120.213 160V159H118.108V160H120.213Z" fill="#F9F9F9"/>
<path opacity="0.32" fill-rule="evenodd" clip-rule="evenodd" d="M166.955 159.932L167.084 158.941C167.384 158.98 167.689 159 168 159H169.052V160H168C167.646 160 167.297 159.977 166.955 159.932ZM187.997 160V159H189.049C189.36 159 189.666 158.98 189.965 158.941L190.094 159.932C189.752 159.977 189.404 160 189.049 160H187.997ZM192.112 159.393L191.729 158.469C192.297 158.233 192.828 157.925 193.31 157.554L193.92 158.347C193.369 158.77 192.762 159.123 192.112 159.393ZM195.397 156.87L194.604 156.261C194.974 155.779 195.283 155.248 195.519 154.679L196.442 155.062C196.173 155.713 195.82 156.32 195.397 156.87ZM197.049 97H196.049V96C196.049 95.6892 196.029 95.3837 195.99 95.0845L196.982 94.9551C197.026 95.2971 197.049 95.6459 197.049 96V97ZM196.442 92.9377L195.519 93.3208C195.283 92.7522 194.974 92.2211 194.604 91.7391L195.397 91.1297C195.82 91.6802 196.173 92.2873 196.442 92.9377ZM193.92 89.6528L193.31 90.4457C192.828 90.0753 192.297 89.7665 191.729 89.5308L192.112 88.607C192.762 88.8767 193.369 89.2298 193.92 89.6528ZM169.052 88H168C167.646 88 167.297 88.023 166.955 88.0676L167.084 89.0592C167.384 89.0202 167.689 89 168 89H169.052V88ZM164.938 88.607L165.321 89.5308C164.752 89.7665 164.221 90.0753 163.739 90.4457L163.13 89.6528C163.68 89.2298 164.287 88.8767 164.938 88.607ZM161.653 91.1297L162.446 91.7391C162.075 92.2211 161.767 92.7522 161.531 93.3208L160.607 92.9377C160.877 92.2873 161.23 91.6802 161.653 91.1297ZM160 151H161V152C161 152.311 161.02 152.616 161.059 152.916L160.068 153.045C160.023 152.703 160 152.354 160 152V151ZM160.607 155.062L161.531 154.679C161.767 155.248 162.075 155.779 162.446 156.261L161.653 156.87C161.23 156.32 160.877 155.713 160.607 155.062ZM164.938 159.393L165.321 158.469C164.752 158.233 164.221 157.925 163.739 157.554L163.13 158.347C163.68 158.77 164.287 159.123 164.938 159.393ZM160 149H161V147H160V149ZM160 145H161V143H160V145ZM160 141H161V139H160V141ZM160 137H161V135H160V137ZM160 133H161V131H160V133ZM160 129H161V127H160V129ZM160 125H161V123H160V125ZM160 121H161V119H160V121ZM160 117H161V115H160V117ZM160 113H161V111H160V113ZM160 109H161V107H160V109ZM160 105H161V103H160V105ZM160 101H161V99H160V101ZM160 97H161V96C161 95.6892 161.02 95.3837 161.059 95.0845L160.068 94.9551C160.023 95.2971 160 95.6459 160 96V97ZM171.157 88V89H173.262V88H171.157ZM175.367 88V89H177.472V88H175.367ZM179.577 88V89H181.682V88H179.577ZM183.787 88V89H185.892V88H183.787ZM187.997 88V89H189.049C189.36 89 189.666 89.0202 189.965 89.0592L190.094 88.0676C189.752 88.023 189.404 88 189.049 88H187.997ZM197.049 99H196.049V101H197.049V99ZM197.049 103H196.049V105H197.049V103ZM197.049 107H196.049V109H197.049V107ZM197.049 111H196.049V113H197.049V111ZM197.049 115H196.049V117H197.049V115ZM197.049 119H196.049V121H197.049V119ZM197.049 123H196.049V125H197.049V123ZM197.049 127H196.049V129H197.049V127ZM197.049 131H196.049V133H197.049V131ZM197.049 135H196.049V137H197.049V135ZM197.049 139H196.049V141H197.049V139ZM197.049 143H196.049V145H197.049V143ZM197.049 147H196.049V149H197.049V147ZM197.049 151H196.049V152C196.049 152.311 196.029 152.616 195.99 152.916L196.982 153.045C197.026 152.703 197.049 152.354 197.049 152V151ZM185.892 160V159H183.787V160H185.892ZM181.682 160V159H179.577V160H181.682ZM177.472 160V159H175.367V160H177.472ZM173.262 160V159H171.157V160H173.262Z" fill="#F9F9F9"/>
<path opacity="0.8" fill-rule="evenodd" clip-rule="evenodd" d="M242.099 89H221.05C217.184 89 214.05 92.134 214.05 96V152C214.05 155.866 217.184 159 221.05 159H242.099C245.965 159 249.099 155.866 249.099 152V96C249.099 92.134 245.965 89 242.099 89ZM221.05 88C216.631 88 213.05 91.5817 213.05 96V152C213.05 156.418 216.631 160 221.05 160H242.099C246.517 160 250.099 156.418 250.099 152V96C250.099 91.5817 246.517 88 242.099 88H221.05Z" fill="#F9F9F9"/>
<path opacity="0.32" fill-rule="evenodd" clip-rule="evenodd" d="M273.054 159.932L273.183 158.941C273.483 158.98 273.788 159 274.099 159H275.151V160H274.099C273.745 160 273.396 159.977 273.054 159.932ZM294.096 160V159H295.148C295.459 159 295.765 158.98 296.064 158.941L296.193 159.932C295.851 159.977 295.503 160 295.148 160H294.096ZM298.211 159.393L297.828 158.469C298.396 158.233 298.927 157.925 299.409 157.554L300.019 158.347C299.468 158.77 298.861 159.123 298.211 159.393ZM301.496 156.87L300.703 156.261C301.073 155.779 301.382 155.248 301.618 154.679L302.541 155.062C302.272 155.713 301.919 156.32 301.496 156.87ZM303.148 97H302.148V96C302.148 95.6892 302.128 95.3837 302.089 95.0845L303.081 94.9551C303.125 95.2971 303.148 95.6459 303.148 96V97ZM302.541 92.9377L301.618 93.3208C301.382 92.7522 301.073 92.2211 300.703 91.7391L301.496 91.1297C301.919 91.6802 302.272 92.2873 302.541 92.9377ZM300.019 89.6528L299.409 90.4457C298.927 90.0753 298.396 89.7665 297.828 89.5308L298.211 88.607C298.861 88.8767 299.468 89.2298 300.019 89.6528ZM275.151 88H274.099C273.745 88 273.396 88.023 273.054 88.0676L273.183 89.0592C273.483 89.0202 273.788 89 274.099 89H275.151V88ZM271.037 88.607L271.42 89.5308C270.851 89.7665 270.32 90.0753 269.838 90.4457L269.229 89.6528C269.779 89.2298 270.386 88.8767 271.037 88.607ZM267.752 91.1297L268.545 91.7391C268.174 92.2211 267.866 92.7522 267.63 93.3208L266.706 92.9377C266.976 92.2873 267.329 91.6802 267.752 91.1297ZM266.099 151H267.099V152C267.099 152.311 267.119 152.616 267.158 152.916L266.167 153.045C266.122 152.703 266.099 152.354 266.099 152V151ZM266.706 155.062L267.63 154.679C267.866 155.248 268.174 155.779 268.545 156.261L267.752 156.87C267.329 156.32 266.976 155.713 266.706 155.062ZM271.037 159.393L271.42 158.469C270.851 158.233 270.32 157.925 269.838 157.554L269.229 158.347C269.779 158.77 270.386 159.123 271.037 159.393ZM266.099 149H267.099V147H266.099V149ZM266.099 145H267.099V143H266.099V145ZM266.099 141H267.099V139H266.099V141ZM266.099 137H267.099V135H266.099V137ZM266.099 133H267.099V131H266.099V133ZM266.099 129H267.099V127H266.099V129ZM266.099 125H267.099V123H266.099V125ZM266.099 121H267.099V119H266.099V121ZM266.099 117H267.099V115H266.099V117ZM266.099 113H267.099V111H266.099V113ZM266.099 109H267.099V107H266.099V109ZM266.099 105H267.099V103H266.099V105ZM266.099 101H267.099V99H266.099V101ZM266.099 97H267.099V96C267.099 95.6892 267.119 95.3837 267.158 95.0845L266.167 94.9551C266.122 95.2971 266.099 95.6459 266.099 96V97ZM277.256 88V89H279.361V88H277.256ZM281.466 88V89H283.571V88H281.466ZM285.676 88V89H287.781V88H285.676ZM289.886 88V89H291.991V88H289.886ZM294.096 88V89H295.148C295.459 89 295.765 89.0202 296.064 89.0592L296.193 88.0676C295.851 88.023 295.503 88 295.148 88H294.096ZM303.148 99H302.148V101H303.148V99ZM303.148 103H302.148V105H303.148V103ZM303.148 107H302.148V109H303.148V107ZM303.148 111H302.148V113H303.148V111ZM303.148 115H302.148V117H303.148V115ZM303.148 119H302.148V121H303.148V119ZM303.148 123H302.148V125H303.148V123ZM303.148 127H302.148V129H303.148V127ZM303.148 131H302.148V133H303.148V131ZM303.148 135H302.148V137H303.148V135ZM303.148 139H302.148V141H303.148V139ZM303.148 143H302.148V145H303.148V143ZM303.148 147H302.148V149H303.148V147ZM303.148 151H302.148V152C302.148 152.311 302.128 152.616 302.089 152.916L303.081 153.045C303.125 152.703 303.148 152.354 303.148 152V151ZM291.991 160V159H289.886V160H291.991ZM287.781 160V159H285.676V160H287.781ZM283.571 160V159H281.466V160H283.571ZM279.361 160V159H277.256V160H279.361Z" fill="#F9F9F9"/>
</svg>
