<svg xmlns="http://www.w3.org/2000/svg" fill="none" viewBox="0 0 24 24" stroke-width="1.5" stroke="#ffffff" class="w-6 h-6">
        <defs>
    <linearGradient id="gradient" gradientTransform="rotate(228)">
      <stop offset="0%" stop-color="#4fb0f9" />
      <stop offset="33%" stop-color="#71d7f3" />
      <stop offset="66%" stop-color="#cff8f1" />
      <stop offset="100%" stop-color="#3ee7d9" />
    </linearGradient>
  </defs>
  <path stroke-linecap="round" stroke-linejoin="round" stroke="url(#gradient)" d="M12 6.042A8.967 8.967 0 0 0 6 3.75c-1.052 0-2.062.18-3 .512v14.25A8.987 8.987 0 0 1 6 18c2.305 0 4.408.867 6 2.292m0-14.25a8.966 8.966 0 0 1 6-2.292c1.052 0 2.062.18 3 .512v14.25A8.987 8.987 0 0 0 18 18a8.967 8.967 0 0 0-6 2.292m0-14.25v14.25" />
</svg>
