<svg xmlns="http://www.w3.org/2000/svg" width="98" height="24" viewBox="0 0 98 24" fill="none">
  <g clip-path="url(#clip0_697_1321)">
    <path d="M35.8113 17.8796C34.0723 18.273 30.5508 18.8413 30.9421 16.2621C31.2464 14.3386 34.2897 14.3386 36.2461 14.6009L35.8113 17.8796ZM29.4205 10.7539C31.942 10.1856 36.5504 8.65552 36.5069 12.5025C34.2897 12.5462 32.6376 12.2402 30.5508 12.9834C25.2034 14.9506 26.812 22.5134 36.2461 20.2402C39.1589 19.5408 38.6372 19.3659 39.072 16.4807C39.5937 13.1145 40.7675 8.8741 36.1156 7.73749C34.8114 7.43147 31.5073 7.60634 30.2465 8.0435L29.4205 10.7539ZM73.026 12.8522L67.3308 12.896C67.7221 9.35497 73.5912 8.26207 73.026 12.8522ZM74.1998 17.4861C72.5478 17.7921 71.2435 18.4479 69.3741 18.1419C67.722 17.8358 66.7656 16.9615 66.896 15.038H75.7649C76.0258 12.3714 76.504 8.39322 72.0696 7.69377C64.0267 6.46973 60.9834 16.7429 66.1135 19.8031C68.1568 21.0271 72.9391 20.6774 73.4608 19.8468C73.6347 19.6282 74.1129 17.8796 74.1998 17.4861ZM87.1119 17.355L86.4163 19.7593C89.4161 21.508 98.1546 20.6774 96.2852 15.4752C95.9374 14.5134 95.1983 13.9451 94.3288 13.4205C93.7636 13.0708 92.1551 12.3276 91.8073 11.9342C90.7639 10.6664 92.5463 8.96153 96.7634 10.6664C97.0243 10.3167 97.0677 10.0107 97.2417 9.52983C97.4156 9.04896 97.5025 8.78667 97.6329 8.30579C95.3722 7.7812 93.1985 7.16918 90.7639 8.08721C88.9379 8.78667 85.8077 12.0654 90.9378 14.8632C91.7203 15.3003 93.068 15.7812 93.0246 16.7867C92.9811 17.9233 91.5464 18.1419 90.3726 18.0981C88.851 18.0981 88.3727 17.7047 87.1119 17.355ZM86.7641 8.26207C84.5034 7.82492 82.1558 7.08175 79.7647 8.13093C78.7647 8.56809 78.1126 9.04896 77.6779 10.0544C75.7649 14.5572 82.5036 14.8195 82.1993 16.8741C82.0254 17.9233 80.6342 18.1419 79.4603 18.0981C78.1126 18.0544 77.504 17.7484 76.3736 17.355C76.0258 17.7921 75.678 19.0599 75.6345 19.7593C77.1996 20.6774 80.895 20.8085 82.721 20.1965C84.5034 19.5845 86.5468 17.7047 85.3729 15.2129C84.5034 13.4205 81.3298 12.7211 80.8515 11.7156C80.1994 10.4042 81.7645 9.96699 82.7644 9.92328C84.1556 9.87956 84.8947 10.273 86.0251 10.6664L86.7641 8.26207ZM52.5492 8.30579C50.0712 7.65005 47.6366 7.21289 45.115 8.26207C40.6805 10.0544 39.3763 16.6118 42.9847 19.4096C44.7672 20.7648 47.5496 20.7648 50.1581 20.3276L51.0711 17.5736C49.3321 17.967 47.7235 18.4479 46.0714 17.4424C43.4629 15.8249 44.0716 11.5845 47.1148 10.4479C49.1147 9.7047 50.0712 10.3167 51.7667 10.7102L52.5492 8.30579ZM62.4616 17.6173C60.6356 17.967 59.2444 18.4479 57.5489 17.5298C55.0708 16.1746 55.2882 11.8031 58.5053 10.4916C60.5052 9.66098 61.4616 10.4479 63.1572 10.7102L63.9832 8.34951C61.3747 7.65005 58.4184 7.16918 55.9838 8.52437C50.7668 11.4096 50.0712 21.6828 60.4617 20.5025C61.5921 20.3714 61.5486 20.5025 61.8529 19.5408C62.0703 18.885 62.3311 18.273 62.4616 17.6173Z" fill="#F5F5F5"/>
    <path d="M10.1176 1.9235L20.8994 12.7213L11.5957 22.0765L2.29206 12.7213L6.76999 8.08743H4.94404L0.37915 12.7213L11.5957 24L22.7688 12.7213L10.1611 0L10.1176 1.9235Z" fill="#F5F5F5"/>
    <path d="M10.1611 8.13101L8.20474 8.08729L3.72681 12.7212L11.5958 20.6337L19.4648 12.7212L10.1611 3.32227L10.1176 5.15833L17.6388 12.7212L11.5958 18.7977L5.59624 12.7212L10.1611 8.13101Z" fill="#F5F5F5"/>
    <path d="M11.5522 10.0109L14.2911 12.7213L11.5522 15.4317L8.81328 12.7213L11.5522 10.0109ZM16.1606 12.7213L11.5522 8.0874L6.94385 12.7213L11.5522 17.3552L16.1606 12.7213Z" fill="#F5F5F5"/>
  </g>
  <defs>
    <clipPath id="clip0_697_1321">
      <rect width="97.2973" height="24" fill="white" transform="translate(0.37915)"/>
    </clipPath>
  </defs>
</svg>