<svg xmlns="http://www.w3.org/2000/svg" width="29" height="28" viewBox="0 0 29 28" fill="none">
  <path d="M14.6957 28C14.5659 28 14.4145 28 14.2847 28L17.1405 20.1358H21.0781C21.7704 20.1358 22.5276 19.5957 22.7656 18.9475L25.881 10.4136C26.4003 9.00926 25.5781 7.8642 24.107 7.8642H18.6333L14.0467 20.4815L11.4505 27.6327C5.28452 26.1636 0.67627 20.6327 0.67627 14C0.67627 7.58333 5.00327 2.16049 10.9096 0.518518L8.22688 7.8858L3.77007 20.1358H6.73406L10.5202 9.72222H12.7486L8.96247 20.1358H11.9265L15.4746 10.4352C15.9938 9.03086 15.1933 7.8858 13.7005 7.8858H11.1909L14.0683 0.0216046C14.2847 0.0216046 14.4794 0 14.6957 0C22.4411 0 28.7152 6.26543 28.7152 14C28.7152 21.7346 22.4411 28 14.6957 28ZM23.1767 9.72222H20.9482L17.8112 18.2994H20.0396L23.1767 9.72222Z" fill="#F5F5F5"/>
</svg>