<svg xmlns="http://www.w3.org/2000/svg" width="108" height="26" viewBox="0 0 108 26" fill="none">
  <path fill-rule="evenodd" clip-rule="evenodd" d="M59.667 16.5403C59.667 16.7551 59.6505 16.9699 59.5844 17.1517C59.4378 17.5811 59.159 17.9532 58.788 18.2144C58.4169 18.4756 57.9726 18.6126 57.5189 18.6058C56.6762 18.6058 56.007 18.1266 56.007 17.1021C56.007 15.5489 57.7172 15.1193 59.667 15.1275V16.5403ZM62.7239 13.8304C62.7239 11.2692 61.625 9.0055 57.9237 9.0055C56.0235 9.0055 54.5116 9.53426 53.6854 10.0134L54.2885 12.0789C55.2246 11.5238 56.2902 11.2246 57.3784 11.2114C59.2621 11.2114 59.5678 12.2772 59.5678 12.9547V13.1199C55.47 13.1199 52.8758 14.5327 52.8758 17.4243C52.8758 19.1923 54.1976 20.8447 56.4944 20.8447C57.8989 20.8447 59.0804 20.2829 59.7909 19.3824H59.857C59.857 19.3824 60.3279 21.3404 62.9139 20.5886C62.7734 19.7707 62.7239 18.9032 62.7239 17.8622V13.8304ZM0 5.51074L3.10645 18.2588C3.60216 20.3407 4.5027 21.1091 7.08866 20.5886L8.76581 13.7891C9.18716 12.0954 9.47633 10.8975 9.74897 9.17074H9.79028C9.98856 10.9057 10.2612 12.1037 10.6082 13.7974L11.6327 18.5066C11.9879 20.1259 12.9546 21.1504 15.4992 20.5886L19.4814 5.51074H16.2593L14.9044 12.0293C14.5326 13.9296 14.2021 15.4167 13.946 17.1517H13.9047C13.6733 15.4249 13.3759 14.0039 12.9959 12.1533L11.5914 5.51074H8.23705L6.71687 11.9798C6.29552 13.9461 5.89069 15.5323 5.64283 17.2095H5.59326C5.32888 15.6398 4.98189 13.6321 4.60184 11.7319L3.38735 5.51074H0ZM25.3721 16.5403C25.3721 16.7551 25.3556 16.9699 25.2895 17.1517C25.1429 17.5811 24.8641 17.9532 24.4931 18.2144C24.122 18.4756 23.6778 18.6126 23.224 18.6058C22.3813 18.6058 21.7121 18.1266 21.7121 17.1021C21.7121 15.5489 23.4223 15.1193 25.3721 15.1275V16.5403ZM28.429 13.8304C28.429 11.2692 27.3384 9.0055 23.6371 9.0055C21.7369 9.0055 20.2167 9.53426 19.3905 10.0134L19.9936 12.0789C20.9299 11.5241 21.9954 11.225 23.0836 11.2114C24.9673 11.2114 25.273 12.2772 25.273 12.9547V13.1199C21.1751 13.1199 18.5809 14.5327 18.5809 17.4243C18.5809 19.1923 19.9028 20.8447 22.1996 20.8447C23.6041 20.8447 24.7855 20.2829 25.496 19.3824H25.5621C25.5621 19.3824 26.033 21.3404 28.619 20.5886C28.4785 19.7707 28.429 18.9032 28.429 17.8622V13.8304ZM33.163 17.383V5.519H30.1061V20.5969H33.163V17.3913M72.1258 5.519V16.6394C72.1258 18.1761 72.415 19.2502 73.0346 19.9029C73.5717 20.4812 74.4557 20.853 75.5214 20.853C76.4303 20.853 77.3143 20.6877 77.7356 20.5225L77.7026 18.1266C77.3886 18.2092 77.0251 18.267 76.5377 18.267C75.4967 18.267 75.1414 17.6061 75.1414 16.2263V11.9715H77.81V9.07985H75.1414V5.51074H72.1258M64.2193 9.26162V20.5886H67.3753V14.7888C67.3753 14.4748 67.4001 14.2105 67.4496 13.9543C67.681 12.7398 68.6063 11.9632 69.9447 11.9632C70.3082 11.9632 70.5726 11.9963 70.8535 12.0459V9.07159C70.6255 9.02303 70.3926 9.00085 70.1595 9.0055C68.9781 9.0055 67.6397 9.76559 67.0779 11.4014H66.9952V9.25335H64.2193M34.9476 9.25335V20.5886H38.0044V13.9461C38.0044 13.6321 38.0458 13.3017 38.1532 13.0208C38.401 12.3515 39.0289 11.5667 40.0203 11.5667C41.2596 11.5667 41.8462 12.6159 41.8462 14.1278V20.5886H44.9196V13.8635C44.9196 13.566 44.9609 13.2025 45.0518 12.9464C45.1724 12.5473 45.4183 12.1977 45.7531 11.9492C46.0879 11.7007 46.4938 11.5666 46.9107 11.5667C48.1665 11.5667 48.7696 12.5994 48.7696 14.3757V20.5886H51.8513V13.913C51.8513 10.4017 50.0585 9.0055 48.0508 9.0055C47.1503 9.0055 46.448 9.22857 45.8119 9.61687C45.2749 9.94735 44.7874 10.4183 44.3743 11.0296H44.3248C44.078 10.4121 43.6461 9.88596 43.0884 9.52355C42.5308 9.16115 41.8746 8.98018 41.21 9.0055C40.5468 8.96626 39.8858 9.11338 39.3018 9.4302C38.7178 9.74703 38.234 10.2209 37.9053 10.7983H37.864V9.26162H34.9393" fill="#F9F9F9"/>
  <path fill-rule="evenodd" clip-rule="evenodd" d="M94.3503 8.75755C94.9617 8.75755 95.4574 8.43534 95.5318 8.03051L96.1266 1.22275C96.1266 0.553543 95.3417 0 94.3503 0C93.3589 0 92.574 0.553543 92.574 1.22275L93.1771 8.03051C93.2432 8.4436 93.7472 8.74929 94.3503 8.74929M90.6738 10.8808C90.9795 10.3521 90.9547 9.75723 90.6325 9.49285L85.0392 5.57674C84.4609 5.238 83.5934 5.64283 83.0977 6.50207C82.602 7.3613 82.6846 8.31967 83.2629 8.65014L89.4593 11.5335C89.8476 11.674 90.3681 11.4013 90.6738 10.8726M98.0268 10.8726C98.3325 11.4013 98.853 11.674 99.2496 11.5335L105.438 8.65014C106.016 8.31967 106.099 7.3613 105.611 6.50207C105.116 5.64283 104.24 5.238 103.661 5.57674L98.0682 9.49285C97.7542 9.75723 97.7294 10.3521 98.0351 10.8808M94.3503 17.2425C94.9617 17.2425 95.4574 17.5647 95.5318 17.9695L96.1266 24.7772C96.1266 25.4465 95.3417 26 94.3503 26C93.3589 26 92.574 25.4465 92.574 24.7772L93.1771 17.9695C93.2432 17.5564 93.7472 17.2507 94.3503 17.2507M98.0268 15.1274C98.3325 14.5987 98.853 14.326 99.2496 14.4665L105.438 17.3499C106.016 17.6803 106.099 18.647 105.611 19.4979C105.116 20.3572 104.24 20.762 103.661 20.4233L98.0682 16.5071C97.7542 16.2428 97.7294 15.6479 98.0351 15.1274M90.6738 15.1274C90.9795 15.6479 90.9547 16.2428 90.6325 16.5071L85.0392 20.4233C84.4609 20.7537 83.5934 20.3572 83.0977 19.4979C82.602 18.6387 82.6846 17.6803 83.2629 17.3499L89.4593 14.4665C89.8476 14.326 90.3681 14.5987 90.6738 15.1274ZM106.743 19.8284H106.801C106.867 19.8284 106.925 19.8036 106.925 19.7458C106.925 19.6962 106.892 19.6632 106.809 19.6632H106.743V19.8284ZM106.743 20.1258H106.611V19.5888L106.817 19.5723C106.925 19.5723 106.966 19.5888 107.007 19.6136C107.041 19.6384 107.065 19.6797 107.065 19.7293C107.065 19.7954 107.016 19.8367 106.95 19.8615C106.999 19.878 107.032 19.9276 107.049 19.9936C107.065 20.0763 107.074 20.1093 107.09 20.1258H106.958C106.941 20.1093 106.925 20.0597 106.908 20.0019C106.9 19.9441 106.867 19.9193 106.801 19.9193H106.735V20.1341L106.743 20.1258ZM106.826 19.4153C106.578 19.4153 106.404 19.6136 106.404 19.8532C106.404 20.0928 106.586 20.2828 106.826 20.2828C107.065 20.2828 107.239 20.0928 107.239 19.8532C107.242 19.7969 107.234 19.7405 107.215 19.6875C107.196 19.6345 107.166 19.586 107.127 19.5449C107.088 19.5039 107.042 19.4712 106.99 19.449C106.938 19.4267 106.882 19.4152 106.826 19.4153ZM106.826 19.3079C107.14 19.3079 107.379 19.5475 107.379 19.8532C107.379 20.1589 107.131 20.3985 106.826 20.3985C106.753 20.4007 106.68 20.3882 106.612 20.3618C106.544 20.3354 106.482 20.2956 106.429 20.2447C106.377 20.1939 106.335 20.133 106.307 20.0658C106.279 19.9985 106.264 19.9262 106.264 19.8532C106.264 19.5475 106.512 19.3079 106.826 19.3079Z" fill="#F9F9F9"/>
</svg>