<svg width="481" height="481" viewBox="0 0 481 481" fill="none" xmlns="http://www.w3.org/2000/svg">
    <defs>
        <clipPath id="clip0_6018_5426">
            <rect width="481" height="481" fill="white" />
        </clipPath>
    </defs>
    <g clip-path="url(#clip0_6018_5426)">
        <path
            stroke="white" stroke-width="0.25" stroke-miterlimit="10"
            d="M189.725 244.359L134.364 299.72L78.7106 244.067C76.5708 241.927 76.5708 238.466 78.7106 236.332L134.072 180.971L189.725 236.624C191.859 238.758 191.859 242.219 189.725 244.359Z"
        />
        <path
            stroke="white" stroke-width="0.25" stroke-miterlimit="10"
            d="M212.353 221.731L197.46 236.624C195.32 238.764 195.32 242.225 197.46 244.359L212.353 259.252L153.061 318.544H171.582L240.377 249.749L212.359 221.731H212.353ZM240.497 0.103027L0.103027 240.497L240.503 480.897L480.903 240.497L240.497 0.103027ZM56.0821 258.96L70.8722 244.17C70.9122 244.136 70.9408 244.107 70.9751 244.073C71.0095 244.039 71.0438 244.004 71.0724 243.97C73.115 241.83 73.0806 238.443 70.9751 236.338L56.0821 221.445L115.454 162.073H152.689L212.353 221.736L197.46 236.629C195.32 238.769 195.32 242.231 197.46 244.365L212.353 259.258L153.061 318.55H115.671L56.0878 258.966L56.0821 258.96ZM212.353 221.731L197.46 236.624C195.32 238.764 195.32 242.225 197.46 244.359L212.353 259.252L153.061 318.544H171.582L240.377 249.749L212.359 221.731H212.353Z"
        />
        <path
            stroke="white" stroke-width="0.25" stroke-miterlimit="10"
            d="M462.279 221.879L221.879 462.274"
        />
        <path
            stroke="white" stroke-width="0.25" stroke-miterlimit="10"
            d="M443.519 203.119L203.119 443.519"
        />
        <path
            stroke="white" stroke-width="0.25" stroke-miterlimit="10"
            d="M384.021 143.621L143.621 384.021"
        />
        <path
            stroke="white" stroke-width="0.25" stroke-miterlimit="10"
            d="M365.26 124.86L124.866 365.26"
        />
        <path
            stroke="white" stroke-width="0.25" stroke-miterlimit="10"
            d="M115.603 356.003L134.364 337.236L153.061 318.544"
        />
        <path
            stroke="white" stroke-width="0.25" stroke-miterlimit="10"
            d="M212.353 259.252L224.66 246.939L224.815 246.785L231.114 240.491L240.492 231.108L246.785 224.814L246.928 224.677L259.201 212.399L259.252 212.353L291.098 180.501L309.533 162.067L318.779 152.827L337.539 134.066L356.003 115.603"
        />
        <path
            stroke="white" stroke-width="0.25" stroke-miterlimit="10"
            d="M96.842 337.242L115.54 318.544L115.609 318.481"
        />
        <path
            stroke="white" stroke-width="0.25" stroke-miterlimit="10"
            d="M212.353 221.731L221.685 212.399L221.737 212.353L240.492 193.592L267.383 166.701L272.017 162.067L296.15 137.934L300.018 134.066L303.886 130.198L318.779 115.305L337.242 96.8418"
        />
        <path
            stroke="white" stroke-width="0.25" stroke-miterlimit="10"
            d="M37.3213 277.721L46.4471 268.595L56.0821 258.96"
        />
        <path
            stroke="white" stroke-width="0.25" stroke-miterlimit="10"
            d="M70.8779 244.164L71.0714 243.97"
        />
        <path
            stroke="white" stroke-width="0.25" stroke-miterlimit="10"
            d="M152.833 162.21L152.976 162.067L162.21 152.832L177.103 137.939L180.971 134.072L184.839 130.204L240.497 74.5453L259.252 55.7903L259.258 55.7845L277.721 37.3213"
        />
        <path
            stroke="white" stroke-width="0.25" stroke-miterlimit="10"
            d="M18.5663 258.96L37.3271 240.2L56.0821 221.439"
        />
        <path
            stroke="white" stroke-width="0.25" stroke-miterlimit="10"
            d="M115.46 162.067L134.072 143.449L143.455 134.072L162.21 115.311L221.736 55.7904L240.497 37.0239L258.96 18.5664"
        />
        <path
            stroke="white" stroke-width="0.25" stroke-miterlimit="10"
            d="M222.034 18.5664L462.434 258.961"
        />
        <path
            stroke="white" stroke-width="0.25" stroke-miterlimit="10"
            d="M203.273 37.3271L443.673 277.721"
        />
        <path
            stroke="white" stroke-width="0.25" stroke-miterlimit="10"
            d="M143.752 96.8477L384.147 337.248"
        />
        <path
            stroke="white" stroke-width="0.25" stroke-miterlimit="10"
            d="M124.992 115.608L365.386 356.008"
        />
        <path
            stroke="white" stroke-width="0.25" stroke-miterlimit="10"
            d="M356.008 365.386L337.391 346.768L318.63 328.007L309.172 318.544L290.824 300.201L259.218 268.595L259.132 268.509L246.951 256.323L246.802 256.18L240.371 249.749L231.114 240.491L224.82 234.192L224.666 234.043L212.353 221.73"
        />
        <path
            stroke="white" stroke-width="0.25" stroke-miterlimit="10"
            d="M152.69 162.067L134.072 143.449L115.614 124.986"
        />
        <path
            stroke="white" stroke-width="0.25" stroke-miterlimit="10"
            d="M337.248 384.146L318.63 365.529L303.737 350.636L299.869 346.768L296.001 342.9L271.645 318.544L267.011 313.909L240.371 287.27L221.696 268.595L221.611 268.509L212.353 259.252"
        />
        <path
            stroke="white" stroke-width="0.25" stroke-miterlimit="10"
            d="M115.311 162.21L115.168 162.067L96.8478 143.752"
        />
        <path
            stroke="white" stroke-width="0.25" stroke-miterlimit="10"
            d="M259.258 462.136L240.64 443.513L222.217 425.09L221.879 424.758L162.382 365.254L143.627 346.499L134.363 337.236L115.671 318.544"
        />
        <path
            stroke="white" stroke-width="0.25" stroke-miterlimit="10"
            d="M56.0821 258.96L37.327 240.2L18.8638 221.736"
        />
        <path
            stroke="white" stroke-width="0.25" stroke-miterlimit="10"
            d="M0.103027 240.497L240.497 480.897"
        />
        <path
            stroke="white" stroke-width="0.25" stroke-miterlimit="10"
            d="M278.019 443.375L259.733 425.089L259.401 424.758L240.64 405.997L185.01 350.367L181.142 346.499L177.275 342.631L162.382 327.738L153.187 318.544L153.124 318.481"
        />
        <path
            stroke="white" stroke-width="0.25" stroke-miterlimit="10"
            d="M56.082 221.439L47.0478 212.399L37.6245 202.976"
        />
        <path
            stroke="white" stroke-width="0.25" stroke-miterlimit="10"
            d="M259.258 462.136L240.64 443.513L222.217 425.09L221.879 424.758L162.382 365.254L143.627 346.499L134.363 337.236L115.671 318.544"
        />
        <path
            stroke="white" stroke-width="0.25" stroke-miterlimit="10"
            d="M56.0821 258.96L37.327 240.2L18.8638 221.736"
        />
        <path
            stroke="white" stroke-width="0.25" stroke-miterlimit="10"
            d="M78.5332 162.067H115.168H115.46"
        />
        <path
            stroke="white" stroke-width="0.25" stroke-miterlimit="10"
            d="M152.689 162.067H152.976H171.45H208.966H236.429H244.565H272.017H309.533H328.019H328.053H365.54H365.575H402.467"
        />
        <path
            stroke="white" stroke-width="0.25" stroke-miterlimit="10"
            d="M78.1212 318.544H78.1441H115.54H115.671"
        />
        <path
            stroke="white" stroke-width="0.25" stroke-miterlimit="10"
            d="M153.061 318.544H153.187H171.582H209.098H271.645H309.172H327.927H328.093H365.443H365.609H402.467"
        />
        <path
            stroke="white" stroke-width="0.25" stroke-miterlimit="10"
            d="M28.1956 268.595H46.4471H65.7228"
        />
        <path
            stroke="white" stroke-width="0.25" stroke-miterlimit="10"
            d="M165.488 268.595H103.239"
        />
        <path
            stroke="white" stroke-width="0.25" stroke-miterlimit="10"
            d="M203.004 268.595H221.525H221.696H259.046H259.218H277.973H313.481H315.494H378.048H415.563H434.542H452.805"
        />
        <path
            stroke="white" stroke-width="0.25" stroke-miterlimit="10"
            d="M296.305 425.09H184.695"
        />
        <path
            stroke="white" stroke-width="0.25" stroke-miterlimit="10"
            d="M197.46 244.359C195.326 242.225 195.326 238.763 197.46 236.624L212.353 221.731L152.689 162.067H115.454L56.082 221.439L70.9751 236.332C73.0806 238.437 73.1149 241.824 71.0723 243.964C71.0437 243.999 71.0094 244.033 70.9751 244.067C70.9407 244.102 70.9064 244.136 70.8721 244.165L56.082 258.955L115.666 318.538H153.056L212.347 259.246L197.454 244.353L197.46 244.359ZM134.363 299.72L78.7105 244.067C76.5707 241.927 76.5707 238.466 78.7105 236.332L134.072 180.971L189.725 236.624C191.859 238.758 191.859 242.219 189.725 244.359L134.363 299.72Z"
        />
        <path
            stroke="white" stroke-width="0.25" stroke-miterlimit="10"
            d="M28.1841 212.399H28.1955H47.0478H65.122"
        />
        <path
            stroke="white" stroke-width="0.25" stroke-miterlimit="10"
            d="M165.5 212.399H102.638"
        />
        <path
            stroke="white" stroke-width="0.25" stroke-miterlimit="10"
            d="M203.027 212.399H221.685H221.782H259.201H259.304H277.721H313.681H315.237H378.351H415.872H434.238H452.799"
        />
        <path
            stroke="white" stroke-width="0.25" stroke-miterlimit="10"
            d="M296.19 55.7905H184.81"
        />
        <path
            fill="#141414" opacity="0.07"
            d="M240.497 257.393C249.828 257.393 257.393 249.828 257.393 240.497C257.393 231.166 249.828 223.602 240.497 223.602C231.166 223.602 223.602 231.166 223.602 240.497C223.602 249.828 231.166 257.393 240.497 257.393Z"
        />
        <path
            stroke="white" stroke-width="0.25" stroke-miterlimit="10"
            d="M414.036 245.818C417.057 245.818 419.506 243.37 419.506 240.349C419.506 237.328 417.057 234.879 414.036 234.879C411.015 234.879 408.566 237.328 408.566 240.349C408.566 243.37 411.015 245.818 414.036 245.818Z"
        />
        <path
            stroke="white" stroke-width="0.25" stroke-miterlimit="10"
            d="M398.565 245.818C401.586 245.818 404.035 243.37 404.035 240.349C404.035 237.328 401.586 234.879 398.565 234.879C395.544 234.879 393.095 237.328 393.095 240.349C393.095 243.37 395.544 245.818 398.565 245.818Z"
        />
        <path
            stroke="white" stroke-width="0.25" stroke-miterlimit="10"
            d="M295.006 245.818C298.027 245.818 300.476 243.37 300.476 240.349C300.476 237.328 298.027 234.879 295.006 234.879C291.985 234.879 289.536 237.328 289.536 240.349C289.536 243.37 291.985 245.818 295.006 245.818Z"
        />
        <path
            stroke="white" stroke-width="0.25" stroke-miterlimit="10"
            d="M279.535 245.818C282.556 245.818 285.005 243.37 285.005 240.349C285.005 237.328 282.556 234.879 279.535 234.879C276.514 234.879 274.065 237.328 274.065 240.349C274.065 243.37 276.514 245.818 279.535 245.818Z"
        />
        <path
            stroke="white" stroke-width="0.25" stroke-miterlimit="10"
            d="M307.605 352.238C310.625 352.238 313.074 349.789 313.074 346.768C313.074 343.747 310.625 341.298 307.605 341.298C304.584 341.298 302.135 343.747 302.135 346.768C302.135 349.789 304.584 352.238 307.605 352.238Z"
        />
        <path
            stroke="white" stroke-width="0.25" stroke-miterlimit="10"
            d="M292.134 352.238C295.154 352.238 297.603 349.789 297.603 346.768C297.603 343.747 295.154 341.298 292.134 341.298C289.113 341.298 286.664 343.747 286.664 346.768C286.664 349.789 289.113 352.238 292.134 352.238Z"
        />
        <path
            stroke="white" stroke-width="0.25" stroke-miterlimit="10"
            d="M188.878 351.969C191.899 351.969 194.348 349.52 194.348 346.499C194.348 343.478 191.899 341.029 188.878 341.029C185.857 341.029 183.408 343.478 183.408 346.499C183.408 349.52 185.857 351.969 188.878 351.969Z"
        />
        <path
            stroke="white" stroke-width="0.25" stroke-miterlimit="10"
            d="M173.407 351.969C176.428 351.969 178.877 349.52 178.877 346.499C178.877 343.478 176.428 341.029 173.407 341.029C170.386 341.029 167.937 343.478 167.937 346.499C167.937 349.52 170.386 351.969 173.407 351.969Z"
        />
        <path
            stroke="white" stroke-width="0.25" stroke-miterlimit="10"
            d="M205.201 244.359C203.061 246.499 199.6 246.499 197.46 244.359C195.326 242.225 195.326 238.764 197.46 236.624C199.594 234.484 203.056 234.49 205.196 236.624C207.335 238.758 207.335 242.225 205.196 244.359H205.201Z"
        />
        <path
            stroke="white" stroke-width="0.25" stroke-miterlimit="10"
            d="M189.725 244.359C187.585 246.499 184.123 246.499 181.989 244.359C179.855 242.22 179.849 238.758 181.989 236.618C184.123 234.484 187.585 234.484 189.725 236.618C191.865 238.752 191.859 242.214 189.725 244.354V244.359Z"
        />
        <path
            stroke="white" stroke-width="0.25" stroke-miterlimit="10"
            d="M86.446 244.067C84.3119 246.201 80.8504 246.201 78.7106 244.067C76.5708 241.933 76.5708 238.466 78.7106 236.332C80.8504 234.198 84.3119 234.192 86.4518 236.332C88.5916 238.472 88.5859 241.927 86.4518 244.067H86.446Z"
        />
        <path
            stroke="white" stroke-width="0.25" stroke-miterlimit="10"
            d="M70.9808 244.067C70.9465 244.102 70.9122 244.136 70.8778 244.165C68.738 246.202 65.3452 246.173 63.2397 244.067C61.1341 241.962 61.1055 238.466 63.2397 236.332C65.3738 234.198 68.8353 234.198 70.9751 236.332C73.115 238.466 73.115 241.825 71.0724 243.964C71.0438 243.999 71.0094 244.033 70.9751 244.067H70.9808Z"
        />
        <path
            stroke="white" stroke-width="0.25" stroke-miterlimit="10"
            d="M307.753 139.536C310.774 139.536 313.223 137.087 313.223 134.066C313.223 131.045 310.774 128.596 307.753 128.596C304.732 128.596 302.284 131.045 302.284 134.066C302.284 137.087 304.732 139.536 307.753 139.536Z"
        />
        <path
            stroke="white" stroke-width="0.25" stroke-miterlimit="10"
            d="M292.282 139.536C295.303 139.536 297.752 137.087 297.752 134.066C297.752 131.045 295.303 128.596 292.282 128.596C289.262 128.596 286.813 131.045 286.813 134.066C286.813 137.087 289.262 139.536 292.282 139.536Z"
        />
        <path
            stroke="white" stroke-width="0.25" stroke-miterlimit="10"
            d="M188.712 139.536C191.733 139.536 194.182 137.087 194.182 134.066C194.182 131.045 191.733 128.596 188.712 128.596C185.691 128.596 183.242 131.045 183.242 134.066C183.242 137.087 185.691 139.536 188.712 139.536Z"
        />
        <path
            stroke="white" stroke-width="0.25" stroke-miterlimit="10"
            d="M173.235 139.536C176.256 139.536 178.705 137.087 178.705 134.066C178.705 131.045 176.256 128.596 173.235 128.596C170.215 128.596 167.766 131.045 167.766 134.066C167.766 137.087 170.215 139.536 173.235 139.536Z"
        />
        <g opacity="0.59">
            <path
                fill="#B3B3B3" opacity="0.28"
                d="M166.965 267.125L138.151 295.938C136.063 298.027 132.676 298.027 130.582 295.938L78.7163 244.073C76.5765 241.933 76.5765 238.472 78.7163 236.338L130.296 184.758C132.384 182.67 135.771 182.67 137.865 184.758L166.833 213.726C169.888 205.224 174.46 197.151 180.547 189.913L154.532 163.898C153.359 162.725 151.774 162.067 150.115 162.067H118.052C116.392 162.067 114.807 162.725 113.635 163.898L59.8754 217.657C57.7871 219.745 57.7871 223.132 59.8754 225.226L70.9809 236.332C73.0864 238.437 73.1207 241.824 71.0781 243.964C71.0495 243.999 71.0152 244.033 70.9809 244.067C70.9465 244.102 70.9122 244.136 70.8779 244.165L59.8697 255.173C57.7814 257.261 57.7814 260.648 59.8697 262.742L113.841 316.713C115.008 317.88 116.598 318.544 118.258 318.544H150.475C152.129 318.544 153.719 317.886 154.892 316.713L180.771 290.835C174.66 283.637 170.054 275.598 166.965 267.125Z"
            />
            <path
                fill="#B3B3B3" opacity="0.28"
                d="M314.842 149.194L303.737 138.088C301.603 135.954 301.603 132.492 303.737 130.353L314.842 119.247C316.931 117.159 316.931 113.772 314.842 111.678L260.791 57.6268C259.618 56.4539 258.034 55.8016 256.374 55.7959H224.311C222.652 55.7959 221.067 56.4539 219.894 57.6268L166.135 111.386C164.047 113.474 164.047 116.861 166.135 118.955L177.24 130.061C179.346 132.166 179.38 135.553 177.338 137.699C177.309 137.733 177.275 137.768 177.24 137.802C177.206 137.836 177.172 137.871 177.137 137.899L166.129 148.907C164.041 150.996 164.041 154.383 166.129 156.477L190.039 180.387C197.254 174.288 205.321 169.705 213.806 166.638L184.976 137.808C182.836 135.668 182.836 132.206 184.976 130.072L236.555 78.4931C238.643 76.4047 242.031 76.4047 244.125 78.4931L295.996 130.364C298.13 132.498 298.13 135.96 295.996 138.1L267.377 166.718C275.85 169.808 283.889 174.414 291.087 180.524L314.837 156.775C316.925 154.686 316.925 151.299 314.837 149.205L314.842 149.194Z"
            />
            <path
                fill="#B3B3B3" opacity="0.28"
                d="M421.256 255.613L410.151 244.508C408.017 242.374 408.017 238.912 410.151 236.773L421.256 225.667C423.345 223.579 423.345 220.192 421.256 218.098L367.205 164.047C366.032 162.874 364.442 162.216 362.788 162.216H330.725C329.066 162.216 327.481 162.874 326.308 164.047L300.436 189.919C306.523 197.157 311.095 205.23 314.144 213.726L342.969 184.902C345.057 182.813 348.445 182.813 350.539 184.902L402.41 236.773C404.544 238.907 404.544 242.368 402.41 244.508L350.83 296.087C348.742 298.176 345.355 298.176 343.261 296.087L314.087 266.913C311.02 275.398 306.437 283.466 300.338 290.68L326.526 316.868C327.693 318.035 329.283 318.699 330.943 318.699H363.16C364.814 318.699 366.404 318.041 367.577 316.868L421.256 263.189C423.345 261.1 423.345 257.713 421.256 255.619V255.613Z"
            />
            <path
                fill="#B3B3B3" opacity="0.28"
                d="M314.837 362.033L303.731 350.927C301.597 348.793 301.597 345.332 303.731 343.192L314.837 332.087C316.925 329.998 316.925 326.611 314.837 324.517L290.646 300.327C283.391 306.403 275.295 310.951 266.776 313.978L295.99 343.192C298.124 345.326 298.124 348.788 295.99 350.927L244.411 402.507C242.322 404.595 238.935 404.595 236.841 402.507L184.976 350.641C182.836 348.501 182.836 345.04 184.976 342.906L213.972 313.909C205.476 310.854 197.397 306.288 190.165 300.201L166.135 324.231C164.047 326.319 164.047 329.706 166.135 331.8L177.24 342.906C179.346 345.011 179.38 348.399 177.338 350.538C177.309 350.573 177.275 350.607 177.24 350.641C177.206 350.676 177.172 350.71 177.137 350.739L166.129 361.747C164.041 363.835 164.041 367.222 166.129 369.316L220.1 423.287C221.267 424.454 222.858 425.112 224.517 425.118H256.735C258.388 425.118 259.979 424.46 261.152 423.287L314.831 369.608C316.919 367.52 316.919 364.133 314.831 362.039L314.837 362.033Z"
            />
        </g>
        <path
            stroke="white" stroke-width="0.25" stroke-miterlimit="10"
            d="M189.725 244.359L166.959 267.125C160.682 249.921 160.637 230.954 166.822 213.727L189.725 236.63C191.859 238.764 191.859 242.225 189.725 244.365V244.359Z"
        />
        <path
            stroke="white" stroke-width="0.25" stroke-miterlimit="10"
            d="M244.125 291.321L266.776 313.973C249.732 320.037 231.005 320.009 213.972 313.898L236.549 291.321C238.638 289.233 242.025 289.233 244.119 291.321H244.125Z"
        />
        <path
            stroke="white" stroke-width="0.25" stroke-miterlimit="10"
            d="M291.401 236.475L314.156 213.721C320.318 230.879 320.295 249.76 314.098 266.902L291.407 244.211C289.267 242.071 289.267 238.609 291.407 236.475H291.401Z"
        />
        <path
            stroke="white" stroke-width="0.25" stroke-miterlimit="10"
            d="M236.853 189.662L213.818 166.627C231.091 160.379 250.121 160.408 267.377 166.707L244.422 189.662C242.334 191.75 238.947 191.75 236.853 189.662Z"
        />
        <path
            stroke="white" stroke-width="0.25" stroke-miterlimit="10"
            d="M295.835 295.578C294.165 297.249 292.431 298.828 290.652 300.321L260.791 270.46C259.618 269.288 258.034 268.63 256.374 268.63H224.311C222.658 268.63 221.067 269.288 219.894 270.46L190.165 300.189C188.437 298.736 186.761 297.203 185.136 295.578C183.603 294.044 182.144 292.46 180.759 290.829L208.554 263.034C210.642 260.946 210.642 257.559 208.554 255.464L197.449 244.359C195.315 242.225 195.315 238.763 197.449 236.624L208.554 225.518C210.642 223.43 210.642 220.043 208.554 217.949L180.519 189.913C181.966 188.185 183.505 186.509 185.125 184.89C186.744 183.271 188.346 181.8 190.034 180.381L220.094 210.442C221.262 211.609 222.852 212.273 224.511 212.273H256.729C258.383 212.273 259.973 211.615 261.146 210.442L291.075 180.513C292.7 181.892 294.285 183.351 295.824 184.89C297.449 186.515 298.982 188.191 300.435 189.919L272.549 217.806C270.461 219.894 270.461 223.281 272.549 225.375L283.654 236.481C285.76 238.586 285.794 241.973 283.752 244.113C283.723 244.147 283.689 244.182 283.654 244.216C283.62 244.25 283.586 244.285 283.551 244.313L272.543 255.321C270.455 257.41 270.455 260.797 272.543 262.891L300.327 290.675C298.908 292.357 297.403 293.993 295.818 295.584L295.835 295.578Z"
        />
        <path
            fill="#DBDBDB"
            d="M240.486 257.587C249.921 257.587 257.57 249.938 257.57 240.503C257.57 231.067 249.921 223.418 240.486 223.418C231.05 223.418 223.401 231.067 223.401 240.503C223.401 249.938 231.05 257.587 240.486 257.587Z"
        />
        <path
            fill="#DBDBDB"
            d="M208.566 263.034L180.771 290.829C174.66 283.632 170.054 275.593 166.965 267.12L189.73 244.354C191.865 242.22 191.865 238.758 189.73 236.618L166.827 213.715C169.883 205.213 174.454 197.14 180.542 189.902L208.577 217.938C210.665 220.026 210.665 223.413 208.577 225.507L197.472 236.613C195.332 238.752 195.332 242.214 197.472 244.348L208.577 255.453C210.665 257.542 210.665 260.929 208.577 263.023L208.566 263.034Z"
        />
        <path
            fill="#DBDBDB"
            d="M290.652 300.321C283.397 306.397 275.301 310.946 266.782 313.973L244.13 291.321C242.042 289.233 238.655 289.233 236.561 291.321L213.984 313.898C205.487 310.843 197.409 306.277 190.177 300.19L219.905 270.461C221.078 269.288 222.663 268.63 224.322 268.63H256.386C258.039 268.63 259.63 269.288 260.803 270.461L290.663 300.321H290.652Z"
        />
        <path
            fill="#DBDBDB"
            d="M300.344 290.675L272.56 262.891C270.472 260.803 270.472 257.416 272.56 255.322L283.569 244.314C283.609 244.279 283.637 244.251 283.672 244.216C283.706 244.182 283.74 244.148 283.769 244.113C285.811 241.974 285.777 238.586 283.672 236.481L272.566 225.376C270.478 223.287 270.478 219.9 272.566 217.806L300.453 189.919C306.54 197.157 311.112 205.23 314.161 213.727L291.407 236.481C289.273 238.615 289.273 242.077 291.407 244.216L314.098 266.908C311.032 275.393 306.449 283.46 300.35 290.675H300.344Z"
        />
        <path
            fill="#DBDBDB"
            d="M291.087 180.513L261.157 210.442C259.985 211.615 258.394 212.273 256.74 212.273H224.523C222.864 212.273 221.279 211.615 220.106 210.442L190.045 180.382C197.26 174.282 205.327 169.7 213.812 166.633L236.847 189.668C238.935 191.756 242.322 191.756 244.416 189.668L267.371 166.713C275.845 169.803 283.883 174.408 291.081 180.519L291.087 180.513Z"
        />
    </g>

</svg>