<svg xmlns="http://www.w3.org/2000/svg" width="24" height="24" viewBox="0 0 24 24" fill="none">
<path d="M21 12C21 13.1819 20.7672 14.3522 20.3149 15.4442C19.8626 16.5361 19.1997 17.5282 18.364 18.364C17.5282 19.1997 16.5361 19.8626 15.4442 20.3149C14.3522 20.7672 13.1819 21 12 21C10.8181 21 9.64778 20.7672 8.55585 20.3149C7.46392 19.8626 6.47177 19.1997 5.63604 18.364C4.80031 17.5282 4.13738 16.5361 3.68508 15.4442C3.23279 14.3522 3 13.1819 3 12C3 9.61305 3.94821 7.32387 5.63604 5.63604C7.32387 3.94821 9.61305 3 12 3C14.3869 3 16.6761 3.94821 18.364 5.63604C20.0518 7.32387 21 9.61305 21 12Z" stroke="#F9F9F9" stroke-width="1.5" stroke-linecap="round"/>
<path d="M15.91 11.6721C15.9686 11.7046 16.0174 11.7521 16.0513 11.8098C16.0853 11.8675 16.1032 11.9332 16.1032 12.0001C16.1032 12.0671 16.0853 12.1328 16.0513 12.1905C16.0174 12.2481 15.9686 12.2957 15.91 12.3281L10.307 15.4411C10.2499 15.4728 10.1855 15.489 10.1202 15.4882C10.0549 15.4874 9.99099 15.4695 9.93472 15.4364C9.87845 15.4032 9.8318 15.356 9.79941 15.2993C9.76701 15.2426 9.74998 15.1784 9.75 15.1131V8.88712C9.75 8.60112 10.057 8.42112 10.307 8.56012L15.91 11.6721Z" stroke="#F9F9F9" stroke-width="1.5" stroke-linecap="round"/>
</svg>