<svg xmlns="http://www.w3.org/2000/svg" width="24" height="24" viewBox="0 0 24 24" fill="none">
  <path d="M6.7039 20.5433C7.80653 21 9.20435 21 12 21C14.7956 21 16.1935 21 17.2961 20.5433C18.7663 19.9343 19.9343 18.7663 20.5433 17.2961C21 16.1935 21 14.7956 21 12C21 9.20435 21 7.80653 20.5433 6.7039C19.9343 5.23373 18.7663 4.06569 17.2961 3.45672C16.1935 3 14.7956 3 12 3C9.20435 3 7.80653 3 6.7039 3.45672C5.23373 4.06569 4.06569 5.23373 3.45672 6.7039C3 7.80653 3 9.20435 3 12C3 14.7956 3 16.1935 3.45672 17.2961C4.06569 18.7663 5.23373 19.9343 6.7039 20.5433Z" stroke="#F9F9F9" stroke-linecap="round" stroke-linejoin="round"/>
  <path d="M9.5 11.896C9.5 10.4641 9.5 9.74818 9.79923 9.34849C10.06 9.00019 10.4591 8.78227 10.8931 8.75127C11.3912 8.7157 11.9934 9.10284 13.1978 9.87713L13.3596 9.98113C14.4048 10.653 14.9273 10.989 15.1078 11.4161C15.2655 11.7894 15.2655 12.2105 15.1078 12.5838C14.9273 13.011 14.4048 13.3469 13.3596 14.0188L13.1978 14.1228C11.9934 14.8971 11.3912 15.2842 10.8931 15.2487C10.4591 15.2177 10.06 14.9997 9.79923 14.6514C9.5 14.2517 9.5 13.5358 9.5 12.104V11.896Z" stroke="#F9F9F9" stroke-linecap="round" stroke-linejoin="round"/>
</svg>