<svg width="25" height="24" viewBox="0 0 25 24" fill="none" xmlns="http://www.w3.org/2000/svg">
    <g clip-path="url(#clip0_6083_628)">
        <path fill-rule="evenodd" clip-rule="evenodd"
            d="M12.4642 0C5.84833 0 0.5 5.5 0.5 12.3042C0.5 17.7432 3.92686 22.3472 8.68081 23.9767C9.27518 24.0992 9.4929 23.712 9.4929 23.3862C9.4929 23.101 9.4733 22.1232 9.4733 21.1045C6.14514 21.838 5.45208 19.6377 5.45208 19.6377C4.91722 18.2117 4.12473 17.8452 4.12473 17.8452C3.03543 17.0915 4.20408 17.0915 4.20408 17.0915C5.41241 17.173 6.04645 18.3545 6.04645 18.3545C7.11592 20.2285 8.73537 19.6377 9.4929 19.5842C9.4733 18.8049 8.96883 17.9294 10.2854 17.723C7.63094 17.4377 4.83812 16.3785 4.83812 11.6522C4.83812 10.3077 5.31322 9.20775 6.06604 8.35225C5.94726 8.04675 5.53118 6.7835 6.18506 5.09275C6.18506 5.09275 7.19526 4.76675 9.47306 6.35575C10.4483 6.08642 11.454 5.9494 12.4642 5.94825C13.4744 5.94825 14.5042 6.091 15.4552 6.35575C17.7332 4.76675 18.7434 5.09275 18.7434 5.09275C19.3973 6.7835 18.981 8.04675 18.8622 8.35225C19.6349 9.20775 20.0904 10.3077 20.0904 11.6522C20.0904 16.3785 17.2975 17.4172 14.6233 17.723C15.926 17.9582 15.4353 18.8432 15.4353 20.0045C15.4158 21.7106 15.4158 22.9787 15.4158 23.386C15.4158 23.712 15.6337 24.0992 16.2278 23.977C20.9818 22.347 24.4086 17.7432 24.4086 12.3042C24.4282 5.5 19.0603 0 12.4642 0Z"
            fill="white" />
    </g>
    <defs>
        <clipPath id="clip0_6083_628">
            <rect width="24" height="24" fill="white" transform="translate(0.5)" />
        </clipPath>
    </defs>
</svg>