<svg width="19" height="19" viewBox="0 0 19 19" fill="none" xmlns="http://www.w3.org/2000/svg">
<path d="M15.4899 15.9773H12.7963V11.8005C12.7963 10.8045 12.7783 9.52234 11.3953 9.52234C9.99235 9.52234 9.77769 10.6075 9.77769 11.728V15.9771H7.08403V7.38781H9.66994V8.56162H9.70614C9.96493 8.1235 10.3389 7.76308 10.7882 7.51875C11.2375 7.27443 11.7453 7.15533 12.2575 7.17416C14.9877 7.17416 15.4911 8.95224 15.4911 11.2654L15.4899 15.9773ZM4.04469 6.21372C3.73553 6.21377 3.43328 6.12305 3.17619 5.95303C2.9191 5.783 2.71871 5.54131 2.60035 5.25851C2.48199 4.97571 2.45097 4.66451 2.51123 4.36427C2.57149 4.06402 2.72032 3.78821 2.93889 3.57171C3.15747 3.35521 3.43597 3.20775 3.73918 3.14797C4.0424 3.0882 4.35669 3.1188 4.64235 3.23589C4.928 3.35299 5.17217 3.55132 5.34397 3.80582C5.51578 4.06032 5.60752 4.35955 5.60757 4.66567C5.60761 4.86893 5.56721 5.0702 5.48869 5.258C5.41017 5.44579 5.29507 5.61644 5.14994 5.76019C5.00481 5.90394 4.8325 6.01798 4.64286 6.09579C4.45322 6.17361 4.24997 6.21368 4.04469 6.21372ZM5.39152 15.9773H2.69506V7.38781H5.39152V15.9773ZM16.8328 0.641363H1.3415C0.98989 0.637434 0.651072 0.771884 0.399528 1.01517C0.147984 1.25845 0.0042912 1.59067 0 1.93881V17.3412C0.00414433 17.6895 0.147753 18.022 0.399288 18.2655C0.650824 18.509 0.989716 18.6437 1.3415 18.64H16.8328C17.1853 18.6444 17.5251 18.5101 17.7777 18.2666C18.0302 18.023 18.1748 17.6902 18.1797 17.3412V1.9377C18.1746 1.58887 18.03 1.25627 17.7774 1.01299C17.5249 0.769717 17.1851 0.635651 16.8328 0.640251" fill="#F9F9F9"/>
</svg>
