<svg width="258" height="136" viewBox="0 0 258 136" fill="none" xmlns="http://www.w3.org/2000/svg">
    <path
        fill="#242023"
        opacity="0.32"
        d="M74.6589 23.7551C74.6589 29.3778 70.1008 33.9359 64.4781 33.9359C58.8554 33.9359 54.2974 29.3778 54.2974 23.7551C54.2974 18.1324 58.8554 13.5743 64.4781 13.5743C70.1008 13.5743 74.6589 18.1324 74.6589 23.7551Z"
    />
    <path
        fill="#F9F9F9"
        opacity="0.32" fill-rule="evenodd" clip-rule="evenodd"
        d="M74.6279 24.5547L73.7821 24.4889C73.8009 24.247 73.8105 24.0022 73.8105 23.7551C73.8105 23.508 73.8009 23.2632 73.7821 23.0212L74.6279 22.9555C74.6484 23.2194 74.6589 23.486 74.6589 23.7551C74.6589 24.0242 74.6484 24.2908 74.6279 24.5547ZM74.3797 21.3774L73.5546 21.5748C73.4399 21.0955 73.2882 20.6305 73.1027 20.183L73.8864 19.858C74.0889 20.3465 74.2545 20.8541 74.3797 21.3774ZM73.16 18.435L72.437 18.879C72.1805 18.4614 71.8921 18.0654 71.5749 17.6944L72.2198 17.1432C72.5656 17.5476 72.8802 17.9795 73.16 18.435ZM71.0901 16.0134L70.5388 16.6583C70.1678 16.3412 69.7718 16.0527 69.3542 15.7962L69.7982 15.0733C70.2537 15.353 70.6856 15.6676 71.0901 16.0134ZM68.3752 14.3469L68.0502 15.1305C67.6028 14.945 67.1378 14.7933 66.6584 14.6786L66.8558 13.8535C67.3791 13.9787 67.8867 14.1443 68.3752 14.3469ZM65.2777 13.6053L65.212 14.4511C64.97 14.4323 64.7253 14.4227 64.4781 14.4227C64.231 14.4227 63.9863 14.4323 63.7443 14.4511L63.6786 13.6053C63.9424 13.5848 64.209 13.5743 64.4781 13.5743C64.7472 13.5743 65.0139 13.5848 65.2777 13.6053ZM62.1004 13.8535L62.2979 14.6786C61.8185 14.7933 61.3535 14.945 60.906 15.1305L60.5811 14.3469C61.0695 14.1443 61.5771 13.9787 62.1004 13.8535ZM59.1581 15.0733C58.7025 15.353 58.2706 15.6676 57.8662 16.0134L58.4175 16.6583C58.7884 16.3412 59.1844 16.0527 59.602 15.7962L59.1581 15.0733ZM56.7364 17.1432L57.3813 17.6944C57.0642 18.0654 56.7757 18.4614 56.5192 18.879L55.7963 18.435C56.076 17.9795 56.3907 17.5476 56.7364 17.1432ZM55.0699 19.858L55.8536 20.183C55.668 20.6305 55.5163 21.0955 55.4016 21.5748L54.5765 21.3774C54.7017 20.8541 54.8673 20.3465 55.0699 19.858ZM54.3283 22.9555C54.3078 23.2194 54.2974 23.486 54.2974 23.7551C54.2974 24.0242 54.3078 24.2908 54.3283 24.5547L55.1741 24.4889C55.1553 24.247 55.1458 24.0022 55.1458 23.7551C55.1458 23.508 55.1553 23.2632 55.1741 23.0212L54.3283 22.9555ZM54.5765 26.1328L55.4016 25.9354C55.5163 26.4147 55.668 26.8797 55.8536 27.3272L55.0699 27.6522C54.8673 27.1637 54.7017 26.6561 54.5765 26.1328ZM55.7963 29.0752L56.5192 28.6312C56.7757 29.0488 57.0642 29.4448 57.3813 29.8158L56.7364 30.3671C56.3907 29.9626 56.076 29.5307 55.7963 29.0752ZM57.8662 31.4968L58.4175 30.8519C58.7884 31.169 59.1844 31.4575 59.602 31.714L59.1581 32.4369C58.7025 32.1572 58.2706 31.8426 57.8662 31.4968ZM60.5811 33.1633L60.906 32.3797C61.3535 32.5652 61.8185 32.7169 62.2979 32.8316L62.1004 33.6567C61.5771 33.5315 61.0695 33.3659 60.5811 33.1633ZM63.6786 33.9049L63.7443 33.0591C63.9863 33.0779 64.231 33.0875 64.4781 33.0875C64.7253 33.0875 64.97 33.0779 65.212 33.0591L65.2777 33.9049C65.0139 33.9254 64.7472 33.9359 64.4781 33.9359C64.209 33.9359 63.9424 33.9254 63.6786 33.9049ZM66.8558 33.6567L66.6584 32.8316C67.1378 32.7169 67.6028 32.5652 68.0502 32.3797L68.3752 33.1633C67.8868 33.3659 67.3791 33.5315 66.8558 33.6567ZM69.7982 32.4369L69.3542 31.714C69.7718 31.4575 70.1678 31.169 70.5388 30.8519L71.0901 31.4968C70.6856 31.8426 70.2537 32.1572 69.7982 32.4369ZM72.2198 30.367L71.5749 29.8158C71.8921 29.4448 72.1805 29.0488 72.437 28.6312L73.16 29.0752C72.8802 29.5307 72.5656 29.9626 72.2198 30.367ZM73.8864 27.6522L73.1027 27.3272C73.2882 26.8797 73.4399 26.4147 73.5546 25.9354L74.3797 26.1328C74.2545 26.6561 74.0889 27.1637 73.8864 27.6522Z"
    />
    <path
        fill="#242023"
        opacity="0.32"
        d="M201.918 23.7551C201.918 29.3778 197.36 33.9359 191.738 33.9359C186.115 33.9359 181.557 29.3778 181.557 23.7551C181.557 18.1324 186.115 13.5743 191.738 13.5743C197.36 13.5743 201.918 18.1324 201.918 23.7551Z"
    />
    <path
        fill="#F9F9F9"
        opacity="0.32" fill-rule="evenodd" clip-rule="evenodd"
        d="M201.887 24.5547L201.042 24.4889C201.06 24.247 201.07 24.0022 201.07 23.7551C201.07 23.508 201.06 23.2632 201.042 23.0212L201.887 22.9555C201.908 23.2194 201.918 23.486 201.918 23.7551C201.918 24.0242 201.908 24.2908 201.887 24.5547ZM201.639 21.3774L200.814 21.5748C200.699 21.0955 200.548 20.6305 200.362 20.183L201.146 19.858C201.348 20.3465 201.514 20.8541 201.639 21.3774ZM200.419 18.435L199.697 18.879C199.44 18.4614 199.152 18.0654 198.834 17.6944L199.479 17.1432C199.825 17.5476 200.14 17.9795 200.419 18.435ZM198.35 16.0134L197.798 16.6583C197.427 16.3412 197.031 16.0527 196.614 15.7962L197.058 15.0733C197.513 15.353 197.945 15.6676 198.35 16.0134ZM195.635 14.3469L195.31 15.1305C194.862 14.945 194.397 14.7933 193.918 14.6786L194.115 13.8535C194.639 13.9787 195.146 14.1443 195.635 14.3469ZM192.537 13.6053L192.471 14.4511C192.23 14.4323 191.985 14.4227 191.738 14.4227C191.491 14.4227 191.246 14.4323 191.004 14.4511L190.938 13.6053C191.202 13.5848 191.469 13.5743 191.738 13.5743C192.007 13.5743 192.273 13.5848 192.537 13.6053ZM189.36 13.8535L189.557 14.6786C189.078 14.7933 188.613 14.945 188.166 15.1305L187.841 14.3469C188.329 14.1443 188.837 13.9787 189.36 13.8535ZM186.418 15.0733C185.962 15.353 185.53 15.6676 185.126 16.0134L185.677 16.6583C186.048 16.3412 186.444 16.0527 186.862 15.7962L186.418 15.0733ZM183.996 17.1432L184.641 17.6944C184.324 18.0654 184.035 18.4614 183.779 18.879L183.056 18.435C183.336 17.9795 183.65 17.5476 183.996 17.1432ZM182.329 19.858L183.113 20.183C182.928 20.6305 182.776 21.0955 182.661 21.5748L181.836 21.3774C181.961 20.8541 182.127 20.3465 182.329 19.858ZM181.588 22.9555C181.567 23.2194 181.557 23.486 181.557 23.7551C181.557 24.0242 181.567 24.2908 181.588 24.5547L182.434 24.4889C182.415 24.247 182.405 24.0022 182.405 23.7551C182.405 23.508 182.415 23.2632 182.434 23.0212L181.588 22.9555ZM181.836 26.1328L182.661 25.9354C182.776 26.4147 182.928 26.8797 183.113 27.3272L182.329 27.6522C182.127 27.1637 181.961 26.6561 181.836 26.1328ZM183.056 29.0752L183.779 28.6312C184.035 29.0488 184.324 29.4448 184.641 29.8158L183.996 30.3671C183.65 29.9626 183.336 29.5307 183.056 29.0752ZM185.126 31.4968L185.677 30.8519C186.048 31.169 186.444 31.4575 186.862 31.714L186.418 32.4369C185.962 32.1572 185.53 31.8426 185.126 31.4968ZM187.841 33.1633L188.166 32.3797C188.613 32.5652 189.078 32.7169 189.557 32.8316L189.36 33.6567C188.837 33.5315 188.329 33.3659 187.841 33.1633ZM190.938 33.9049L191.004 33.0591C191.246 33.0779 191.491 33.0875 191.738 33.0875C191.985 33.0875 192.23 33.0779 192.471 33.0591L192.537 33.9049C192.273 33.9254 192.007 33.9359 191.738 33.9359C191.469 33.9359 191.202 33.9254 190.938 33.9049ZM194.115 33.6567L193.918 32.8316C194.397 32.7169 194.862 32.5652 195.31 32.3797L195.635 33.1633C195.146 33.3659 194.639 33.5315 194.115 33.6567ZM197.058 32.4369L196.614 31.714C197.031 31.4575 197.427 31.169 197.798 30.8519L198.35 31.4968C197.945 31.8426 197.513 32.1572 197.058 32.4369ZM199.479 30.367L198.834 29.8158C199.152 29.4448 199.44 29.0488 199.697 28.6312L200.419 29.0752C200.14 29.5307 199.825 29.9626 199.479 30.367ZM201.146 27.6522L200.362 27.3272C200.548 26.8797 200.699 26.4147 200.814 25.9354L201.639 26.1328C201.514 26.6561 201.348 27.1637 201.146 27.6522Z"
    />
    <path
        fill="#8B55FF"
        opacity="0.8"
        d="M205.312 108.595C205.312 116.092 199.235 122.169 191.738 122.169C184.241 122.169 178.163 116.092 178.163 108.595C178.163 101.098 184.241 95.0204 191.738 95.0204C199.235 95.0204 205.312 101.098 205.312 108.595Z"
    />
    <path
        fill="#FF7CA9"
        fill-rule="evenodd" clip-rule="evenodd"
        d="M191.738 122.169C199.235 122.169 205.312 116.092 205.312 108.595C205.312 101.098 199.235 95.0204 191.738 95.0204C184.241 95.0204 178.163 101.098 178.163 108.595C178.163 116.092 184.241 122.169 191.738 122.169Z"
    />
    <path
        fill="#F9F9F9"
        opacity="0.32" fill-rule="evenodd" clip-rule="evenodd"
        d="M138.258 113.608L137.412 113.542C137.431 113.3 137.44 113.056 137.44 112.809C137.44 112.561 137.431 112.317 137.412 112.075L138.258 112.009C138.278 112.273 138.289 112.539 138.289 112.809C138.289 113.078 138.278 113.344 138.258 113.608ZM138.009 110.431L137.184 110.628C137.07 110.149 136.918 109.684 136.732 109.236L137.516 108.911C137.719 109.4 137.884 109.908 138.009 110.431ZM136.79 107.489L136.067 107.932C135.81 107.515 135.522 107.119 135.205 106.748L135.85 106.197C136.195 106.601 136.51 107.033 136.79 107.489ZM134.72 105.067L134.169 105.712C133.798 105.395 133.402 105.106 132.984 104.85L133.428 104.127C133.884 104.406 134.315 104.721 134.72 105.067ZM132.005 103.4L131.68 104.184C131.233 103.998 130.768 103.847 130.288 103.732L130.486 102.907C131.009 103.032 131.517 103.198 132.005 103.4ZM128.907 102.659L128.842 103.505C128.6 103.486 128.355 103.476 128.108 103.476C127.861 103.476 127.616 103.486 127.374 103.505L127.308 102.659C127.572 102.638 127.839 102.628 128.108 102.628C128.377 102.628 128.644 102.638 128.907 102.659ZM125.73 102.907L125.928 103.732C125.448 103.847 124.983 103.998 124.536 104.184L124.211 103.4C124.699 103.198 125.207 103.032 125.73 102.907ZM122.788 104.127C122.332 104.406 121.9 104.721 121.496 105.067L122.047 105.712C122.418 105.395 122.814 105.106 123.232 104.85L122.788 104.127ZM120.366 106.197L121.011 106.748C120.694 107.119 120.405 107.515 120.149 107.932L119.426 107.489C119.706 107.033 120.02 106.601 120.366 106.197ZM118.7 108.911L119.483 109.236C119.298 109.684 119.146 110.149 119.031 110.628L118.206 110.431C118.331 109.908 118.497 109.4 118.7 108.911ZM117.958 112.009C117.938 112.273 117.927 112.539 117.927 112.809C117.927 113.078 117.938 113.344 117.958 113.608L118.804 113.542C118.785 113.3 118.776 113.056 118.776 112.809C118.776 112.561 118.785 112.317 118.804 112.075L117.958 112.009ZM118.206 115.186L119.031 114.989C119.146 115.468 119.298 115.933 119.483 116.381L118.7 116.706C118.497 116.217 118.331 115.71 118.206 115.186ZM119.426 118.129L120.149 117.685C120.405 118.102 120.694 118.498 121.011 118.869L120.366 119.421C120.02 119.016 119.706 118.584 119.426 118.129ZM121.496 120.55L122.047 119.905C122.418 120.223 122.814 120.511 123.232 120.767L122.788 121.49C122.332 121.211 121.9 120.896 121.496 120.55ZM124.211 122.217L124.536 121.433C124.983 121.619 125.448 121.77 125.928 121.885L125.73 122.71C125.207 122.585 124.699 122.419 124.211 122.217ZM127.308 122.958L127.374 122.113C127.616 122.131 127.861 122.141 128.108 122.141C128.355 122.141 128.6 122.131 128.842 122.113L128.907 122.958C128.644 122.979 128.377 122.989 128.108 122.989C127.839 122.989 127.572 122.979 127.308 122.958ZM130.486 122.71L130.288 121.885C130.768 121.77 131.233 121.619 131.68 121.433L132.005 122.217C131.517 122.419 131.009 122.585 130.486 122.71ZM133.428 121.49L132.984 120.767C133.402 120.511 133.798 120.223 134.169 119.905L134.72 120.55C134.315 120.896 133.884 121.211 133.428 121.49ZM135.85 119.421L135.205 118.869C135.522 118.498 135.81 118.102 136.067 117.685L136.79 118.129C136.51 118.584 136.195 119.016 135.85 119.421ZM137.516 116.706L136.732 116.381C136.918 115.933 137.07 115.468 137.184 114.989L138.009 115.186C137.884 115.71 137.719 116.217 137.516 116.706Z"
    />
    <path
        fill="#242023"
        opacity="0.32"
        d="M256.468 67.8717C256.468 73.4944 251.91 78.0525 246.287 78.0525C240.664 78.0525 236.106 73.4944 236.106 67.8717C236.106 62.2491 240.664 57.691 246.287 57.691C251.91 57.691 256.468 62.2491 256.468 67.8717Z"
    />
    <path
        fill="#F9F9F9"
        opacity="0.32" fill-rule="evenodd" clip-rule="evenodd"
        d="M256.437 68.6713L255.591 68.6056C255.61 68.3636 255.619 68.1189 255.619 67.8717C255.619 67.6246 255.61 67.3799 255.591 67.1379L256.437 67.0722C256.457 67.336 256.468 67.6027 256.468 67.8717C256.468 68.1408 256.457 68.4075 256.437 68.6713ZM256.189 65.4941L255.363 65.6915C255.249 65.2121 255.097 64.7471 254.912 64.2996L255.695 63.9747C255.898 64.4631 256.063 64.9707 256.189 65.4941ZM254.969 62.5517L254.246 62.9956C253.989 62.578 253.701 62.182 253.384 61.8111L254.029 61.2598C254.374 61.6642 254.689 62.0961 254.969 62.5517ZM252.899 60.13L252.348 60.7749C251.977 60.4578 251.581 60.1693 251.163 59.9129L251.607 59.1899C252.063 59.4697 252.494 59.7843 252.899 60.13ZM250.184 58.4635L249.859 59.2472C249.412 59.0616 248.947 58.9099 248.467 58.7952L248.665 57.9701C249.188 58.0953 249.696 58.261 250.184 58.4635ZM247.087 57.7219L247.021 58.5678C246.779 58.549 246.534 58.5394 246.287 58.5394C246.04 58.5394 245.795 58.549 245.553 58.5678L245.487 57.7219C245.751 57.7014 246.018 57.691 246.287 57.691C246.556 57.691 246.823 57.7014 247.087 57.7219ZM243.909 57.9701L244.107 58.7952C243.627 58.9099 243.162 59.0616 242.715 59.2472L242.39 58.4635C242.878 58.261 243.386 58.0953 243.909 57.9701ZM240.967 59.1899C240.511 59.4697 240.079 59.7843 239.675 60.13L240.226 60.7749C240.597 60.4578 240.993 60.1693 241.411 59.9129L240.967 59.1899ZM238.545 61.2598L239.19 61.8111C238.873 62.182 238.585 62.578 238.328 62.9956L237.605 62.5517C237.885 62.0961 238.2 61.6642 238.545 61.2598ZM236.879 63.9747L237.662 64.2997C237.477 64.7471 237.325 65.2121 237.21 65.6915L236.385 65.4941C236.511 64.9707 236.676 64.4631 236.879 63.9747ZM236.137 67.0722C236.117 67.336 236.106 67.6027 236.106 67.8717C236.106 68.1408 236.117 68.4075 236.137 68.6713L236.983 68.6056C236.964 68.3636 236.955 68.1189 236.955 67.8717C236.955 67.6246 236.964 67.3799 236.983 67.1379L236.137 67.0722ZM236.385 70.2494L237.21 70.052C237.325 70.5314 237.477 70.9964 237.662 71.4438L236.879 71.7688C236.676 71.2804 236.511 70.7727 236.385 70.2494ZM237.605 73.1918L238.328 72.7478C238.585 73.1655 238.873 73.5615 239.19 73.9324L238.545 74.4837C238.2 74.0792 237.885 73.6474 237.605 73.1918ZM239.675 75.6134L240.226 74.9686C240.597 75.2857 240.993 75.5742 241.411 75.8306L240.967 76.5536C240.511 76.2738 240.079 75.9592 239.675 75.6134ZM242.39 77.28L242.715 76.4963C243.162 76.6818 243.627 76.8335 244.107 76.9482L243.909 77.7733C243.386 77.6481 242.878 77.4825 242.39 77.28ZM245.487 78.0216L245.553 77.1757C245.795 77.1945 246.04 77.2041 246.287 77.2041C246.534 77.2041 246.779 77.1945 247.021 77.1757L247.087 78.0216C246.823 78.0421 246.556 78.0525 246.287 78.0525C246.018 78.0525 245.751 78.0421 245.487 78.0216ZM248.665 77.7733L248.467 76.9482C248.947 76.8335 249.412 76.6818 249.859 76.4963L250.184 77.28C249.696 77.4825 249.188 77.6481 248.665 77.7733ZM251.607 76.5536L251.163 75.8306C251.581 75.5742 251.977 75.2857 252.348 74.9686L252.899 75.6134C252.494 75.9592 252.063 76.2738 251.607 76.5536ZM254.029 74.4837L253.384 73.9324C253.701 73.5615 253.989 73.1655 254.246 72.7478L254.969 73.1918C254.689 73.6474 254.374 74.0792 254.029 74.4837ZM255.695 71.7688L254.912 71.4438C255.097 70.9964 255.249 70.5314 255.363 70.052L256.189 70.2494C256.063 70.7727 255.898 71.2804 255.695 71.7688Z"
    />
    <path
        fill="#F9F9F9"
        opacity="0.8" fill-rule="evenodd" clip-rule="evenodd"
        d="M28.0056 68.7201H27.1487V67.8717H28.0056V68.7201ZM31.4331 68.7201H29.7193V67.8717H31.4331V68.7201ZM34.8606 68.7201H33.1468V67.8717H34.8606V68.7201ZM38.2881 68.7201H36.5744V67.8717H38.2881V68.7201ZM41.7157 68.7201H40.0019V67.8717H41.7157V68.7201ZM45.1432 68.7201H43.4294V67.8717H45.1432V68.7201ZM48.5707 68.7201H46.8569V67.8717H48.5707V68.7201ZM51.9982 68.7201H50.2845V67.8717H51.9982V68.7201ZM55.4257 68.7201H53.712V67.8717H55.4257V68.7201ZM58.8533 68.7201H57.1395V67.8717H58.8533V68.7201ZM62.2808 68.7201H60.567V67.8717H62.2808V68.7201ZM65.7083 68.7201H63.9945V67.8717H65.7083V68.7201ZM69.1358 68.7201H67.4221V67.8717H69.1358V68.7201ZM72.5633 68.7201H70.8496V67.8717H72.5633V68.7201ZM75.9909 68.7201H74.2771V67.8717H75.9909V68.7201ZM79.4184 68.7201H77.7046V67.8717H79.4184V68.7201ZM82.8459 68.7201H81.1321V67.8717H82.8459V68.7201ZM86.2734 68.7201H84.5597V67.8717H86.2734V68.7201ZM89.701 68.7201H87.9872V67.8717H89.701V68.7201ZM93.1285 68.7201H91.4147V67.8717H93.1285V68.7201ZM96.556 68.7201H94.8422V67.8717H96.556V68.7201ZM99.9835 68.7201H98.2698V67.8717H99.9835V68.7201ZM103.411 68.7201H101.697V67.8717H103.411V68.7201ZM106.839 68.7201H105.125V67.8717H106.839V68.7201ZM110.266 68.7201H108.552V67.8717H110.266V68.7201ZM112.837 68.7201H111.98V67.8717H112.837V68.7201Z"
    />
    <path
        fill="#F9F9F9"
        opacity="0.32" fill-rule="evenodd" clip-rule="evenodd"
        d="M146.043 68.0307L145.202 68.0307L145.202 67.1823L146.043 67.1823L146.043 68.0307ZM149.41 68.0307L147.727 68.0307L147.727 67.1823L149.41 67.1823L149.41 68.0307ZM152.777 68.0307L151.094 68.0307L151.094 67.1823L152.777 67.1823L152.777 68.0307ZM156.144 68.0307L154.461 68.0307L154.461 67.1823L156.144 67.1823L156.144 68.0307ZM159.511 68.0307L157.827 68.0307L157.827 67.1823L159.511 67.1823L159.511 68.0307ZM162.878 68.0307L161.194 68.0307L161.194 67.1823L162.878 67.1823L162.878 68.0307ZM166.244 68.0307L164.561 68.0307L164.561 67.1823L166.244 67.1823L166.244 68.0307ZM169.611 68.0307L167.928 68.0307L167.928 67.1823L169.611 67.1823L169.611 68.0307ZM172.978 68.0307L171.295 68.0307L171.295 67.1823L172.978 67.1823L172.978 68.0307ZM176.345 68.0307L174.662 68.0307L174.662 67.1823L176.345 67.1823L176.345 68.0307ZM179.712 68.0307L178.028 68.0307L178.028 67.1823L179.712 67.1823L179.712 68.0307ZM183.079 68.0307L181.395 68.0307L181.395 67.1823L183.079 67.1823L183.079 68.0307ZM186.445 68.0307L184.762 68.0307L184.762 67.1823L186.445 67.1823L186.445 68.0307ZM189.812 68.0307L188.129 68.0307L188.129 67.1823L189.812 67.1823L189.812 68.0307ZM193.179 68.0307L191.496 68.0307L191.496 67.1823L193.179 67.1823L193.179 68.0307ZM196.546 68.0307L194.862 68.0307L194.862 67.1823L196.546 67.1823L196.546 68.0307ZM199.913 68.0307L198.229 68.0307L198.229 67.1823L199.913 67.1823L199.913 68.0307ZM203.28 68.0307L201.596 68.0307L201.596 67.1823L203.28 67.1823L203.28 68.0307ZM206.646 68.0307L204.963 68.0307L204.963 67.1823L206.646 67.1823L206.646 68.0307ZM210.013 68.0307L208.33 68.0307L208.33 67.1823L210.013 67.1823L210.013 68.0307ZM213.38 68.0307L211.697 68.0307L211.697 67.1823L213.38 67.1823L213.38 68.0307ZM216.747 68.0307L215.063 68.0307L215.063 67.1823L216.747 67.1823L216.747 68.0307ZM220.114 68.0307L218.43 68.0307L218.43 67.1823L220.114 67.1823L220.114 68.0307ZM223.481 68.0307L221.797 68.0307L221.797 67.1823L223.481 67.1823L223.481 68.0307ZM226.847 68.0307L225.164 68.0307L225.164 67.1823L226.847 67.1823L226.847 68.0307ZM230.214 68.0307L228.531 68.0307L228.531 67.1823L230.214 67.1823L230.214 68.0307ZM233.581 68.0307L231.898 68.0307L231.898 67.1823L233.581 67.1823L233.581 68.0307ZM236.106 68.0307L235.264 68.0307L235.264 67.1823L236.106 67.1823L236.106 68.0307Z"
    />
    <path
        fill="#F9F9F9"
        opacity="0.8" fill-rule="evenodd" clip-rule="evenodd"
        d="M127.81 27.7517L127.81 26.8743L128.658 26.8743L128.658 27.7517L127.81 27.7517ZM127.81 31.2614L127.81 29.5066L128.658 29.5066L128.658 31.2614L127.81 31.2614ZM127.81 34.7711L127.81 33.0163L128.658 33.0163L128.658 34.7711L127.81 34.7711ZM127.81 38.2808L127.81 36.526L128.658 36.526L128.658 38.2808L127.81 38.2808ZM127.81 41.7905L127.81 40.0357L128.658 40.0357L128.658 41.7905L127.81 41.7905ZM127.81 45.3002L127.81 43.5454L128.658 43.5454L128.658 45.3002L127.81 45.3002ZM127.81 48.8099L127.81 47.0551L128.658 47.0551L128.658 48.8099L127.81 48.8099ZM127.81 51.4422L127.81 50.5648L128.658 50.5648L128.658 51.4422L127.81 51.4422Z"
    />
    <path
        fill="#F9F9F9"
        opacity="0.32" fill-rule="evenodd" clip-rule="evenodd"
        d="M128.108 72.0855L128.108 71.2371L128.956 71.2371L128.956 72.0855L128.108 72.0855ZM128.108 75.4791L128.108 73.7823L128.956 73.7823L128.956 75.4791L128.108 75.4791ZM128.108 78.8727L128.108 77.1759L128.956 77.1759L128.956 78.8727L128.108 78.8727ZM128.108 82.2663L128.108 80.5695L128.956 80.5695L128.956 82.2663L128.108 82.2663ZM128.108 85.6599L128.108 83.9631L128.956 83.9631L128.956 85.6599L128.108 85.6599ZM128.108 89.0534L128.108 87.3567L128.956 87.3567L128.956 89.0534L128.108 89.0534ZM128.108 92.447L128.108 90.7502L128.956 90.7502L128.956 92.447L128.108 92.447ZM128.108 95.8406L128.108 94.1438L128.956 94.1438L128.956 95.8406L128.108 95.8406ZM128.108 99.2342L128.108 97.5374L128.956 97.5374L128.956 99.2342L128.108 99.2342ZM128.108 101.779L128.108 100.931L128.956 100.931L128.956 101.779L128.108 101.779Z"
    />
    <path
        fill="#F9F9F9"
        opacity="0.8" fill-rule="evenodd" clip-rule="evenodd"
        d="M146.031 68.0307H145.202V67.1823H146.031V68.0307ZM149.347 68.0307H147.689V67.1823H149.347V68.0307ZM152.664 68.0307H151.006V67.1823H152.664V68.0307ZM155.98 68.0307H154.322V67.1823H155.98V68.0307ZM159.297 68.0307H157.639V67.1823H159.297V68.0307ZM162.613 68.0307H160.955V67.1823H162.613V68.0307ZM165.93 68.0307H164.272V67.1823H165.93V68.0307ZM169.246 68.0307H167.588V67.1823H169.246V68.0307ZM172.563 68.0307H170.905V67.1823H172.563V68.0307ZM175.879 68.0307H174.221V67.1823H175.879V68.0307ZM179.196 68.0307H177.537V67.1823H179.196V68.0307ZM182.512 68.0307H180.854V67.1823H182.512V68.0307ZM185 68.0307H184.17V67.1823H185C185.318 67.1823 185.633 67.203 185.941 67.2432L185.831 68.0845C185.559 68.049 185.282 68.0307 185 68.0307ZM188.873 69.3451C188.435 69.0085 187.952 68.7278 187.435 68.5134L187.76 67.7297C188.347 67.9729 188.894 68.2912 189.39 68.6724L188.873 69.3451ZM190.88 71.9581C190.665 71.4411 190.385 70.9582 190.048 70.5202L190.721 70.0033C191.102 70.4994 191.42 71.0466 191.664 71.6331L190.88 71.9581ZM191.363 74.3937C191.363 74.1116 191.344 73.8341 191.309 73.5621L192.15 73.4523C192.19 73.7606 192.211 74.0748 192.211 74.3937V75.2649H191.363V74.3937ZM191.363 78.7499V77.0074H192.211V78.7499H191.363ZM191.363 82.2349V80.4924H192.211V82.2349H191.363ZM191.363 85.7199V83.9774H192.211V85.7199H191.363ZM191.363 89.2049V87.4624H192.211V89.2049H191.363ZM191.363 92.6899V90.9474H192.211V92.6899H191.363ZM191.363 95.3037V94.4324H192.211V95.3037H191.363Z"
    />
    <path
        fill="#F9F9F9"
        opacity="0.32" fill-rule="evenodd" clip-rule="evenodd"
        d="M146.048 67.1823H145.219V68.0307H146.048V67.1823ZM149.363 67.1823H147.706V68.0307H149.363V67.1823ZM152.678 67.1823H151.021V68.0307H152.678V67.1823ZM155.993 67.1823H154.336V68.0307H155.993V67.1823ZM159.308 67.1823H157.651V68.0307H159.308V67.1823ZM162.623 67.1823H160.966V68.0307H162.623V67.1823ZM165.938 67.1823H164.281V68.0307H165.938V67.1823ZM169.253 67.1823H167.596V68.0307H169.253V67.1823ZM172.568 67.1823H170.911V68.0307H172.568V67.1823ZM175.883 67.1823H174.226V68.0307H175.883V67.1823ZM179.198 67.1823H177.541V68.0307H179.198V67.1823ZM182.513 67.1823H180.856V68.0307H182.513V67.1823ZM185 67.1823H184.171V68.0307H185C185.318 68.0307 185.633 68.01 185.941 67.9698L185.831 67.1285C185.559 67.164 185.282 67.1823 185 67.1823ZM188.873 65.8679C188.435 66.2045 187.952 66.4852 187.435 66.6996L187.76 67.4833C188.347 67.2401 188.894 66.9219 189.39 66.5406L188.873 65.8679ZM190.88 63.2549C190.665 63.7719 190.385 64.2548 190.048 64.6928L190.721 65.2097C191.102 64.7136 191.42 64.1664 191.664 63.5799L190.88 63.2549ZM191.362 60.8193C191.362 61.1014 191.344 61.3789 191.309 61.6509L192.15 61.7607C192.19 61.4524 192.211 61.1382 192.211 60.8193V59.9777H191.362V60.8193ZM191.362 56.6113V58.2945H192.211V56.6113H191.362ZM191.362 53.2449V54.9281H192.211V53.2449H191.362ZM191.362 49.8785V51.5617H192.211V49.8785H191.362ZM191.362 46.5121V48.1953H192.211V46.5121H191.362ZM191.362 43.1456V44.8288H192.211V43.1456H191.362ZM191.362 39.7792V41.4624H192.211V39.7792H191.362ZM191.362 36.4128V38.096H192.211V36.4128H191.362ZM191.362 33.888V34.7296H192.211V33.888H191.362Z"
    />
    <path
        fill="#F9F9F9"
        opacity="0.32" fill-rule="evenodd" clip-rule="evenodd"
        d="M80.5868 67.8456H81.446V68.692H80.5868V67.8456ZM77.1498 67.8456H78.8683V68.692H77.1498V67.8456ZM73.7127 67.8456H75.4312V68.692H73.7127V67.8456ZM71.135 67.8456H71.9942V68.692H71.135C70.8031 68.692 70.4761 68.6713 70.1553 68.6312L70.2695 67.7919C70.5525 67.8273 70.8414 67.8456 71.135 67.8456ZM67.1037 66.5343C67.5595 66.8701 68.062 67.1502 68.6001 67.3641L68.2619 68.1459C67.6515 67.9033 67.082 67.5858 66.5656 67.2054L67.1037 66.5343ZM65.015 63.9276C65.2382 64.4434 65.5304 64.9251 65.8806 65.362L65.1805 65.8777C64.7838 65.3828 64.4525 64.8369 64.1994 64.2518L65.015 63.9276ZM64.5127 61.4978C64.5127 61.7792 64.5318 62.0561 64.5687 62.3275L63.6931 62.4369C63.6513 62.1294 63.6297 61.8159 63.6297 61.4978V60.6357H64.5127V61.4978ZM64.5127 57.1869V58.9113H63.6297V57.1869H64.5127ZM64.5127 53.7381V55.4625H63.6297V53.7381H64.5127ZM64.5127 50.2894V52.0137H63.6297V50.2894H64.5127ZM64.5127 46.8406V48.565H63.6297V46.8406H64.5127ZM64.5127 43.3918V45.1162H63.6297V43.3918H64.5127ZM64.5127 39.943V41.6674H63.6297V39.943H64.5127ZM64.5127 36.4943V38.2187H63.6297V36.4943H64.5127ZM64.5127 33.9077V34.7699H63.6297V33.9077H64.5127Z"
    />
    <path
        fill="#F9F9F9"
        opacity="0.32" fill-rule="evenodd" clip-rule="evenodd"
        d="M80.347 68.7428H81.1726V67.8944H80.347V68.7428ZM77.0445 68.7428H78.6958V67.8944H77.0445V68.7428ZM73.7421 68.7428H75.3933V67.8944H73.7421V68.7428ZM71.2652 68.7428H72.0908V67.8944H71.2652C70.9464 67.8944 70.6322 67.9151 70.3239 67.9553L70.4336 68.7966C70.7056 68.7611 70.9832 68.7428 71.2652 68.7428ZM67.3918 70.0572C67.8298 69.7206 68.3126 69.4399 68.8297 69.2255L68.5047 68.4418C67.9182 68.685 67.3709 69.0033 66.8748 69.3845L67.3918 70.0572ZM65.3849 72.6702C65.5993 72.1532 65.8801 71.6703 66.2166 71.2323L65.5439 70.7154C65.1627 71.2115 64.8444 71.7587 64.6012 72.3452L65.3849 72.6702ZM64.9023 75.1058C64.9023 74.8237 64.9206 74.5462 64.9561 74.2742L64.1148 74.1644C64.0746 74.4727 64.0539 74.7869 64.0539 75.1058V75.97H64.9023V75.1058ZM64.9023 79.4271V77.6986H64.0539V79.4271H64.9023ZM64.9023 82.8841V81.1556H64.0539V82.8841H64.9023ZM64.9023 86.3412V84.6126H64.0539V86.3412H64.9023ZM64.9023 89.7982V88.0697H64.0539V89.7982H64.9023ZM64.9023 93.2553V91.5267H64.0539V93.2553H64.9023ZM64.9023 96.7123V94.9838H64.0539V96.7123H64.9023ZM64.9023 100.169V98.4408H64.0539V100.169H64.9023ZM64.9023 102.762V101.898H64.0539V102.762H64.9023Z"
    />
    <path
        fill="#242023"
        opacity="0.8"
        d="M27.1487 67.8717C27.1487 75.3686 21.0712 81.4461 13.5743 81.4461C6.07744 81.4461 0 75.3686 0 67.8717C0 60.3748 6.07744 54.2974 13.5743 54.2974C21.0712 54.2974 27.1487 60.3748 27.1487 67.8717Z"
    />
    <path
        fill="#8B55FF"
        fill-rule="evenodd" clip-rule="evenodd"
        d="M13.5743 81.4461C21.0712 81.4461 27.1487 75.3686 27.1487 67.8717C27.1487 60.3748 21.0712 54.2974 13.5743 54.2974C6.07744 54.2974 0 60.3748 0 67.8717C0 75.3686 6.07744 81.4461 13.5743 81.4461Z"
    />
    <path
        fill="#242023"
        opacity="0.32"
        d="M74.6589 111.988C74.6589 117.611 70.1008 122.169 64.4781 122.169C58.8554 122.169 54.2974 117.611 54.2974 111.988C54.2974 106.366 58.8554 101.808 64.4781 101.808C70.1008 101.808 74.6589 106.366 74.6589 111.988Z"
    />
    <path
        fill="#F9F9F9"
        opacity="0.32" fill-rule="evenodd" clip-rule="evenodd"
        d="M74.6279 113.608L73.7821 113.542C73.8009 113.3 73.8105 113.056 73.8105 112.809C73.8105 112.561 73.8009 112.317 73.7821 112.075L74.6279 112.009C74.6484 112.273 74.6589 112.539 74.6589 112.809C74.6589 113.078 74.6484 113.344 74.6279 113.608ZM74.3797 110.431L73.5546 110.628C73.4399 110.149 73.2882 109.684 73.1027 109.236L73.8864 108.911C74.0889 109.4 74.2545 109.908 74.3797 110.431ZM73.16 107.489L72.437 107.932C72.1805 107.515 71.8921 107.119 71.5749 106.748L72.2198 106.197C72.5656 106.601 72.8802 107.033 73.16 107.489ZM71.0901 105.067L70.5388 105.712C70.1678 105.395 69.7718 105.106 69.3542 104.85L69.7982 104.127C70.2537 104.406 70.6856 104.721 71.0901 105.067ZM68.3752 103.4L68.0502 104.184C67.6028 103.998 67.1378 103.847 66.6584 103.732L66.8558 102.907C67.3791 103.032 67.8867 103.198 68.3752 103.4ZM65.2777 102.659L65.212 103.505C64.97 103.486 64.7253 103.476 64.4781 103.476C64.231 103.476 63.9863 103.486 63.7443 103.505L63.6786 102.659C63.9424 102.638 64.209 102.628 64.4781 102.628C64.7472 102.628 65.0139 102.638 65.2777 102.659ZM62.1004 102.907L62.2979 103.732C61.8185 103.847 61.3535 103.998 60.906 104.184L60.5811 103.4C61.0695 103.198 61.5771 103.032 62.1004 102.907ZM59.1581 104.127C58.7025 104.406 58.2706 104.721 57.8662 105.067L58.4175 105.712C58.7884 105.395 59.1844 105.106 59.602 104.85L59.1581 104.127ZM56.7364 106.197L57.3813 106.748C57.0642 107.119 56.7757 107.515 56.5192 107.932L55.7963 107.489C56.076 107.033 56.3907 106.601 56.7364 106.197ZM55.0699 108.911L55.8536 109.236C55.668 109.684 55.5163 110.149 55.4016 110.628L54.5765 110.431C54.7017 109.908 54.8673 109.4 55.0699 108.911ZM54.3283 112.009C54.3078 112.273 54.2974 112.539 54.2974 112.809C54.2974 113.078 54.3078 113.344 54.3283 113.608L55.1741 113.542C55.1553 113.3 55.1458 113.056 55.1458 112.809C55.1458 112.561 55.1553 112.317 55.1741 112.075L54.3283 112.009ZM54.5765 115.186L55.4016 114.989C55.5163 115.468 55.668 115.933 55.8536 116.381L55.0699 116.706C54.8673 116.217 54.7017 115.71 54.5765 115.186ZM55.7963 118.129L56.5192 117.685C56.7757 118.102 57.0642 118.498 57.3813 118.869L56.7364 119.421C56.3907 119.016 56.076 118.584 55.7963 118.129ZM57.8662 120.55L58.4175 119.905C58.7884 120.223 59.1844 120.511 59.602 120.767L59.1581 121.49C58.7025 121.211 58.2706 120.896 57.8662 120.55ZM60.5811 122.217L60.906 121.433C61.3535 121.619 61.8185 121.77 62.2979 121.885L62.1004 122.71C61.5771 122.585 61.0695 122.419 60.5811 122.217ZM63.6786 122.958L63.7443 122.113C63.9863 122.131 64.231 122.141 64.4781 122.141C64.7253 122.141 64.97 122.131 65.212 122.113L65.2777 122.958C65.0139 122.979 64.7472 122.989 64.4781 122.989C64.209 122.989 63.9424 122.979 63.6786 122.958ZM66.8558 122.71L66.6584 121.885C67.1378 121.77 67.6028 121.619 68.0502 121.433L68.3752 122.217C67.8868 122.419 67.3791 122.585 66.8558 122.71ZM69.7982 121.49L69.3542 120.767C69.7718 120.511 70.1678 120.223 70.5388 119.905L71.0901 120.55C70.6856 120.896 70.2537 121.211 69.7982 121.49ZM72.2198 119.421L71.5749 118.869C71.8921 118.498 72.1805 118.102 72.437 117.685L73.16 118.129C72.8802 118.584 72.5656 119.016 72.2198 119.421ZM73.8864 116.706L73.1027 116.381C73.2882 115.933 73.4399 115.468 73.5546 114.989L74.3797 115.186C74.2545 115.71 74.0889 116.217 73.8864 116.706Z"
    />
    <path
        fill="#F9F9F9"
        opacity="0.8" fill-rule="evenodd" clip-rule="evenodd"
        d="M138.289 52.5724H117.927C114.647 52.5724 111.988 55.2313 111.988 58.5112V78.8727C111.988 82.1526 114.647 84.8115 117.927 84.8115H138.289C141.568 84.8115 144.227 82.1526 144.227 78.8727V58.5112C144.227 55.2313 141.568 52.5724 138.289 52.5724ZM117.927 51.724C114.179 51.724 111.14 54.7627 111.14 58.5112V78.8727C111.14 82.6212 114.179 85.6599 117.927 85.6599H138.289C142.037 85.6599 145.076 82.6212 145.076 78.8727V58.5112C145.076 54.7628 142.037 51.724 138.289 51.724H117.927Z"
    />
    <path
        fill="#8B55FF"
        fill-rule="evenodd" clip-rule="evenodd"
        d="M128.108 33.9077C135.605 33.9077 141.682 27.8302 141.682 20.3333C141.682 12.8364 135.605 6.759 128.108 6.759C120.611 6.759 114.534 12.8364 114.534 20.3333C114.534 27.8302 120.611 33.9077 128.108 33.9077Z"
    />
    <path
        fill="#50F6E8"
        d="M111.14 58.5112C111.14 54.7627 114.179 51.724 117.927 51.724H138.289C142.037 51.724 145.076 54.7628 145.076 58.5112V78.8727C145.076 82.6212 142.037 85.6599 138.289 85.6599H117.927C114.179 85.6599 111.14 82.6212 111.14 78.8727V58.5112Z"
    />
</svg>