<svg width="293" height="293" viewBox="0 0 293 293" fill="none" xmlns="http://www.w3.org/2000/svg">
  <path
    d="M291.434 101.712C276.746 53.958 239.152 16.2498 191.488 1.43239M291.434 191.153C276.746 238.907 239.152 276.615 191.488 291.432M101.379 291.432C54.6651 276.91 17.6242 240.401 2.33919 193.997M1.43359 101.712C16.1213 53.958 53.715 16.2498 101.379 1.43237"
    stroke="white" stroke-width="3" stroke-dasharray="6 6" />
  <path
    d="M147.495 36.0659C146.909 35.4801 145.959 35.4801 145.373 36.0659L135.827 45.6118C135.242 46.1976 135.242 47.1474 135.827 47.7332C136.413 48.3189 137.363 48.3189 137.949 47.7332L146.434 39.2479L154.919 47.7332C155.505 48.3189 156.455 48.3189 157.041 47.7332C157.626 47.1474 157.626 46.1976 157.041 45.6118L147.495 36.0659ZM146.434 96.296L147.934 96.296L147.934 93.3375L146.434 93.3375L144.934 93.3375L144.934 96.296L146.434 96.296ZM146.434 87.4205L147.934 87.4205L147.934 81.5036L146.434 81.5036L144.934 81.5036L144.934 87.4205L146.434 87.4205ZM146.434 75.5867L147.934 75.5867L147.934 69.6697L146.434 69.6697L144.934 69.6697L144.934 75.5867L146.434 75.5867ZM146.434 63.7528L147.934 63.7528L147.934 57.8358L146.434 57.8358L144.934 57.8358L144.934 63.7528L146.434 63.7528ZM146.434 51.9189L147.934 51.9189L147.934 46.002L146.434 46.002L144.934 46.002L144.934 51.9189L146.434 51.9189ZM146.434 40.085L147.934 40.085L147.934 37.1266L146.434 37.1266L144.934 37.1266L144.934 40.085L146.434 40.085Z"
    fill="white" />
  <path
    d="M145.365 256.79C145.951 257.376 146.901 257.376 147.486 256.79L157.032 247.244C157.618 246.658 157.618 245.709 157.032 245.123C156.447 244.537 155.497 244.537 154.911 245.123L146.426 253.608L137.941 245.123C137.355 244.537 136.405 244.537 135.819 245.123C135.233 245.709 135.233 246.658 135.819 247.244L145.365 256.79ZM146.426 196.56H144.926V199.519H146.426H147.926V196.56H146.426ZM146.426 205.436H144.926V211.352H146.426H147.926V205.436H146.426ZM146.426 217.269H144.926V223.186H146.426H147.926V217.269H146.426ZM146.426 229.103H144.926V235.02H146.426H147.926V229.103H146.426ZM146.426 240.937H144.926V246.854H146.426H147.926V240.937H146.426ZM146.426 252.771H144.926V255.73H146.426H147.926V252.771H146.426Z"
    fill="white" />
  <path
    d="M36.1539 145.363C35.5681 145.949 35.5681 146.899 36.1539 147.485L45.6998 157.03C46.2856 157.616 47.2354 157.616 47.8211 157.03C48.4069 156.445 48.4069 155.495 47.8211 154.909L39.3359 146.424L47.8211 137.939C48.4069 137.353 48.4069 136.403 47.8211 135.817C47.2354 135.232 46.2856 135.232 45.6998 135.817L36.1539 145.363ZM96.3374 146.424L96.3374 144.924L93.3813 144.924L93.3813 146.424L93.3813 147.924L96.3374 147.924L96.3374 146.424ZM87.469 146.424L87.469 144.924L81.5567 144.924L81.5567 146.424L81.5567 147.924L87.469 147.924L87.469 146.424ZM75.6444 146.424L75.6444 144.924L69.7321 144.924L69.7321 146.424L69.7321 147.924L75.6444 147.924L75.6444 146.424ZM63.8198 146.424L63.8198 144.924L57.9075 144.924L57.9075 146.424L57.9075 147.924L63.8198 147.924L63.8198 146.424ZM51.9953 146.424L51.9953 144.924L46.083 144.924L46.083 146.424L46.083 147.924L51.9953 147.924L51.9953 146.424ZM40.1707 146.424L40.1707 144.924L37.2145 144.924L37.2145 146.424L37.2145 147.924L40.1707 147.924L40.1707 146.424Z"
    fill="white" />
  <path
    d="M256.706 147.493C257.292 146.907 257.292 145.957 256.706 145.372L247.16 135.826C246.574 135.24 245.625 135.24 245.039 135.826C244.453 136.412 244.453 137.361 245.039 137.947L253.524 146.432L245.039 154.918C244.453 155.503 244.453 156.453 245.039 157.039C245.625 157.625 246.574 157.625 247.16 157.039L256.706 147.493ZM196.522 146.432L196.522 147.932L199.479 147.932L199.479 146.432L199.479 144.932L196.522 144.932L196.522 146.432ZM205.391 146.432L205.391 147.932L211.303 147.932L211.303 146.432L211.303 144.932L205.391 144.932L205.391 146.432ZM217.215 146.432L217.215 147.932L223.128 147.932L223.128 146.432L223.128 144.932L217.215 144.932L217.215 146.432ZM229.04 146.432L229.04 147.932L234.952 147.932L234.952 146.432L234.952 144.932L229.04 144.932L229.04 146.432ZM240.865 146.432L240.865 147.932L246.777 147.932L246.777 146.432L246.777 144.932L240.865 144.932L240.865 146.432ZM252.689 146.432L252.689 147.932L255.645 147.932L255.645 146.432L255.645 144.932L252.689 144.932L252.689 146.432Z"
    fill="white" />
</svg>
  