<svg width="243" height="116" viewBox="0 0 243 116" fill="none" xmlns="http://www.w3.org/2000/svg">
    <path
        stroke="white" stroke-width="1.44928"
        d="M6.77295 0.724609H24.27C27.6389 0.724683 30.1947 3.08577 30.1948 5.79688V46.377C30.1948 49.0882 27.639 51.4491 24.27 51.4492H6.77295C3.40388 51.4492 0.847168 49.0882 0.847168 46.377V5.79688C0.847332 3.08573 3.40399 0.724609 6.77295 0.724609Z"
    />
    <path
        stroke="white" stroke-width="1.44928"
        d="M49.1646 0.724609H66.6616C70.0305 0.724683 72.5863 3.08577 72.5864 5.79688V46.377C72.5864 49.0882 70.0306 51.4491 66.6616 51.4492H49.1646C45.7955 51.4492 43.2388 49.0882 43.2388 46.377V5.79688C43.2389 3.08573 45.7956 0.724609 49.1646 0.724609Z"
    />
    <path
        stroke="white" stroke-width="1.44928"
        d="M91.5562 0.724609H109.053C112.422 0.724683 114.978 3.08577 114.978 5.79688V46.377C114.978 49.0882 112.422 51.4491 109.053 51.4492H91.5562C88.1871 51.4492 85.6304 49.0882 85.6304 46.377V5.79688C85.6305 3.08573 88.1872 0.724609 91.5562 0.724609Z"
    />
    <path
        fill="#50F6E8"
        fill-rule="evenodd" clip-rule="evenodd"
        d="M133.947 0C130.275 0 127.297 2.59547 127.297 5.79714V46.3771C127.297 49.5788 130.275 52.1742 133.947 52.1742H151.445C155.117 52.1742 158.095 49.5788 158.095 46.3771V5.79714C158.095 2.59547 155.117 0 151.445 0H133.947Z"
    />
    <path
        stroke="white" stroke-width="1.44928"
        d="M176.339 0.724609H193.836C197.205 0.724683 199.761 3.08577 199.761 5.79688V46.377C199.761 49.0882 197.205 51.4491 193.836 51.4492H176.339C172.97 51.4492 170.413 49.0882 170.413 46.377V5.79688C170.413 3.08573 172.97 0.724609 176.339 0.724609Z"
    />
    <path
        stroke="white" stroke-width="1.44928"
        d="M218.731 0.724609H236.228C239.597 0.724683 242.152 3.08577 242.153 5.79688V46.377C242.153 49.0882 239.597 51.4491 236.228 51.4492H218.731C215.362 51.4492 212.805 49.0882 212.805 46.377V5.79688C212.805 3.08573 215.362 0.724609 218.731 0.724609Z"
    />
    <path
        stroke="white" stroke-width="1.44928"
        d="M6.77295 64.4931H24.27C27.6389 64.4932 30.1947 66.8543 30.1948 69.5654V110.145C30.1948 112.857 27.639 115.218 24.27 115.218H6.77295C3.40388 115.218 0.847168 112.857 0.847168 110.145V69.5654C0.847332 66.8543 3.40399 64.4931 6.77295 64.4931Z"
    />
    <path
        fill="#FF7CA9"
        fill-rule="evenodd" clip-rule="evenodd"
        d="M49.1641 63.7685C45.4915 63.7685 42.5142 66.364 42.5142 69.5657V110.146C42.5142 113.347 45.4915 115.943 49.1641 115.943H66.6615C70.3342 115.943 73.3114 113.347 73.3114 110.146V69.5657C73.3114 66.364 70.3341 63.7685 66.6615 63.7685H49.1641Z"
    />
    <path
        stroke="white" stroke-width="1.44928"
        d="M91.5562 64.4931H109.053C112.422 64.4932 114.978 66.8543 114.978 69.5654V110.145C114.978 112.857 112.422 115.218 109.053 115.218H91.5562C88.1871 115.218 85.6304 112.857 85.6304 110.145V69.5654C85.6305 66.8543 88.1872 64.4931 91.5562 64.4931Z"
    />
    <path
        fill="#8B55FF"
        fill-rule="evenodd" clip-rule="evenodd"
        d="M133.947 63.7685C130.275 63.7685 127.297 66.364 127.297 69.5657V110.146C127.297 113.347 130.275 115.943 133.947 115.943H151.445C155.117 115.943 158.095 113.347 158.095 110.146V69.5657C158.095 66.364 155.117 63.7685 151.445 63.7685H133.947Z"
    />
    <path
        stroke="white" stroke-width="1.44928"
        d="M176.339 64.4931H193.836C197.205 64.4932 199.761 66.8543 199.761 69.5654V110.145C199.761 112.857 197.205 115.218 193.836 115.218H176.339C172.97 115.218 170.413 112.857 170.413 110.145V69.5654C170.413 66.8543 172.97 64.4931 176.339 64.4931Z"
    />
    <path
        stroke="white" stroke-width="1.44928"
        d="M218.731 64.4931H236.228C239.597 64.4932 242.152 66.8543 242.153 69.5654V110.145C242.153 112.857 239.597 115.218 236.228 115.218H218.731C215.362 115.218 212.805 112.857 212.805 110.145V69.5654C212.805 66.8543 215.362 64.4931 218.731 64.4931Z"
    />
</svg>