<?xml version="1.0" encoding="UTF-8"?>
<svg id="Layer_1" data-name="Layer 1" xmlns="http://www.w3.org/2000/svg" viewBox="0 0 5408 1344">
  <defs>
    <style>
      .cls-1 {
        fill: #c5c9c7;
      }
    </style>
  </defs>
  <g>
    <path class="cls-1" d="M1184,1344H160C71.77,1344,0,1272.22,0,1184V160C0,71.77,71.77,0,160,0h1024c88.23,0,160,71.77,160,160V1184c0,88.22-71.77,160-160,160ZM160,64c-52.94,0-96,43.07-96,96V1184c0,52.93,43.06,96,96,96h1024c52.94,0,96-43.07,96-96V160c0-52.93-43.06-96-96-96H160Z"/>
    <path class="cls-1" d="M1184,1216c17.64,0,32-14.36,32-32V367.11c0-23.5-18.87-29.78-24.65-31.14-1.71-.41-4.66-.94-8.22-.94-8.44,0-20.36,2.99-27.75,17.77l-408.45,816.89c-7.2,14.41-1.42,26.57,1.4,31.13,2.82,4.56,11.12,15.18,27.22,15.18h408.44Z"/>
    <path class="cls-1" d="M620.24,1123.05c4.64-1.92,19.76-9.72,19.76-29.57V250.51c0-19.84-15.12-27.65-19.76-29.57-4.63-1.91-20.84-7.08-34.88,6.94L227.88,585.37h0s-64,64-64,64c-12.48,12.48-12.48,32.78,0,45.25l63.99,63.99s0,0,0,0l357.49,357.49c14.02,14.02,30.24,8.85,34.88,6.94Z"/>
    <path class="cls-1" d="M728.65,1008.03c5.77,1.37,25.46,4.18,35.97-16.83L1173.07,174.31c7.2-14.4,1.42-26.57-1.4-31.13-2.82-4.56-11.12-15.18-27.23-15.18h-408.44c-17.64,0-32,14.36-32,32V976.89c0,23.5,18.87,29.78,24.65,31.14Z"/>
    <path class="cls-1" d="M160,128c-17.64,0-32,14.36-32,32v357.49c0,19.84,15.12,27.65,19.76,29.57,4.63,1.92,20.84,7.09,34.87-6.93L540.12,182.62c14.03-14.03,8.86-30.24,6.94-34.87-1.92-4.63-9.72-19.75-29.57-19.75H160Z"/>
    <path class="cls-1" d="M160,1216h357.49c19.84,0,27.64-15.12,29.57-19.76,1.92-4.63,7.09-20.84-6.94-34.87L182.63,803.88c-7.42-7.41-15.45-9.46-22.05-9.46-5.88,0-10.64,1.63-12.82,2.53-4.64,1.92-19.76,9.72-19.76,29.57v357.49c0,17.64,14.36,32,32,32Z"/>
  </g>
  <g>
    <polygon class="cls-1" points="2400 400 2400 944 2464 944 2880 944 2880 848 2464 848 2464 720 2848 720 2848 624 2464 624 2464 496 2880 496 2880 400 2464 400 2400 400"/>
    <path class="cls-1" d="M2272,400h-96l-202.27,148.33c-38.69,28.37-85.41,43.67-133.38,43.67h-48.34v-192h-64V944h64v-192l93.09-68.27,354.91,260.27h96l-402.91-295.47,338.91-248.53Z"/>
    <polygon class="cls-1" points="4992 848 4992 400 4928 400 4928 944 5408 944 5408 848 4992 848"/>
    <path class="cls-1" d="M3232,624h0c-38.38,0-74.45-18.37-97.02-49.41l-126.98-174.59h-64l256,352v192h64v-192l256-352h-64l-126.98,174.59c-22.58,31.04-58.64,49.41-97.02,49.41Z"/>
    <path class="cls-1" d="M4160,400l-148.65,315.87c-19.57,41.58-61.39,68.13-107.35,68.13h0c-45.96,0-87.78-26.54-107.35-68.13l-148.65-315.87h-64l256,544h128l256-544h-64Z"/>
    <path class="cls-1" d="M4448,400l-256,544h64l60.24-128h391.53l60.23,128h64l-256-544h-128Zm-86.59,320l64.71-137.5c15.66-33.27,49.12-54.5,85.88-54.5h0c36.77,0,70.23,21.23,85.88,54.5l64.71,137.5h-301.18Z"/>
  </g>
</svg>