<svg xmlns="http://www.w3.org/2000/svg" width="15" height="12" viewBox="0 0 15 12" fill="none">
  <path d="M4.63334 9.01884L1.64495 7.69813C0.942776 7.38732 0.505981 6.73677 0.505981 5.99948C0.505981 5.2622 0.941743 4.61165 1.64495 4.30083L5.82291 2.45349L5.91274 2.41425V0H1.12245C0.502883 0 0 0.4781 0 1.06772V10.9312C0 11.5209 0.502883 11.999 1.12245 11.999H5.29421H5.91378V9.5682L4.63437 9.01781H4.63334V9.01884Z" fill="#F9F9F9"/>
  <path d="M13.8009 0H9.00958V2.4411L10.2652 2.98115L10.2621 2.9698L13.2774 4.3029C13.9795 4.61372 14.4163 5.26426 14.4163 6.00155C14.4163 6.73883 13.9806 7.38938 13.2774 7.7002L9.62605 9.31417L9.00854 9.57646V12H13.7999C14.4194 12 14.9223 11.5219 14.9223 10.9323V1.06772C14.9223 0.4781 14.4194 0 13.7999 0H13.8009Z" fill="#F9F9F9"/>
  <path d="M7.46154 8.47972C8.83078 8.47972 9.94187 7.36966 9.94187 5.99938C9.94187 4.6291 8.83182 3.51904 7.46154 3.51904C6.09126 3.51904 4.9812 4.6291 4.9812 5.99938C4.9812 7.36966 6.09126 8.47972 7.46154 8.47972Z" fill="#F9F9F9"/>
</svg>