<svg width="342" height="40" viewBox="0 0 342 40" fill="none" xmlns="http://www.w3.org/2000/svg">
<g opacity="0.6">
<g opacity="0.8">
<rect x="0.666504" width="48" height="40" rx="20" fill="#242023"/>
<rect x="1.1665" y="0.5" width="47" height="39" rx="19.5" stroke="#F9F9F9" stroke-opacity="0.4" stroke-dasharray="2 2"/>
</g>
<g opacity="0.8">
<rect x="16.6665" width="48" height="40" rx="20" fill="#242023"/>
<rect x="17.1665" y="0.5" width="47" height="39" rx="19.5" stroke="#F9F9F9" stroke-opacity="0.5" stroke-dasharray="2 2"/>
</g>
<g opacity="0.8">
<rect x="32.6665" width="48" height="40" rx="20" fill="#242023"/>
<rect x="33.1665" y="0.5" width="47" height="39" rx="19.5" stroke="#F9F9F9" stroke-opacity="0.55" stroke-dasharray="2 2"/>
</g>
<g opacity="0.8">
<rect x="48.6665" width="48" height="40" rx="20" fill="#242023"/>
<rect x="49.1665" y="0.5" width="47" height="39" rx="19.5" stroke="#F9F9F9" stroke-opacity="0.6" stroke-dasharray="2 2"/>
</g>
<g opacity="0.8">
<rect x="64.6665" width="48" height="40" rx="20" fill="#242023"/>
<rect x="65.1665" y="0.5" width="47" height="39" rx="19.5" stroke="#F9F9F9" stroke-opacity="0.7" stroke-dasharray="2 2"/>
</g>
<g opacity="0.8">
<rect x="80.6665" width="48" height="40" rx="20" fill="#242023"/>
<rect x="81.1665" y="0.5" width="47" height="39" rx="19.5" stroke="#F9F9F9" stroke-opacity="0.8" stroke-dasharray="2 2"/>
</g>
<rect x="97.1665" y="0.5" width="39" height="39" rx="19.5" fill="#242023" stroke="#F9F9F9"/>
</g>
</svg>
