<svg xmlns="http://www.w3.org/2000/svg" width="19" height="19" viewBox="0 0 19 19" fill="none">
  <path d="M15.4899 15.8372H12.7963V11.6604C12.7963 10.6644 12.7783 9.38221 11.3953 9.38221C9.99235 9.38221 9.77769 10.4674 9.77769 11.5879V15.8369H7.08403V7.24767H9.66994V8.42148H9.70614C9.96493 7.98337 10.3389 7.62295 10.7882 7.37862C11.2375 7.13429 11.7453 7.0152 12.2575 7.03402C14.9877 7.03402 15.4911 8.81211 15.4911 11.1253L15.4899 15.8372ZM4.04469 6.07358C3.73553 6.07363 3.43328 5.98291 3.17619 5.81289C2.9191 5.64286 2.71871 5.40117 2.60035 5.11837C2.48199 4.83558 2.45097 4.52438 2.51123 4.22413C2.57149 3.92388 2.72032 3.64807 2.93889 3.43157C3.15747 3.21507 3.43597 3.06761 3.73918 3.00784C4.0424 2.94806 4.35669 2.97866 4.64235 3.09575C4.928 3.21285 5.17217 3.41119 5.34397 3.66569C5.51578 3.92018 5.60752 4.21941 5.60757 4.52553C5.60761 4.72879 5.56721 4.93006 5.48869 5.11786C5.41017 5.30566 5.29507 5.4763 5.14994 5.62005C5.00481 5.7638 4.8325 5.87784 4.64286 5.95566C4.45322 6.03347 4.24997 6.07354 4.04469 6.07358ZM5.39152 15.8372H2.69506V7.24767H5.39152V15.8372ZM16.8328 0.501226H1.3415C0.98989 0.497298 0.651072 0.631748 0.399528 0.875032C0.147984 1.11832 0.0042912 1.45053 0 1.79867V17.2011C0.00414433 17.5494 0.147753 17.8818 0.399288 18.1254C0.650824 18.3689 0.989716 18.5036 1.3415 18.4999H16.8328C17.1853 18.5043 17.5251 18.3699 17.7777 18.1264C18.0302 17.8829 18.1748 17.5501 18.1797 17.2011V1.79756C18.1746 1.44873 18.03 1.11614 17.7774 0.872858C17.5249 0.62958 17.1851 0.495514 16.8328 0.500115" fill="#F9F9F9"/>
</svg>