<?xml version="1.0" encoding="UTF-8"?>
<svg id="Layer_2" data-name="Layer 2" xmlns="http://www.w3.org/2000/svg" xmlns:xlink="http://www.w3.org/1999/xlink" viewBox="0 0 390.58 185.77">
  <defs>
    <style>
      .cls-1 {
        stroke: url(#New_Gradient_Swatch_copy_3-4);
      }

      .cls-1, .cls-2, .cls-3, .cls-4, .cls-5, .cls-6, .cls-7, .cls-8, .cls-9, .cls-10, .cls-11, .cls-12, .cls-13, .cls-14, .cls-15, .cls-16, .cls-17, .cls-18, .cls-19, .cls-20, .cls-21, .cls-22, .cls-23, .cls-24, .cls-25, .cls-26, .cls-27, .cls-28, .cls-29, .cls-30 {
        stroke-miterlimit: 10;
      }

      .cls-1, .cls-2, .cls-3, .cls-4, .cls-5, .cls-6, .cls-7, .cls-8, .cls-9, .cls-10, .cls-12, .cls-13, .cls-14, .cls-15, .cls-16, .cls-17, .cls-18, .cls-19, .cls-20, .cls-21, .cls-22, .cls-23, .cls-24, .cls-25, .cls-26, .cls-27, .cls-28, .cls-29, .cls-30 {
        fill: none;
        stroke-width: .5px;
      }

      .cls-2 {
        stroke: url(#New_Gradient_Swatch_copy_3-2);
      }

      .cls-3 {
        stroke: url(#New_Gradient_Swatch_copy_3-3);
      }

      .cls-4 {
        stroke: url(#New_Gradient_Swatch_copy_3-7);
      }

      .cls-5 {
        stroke: url(#New_Gradient_Swatch_copy_3-8);
      }

      .cls-6 {
        stroke: url(#New_Gradient_Swatch_copy_3-5);
      }

      .cls-7 {
        stroke: url(#New_Gradient_Swatch_copy_3-6);
      }

      .cls-8 {
        stroke: url(#New_Gradient_Swatch_copy_3-9);
      }

      .cls-9 {
        stroke: url(#New_Gradient_Swatch_copy_3);
      }

      .cls-10 {
        stroke: #4d4d4d;
      }

      .cls-11 {
        fill: #242023;
        stroke: #4d4d4d;
        stroke-width: .56px;
      }

      .cls-12 {
        stroke: url(#New_Gradient_Swatch_copy_3-21);
      }

      .cls-13 {
        stroke: url(#New_Gradient_Swatch_copy_3-20);
      }

      .cls-14 {
        stroke: url(#New_Gradient_Swatch_copy_3-10);
      }

      .cls-15 {
        stroke: url(#New_Gradient_Swatch_copy_3-11);
      }

      .cls-16 {
        stroke: url(#New_Gradient_Swatch_copy_3-26);
      }

      .cls-17 {
        stroke: url(#New_Gradient_Swatch_copy_3-24);
      }

      .cls-18 {
        stroke: url(#New_Gradient_Swatch_copy_3-23);
      }

      .cls-19 {
        stroke: url(#New_Gradient_Swatch_copy_3-28);
      }

      .cls-20 {
        stroke: url(#New_Gradient_Swatch_copy_3-17);
      }

      .cls-21 {
        stroke: url(#New_Gradient_Swatch_copy_3-16);
      }

      .cls-22 {
        stroke: url(#New_Gradient_Swatch_copy_3-19);
      }

      .cls-23 {
        stroke: url(#New_Gradient_Swatch_copy_3-18);
      }

      .cls-24 {
        stroke: url(#New_Gradient_Swatch_copy_3-14);
      }

      .cls-25 {
        stroke: url(#New_Gradient_Swatch_copy_3-12);
      }

      .cls-26 {
        stroke: url(#New_Gradient_Swatch_copy_3-13);
      }

      .cls-27 {
        stroke: url(#New_Gradient_Swatch_copy_3-15);
      }

      .cls-28 {
        stroke: url(#New_Gradient_Swatch_copy_3-25);
      }

      .cls-29 {
        stroke: url(#New_Gradient_Swatch_copy_3-27);
      }

      .cls-30 {
        stroke: url(#New_Gradient_Swatch_copy_3-22);
      }
    </style>
    <linearGradient id="New_Gradient_Swatch_copy_3" data-name="New Gradient Swatch copy 3" x1="320.51" y1="43.02" x2="369.3" y2="43.02" gradientUnits="userSpaceOnUse">
      <stop offset="0" stop-color="#151515"/>
      <stop offset=".65" stop-color="#7c429f"/>
      <stop offset=".8" stop-color="gray"/>
      <stop offset=".95" stop-color="#151515"/>
    </linearGradient>
    <linearGradient id="New_Gradient_Swatch_copy_3-2" data-name="New Gradient Swatch copy 3" x1="326.57" x2="363.25" xlink:href="#New_Gradient_Swatch_copy_3"/>
    <linearGradient id="New_Gradient_Swatch_copy_3-3" data-name="New Gradient Swatch copy 3" x1="334.17" x2="355.65" xlink:href="#New_Gradient_Swatch_copy_3"/>
    <linearGradient id="New_Gradient_Swatch_copy_3-4" data-name="New Gradient Swatch copy 3" x1="344.91" y1="158.13" x2="344.91" y2="76.9" xlink:href="#New_Gradient_Swatch_copy_3"/>
    <linearGradient id="New_Gradient_Swatch_copy_3-5" data-name="New Gradient Swatch copy 3" x1="141.59" y1="138.11" x2="304.49" y2="138.11" xlink:href="#New_Gradient_Swatch_copy_3"/>
    <linearGradient id="New_Gradient_Swatch_copy_3-6" data-name="New Gradient Swatch copy 3" x1="191.06" y1="141.96" x2="304.51" y2="141.96" xlink:href="#New_Gradient_Swatch_copy_3"/>
    <linearGradient id="New_Gradient_Swatch_copy_3-7" data-name="New Gradient Swatch copy 3" x1="228.08" y1="145.38" x2="304.53" y2="145.38" xlink:href="#New_Gradient_Swatch_copy_3"/>
    <linearGradient id="New_Gradient_Swatch_copy_3-8" data-name="New Gradient Swatch copy 3" x1="247.72" y1="26.21" x2="313.45" y2="26.21" xlink:href="#New_Gradient_Swatch_copy_3"/>
    <linearGradient id="New_Gradient_Swatch_copy_3-9" data-name="New Gradient Swatch copy 3" x1="205.68" y1="26.21" x2="271.41" y2="26.21" xlink:href="#New_Gradient_Swatch_copy_3"/>
    <linearGradient id="New_Gradient_Swatch_copy_3-10" data-name="New Gradient Swatch copy 3" x1="163.64" y1="26.21" x2="229.37" y2="26.21" xlink:href="#New_Gradient_Swatch_copy_3"/>
    <linearGradient id="New_Gradient_Swatch_copy_3-11" data-name="New Gradient Swatch copy 3" x1="121.6" y1="26.21" x2="187.34" y2="26.21" xlink:href="#New_Gradient_Swatch_copy_3"/>
    <linearGradient id="New_Gradient_Swatch_copy_3-12" data-name="New Gradient Swatch copy 3" x1="79.57" y1="26.21" x2="145.3" y2="26.21" xlink:href="#New_Gradient_Swatch_copy_3"/>
    <linearGradient id="New_Gradient_Swatch_copy_3-13" data-name="New Gradient Swatch copy 3" x1="37.53" y1="26.21" x2="103.26" y2="26.21" xlink:href="#New_Gradient_Swatch_copy_3"/>
    <linearGradient id="New_Gradient_Swatch_copy_3-14" data-name="New Gradient Swatch copy 3" x1="284.32" y1="50.05" x2="284.32" y2="45.35" xlink:href="#New_Gradient_Swatch_copy_3"/>
    <linearGradient id="New_Gradient_Swatch_copy_3-15" data-name="New Gradient Swatch copy 3" x1="245.78" y1="50.05" x2="245.78" y2="45.35" xlink:href="#New_Gradient_Swatch_copy_3"/>
    <linearGradient id="New_Gradient_Swatch_copy_3-16" data-name="New Gradient Swatch copy 3" x1="235.52" y1="50.05" x2="235.52" y2="45.35" xlink:href="#New_Gradient_Swatch_copy_3"/>
    <linearGradient id="New_Gradient_Swatch_copy_3-17" data-name="New Gradient Swatch copy 3" x1="194.48" y1="58.96" x2="194.48" y2="54.27" xlink:href="#New_Gradient_Swatch_copy_3"/>
    <linearGradient id="New_Gradient_Swatch_copy_3-18" data-name="New Gradient Swatch copy 3" x1="71.34" y1="58.96" x2="71.34" y2="54.27" xlink:href="#New_Gradient_Swatch_copy_3"/>
    <linearGradient id="New_Gradient_Swatch_copy_3-19" data-name="New Gradient Swatch copy 3" x1="173.96" y1="67.88" x2="173.96" y2="63.18" xlink:href="#New_Gradient_Swatch_copy_3"/>
    <linearGradient id="New_Gradient_Swatch_copy_3-20" data-name="New Gradient Swatch copy 3" x1="132.91" y1="67.88" x2="132.91" y2="63.18" xlink:href="#New_Gradient_Swatch_copy_3"/>
    <linearGradient id="New_Gradient_Swatch_copy_3-21" data-name="New Gradient Swatch copy 3" x1="122.65" y1="67.88" x2="122.65" y2="63.18" xlink:href="#New_Gradient_Swatch_copy_3"/>
    <linearGradient id="New_Gradient_Swatch_copy_3-22" data-name="New Gradient Swatch copy 3" x1="81.61" y1="67.88" x2="81.61" y2="63.18" xlink:href="#New_Gradient_Swatch_copy_3"/>
    <linearGradient id="New_Gradient_Swatch_copy_3-23" data-name="New Gradient Swatch copy 3" x1="132.91" y1="76.79" x2="132.91" y2="72.1" xlink:href="#New_Gradient_Swatch_copy_3"/>
    <linearGradient id="New_Gradient_Swatch_copy_3-24" data-name="New Gradient Swatch copy 3" x1="102.13" y1="94.62" x2="102.13" y2="89.93" xlink:href="#New_Gradient_Swatch_copy_3"/>
    <linearGradient id="New_Gradient_Swatch_copy_3-25" data-name="New Gradient Swatch copy 3" x1="91.87" y1="94.62" x2="91.87" y2="89.93" xlink:href="#New_Gradient_Swatch_copy_3"/>
    <linearGradient id="New_Gradient_Swatch_copy_3-26" data-name="New Gradient Swatch copy 3" x1="91.87" y1="103.53" x2="91.87" y2="98.84" xlink:href="#New_Gradient_Swatch_copy_3"/>
    <linearGradient id="New_Gradient_Swatch_copy_3-27" data-name="New Gradient Swatch copy 3" x1="61.08" y1="50.05" x2="61.08" y2="45.35" xlink:href="#New_Gradient_Swatch_copy_3"/>
    <linearGradient id="New_Gradient_Swatch_copy_3-28" data-name="New Gradient Swatch copy 3" x1="40.56" y1="50.05" x2="40.56" y2="45.35" xlink:href="#New_Gradient_Swatch_copy_3"/>
  </defs>
  <g id="Layer_1-2" data-name="Layer 1">
    <g>
      <rect class="cls-11" x=".28" y=".28" width="390.02" height="185.21"/>
      <line class="cls-10" x1="18.9" y1="12.14" x2="336.33" y2="12.14"/>
      <path class="cls-10" d="M376.62,18.87s.07,157.35-148.42,157.35h85.18"/>
      <line class="cls-10" x1="376.62" y1="59.13" x2="376.62" y2="176.22"/>
      <circle class="cls-10" cx="344.91" cy="158.13" r="18.09"/>
      <circle class="cls-9" cx="344.91" cy="43.02" r="24.14"/>
      <circle class="cls-2" cx="344.91" cy="43.02" r="18.09"/>
      <circle class="cls-3" cx="344.91" cy="43.02" r="10.49"/>
      <circle class="cls-10" cx="304.41" cy="109.97" r="33.07"/>
      <line class="cls-10" x1="219.79" y1="176.22" x2="9.16" y2="176.22"/>
      <line class="cls-10" x1="9.16" y1="166.25" x2="9.16" y2="18.87"/>
      <line class="cls-10" x1="20.08" y1="166.25" x2="20.08" y2="42.51"/>
      <line class="cls-10" x1="39.82" y1="166.25" x2="39.82" y2="76.12"/>
      <line class="cls-10" x1="63.09" y1="166.25" x2="63.09" y2="104.93"/>
      <line class="cls-10" x1="88.06" y1="166.25" x2="88.06" y2="119.71"/>
      <line class="cls-10" x1="106.09" y1="166.25" x2="106.09" y2="127.47"/>
      <line class="cls-10" x1="344.91" y1="43.02" x2="125.68" y2="166.25"/>
      <line class="cls-1" x1="344.91" y1="158.13" x2="344.91" y2="76.9"/>
      <line class="cls-6" x1="304.41" y1="109.97" x2="141.67" y2="166.25"/>
      <line class="cls-7" x1="304.41" y1="117.68" x2="191.16" y2="166.25"/>
      <line class="cls-4" x1="304.41" y1="124.51" x2="228.2" y2="166.25"/>
      <line class="cls-10" x1="304.41" y1="143.04" x2="304.41" y2="76.9"/>
      <path class="cls-10" d="M18.9,16.65s10.07,64.82,87.19,101.02"/>
      <line class="cls-10" x1="320.76" y1="43.02" x2="64.89" y2="43.02"/>
      <path class="cls-10" d="M114.48,166.25s36.02-105.35,198.9-117.21"/>
      <line class="cls-5" x1="313.38" y1="35.77" x2="247.79" y2="16.65"/>
      <line class="cls-8" x1="271.34" y1="35.77" x2="205.75" y2="16.65"/>
      <line class="cls-14" x1="229.3" y1="35.77" x2="163.71" y2="16.65"/>
      <line class="cls-15" x1="187.27" y1="35.77" x2="121.67" y2="16.65"/>
      <line class="cls-25" x1="145.23" y1="35.77" x2="79.64" y2="16.65"/>
      <line class="cls-26" x1="103.19" y1="35.77" x2="37.6" y2="16.65"/>
      <circle class="cls-24" cx="284.32" cy="47.7" r="2.1"/>
      <circle class="cls-10" cx="266.31" cy="47.7" r="2.1"/>
      <circle class="cls-10" cx="256.05" cy="47.7" r="2.1"/>
      <circle class="cls-27" cx="245.78" cy="47.7" r="2.1"/>
      <circle class="cls-21" cx="235.52" cy="47.7" r="2.1"/>
      <circle class="cls-10" cx="225.26" cy="47.7" r="2.1"/>
      <circle class="cls-10" cx="215" cy="47.7" r="2.1"/>
      <circle class="cls-10" cx="204.74" cy="47.7" r="2.1"/>
      <circle class="cls-10" cx="194.48" cy="47.7" r="2.1"/>
      <circle class="cls-10" cx="184.22" cy="47.7" r="2.1"/>
      <circle class="cls-10" cx="173.96" cy="47.7" r="2.1"/>
      <circle class="cls-10" cx="153.43" cy="47.7" r="2.1"/>
      <circle class="cls-10" cx="143.17" cy="47.7" r="2.1"/>
      <circle class="cls-10" cx="122.65" cy="47.7" r="2.1"/>
      <circle class="cls-10" cx="102.13" cy="47.7" r="2.1"/>
      <circle class="cls-10" cx="91.87" cy="47.7" r="2.1"/>
      <circle class="cls-10" cx="81.61" cy="47.7" r="2.1"/>
      <circle class="cls-10" cx="71.34" cy="47.7" r="2.1"/>
      <circle class="cls-20" cx="194.48" cy="56.61" r="2.1"/>
      <circle class="cls-10" cx="184.22" cy="56.61" r="2.1"/>
      <circle class="cls-10" cx="173.96" cy="56.61" r="2.1"/>
      <circle class="cls-10" cx="153.43" cy="56.61" r="2.1"/>
      <circle class="cls-10" cx="132.91" cy="56.61" r="2.1"/>
      <circle class="cls-10" cx="122.65" cy="56.61" r="2.1"/>
      <circle class="cls-10" cx="102.13" cy="56.61" r="2.1"/>
      <circle class="cls-10" cx="91.87" cy="56.61" r="2.1"/>
      <circle class="cls-23" cx="71.34" cy="56.61" r="2.1"/>
      <circle class="cls-10" cx="194.48" cy="65.53" r="2.1"/>
      <circle class="cls-22" cx="173.96" cy="65.53" r="2.1"/>
      <circle class="cls-10" cx="153.43" cy="65.53" r="2.1"/>
      <circle class="cls-10" cx="143.17" cy="65.53" r="2.1"/>
      <circle class="cls-13" cx="132.91" cy="65.53" r="2.1"/>
      <circle class="cls-12" cx="122.65" cy="65.53" r="2.1"/>
      <circle class="cls-10" cx="91.87" cy="65.53" r="2.1"/>
      <circle class="cls-30" cx="81.61" cy="65.53" r="2.1"/>
      <circle class="cls-10" cx="194.48" cy="74.44" r="2.1"/>
      <circle class="cls-10" cx="184.22" cy="74.44" r="2.1"/>
      <circle class="cls-10" cx="173.96" cy="74.44" r="2.1"/>
      <circle class="cls-10" cx="153.43" cy="74.44" r="2.1"/>
      <circle class="cls-10" cx="143.17" cy="74.44" r="2.1"/>
      <circle class="cls-18" cx="132.91" cy="74.44" r="2.1"/>
      <circle class="cls-10" cx="102.13" cy="74.44" r="2.1"/>
      <circle class="cls-10" cx="91.87" cy="74.44" r="2.1"/>
      <circle class="cls-10" cx="71.34" cy="74.44" r="2.1"/>
      <circle class="cls-10" cx="153.43" cy="83.36" r="2.1"/>
      <circle class="cls-10" cx="132.91" cy="83.36" r="2.1"/>
      <circle class="cls-10" cx="122.65" cy="83.36" r="2.1"/>
      <circle class="cls-10" cx="102.13" cy="83.36" r="2.1"/>
      <circle class="cls-10" cx="81.61" cy="83.36" r="2.1"/>
      <circle class="cls-10" cx="71.34" cy="83.36" r="2.1"/>
      <circle class="cls-10" cx="153.43" cy="92.27" r="2.1"/>
      <circle class="cls-10" cx="143.17" cy="92.27" r="2.1"/>
      <circle class="cls-10" cx="132.91" cy="92.27" r="2.1"/>
      <circle class="cls-10" cx="122.65" cy="92.27" r="2.1"/>
      <circle class="cls-17" cx="102.13" cy="92.27" r="2.1"/>
      <circle class="cls-28" cx="91.87" cy="92.27" r="2.1"/>
      <circle class="cls-10" cx="81.61" cy="92.27" r="2.1"/>
      <circle class="cls-10" cx="153.43" cy="101.19" r="2.1"/>
      <circle class="cls-10" cx="132.91" cy="101.19" r="2.1"/>
      <circle class="cls-10" cx="102.13" cy="101.19" r="2.1"/>
      <circle class="cls-16" cx="91.87" cy="101.19" r="2.1"/>
      <circle class="cls-10" cx="143.17" cy="110.1" r="2.1"/>
      <circle class="cls-10" cx="132.91" cy="110.1" r="2.1"/>
      <circle class="cls-10" cx="122.65" cy="110.1" r="2.1"/>
      <circle class="cls-10" cx="102.13" cy="110.1" r="2.1"/>
      <circle class="cls-29" cx="61.08" cy="47.7" r="2.1"/>
      <circle class="cls-19" cx="40.56" cy="47.7" r="2.1"/>
      <line class="cls-10" x1="373.43" y1="83.05" x2="368.38" y2="83.05"/>
      <line class="cls-10" x1="373.43" y1="89.16" x2="368.38" y2="89.16"/>
      <line class="cls-10" x1="246.22" y1="89.16" x2="241.16" y2="89.16"/>
      <line class="cls-10" x1="217.53" y1="97.55" x2="212.47" y2="97.55"/>
      <line class="cls-10" x1="189.71" y1="111.69" x2="184.66" y2="111.69"/>
      <line class="cls-10" x1="189.71" y1="92.88" x2="184.66" y2="92.88"/>
      <line class="cls-10" x1="158.06" y1="135.38" x2="153" y2="135.38"/>
      <line class="cls-10" x1="142.14" y1="135.38" x2="137.08" y2="135.38"/>
      <line class="cls-10" x1="132.53" y1="152.57" x2="127.48" y2="152.57"/>
      <line class="cls-10" x1="158.06" y1="126.38" x2="153" y2="126.38"/>
      <line class="cls-10" x1="243.69" y1="73.83" x2="238.63" y2="73.83"/>
      <line class="cls-10" x1="270.93" y1="73.83" x2="265.87" y2="73.83"/>
      <line class="cls-10" x1="270.93" y1="60.24" x2="265.87" y2="60.24"/>
      <line class="cls-10" x1="297.65" y1="60.24" x2="292.59" y2="60.24"/>
      <line class="cls-10" x1="373.43" y1="95.28" x2="368.38" y2="95.28"/>
      <line class="cls-10" x1="373.43" y1="101.39" x2="368.38" y2="101.39"/>
      <line class="cls-10" x1="373.43" y1="107.5" x2="368.38" y2="107.5"/>
      <line class="cls-10" x1="373.43" y1="113.62" x2="368.38" y2="113.62"/>
      <line class="cls-10" x1="373.43" y1="119.73" x2="368.38" y2="119.73"/>
      <line class="cls-10" x1="373.43" y1="125.85" x2="368.38" y2="125.85"/>
      <line class="cls-10" x1="373.43" y1="131.96" x2="368.38" y2="131.96"/>
      <line class="cls-10" x1="373.43" y1="138.07" x2="368.38" y2="138.07"/>
      <line class="cls-10" x1="373.43" y1="144.19" x2="368.38" y2="144.19"/>
      <line class="cls-10" x1="373.43" y1="150.3" x2="368.38" y2="150.3"/>
      <line class="cls-10" x1="373.43" y1="156.42" x2="368.38" y2="156.42"/>
      <line class="cls-10" x1="373.43" y1="162.53" x2="368.38" y2="162.53"/>
      <line class="cls-10" x1="373.43" y1="168.64" x2="368.38" y2="168.64"/>
    </g>
  </g>
</svg>