<?xml version="1.0" encoding="UTF-8"?>
<svg id="Layer_2" data-name="Layer 2" xmlns="http://www.w3.org/2000/svg" xmlns:xlink="http://www.w3.org/1999/xlink" viewBox="0 0 390.52 185.71">
  <defs>
    <style>
      .cls-1 {
        stroke: url(#New_Gradient_Swatch_copy_3-4);
      }

      .cls-1, .cls-2, .cls-3, .cls-4, .cls-5, .cls-6, .cls-7, .cls-8, .cls-9, .cls-10, .cls-11, .cls-12, .cls-13, .cls-14, .cls-15, .cls-16, .cls-17, .cls-18, .cls-19, .cls-20, .cls-21, .cls-22, .cls-23, .cls-24, .cls-25, .cls-26, .cls-27, .cls-28, .cls-29, .cls-30, .cls-31, .cls-32, .cls-33, .cls-34, .cls-35, .cls-36, .cls-37, .cls-38, .cls-39, .cls-40, .cls-41, .cls-42, .cls-43, .cls-44, .cls-45, .cls-46, .cls-47, .cls-48, .cls-49, .cls-50 {
        stroke-miterlimit: 10;
        stroke-width: .5px;
      }

      .cls-1, .cls-2, .cls-3, .cls-4, .cls-5, .cls-6, .cls-7, .cls-8, .cls-10, .cls-11, .cls-12, .cls-13, .cls-14, .cls-15, .cls-16, .cls-17, .cls-18, .cls-19, .cls-20, .cls-21, .cls-22, .cls-23, .cls-24, .cls-25, .cls-26, .cls-27, .cls-28, .cls-29, .cls-30, .cls-31, .cls-32, .cls-33, .cls-34, .cls-35, .cls-36, .cls-37, .cls-38, .cls-39, .cls-40, .cls-41, .cls-42, .cls-43, .cls-44, .cls-45, .cls-46, .cls-47, .cls-48, .cls-49, .cls-50 {
        fill: none;
      }

      .cls-2 {
        stroke: url(#New_Gradient_Swatch_copy_3-2);
      }

      .cls-3 {
        stroke: url(#New_Gradient_Swatch_copy_3-3);
      }

      .cls-4 {
        stroke: url(#New_Gradient_Swatch_copy_3-7);
      }

      .cls-5 {
        stroke: url(#New_Gradient_Swatch_copy_3-8);
      }

      .cls-6 {
        stroke: url(#New_Gradient_Swatch_copy_3-5);
      }

      .cls-7 {
        stroke: url(#New_Gradient_Swatch_copy_3-6);
      }

      .cls-8 {
        stroke: url(#New_Gradient_Swatch_copy_3-9);
      }

      .cls-51 {
        fill: rgba(249, 249, 249, .64);
        stroke-width: 0px;
      }

      .cls-9 {
        fill: #242023;
      }

      .cls-9, .cls-50 {
        stroke: #4d4d4d;
      }

      .cls-10 {
        stroke: url(#New_Gradient_Swatch_copy_3);
      }

      .cls-11 {
        stroke: url(#New_Gradient_Swatch_copy_3-46);
      }

      .cls-12 {
        stroke: url(#New_Gradient_Swatch_copy_3-45);
      }

      .cls-13 {
        stroke: url(#New_Gradient_Swatch_copy_3-48);
      }

      .cls-14 {
        stroke: url(#New_Gradient_Swatch_copy_3-47);
      }

      .cls-15 {
        stroke: url(#New_Gradient_Swatch_copy_3-44);
      }

      .cls-16 {
        stroke: url(#New_Gradient_Swatch_copy_3-43);
      }

      .cls-17 {
        stroke: url(#New_Gradient_Swatch_copy_3-42);
      }

      .cls-18 {
        stroke: url(#New_Gradient_Swatch_copy_3-40);
      }

      .cls-19 {
        stroke: url(#New_Gradient_Swatch_copy_3-41);
      }

      .cls-20 {
        stroke: url(#New_Gradient_Swatch_copy_3-34);
      }

      .cls-21 {
        stroke: url(#New_Gradient_Swatch_copy_3-37);
      }

      .cls-22 {
        stroke: url(#New_Gradient_Swatch_copy_3-39);
      }

      .cls-23 {
        stroke: url(#New_Gradient_Swatch_copy_3-21);
      }

      .cls-24 {
        stroke: url(#New_Gradient_Swatch_copy_3-31);
      }

      .cls-25 {
        stroke: url(#New_Gradient_Swatch_copy_3-20);
      }

      .cls-26 {
        stroke: url(#New_Gradient_Swatch_copy_3-10);
      }

      .cls-27 {
        stroke: url(#New_Gradient_Swatch_copy_3-11);
      }

      .cls-28 {
        stroke: url(#New_Gradient_Swatch_copy_3-30);
      }

      .cls-29 {
        stroke: url(#New_Gradient_Swatch_copy_3-38);
      }

      .cls-30 {
        stroke: url(#New_Gradient_Swatch_copy_3-32);
      }

      .cls-31 {
        stroke: url(#New_Gradient_Swatch_copy_3-35);
      }

      .cls-32 {
        stroke: url(#New_Gradient_Swatch_copy_3-36);
      }

      .cls-33 {
        stroke: url(#New_Gradient_Swatch_copy_3-26);
      }

      .cls-34 {
        stroke: url(#New_Gradient_Swatch_copy_3-24);
      }

      .cls-35 {
        stroke: url(#New_Gradient_Swatch_copy_3-23);
      }

      .cls-36 {
        stroke: url(#New_Gradient_Swatch_copy_3-28);
      }

      .cls-37 {
        stroke: url(#New_Gradient_Swatch_copy_3-17);
      }

      .cls-38 {
        stroke: url(#New_Gradient_Swatch_copy_3-16);
      }

      .cls-39 {
        stroke: url(#New_Gradient_Swatch_copy_3-19);
      }

      .cls-40 {
        stroke: url(#New_Gradient_Swatch_copy_3-18);
      }

      .cls-41 {
        stroke: url(#New_Gradient_Swatch_copy_3-14);
      }

      .cls-42 {
        stroke: url(#New_Gradient_Swatch_copy_3-12);
      }

      .cls-43 {
        stroke: url(#New_Gradient_Swatch_copy_3-13);
      }

      .cls-44 {
        stroke: url(#New_Gradient_Swatch_copy_3-15);
      }

      .cls-45 {
        stroke: url(#New_Gradient_Swatch_copy_3-33);
      }

      .cls-46 {
        stroke: url(#New_Gradient_Swatch_copy_3-29);
      }

      .cls-47 {
        stroke: url(#New_Gradient_Swatch_copy_3-25);
      }

      .cls-48 {
        stroke: url(#New_Gradient_Swatch_copy_3-27);
      }

      .cls-49 {
        stroke: url(#New_Gradient_Swatch_copy_3-22);
      }
    </style>
    <linearGradient id="New_Gradient_Swatch_copy_3" data-name="New Gradient Swatch copy 3" x1="13.55" y1="185.71" x2="13.55" y2="0" gradientUnits="userSpaceOnUse">
      <stop offset="0" stop-color="#151515"/>
      <stop offset=".65" stop-color="#7c429f"/>
      <stop offset=".8" stop-color="gray"/>
      <stop offset=".95" stop-color="#151515"/>
    </linearGradient>
    <linearGradient id="New_Gradient_Swatch_copy_3-2" data-name="New Gradient Swatch copy 3" y1="167.19" x2="13.55" y2="166.69" xlink:href="#New_Gradient_Swatch_copy_3"/>
    <linearGradient id="New_Gradient_Swatch_copy_3-3" data-name="New Gradient Swatch copy 3" y1="148.67" x2="13.55" y2="148.17" xlink:href="#New_Gradient_Swatch_copy_3"/>
    <linearGradient id="New_Gradient_Swatch_copy_3-4" data-name="New Gradient Swatch copy 3" y1="130.15" x2="13.55" y2="129.65" xlink:href="#New_Gradient_Swatch_copy_3"/>
    <linearGradient id="New_Gradient_Swatch_copy_3-5" data-name="New Gradient Swatch copy 3" y1="111.63" x2="13.55" y2="111.13" xlink:href="#New_Gradient_Swatch_copy_3"/>
    <linearGradient id="New_Gradient_Swatch_copy_3-6" data-name="New Gradient Swatch copy 3" y1="93.11" x2="13.55" y2="92.61" xlink:href="#New_Gradient_Swatch_copy_3"/>
    <linearGradient id="New_Gradient_Swatch_copy_3-7" data-name="New Gradient Swatch copy 3" y1="74.58" x2="13.55" y2="74.08" xlink:href="#New_Gradient_Swatch_copy_3"/>
    <linearGradient id="New_Gradient_Swatch_copy_3-8" data-name="New Gradient Swatch copy 3" y1="56.06" x2="13.55" y2="55.56" xlink:href="#New_Gradient_Swatch_copy_3"/>
    <linearGradient id="New_Gradient_Swatch_copy_3-9" data-name="New Gradient Swatch copy 3" y1="37.54" x2="13.55" y2="37.04" xlink:href="#New_Gradient_Swatch_copy_3"/>
    <linearGradient id="New_Gradient_Swatch_copy_3-10" data-name="New Gradient Swatch copy 3" y1="19.02" x2="13.55" y2="18.52" xlink:href="#New_Gradient_Swatch_copy_3"/>
    <linearGradient id="New_Gradient_Swatch_copy_3-11" data-name="New Gradient Swatch copy 3" x1="23.52" y1="185.46" x2="23.52" y2=".25" xlink:href="#New_Gradient_Swatch_copy_3"/>
    <linearGradient id="New_Gradient_Swatch_copy_3-12" data-name="New Gradient Swatch copy 3" x1="20.2" y1="185.46" x2="20.2" y2=".25" xlink:href="#New_Gradient_Swatch_copy_3"/>
    <linearGradient id="New_Gradient_Swatch_copy_3-13" data-name="New Gradient Swatch copy 3" x1="16.87" y1="185.46" x2="16.87" y2=".25" xlink:href="#New_Gradient_Swatch_copy_3"/>
    <linearGradient id="New_Gradient_Swatch_copy_3-14" data-name="New Gradient Swatch copy 3" y1="185.46" y2=".25" xlink:href="#New_Gradient_Swatch_copy_3"/>
    <linearGradient id="New_Gradient_Swatch_copy_3-15" data-name="New Gradient Swatch copy 3" x1="10.22" y1="185.46" x2="10.22" y2=".25" xlink:href="#New_Gradient_Swatch_copy_3"/>
    <linearGradient id="New_Gradient_Swatch_copy_3-16" data-name="New Gradient Swatch copy 3" x1="6.9" y1="185.46" x2="6.9" y2=".25" xlink:href="#New_Gradient_Swatch_copy_3"/>
    <linearGradient id="New_Gradient_Swatch_copy_3-17" data-name="New Gradient Swatch copy 3" x1="3.57" y1="185.46" x2="3.57" y2=".25" xlink:href="#New_Gradient_Swatch_copy_3"/>
    <linearGradient id="New_Gradient_Swatch_copy_3-18" data-name="New Gradient Swatch copy 3" x1="330.35" y1="11.83" x2="387.44" y2="11.83" xlink:href="#New_Gradient_Swatch_copy_3"/>
    <linearGradient id="New_Gradient_Swatch_copy_3-19" data-name="New Gradient Swatch copy 3" x1="330.35" y1="34.98" x2="387.44" y2="34.98" xlink:href="#New_Gradient_Swatch_copy_3"/>
    <linearGradient id="New_Gradient_Swatch_copy_3-20" data-name="New Gradient Swatch copy 3" x1="330.35" y1="58.13" x2="387.44" y2="58.13" xlink:href="#New_Gradient_Swatch_copy_3"/>
    <linearGradient id="New_Gradient_Swatch_copy_3-21" data-name="New Gradient Swatch copy 3" x1="330.35" y1="81.28" x2="387.44" y2="81.28" xlink:href="#New_Gradient_Swatch_copy_3"/>
    <linearGradient id="New_Gradient_Swatch_copy_3-22" data-name="New Gradient Swatch copy 3" x1="330.35" y1="104.43" x2="387.44" y2="104.43" xlink:href="#New_Gradient_Swatch_copy_3"/>
    <linearGradient id="New_Gradient_Swatch_copy_3-23" data-name="New Gradient Swatch copy 3" x1="330.35" y1="127.58" x2="387.44" y2="127.58" xlink:href="#New_Gradient_Swatch_copy_3"/>
    <linearGradient id="New_Gradient_Swatch_copy_3-24" data-name="New Gradient Swatch copy 3" x1="330.35" y1="150.73" x2="387.44" y2="150.73" xlink:href="#New_Gradient_Swatch_copy_3"/>
    <linearGradient id="New_Gradient_Swatch_copy_3-25" data-name="New Gradient Swatch copy 3" x1="330.35" y1="173.89" x2="387.44" y2="173.89" xlink:href="#New_Gradient_Swatch_copy_3"/>
    <linearGradient id="New_Gradient_Swatch_copy_3-26" data-name="New Gradient Swatch copy 3" x1="311.1" y1="92.86" x2="311.6" y2="92.86" xlink:href="#New_Gradient_Swatch_copy_3"/>
    <linearGradient id="New_Gradient_Swatch_copy_3-27" data-name="New Gradient Swatch copy 3" x1="308.08" y1="92.86" x2="308.58" y2="92.86" xlink:href="#New_Gradient_Swatch_copy_3"/>
    <linearGradient id="New_Gradient_Swatch_copy_3-28" data-name="New Gradient Swatch copy 3" x1="305.05" y1="92.86" x2="305.55" y2="92.86" xlink:href="#New_Gradient_Swatch_copy_3"/>
    <linearGradient id="New_Gradient_Swatch_copy_3-29" data-name="New Gradient Swatch copy 3" x1="302.03" y1="92.86" x2="302.53" y2="92.86" xlink:href="#New_Gradient_Swatch_copy_3"/>
    <linearGradient id="New_Gradient_Swatch_copy_3-30" data-name="New Gradient Swatch copy 3" x1="138.25" y1="92.86" x2="138.75" y2="92.86" xlink:href="#New_Gradient_Swatch_copy_3"/>
    <linearGradient id="New_Gradient_Swatch_copy_3-31" data-name="New Gradient Swatch copy 3" x1="141.28" y1="92.86" x2="141.78" y2="92.86" xlink:href="#New_Gradient_Swatch_copy_3"/>
    <linearGradient id="New_Gradient_Swatch_copy_3-32" data-name="New Gradient Swatch copy 3" x1="144.3" y1="92.86" x2="144.8" y2="92.86" xlink:href="#New_Gradient_Swatch_copy_3"/>
    <linearGradient id="New_Gradient_Swatch_copy_3-33" data-name="New Gradient Swatch copy 3" x1="147.33" y1="92.86" x2="147.83" y2="92.86" xlink:href="#New_Gradient_Swatch_copy_3"/>
    <linearGradient id="New_Gradient_Swatch_copy_3-34" data-name="New Gradient Swatch copy 3" x1="183.38" y1="179.28" x2="266.48" y2="179.28" xlink:href="#New_Gradient_Swatch_copy_3"/>
    <linearGradient id="New_Gradient_Swatch_copy_3-35" data-name="New Gradient Swatch copy 3" x1="199.04" y1="176.26" x2="250.81" y2="176.26" xlink:href="#New_Gradient_Swatch_copy_3"/>
    <linearGradient id="New_Gradient_Swatch_copy_3-36" data-name="New Gradient Swatch copy 3" x1="209.3" y1="173.23" x2="240.55" y2="173.23" xlink:href="#New_Gradient_Swatch_copy_3"/>
    <linearGradient id="New_Gradient_Swatch_copy_3-37" data-name="New Gradient Swatch copy 3" x1="217.61" y1="170.21" x2="232.24" y2="170.21" xlink:href="#New_Gradient_Swatch_copy_3"/>
    <linearGradient id="New_Gradient_Swatch_copy_3-38" data-name="New Gradient Swatch copy 3" x1="183.38" y1="6.43" x2="266.48" y2="6.43" xlink:href="#New_Gradient_Swatch_copy_3"/>
    <linearGradient id="New_Gradient_Swatch_copy_3-39" data-name="New Gradient Swatch copy 3" x1="199.04" y1="9.45" x2="250.81" y2="9.45" xlink:href="#New_Gradient_Swatch_copy_3"/>
    <linearGradient id="New_Gradient_Swatch_copy_3-40" data-name="New Gradient Swatch copy 3" x1="209.3" y1="12.48" x2="240.55" y2="12.48" xlink:href="#New_Gradient_Swatch_copy_3"/>
    <linearGradient id="New_Gradient_Swatch_copy_3-41" data-name="New Gradient Swatch copy 3" x1="217.61" y1="15.5" x2="232.24" y2="15.5" xlink:href="#New_Gradient_Swatch_copy_3"/>
    <linearGradient id="New_Gradient_Swatch_copy_3-42" data-name="New Gradient Swatch copy 3" x1="227.84" y1="64.44" x2="236.02" y2="64.44" xlink:href="#New_Gradient_Swatch_copy_3"/>
    <linearGradient id="New_Gradient_Swatch_copy_3-43" data-name="New Gradient Swatch copy 3" x1="251.19" y1="96.38" x2="256.76" y2="96.38" xlink:href="#New_Gradient_Swatch_copy_3"/>
    <linearGradient id="New_Gradient_Swatch_copy_3-44" data-name="New Gradient Swatch copy 3" x1="203.5" y1="125.25" x2="212.35" y2="125.25" xlink:href="#New_Gradient_Swatch_copy_3"/>
    <linearGradient id="New_Gradient_Swatch_copy_3-45" data-name="New Gradient Swatch copy 3" x1="179.53" y1="98.15" x2="183.18" y2="98.15" xlink:href="#New_Gradient_Swatch_copy_3"/>
    <linearGradient id="New_Gradient_Swatch_copy_3-46" data-name="New Gradient Swatch copy 3" x1="183.93" y1="49.04" x2="188.3" y2="49.04" xlink:href="#New_Gradient_Swatch_copy_3"/>
    <linearGradient id="New_Gradient_Swatch_copy_3-47" data-name="New Gradient Swatch copy 3" x1="251.64" y1="151.17" x2="259.42" y2="151.17" xlink:href="#New_Gradient_Swatch_copy_3"/>
    <linearGradient id="New_Gradient_Swatch_copy_3-48" data-name="New Gradient Swatch copy 3" x1="243.17" y1="131.73" x2="247.49" y2="131.73" xlink:href="#New_Gradient_Swatch_copy_3"/>
  </defs>
  <g id="Layer_1-2" data-name="Layer 1">
    <g>
      <rect class="cls-9" x=".25" y=".25" width="390.02" height="185.21"/>
      <g>
        <path class="cls-51" d="M226.29,89.72v-2.14h4.21c.54,0,.98.42.98.94v8.67c0,.52-.44.94-.98.94h-4.21v-2.12l3.75-1.66c.62-.27,1-.85,1-1.49s-.38-1.22-1-1.49l-3.75-1.64h0Z"/>
        <path class="cls-51" d="M223.57,95.99v2.14h-4.21c-.55,0-.99-.42-.99-.94v-8.67c0-.52.44-.94.99-.94h4.21v2.12l-3.75,1.66c-.62.27-1,.85-1,1.49s.39,1.22,1,1.49l3.75,1.64h0Z"/>
        <path class="cls-51" d="M224.93,95.04c1.2,0,2.18-.98,2.18-2.18s-.98-2.18-2.18-2.18-2.18.98-2.18,2.18.97,2.18,2.18,2.18Z"/>
      </g>
      <g>
        <rect class="cls-10" x=".25" y=".25" width="26.59" height="185.21"/>
        <line class="cls-2" x1=".25" y1="166.94" x2="26.84" y2="166.94"/>
        <line class="cls-3" x1=".25" y1="148.42" x2="26.84" y2="148.42"/>
        <line class="cls-1" x1=".25" y1="129.9" x2="26.84" y2="129.9"/>
        <line class="cls-6" x1=".25" y1="111.38" x2="26.84" y2="111.38"/>
        <line class="cls-7" x1=".25" y1="92.86" x2="26.84" y2="92.86"/>
        <line class="cls-4" x1=".25" y1="74.33" x2="26.84" y2="74.33"/>
        <line class="cls-5" x1=".25" y1="55.81" x2="26.84" y2="55.81"/>
        <line class="cls-8" x1=".25" y1="37.29" x2="26.84" y2="37.29"/>
        <line class="cls-26" x1=".25" y1="18.77" x2="26.84" y2="18.77"/>
        <line class="cls-27" x1="23.52" y1=".25" x2="23.52" y2="185.46"/>
        <line class="cls-42" x1="20.2" y1=".25" x2="20.2" y2="185.46"/>
        <line class="cls-43" x1="16.87" y1=".25" x2="16.87" y2="185.46"/>
        <line class="cls-41" x1="13.55" y1=".25" x2="13.55" y2="185.46"/>
        <line class="cls-44" x1="10.22" y1=".25" x2="10.22" y2="185.46"/>
        <line class="cls-38" x1="6.9" y1=".25" x2="6.9" y2="185.46"/>
        <line class="cls-37" x1="3.57" y1=".25" x2="3.57" y2="185.46"/>
      </g>
      <g>
        <rect class="cls-50" x="26.84" y=".25" width="99.78" height="185.21"/>
        <line class="cls-50" x1="26.84" y1="175.17" x2="126.62" y2="175.17"/>
        <line class="cls-50" x1="26.84" y1="164.88" x2="126.62" y2="164.88"/>
        <line class="cls-50" x1="26.84" y1="154.59" x2="126.62" y2="154.59"/>
        <line class="cls-50" x1="26.84" y1="144.3" x2="126.62" y2="144.3"/>
        <line class="cls-50" x1="26.84" y1="134.01" x2="126.62" y2="134.01"/>
        <line class="cls-50" x1="26.84" y1="123.72" x2="126.62" y2="123.72"/>
        <line class="cls-50" x1="26.84" y1="113.43" x2="126.62" y2="113.43"/>
        <line class="cls-50" x1="26.84" y1="103.15" x2="126.62" y2="103.15"/>
        <line class="cls-50" x1="26.84" y1="92.86" x2="126.62" y2="92.86"/>
        <line class="cls-50" x1="26.84" y1="82.57" x2="126.62" y2="82.57"/>
        <line class="cls-50" x1="26.84" y1="72.28" x2="126.62" y2="72.28"/>
        <line class="cls-50" x1="26.84" y1="61.99" x2="126.62" y2="61.99"/>
        <line class="cls-50" x1="26.84" y1="51.7" x2="126.62" y2="51.7"/>
        <line class="cls-50" x1="26.84" y1="41.41" x2="126.62" y2="41.41"/>
        <line class="cls-50" x1="26.84" y1="31.12" x2="126.62" y2="31.12"/>
        <line class="cls-50" x1="26.84" y1="20.83" x2="126.62" y2="20.83"/>
        <line class="cls-50" x1="26.84" y1="10.54" x2="126.62" y2="10.54"/>
        <line class="cls-50" x1="118.31" y1=".25" x2="118.31" y2="185.46"/>
        <line class="cls-50" x1="109.99" y1=".25" x2="109.99" y2="185.46"/>
        <line class="cls-50" x1="101.68" y1=".25" x2="101.68" y2="185.46"/>
        <line class="cls-50" x1="93.36" y1=".25" x2="93.36" y2="185.46"/>
        <line class="cls-50" x1="85.05" y1=".25" x2="85.05" y2="185.46"/>
        <line class="cls-50" x1="76.73" y1=".25" x2="76.73" y2="185.46"/>
        <line class="cls-50" x1="68.42" y1=".25" x2="68.42" y2="185.46"/>
        <line class="cls-50" x1="60.1" y1=".25" x2="60.1" y2="185.46"/>
        <line class="cls-50" x1="51.79" y1=".25" x2="51.79" y2="185.46"/>
        <line class="cls-50" x1="43.47" y1=".25" x2="43.47" y2="185.46"/>
        <line class="cls-50" x1="35.16" y1=".25" x2="35.16" y2="185.46"/>
      </g>
      <line class="cls-50" x1="323.23" y1="185.46" x2="323.23" y2=".25"/>
      <g>
        <g>
          <g>
            <path class="cls-50" d="M224.92,19.71c-40.43,0-73.14,32.72-73.14,73.15,0,2.98.18,5.92.53,8.81,4.34,36.27,35.16,64.33,72.61,64.33s68.28-28.06,72.62-64.33c.35-2.89.53-5.83.53-8.81,0-40.43-32.72-73.15-73.15-73.15ZM236.96,101.17c-1.34,1.94-3.14,3.54-5.24,4.64-2.03,1.08-4.34,1.68-6.8,1.68s-4.77-.61-6.8-1.68c-2.1-1.1-3.9-2.7-5.24-4.64-1.32-1.9-2.2-4.14-2.48-6.55-.07-.58-.11-1.17-.11-1.76,0-1.83.33-3.58.95-5.19.84-2.23,2.22-4.21,3.98-5.76,1.74-1.55,3.86-2.68,6.2-3.26,1.12-.27,2.29-.42,3.5-.42s2.38.15,3.5.42c2.34.58,4.46,1.71,6.2,3.26,1.76,1.55,3.14,3.53,3.98,5.76.62,1.61.95,3.36.95,5.19,0,.59-.04,1.18-.11,1.76-.28,2.41-1.16,4.65-2.48,6.55Z"/>
            <path class="cls-50" d="M286.5,69.51c-3.81-10.06-10.01-18.93-17.91-25.93-7.85-6.96-17.38-12.07-27.91-14.65-5.05-1.24-10.33-1.9-15.76-1.9s-10.71.66-15.75,1.9c-10.53,2.57-20.06,7.68-27.91,14.65-7.9,6.99-14.1,15.87-17.91,25.93-2.76,7.25-4.26,15.12-4.26,23.35,0,2.68.16,5.33.48,7.93,1.29,10.86,5.24,20.91,11.16,29.48,6.04,8.73,14.13,15.93,23.59,20.89,9.14,4.81,19.55,7.53,30.6,7.53s21.47-2.72,30.61-7.53c9.46-4.96,17.55-12.16,23.59-20.89,5.92-8.57,9.87-18.62,11.16-29.48.32-2.6.48-5.25.48-7.93,0-8.23-1.5-16.1-4.26-23.35ZM236.96,101.17c-1.34,1.94-3.14,3.54-5.24,4.64-2.03,1.08-4.34,1.68-6.8,1.68s-4.77-.61-6.8-1.68c-2.1-1.1-3.9-2.7-5.24-4.64-1.32-1.9-2.2-4.14-2.48-6.55-.07-.58-.11-1.17-.11-1.76,0-1.83.33-3.58.95-5.19.84-2.23,2.22-4.21,3.98-5.76,1.74-1.55,3.86-2.68,6.2-3.26,1.12-.27,2.29-.42,3.5-.42s2.38.15,3.5.42c2.34.58,4.46,1.71,6.2,3.26,1.76,1.55,3.14,3.53,3.98,5.76.62,1.61.95,3.36.95,5.19,0,.59-.04,1.18-.11,1.76-.28,2.41-1.16,4.65-2.48,6.55Z"/>
            <path class="cls-50" d="M279.66,72.1c-3.39-8.94-8.9-16.83-15.92-23.05-6.97-6.19-15.45-10.73-24.81-13.02-4.49-1.11-9.18-1.69-14.01-1.69s-9.52.58-14,1.69c-9.36,2.29-17.84,6.83-24.81,13.02-7.02,6.22-12.53,14.11-15.92,23.05-2.44,6.45-3.78,13.45-3.78,20.76,0,2.39.14,4.74.42,7.05,1.15,9.65,4.66,18.58,9.93,26.19,5.35,7.77,12.55,14.17,20.96,18.58,8.12,4.28,17.38,6.69,27.2,6.69s19.08-2.41,27.21-6.69c8.4-4.41,15.6-10.81,20.96-18.57,5.27-7.62,8.77-16.55,9.93-26.2.28-2.31.42-4.66.42-7.05,0-7.31-1.34-14.31-3.78-20.76ZM236.96,101.17c-1.34,1.94-3.14,3.54-5.24,4.64-2.03,1.08-4.34,1.68-6.8,1.68s-4.77-.61-6.8-1.68c-2.1-1.1-3.9-2.7-5.24-4.64-1.32-1.9-2.2-4.14-2.48-6.55-.07-.58-.11-1.17-.11-1.76,0-1.83.33-3.58.95-5.19.84-2.23,2.22-4.21,3.98-5.76,1.74-1.55,3.86-2.68,6.2-3.26,1.12-.27,2.29-.42,3.5-.42s2.38.15,3.5.42c2.34.58,4.46,1.71,6.2,3.26,1.76,1.55,3.14,3.53,3.98,5.76.62,1.61.95,3.36.95,5.19,0,.59-.04,1.18-.11,1.76-.28,2.41-1.16,4.65-2.48,6.55Z"/>
            <path class="cls-50" d="M272.82,74.7c-2.96-7.83-7.79-14.74-13.94-20.17-6.1-5.42-13.51-9.4-21.7-11.4-3.93-.97-8.03-1.48-12.26-1.48s-8.33.51-12.25,1.48c-8.19,2-15.6,5.98-21.71,11.4-6.15,5.44-10.97,12.35-13.92,20.17-2.15,5.64-3.32,11.76-3.32,18.16,0,2.09.12,4.15.37,6.17,1.01,8.44,4.08,16.26,8.68,22.92,4.69,6.8,10.99,12.4,18.35,16.25,7.11,3.75,15.2,5.86,23.8,5.86s16.7-2.11,23.81-5.86c7.35-3.85,13.65-9.45,18.34-16.24,4.62-6.67,7.68-14.48,8.69-22.93.25-2.02.37-4.08.37-6.17,0-6.4-1.17-12.52-3.31-18.16ZM236.96,101.17c-1.34,1.94-3.14,3.54-5.24,4.64-2.03,1.08-4.34,1.68-6.8,1.68s-4.77-.61-6.8-1.68c-2.1-1.1-3.9-2.7-5.24-4.64-1.32-1.9-2.2-4.14-2.48-6.55-.07-.58-.11-1.17-.11-1.76,0-1.83.33-3.58.95-5.19.84-2.23,2.22-4.21,3.98-5.76,1.74-1.55,3.86-2.68,6.2-3.26,1.12-.27,2.29-.42,3.5-.42s2.38.15,3.5.42c2.34.58,4.46,1.71,6.2,3.26,1.76,1.55,3.14,3.53,3.98,5.76.62,1.61.95,3.36.95,5.19,0,.59-.04,1.18-.11,1.76-.28,2.41-1.16,4.65-2.48,6.55Z"/>
            <path class="cls-50" d="M265.97,77.29c-2.54-6.71-6.67-12.62-11.94-17.28-5.23-4.65-11.58-8.05-18.6-9.77-3.36-.83-6.89-1.27-10.51-1.27s-7.14.44-10.5,1.26c-7.02,1.72-13.37,5.13-18.6,9.78-5.27,4.66-9.4,10.57-11.94,17.28-1.84,4.84-2.84,10.08-2.84,15.57,0,1.79.11,3.56.32,5.29.86,7.24,3.49,13.94,7.44,19.65,4.02,5.82,9.42,10.62,15.72,13.92,6.09,3.21,13.03,5.02,20.4,5.02s14.31-1.81,20.4-5.02c6.31-3.3,11.7-8.1,15.73-13.92,3.95-5.71,6.58-12.41,7.44-19.65.21-1.73.32-3.5.32-5.29,0-5.49-1-10.73-2.84-15.57ZM236.96,101.17c-1.34,1.94-3.14,3.54-5.24,4.64-2.03,1.08-4.34,1.68-6.8,1.68s-4.77-.61-6.8-1.68c-2.1-1.1-3.9-2.7-5.24-4.64-1.32-1.9-2.2-4.14-2.48-6.55-.07-.58-.11-1.17-.11-1.76,0-1.83.33-3.58.95-5.19.84-2.23,2.22-4.21,3.98-5.76,1.74-1.55,3.86-2.68,6.2-3.26,1.12-.27,2.29-.42,3.5-.42s2.38.15,3.5.42c2.34.58,4.46,1.71,6.2,3.26,1.76,1.55,3.14,3.53,3.98,5.76.62,1.61.95,3.36.95,5.19,0,.59-.04,1.18-.11,1.76-.28,2.41-1.16,4.65-2.48,6.55Z"/>
            <path class="cls-50" d="M259.13,79.89c-2.11-5.59-5.55-10.52-9.95-14.41-4.36-3.87-9.65-6.71-15.5-8.14-2.81-.7-5.74-1.06-8.76-1.06s-5.95.36-8.75,1.06c-5.85,1.42-11.14,4.26-15.5,8.14-4.39,3.88-7.84,8.82-9.95,14.41-1.53,4.03-2.37,8.4-2.37,12.97,0,1.49.09,2.97.26,4.41.73,6.04,2.92,11.61,6.21,16.37,3.35,4.85,7.85,8.85,13.1,11.61,5.08,2.67,10.86,4.18,17,4.18s11.92-1.51,17-4.18c5.26-2.76,9.76-6.76,13.11-11.61,3.29-4.76,5.48-10.33,6.21-16.37.17-1.44.26-2.92.26-4.41,0-4.57-.84-8.94-2.37-12.97ZM236.96,101.17c-1.34,1.94-3.14,3.54-5.24,4.64-2.03,1.08-4.34,1.68-6.8,1.68s-4.77-.61-6.8-1.68c-2.1-1.1-3.9-2.7-5.24-4.64-1.32-1.9-2.2-4.14-2.48-6.55-.07-.58-.11-1.17-.11-1.76,0-1.83.33-3.58.95-5.19.84-2.23,2.22-4.21,3.98-5.76,1.74-1.55,3.86-2.68,6.2-3.26,1.12-.27,2.29-.42,3.5-.42s2.38.15,3.5.42c2.34.58,4.46,1.71,6.2,3.26,1.76,1.55,3.14,3.53,3.98,5.76.62,1.61.95,3.36.95,5.19,0,.59-.04,1.18-.11,1.76-.28,2.41-1.16,4.65-2.48,6.55Z"/>
            <path class="cls-50" d="M252.29,82.48c-1.69-4.47-4.45-8.42-7.96-11.53-3.49-3.09-7.72-5.36-12.4-6.5-2.24-.56-4.59-.85-7.01-.85s-4.76.29-7,.85c-4.68,1.14-8.91,3.41-12.4,6.51-3.51,3.1-6.27,7.05-7.96,11.52-1.22,3.22-1.89,6.72-1.89,10.38,0,1.19.07,2.37.22,3.52.57,4.83,2.32,9.29,4.95,13.1,2.68,3.89,6.28,7.09,10.48,9.29,4.06,2.14,8.69,3.35,13.6,3.35s9.54-1.21,13.6-3.35c4.21-2.2,7.81-5.4,10.48-9.29,2.64-3.81,4.39-8.27,4.96-13.1.15-1.15.22-2.33.22-3.52,0-3.66-.67-7.16-1.89-10.38ZM236.96,101.17c-1.34,1.94-3.14,3.54-5.24,4.64-2.03,1.08-4.34,1.68-6.8,1.68s-4.77-.61-6.8-1.68c-2.1-1.1-3.9-2.7-5.24-4.64-1.32-1.9-2.2-4.14-2.48-6.55-.07-.58-.11-1.17-.11-1.76,0-1.83.33-3.58.95-5.19.84-2.23,2.22-4.21,3.98-5.76,1.74-1.55,3.86-2.68,6.2-3.26,1.12-.27,2.29-.42,3.5-.42s2.38.15,3.5.42c2.34.58,4.46,1.71,6.2,3.26,1.76,1.55,3.14,3.53,3.98,5.76.62,1.61.95,3.36.95,5.19,0,.59-.04,1.18-.11,1.76-.28,2.41-1.16,4.65-2.48,6.55Z"/>
            <path class="cls-50" d="M245.45,85.08c-1.27-3.36-3.34-6.32-5.98-8.65-2.61-2.32-5.79-4.03-9.3-4.88-1.68-.42-3.44-.64-5.25-.64s-3.57.22-5.25.64c-3.51.85-6.69,2.56-9.3,4.88-2.64,2.33-4.7,5.29-5.97,8.65-.92,2.41-1.42,5.04-1.42,7.78,0,.89.05,1.77.16,2.64.43,3.62,1.74,6.97,3.72,9.83,2.01,2.91,4.71,5.31,7.86,6.97,3.05,1.6,6.51,2.5,10.2,2.5s7.15-.9,10.2-2.51c3.15-1.65,5.85-4.05,7.86-6.96,1.98-2.86,3.3-6.21,3.73-9.83.11-.87.16-1.75.16-2.64,0-2.74-.5-5.37-1.42-7.78ZM236.96,101.17c-1.34,1.94-3.14,3.54-5.24,4.64-2.03,1.08-4.34,1.68-6.8,1.68s-4.77-.61-6.8-1.68c-2.1-1.1-3.9-2.7-5.24-4.64-1.32-1.9-2.2-4.14-2.48-6.55-.07-.58-.11-1.17-.11-1.76,0-1.83.33-3.58.95-5.19.84-2.23,2.22-4.21,3.98-5.76,1.74-1.55,3.86-2.68,6.2-3.26,1.12-.27,2.29-.42,3.5-.42s2.38.15,3.5.42c2.34.58,4.46,1.71,6.2,3.26,1.76,1.55,3.14,3.53,3.98,5.76.62,1.61.95,3.36.95,5.19,0,.59-.04,1.18-.11,1.76-.28,2.41-1.16,4.65-2.48,6.55Z"/>
          </g>
          <g>
            <polyline class="cls-50" points="224.92 107.49 224.92 114.8 224.92 122.12 224.92 129.43 224.92 136.74 224.92 144.06 224.92 151.37 224.92 158.69 224.92 166"/>
            <polyline class="cls-50" points="231.72 105.81 235.12 112.29 238.52 118.77 241.92 125.25 245.32 131.72 248.73 138.2 252.13 144.68 255.53 151.16 258.92 157.62"/>
            <polyline class="cls-50" points="236.96 101.17 242.98 105.33 249 109.48 255.03 113.64 261.05 117.8 267.07 121.96 273.09 126.11 279.12 130.27 285.12 134.41"/>
            <polyline class="cls-50" points="239.44 94.62 246.71 95.5 253.96 96.38 261.24 97.27 268.49 98.15 275.76 99.03 283.02 99.91 290.28 100.79 297.54 101.67"/>
            <polyline class="cls-50" points="293.32 66.92 286.5 69.51 279.66 72.1 272.82 74.7 265.97 77.29 259.13 79.89 252.29 82.48 245.45 85.08 238.6 87.67"/>
            <polyline class="cls-50" points="234.62 81.91 239.47 76.43 244.33 70.95 249.18 65.48 254.03 60.01 258.88 54.53 263.74 49.05 268.59 43.58 273.43 38.11"/>
            <polyline class="cls-50" points="228.42 78.65 230.17 71.55 231.93 64.45 233.68 57.34 235.43 50.24 237.18 43.13 238.93 36.03 240.68 28.93 242.43 21.84"/>
            <polyline class="cls-50" points="221.42 78.65 219.67 71.55 217.92 64.45 216.17 57.34 214.42 50.23 212.67 43.13 210.92 36.03 209.17 28.93 207.42 21.84"/>
            <polyline class="cls-50" points="215.22 81.91 210.37 76.43 205.52 70.96 200.67 65.48 195.82 60.01 190.96 54.53 186.11 49.05 181.26 43.58 176.42 38.11"/>
            <polyline class="cls-50" points="211.24 87.67 204.4 85.08 197.56 82.48 190.72 79.89 183.88 77.29 177.04 74.7 170.19 72.1 163.35 69.51 156.53 66.92"/>
            <polyline class="cls-50" points="210.4 94.62 203.14 95.5 195.89 96.38 188.61 97.27 181.36 98.15 174.09 99.03 166.83 99.91 159.57 100.79 152.31 101.67"/>
            <polyline class="cls-50" points="212.88 101.17 206.86 105.33 200.84 109.48 194.82 113.64 188.8 117.8 182.77 121.95 176.76 126.1 170.73 130.27 164.73 134.41"/>
            <polyline class="cls-50" points="218.12 105.81 214.72 112.3 211.32 118.77 207.92 125.25 204.52 131.72 201.12 138.2 197.72 144.68 194.32 151.16 190.93 157.62"/>
          </g>
        </g>
        <g>
          <g>
            <polygon class="cls-50" points="311.35 37.47 311.35 12.07 285.96 12.07 311.35 37.47"/>
            <polygon class="cls-50" points="138.5 37.47 138.5 12.07 163.9 12.07 138.5 37.47"/>
          </g>
          <g>
            <polygon class="cls-50" points="138.5 148.24 138.5 173.64 163.9 173.64 138.5 148.24"/>
            <polygon class="cls-50" points="311.35 148.24 311.35 173.64 285.96 173.64 311.35 148.24"/>
          </g>
        </g>
      </g>
      <g>
        <g>
          <path class="cls-40" d="M330.6.25c0,19.72,56.59,3.39,56.59,23.15"/>
          <path class="cls-39" d="M330.6,46.55c0-19.72,56.59-3.39,56.59-23.15"/>
        </g>
        <g>
          <path class="cls-25" d="M330.6,46.55c0,19.72,56.59,3.39,56.59,23.15"/>
          <path class="cls-23" d="M330.6,92.86c0-19.72,56.59-3.39,56.59-23.15"/>
        </g>
        <g>
          <path class="cls-49" d="M330.6,92.86c0,19.72,56.59,3.39,56.59,23.15"/>
          <path class="cls-35" d="M330.6,139.16c0-19.72,56.59-3.39,56.59-23.15"/>
        </g>
        <g>
          <path class="cls-34" d="M330.6,139.16c0,19.72,56.59,3.39,56.59,23.15"/>
          <path class="cls-47" d="M330.6,185.46c0-19.72,56.59-3.39,56.59-23.15"/>
        </g>
      </g>
      <g>
        <g>
          <line class="cls-33" x1="311.35" y1="51.3" x2="311.35" y2="134.41"/>
          <line class="cls-48" x1="308.33" y1="118.74" x2="308.33" y2="66.97"/>
          <line class="cls-36" x1="305.3" y1="77.23" x2="305.3" y2="108.48"/>
          <line class="cls-46" x1="302.28" y1="100.17" x2="302.28" y2="85.54"/>
        </g>
        <g>
          <line class="cls-28" x1="138.5" y1="134.41" x2="138.5" y2="51.3"/>
          <line class="cls-24" x1="141.53" y1="66.97" x2="141.53" y2="118.74"/>
          <line class="cls-30" x1="144.55" y1="108.48" x2="144.55" y2="77.23"/>
          <line class="cls-45" x1="147.58" y1="85.54" x2="147.58" y2="100.17"/>
        </g>
      </g>
      <g>
        <g>
          <line class="cls-20" x1="266.48" y1="179.28" x2="183.38" y2="179.28"/>
          <line class="cls-31" x1="199.04" y1="176.26" x2="250.81" y2="176.26"/>
          <line class="cls-32" x1="240.55" y1="173.23" x2="209.3" y2="173.23"/>
          <line class="cls-21" x1="217.61" y1="170.21" x2="232.24" y2="170.21"/>
        </g>
        <g>
          <line class="cls-29" x1="183.38" y1="6.43" x2="266.48" y2="6.43"/>
          <line class="cls-22" x1="250.81" y1="9.45" x2="199.04" y2="9.45"/>
          <line class="cls-18" x1="209.3" y1="12.48" x2="240.55" y2="12.48"/>
          <line class="cls-19" x1="232.24" y1="15.5" x2="217.61" y2="15.5"/>
        </g>
      </g>
      <circle class="cls-17" cx="231.93" cy="64.44" r="3.84"/>
      <circle class="cls-16" cx="253.97" cy="96.38" r="2.54"/>
      <circle class="cls-15" cx="207.93" cy="125.25" r="4.18"/>
      <circle class="cls-12" cx="181.36" cy="98.15" r="1.58"/>
      <circle class="cls-11" cx="186.11" cy="49.04" r="1.94"/>
      <circle class="cls-14" cx="255.53" cy="151.17" r="3.64"/>
      <circle class="cls-13" cx="245.33" cy="131.73" r="1.91"/>
    </g>
  </g>
</svg>