<?xml version="1.0" encoding="UTF-8"?>
<svg id="Layer_2" data-name="Layer 2" xmlns="http://www.w3.org/2000/svg" xmlns:xlink="http://www.w3.org/1999/xlink" viewBox="0 0 390.02 185.21">
  <defs>
    <style>
      .cls-1 {
        stroke: url(#New_Gradient_Swatch_copy_4-4);
      }

      .cls-1, .cls-2, .cls-3, .cls-4, .cls-5, .cls-6, .cls-7, .cls-8, .cls-9, .cls-10, .cls-11, .cls-12, .cls-13, .cls-14, .cls-15, .cls-16, .cls-17, .cls-18, .cls-19, .cls-20, .cls-21, .cls-22, .cls-23, .cls-24, .cls-25, .cls-26, .cls-27, .cls-28, .cls-29, .cls-30, .cls-31, .cls-32, .cls-33, .cls-34, .cls-35, .cls-36, .cls-37, .cls-38, .cls-39 {
        fill: none;
        stroke-width: .5px;
      }

      .cls-1, .cls-2, .cls-3, .cls-4, .cls-5, .cls-6, .cls-7, .cls-8, .cls-10, .cls-11, .cls-12, .cls-13, .cls-14, .cls-15, .cls-16, .cls-17, .cls-18, .cls-19, .cls-20, .cls-21, .cls-22, .cls-23, .cls-24, .cls-25, .cls-26, .cls-27, .cls-28, .cls-29, .cls-30, .cls-31, .cls-32, .cls-33, .cls-34, .cls-35, .cls-36, .cls-37, .cls-38 {
        stroke-miterlimit: 10;
      }

      .cls-2 {
        stroke: url(#New_Gradient_Swatch_copy_4-3);
      }

      .cls-3 {
        stroke: url(#New_Gradient_Swatch_copy_4-9);
      }

      .cls-4 {
        stroke: url(#New_Gradient_Swatch_copy_4-5);
      }

      .cls-5 {
        stroke: url(#New_Gradient_Swatch_copy_4-7);
      }

      .cls-6 {
        stroke: url(#New_Gradient_Swatch_copy_4-8);
      }

      .cls-7 {
        stroke: url(#New_Gradient_Swatch_copy_4-6);
      }

      .cls-40 {
        fill: #242023;
        stroke-width: 0px;
      }

      .cls-8 {
        stroke: url(#New_Gradient_Swatch_copy_4);
      }

      .cls-9 {
        stroke: url(#New_Gradient_Swatch_copy_4-2);
      }

      .cls-9, .cls-39 {
        stroke-dasharray: 0 0 0 4.18;
        stroke-linecap: round;
        stroke-linejoin: round;
      }

      .cls-10 {
        stroke: url(#New_Gradient_Swatch_copy_4-18);
      }

      .cls-11 {
        stroke: url(#New_Gradient_Swatch_copy_4-19);
      }

      .cls-12 {
        stroke: url(#New_Gradient_Swatch_copy_4-16);
      }

      .cls-13 {
        stroke: url(#New_Gradient_Swatch_copy_4-15);
      }

      .cls-14 {
        stroke: url(#New_Gradient_Swatch_copy_4-12);
      }

      .cls-15 {
        stroke: url(#New_Gradient_Swatch_copy_4-14);
      }

      .cls-16 {
        stroke: url(#New_Gradient_Swatch_copy_4-13);
      }

      .cls-17 {
        stroke: url(#New_Gradient_Swatch_copy_4-11);
      }

      .cls-18 {
        stroke: url(#New_Gradient_Swatch_copy_4-10);
      }

      .cls-19 {
        stroke: url(#New_Gradient_Swatch_copy_4-21);
      }

      .cls-20 {
        stroke: url(#New_Gradient_Swatch_copy_4-35);
      }

      .cls-21 {
        stroke: url(#New_Gradient_Swatch_copy_4-36);
      }

      .cls-22 {
        stroke: url(#New_Gradient_Swatch_copy_4-34);
      }

      .cls-23 {
        stroke: url(#New_Gradient_Swatch_copy_4-30);
      }

      .cls-24 {
        stroke: url(#New_Gradient_Swatch_copy_4-20);
      }

      .cls-25 {
        stroke: url(#New_Gradient_Swatch_copy_4-26);
      }

      .cls-26 {
        stroke: url(#New_Gradient_Swatch_copy_4-29);
      }

      .cls-27 {
        stroke: url(#New_Gradient_Swatch_copy_4-27);
      }

      .cls-28 {
        stroke: url(#New_Gradient_Swatch_copy_4-28);
      }

      .cls-29 {
        stroke: url(#New_Gradient_Swatch_copy_4-33);
      }

      .cls-30 {
        stroke: url(#New_Gradient_Swatch_copy_4-23);
      }

      .cls-31 {
        stroke: url(#New_Gradient_Swatch_copy_4-31);
      }

      .cls-32 {
        stroke: url(#New_Gradient_Swatch_copy_4-32);
      }

      .cls-33 {
        stroke: url(#New_Gradient_Swatch_copy_4-24);
      }

      .cls-34 {
        stroke: url(#New_Gradient_Swatch_copy_4-37);
      }

      .cls-35 {
        stroke: url(#New_Gradient_Swatch_copy_4-38);
      }

      .cls-36 {
        stroke: url(#New_Gradient_Swatch_copy_4-25);
      }

      .cls-37 {
        stroke: url(#New_Gradient_Swatch_copy_4-22);
      }

      .cls-38 {
        stroke: #4d4d4d;
      }

      .cls-39 {
        stroke: url(#New_Gradient_Swatch_copy_4-17);
      }
    </style>
    <linearGradient id="New_Gradient_Swatch_copy_4" data-name="New Gradient Swatch copy 4" x1="343.19" y1="6.19" x2="343.19" y2="88.67" gradientUnits="userSpaceOnUse">
      <stop offset="0" stop-color="#151515"/>
      <stop offset=".65" stop-color="#1a6e92"/>
      <stop offset=".8" stop-color="#f9f9f9"/>
      <stop offset=".95" stop-color="#151515"/>
    </linearGradient>
    <linearGradient id="New_Gradient_Swatch_copy_4-2" data-name="New Gradient Swatch copy 4" x1="343.19" y1="7.91" x2="343.19" y2="86.95" xlink:href="#New_Gradient_Swatch_copy_4"/>
    <linearGradient id="New_Gradient_Swatch_copy_4-3" data-name="New Gradient Swatch copy 4" x1="343.19" y1="26.83" x2="343.19" y2="68.03" xlink:href="#New_Gradient_Swatch_copy_4"/>
    <linearGradient id="New_Gradient_Swatch_copy_4-4" data-name="New Gradient Swatch copy 4" x1="343.19" y1="32.34" x2="343.19" y2="62.52" xlink:href="#New_Gradient_Swatch_copy_4"/>
    <linearGradient id="New_Gradient_Swatch_copy_4-5" data-name="New Gradient Swatch copy 4" x1="343.19" y1="40.11" x2="343.19" y2="54.75" xlink:href="#New_Gradient_Swatch_copy_4"/>
    <linearGradient id="New_Gradient_Swatch_copy_4-6" data-name="New Gradient Swatch copy 4" y1="20.86" y2="74" xlink:href="#New_Gradient_Swatch_copy_4"/>
    <linearGradient id="New_Gradient_Swatch_copy_4-7" data-name="New Gradient Swatch copy 4" x1="376.05" y1="35.78" x2="376.05" y2="59.08" xlink:href="#New_Gradient_Swatch_copy_4"/>
    <linearGradient id="New_Gradient_Swatch_copy_4-8" data-name="New Gradient Swatch copy 4" x1="310.74" y1="35.78" x2="310.74" y2="59.08" xlink:href="#New_Gradient_Swatch_copy_4"/>
    <linearGradient id="New_Gradient_Swatch_copy_4-9" data-name="New Gradient Swatch copy 4" x1="343.39" y1="77.84" x2="343.39" y2="82.32" gradientTransform="translate(263.31 423.48) rotate(-90)" xlink:href="#New_Gradient_Swatch_copy_4"/>
    <linearGradient id="New_Gradient_Swatch_copy_4-10" data-name="New Gradient Swatch copy 4" x1="343.39" y1="12.53" x2="343.39" y2="17.02" gradientTransform="translate(328.62 358.17) rotate(-90)" xlink:href="#New_Gradient_Swatch_copy_4"/>
    <linearGradient id="New_Gradient_Swatch_copy_4-11" data-name="New Gradient Swatch copy 4" x1="363.09" y1="63.8" x2="363.09" y2="69.62" xlink:href="#New_Gradient_Swatch_copy_4"/>
    <linearGradient id="New_Gradient_Swatch_copy_4-12" data-name="New Gradient Swatch copy 4" x1="363.09" y1="25.24" x2="363.09" y2="31.06" xlink:href="#New_Gradient_Swatch_copy_4"/>
    <linearGradient id="New_Gradient_Swatch_copy_4-13" data-name="New Gradient Swatch copy 4" x1="323.28" y1="63.8" x2="323.28" y2="69.62" xlink:href="#New_Gradient_Swatch_copy_4"/>
    <linearGradient id="New_Gradient_Swatch_copy_4-14" data-name="New Gradient Swatch copy 4" x1="323.28" y1="25.24" x2="323.28" y2="31.06" xlink:href="#New_Gradient_Swatch_copy_4"/>
    <linearGradient id="New_Gradient_Swatch_copy_4-15" data-name="New Gradient Swatch copy 4" x1="343.19" y1="9.52" x2="343.19" y2="85.34" xlink:href="#New_Gradient_Swatch_copy_4"/>
    <linearGradient id="New_Gradient_Swatch_copy_4-16" data-name="New Gradient Swatch copy 4" x1="46.84" y1="179.02" x2="46.84" y2="96.54" xlink:href="#New_Gradient_Swatch_copy_4"/>
    <linearGradient id="New_Gradient_Swatch_copy_4-17" data-name="New Gradient Swatch copy 4" x1="46.84" y1="177.3" x2="46.84" y2="98.26" xlink:href="#New_Gradient_Swatch_copy_4"/>
    <linearGradient id="New_Gradient_Swatch_copy_4-18" data-name="New Gradient Swatch copy 4" x1="46.84" y1="158.38" x2="46.84" y2="117.18" xlink:href="#New_Gradient_Swatch_copy_4"/>
    <linearGradient id="New_Gradient_Swatch_copy_4-19" data-name="New Gradient Swatch copy 4" x1="46.84" y1="152.87" x2="46.84" y2="122.69" xlink:href="#New_Gradient_Swatch_copy_4"/>
    <linearGradient id="New_Gradient_Swatch_copy_4-20" data-name="New Gradient Swatch copy 4" x1="46.84" y1="145.1" x2="46.84" y2="130.47" xlink:href="#New_Gradient_Swatch_copy_4"/>
    <linearGradient id="New_Gradient_Swatch_copy_4-21" data-name="New Gradient Swatch copy 4" x1="46.84" y1="164.35" x2="46.84" y2="111.21" xlink:href="#New_Gradient_Swatch_copy_4"/>
    <linearGradient id="New_Gradient_Swatch_copy_4-22" data-name="New Gradient Swatch copy 4" x1="79.7" y1="149.43" x2="79.7" y2="126.13" xlink:href="#New_Gradient_Swatch_copy_4"/>
    <linearGradient id="New_Gradient_Swatch_copy_4-23" data-name="New Gradient Swatch copy 4" x1="14.4" y1="149.43" x2="14.4" y2="126.13" xlink:href="#New_Gradient_Swatch_copy_4"/>
    <linearGradient id="New_Gradient_Swatch_copy_4-24" data-name="New Gradient Swatch copy 4" x1="47.05" y1="172.68" x2="47.05" y2="168.19" gradientTransform="translate(-123.38 217.48) rotate(-90)" xlink:href="#New_Gradient_Swatch_copy_4"/>
    <linearGradient id="New_Gradient_Swatch_copy_4-25" data-name="New Gradient Swatch copy 4" x1="47.05" y1="107.37" x2="47.05" y2="102.89" gradientTransform="translate(-58.08 152.18) rotate(-90)" xlink:href="#New_Gradient_Swatch_copy_4"/>
    <linearGradient id="New_Gradient_Swatch_copy_4-26" data-name="New Gradient Swatch copy 4" x1="66.74" y1="159.98" x2="66.74" y2="154.15" xlink:href="#New_Gradient_Swatch_copy_4"/>
    <linearGradient id="New_Gradient_Swatch_copy_4-27" data-name="New Gradient Swatch copy 4" x1="66.74" y1="121.41" x2="66.74" y2="115.59" xlink:href="#New_Gradient_Swatch_copy_4"/>
    <linearGradient id="New_Gradient_Swatch_copy_4-28" data-name="New Gradient Swatch copy 4" x1="26.94" y1="159.98" x2="26.94" y2="154.15" xlink:href="#New_Gradient_Swatch_copy_4"/>
    <linearGradient id="New_Gradient_Swatch_copy_4-29" data-name="New Gradient Swatch copy 4" x1="26.94" y1="121.41" x2="26.94" y2="115.59" xlink:href="#New_Gradient_Swatch_copy_4"/>
    <linearGradient id="New_Gradient_Swatch_copy_4-30" data-name="New Gradient Swatch copy 4" x1="46.84" y1="175.69" x2="46.84" y2="99.87" xlink:href="#New_Gradient_Swatch_copy_4"/>
    <linearGradient id="New_Gradient_Swatch_copy_4-31" data-name="New Gradient Swatch copy 4" x1="110.71" y1="41.58" x2="125.46" y2="41.58" xlink:href="#New_Gradient_Swatch_copy_4"/>
    <linearGradient id="New_Gradient_Swatch_copy_4-32" data-name="New Gradient Swatch copy 4" x1="90.93" y1="64.97" x2="97.05" y2="64.97" xlink:href="#New_Gradient_Swatch_copy_4"/>
    <linearGradient id="New_Gradient_Swatch_copy_4-33" data-name="New Gradient Swatch copy 4" x1="136.4" y1="167.01" x2="142.53" y2="167.01" xlink:href="#New_Gradient_Swatch_copy_4"/>
    <linearGradient id="New_Gradient_Swatch_copy_4-34" data-name="New Gradient Swatch copy 4" x1="201.81" y1="29.89" x2="214.58" y2="29.89" xlink:href="#New_Gradient_Swatch_copy_4"/>
    <linearGradient id="New_Gradient_Swatch_copy_4-35" data-name="New Gradient Swatch copy 4" x1="186.99" y1="120.24" x2="199.01" y2="120.24" xlink:href="#New_Gradient_Swatch_copy_4"/>
    <linearGradient id="New_Gradient_Swatch_copy_4-36" data-name="New Gradient Swatch copy 4" x1="256.34" y1="120.24" x2="268.36" y2="120.24" xlink:href="#New_Gradient_Swatch_copy_4"/>
    <linearGradient id="New_Gradient_Swatch_copy_4-37" data-name="New Gradient Swatch copy 4" x1="146.87" y1="29.89" x2="173.19" y2="29.89" xlink:href="#New_Gradient_Swatch_copy_4"/>
    <linearGradient id="New_Gradient_Swatch_copy_4-38" data-name="New Gradient Swatch copy 4" x1="203.98" y1="143.63" x2="269.95" y2="143.63" xlink:href="#New_Gradient_Swatch_copy_4"/>
  </defs>
  <g id="Layer_1-2" data-name="Layer 1">
    <g>
      <rect class="cls-40" x="0" width="390.02" height="185.21"/>
      <g>
        <line class="cls-38" x1="290.98" y1="18.2" x2="69.4" y2="18.2"/>
        <line class="cls-38" x1="290.98" y1="29.89" x2="69.4" y2="29.89"/>
        <line class="cls-38" x1="290.98" y1="41.58" x2="69.4" y2="41.58"/>
        <line class="cls-38" x1="290.98" y1="53.28" x2="69.4" y2="53.28"/>
        <line class="cls-38" x1="290.98" y1="64.97" x2="69.4" y2="64.97"/>
        <line class="cls-38" x1="290.98" y1="76.66" x2="69.4" y2="76.66"/>
      </g>
      <g>
        <line class="cls-38" x1="99.04" y1="167.01" x2="320.62" y2="167.01"/>
        <line class="cls-38" x1="99.04" y1="155.32" x2="320.62" y2="155.32"/>
        <line class="cls-38" x1="99.04" y1="143.63" x2="320.62" y2="143.63"/>
        <line class="cls-38" x1="99.04" y1="131.94" x2="320.62" y2="131.94"/>
        <line class="cls-38" x1="99.04" y1="120.24" x2="320.62" y2="120.24"/>
        <line class="cls-38" x1="99.04" y1="108.55" x2="320.62" y2="108.55"/>
      </g>
      <g>
        <circle class="cls-8" cx="343.19" cy="47.43" r="40.99"/>
        <circle class="cls-9" cx="343.19" cy="47.43" r="39.27"/>
        <circle class="cls-2" cx="343.19" cy="47.43" r="20.35"/>
        <circle class="cls-1" cx="343.19" cy="47.43" r="14.84"/>
        <circle class="cls-4" cx="343.19" cy="47.43" r="7.07"/>
        <rect class="cls-7" x="316.87" y="21.11" width="52.63" height="52.63" rx="5.23" ry="5.23"/>
        <g>
          <rect class="cls-5" x="374.05" y="36.03" width="3.99" height="22.8" rx="1.99" ry="1.99"/>
          <rect class="cls-6" x="308.75" y="36.03" width="3.99" height="22.8" rx="1.99" ry="1.99"/>
        </g>
        <g>
          <rect class="cls-3" x="341.4" y="68.68" width="3.99" height="22.8" rx="1.99" ry="1.99" transform="translate(423.48 -263.31) rotate(90)"/>
          <rect class="cls-18" x="341.4" y="3.38" width="3.99" height="22.8" rx="1.99" ry="1.99" transform="translate(358.17 -328.62) rotate(90)"/>
        </g>
        <g>
          <g>
            <rect class="cls-17" x="360.43" y="64.05" width="5.32" height="5.32" rx="2.09" ry="2.09"/>
            <rect class="cls-14" x="360.43" y="25.49" width="5.32" height="5.32" rx="2.09" ry="2.09"/>
          </g>
          <g>
            <rect class="cls-16" x="320.62" y="64.05" width="5.32" height="5.32" rx="2.09" ry="2.09"/>
            <rect class="cls-15" x="320.62" y="25.49" width="5.32" height="5.32" rx="2.09" ry="2.09"/>
          </g>
        </g>
        <circle class="cls-13" cx="343.19" cy="47.43" r="37.66"/>
      </g>
      <g>
        <circle class="cls-12" cx="46.84" cy="137.78" r="40.99"/>
        <circle class="cls-39" cx="46.84" cy="137.78" r="39.27"/>
        <circle class="cls-10" cx="46.84" cy="137.78" r="20.35"/>
        <circle class="cls-11" cx="46.84" cy="137.78" r="14.84"/>
        <circle class="cls-24" cx="46.84" cy="137.78" r="7.07"/>
        <rect class="cls-19" x="20.52" y="111.46" width="52.63" height="52.63" rx="5.23" ry="5.23"/>
        <g>
          <rect class="cls-37" x="77.71" y="126.38" width="3.99" height="22.8" rx="1.99" ry="1.99"/>
          <rect class="cls-30" x="12.4" y="126.38" width="3.99" height="22.8" rx="1.99" ry="1.99"/>
        </g>
        <g>
          <rect class="cls-33" x="45.06" y="159.03" width="3.99" height="22.8" rx="1.99" ry="1.99" transform="translate(217.48 123.38) rotate(90)"/>
          <rect class="cls-36" x="45.06" y="93.73" width="3.99" height="22.8" rx="1.99" ry="1.99" transform="translate(152.18 58.08) rotate(90)"/>
        </g>
        <g>
          <g>
            <rect class="cls-25" x="64.08" y="154.4" width="5.32" height="5.32" rx="2.09" ry="2.09"/>
            <rect class="cls-27" x="64.08" y="115.84" width="5.32" height="5.32" rx="2.09" ry="2.09"/>
          </g>
          <g>
            <rect class="cls-28" x="24.28" y="154.4" width="5.32" height="5.32" rx="2.09" ry="2.09"/>
            <rect class="cls-26" x="24.28" y="115.84" width="5.32" height="5.32" rx="2.09" ry="2.09"/>
          </g>
        </g>
        <circle class="cls-23" cx="46.84" cy="137.78" r="37.66"/>
      </g>
      <g>
        <g>
          <g>
            <circle class="cls-38" cx="107.08" cy="93.07" r="11"/>
            <circle class="cls-38" cx="107.08" cy="93.07" r="8.8"/>
            <circle class="cls-38" cx="107.08" cy="93.07" r="6.6"/>
            <circle class="cls-38" cx="107.08" cy="93.07" r="4.4"/>
            <circle class="cls-38" cx="107.08" cy="93.07" r="2.2"/>
          </g>
          <g>
            <line class="cls-38" x1="107.08" y1="93.07" x2="107.08" y2="104.07"/>
            <line class="cls-38" x1="107.08" y1="93.07" x2="112.19" y2="102.81"/>
            <line class="cls-38" x1="107.08" y1="93.07" x2="116.13" y2="99.32"/>
            <line class="cls-38" x1="107.08" y1="93.07" x2="118" y2="94.4"/>
            <line class="cls-38" x1="107.08" y1="93.07" x2="117.37" y2="89.17"/>
            <line class="cls-38" x1="107.08" y1="93.07" x2="114.38" y2="84.84"/>
            <line class="cls-38" x1="107.08" y1="93.07" x2="109.72" y2="82.39"/>
            <line class="cls-38" x1="107.08" y1="93.07" x2="104.45" y2="82.39"/>
            <line class="cls-38" x1="107.08" y1="93.07" x2="99.79" y2="84.84"/>
            <line class="cls-38" x1="107.08" y1="93.07" x2="96.8" y2="89.17"/>
            <line class="cls-38" x1="107.08" y1="93.07" x2="96.17" y2="94.4"/>
            <line class="cls-38" x1="107.08" y1="93.07" x2="98.03" y2="99.32"/>
            <line class="cls-38" x1="107.08" y1="93.07" x2="101.97" y2="102.81"/>
          </g>
        </g>
        <g>
          <g>
            <circle class="cls-38" cx="141.66" cy="93.07" r="11"/>
            <circle class="cls-38" cx="141.66" cy="93.07" r="8.8"/>
            <circle class="cls-38" cx="141.66" cy="93.07" r="6.6"/>
            <circle class="cls-38" cx="141.66" cy="93.07" r="4.4"/>
            <circle class="cls-38" cx="141.66" cy="93.07" r="2.2"/>
          </g>
          <g>
            <line class="cls-38" x1="141.66" y1="93.07" x2="141.66" y2="104.07"/>
            <line class="cls-38" x1="141.66" y1="93.07" x2="146.78" y2="102.81"/>
            <line class="cls-38" x1="141.66" y1="93.07" x2="150.72" y2="99.32"/>
            <line class="cls-38" x1="141.66" y1="93.07" x2="152.58" y2="94.4"/>
            <line class="cls-38" x1="141.66" y1="93.07" x2="151.95" y2="89.17"/>
            <line class="cls-38" x1="141.66" y1="93.07" x2="148.96" y2="84.84"/>
            <line class="cls-38" x1="141.66" y1="93.07" x2="144.3" y2="82.39"/>
            <line class="cls-38" x1="141.66" y1="93.07" x2="139.03" y2="82.39"/>
            <line class="cls-38" x1="141.66" y1="93.07" x2="134.37" y2="84.84"/>
            <line class="cls-38" x1="141.66" y1="93.07" x2="131.38" y2="89.17"/>
            <line class="cls-38" x1="141.66" y1="93.07" x2="130.75" y2="94.4"/>
            <line class="cls-38" x1="141.66" y1="93.07" x2="132.61" y2="99.32"/>
            <line class="cls-38" x1="141.66" y1="93.07" x2="136.55" y2="102.81"/>
          </g>
        </g>
        <g>
          <g>
            <circle class="cls-38" cx="176.25" cy="93.07" r="11"/>
            <circle class="cls-38" cx="176.25" cy="93.07" r="8.8"/>
            <circle class="cls-38" cx="176.25" cy="93.07" r="6.6"/>
            <circle class="cls-38" cx="176.25" cy="93.07" r="4.4"/>
            <circle class="cls-38" cx="176.25" cy="93.07" r="2.2"/>
          </g>
          <g>
            <line class="cls-38" x1="176.25" y1="93.07" x2="176.25" y2="104.07"/>
            <line class="cls-38" x1="176.25" y1="93.07" x2="181.36" y2="102.81"/>
            <line class="cls-38" x1="176.25" y1="93.07" x2="185.3" y2="99.32"/>
            <line class="cls-38" x1="176.25" y1="93.07" x2="187.16" y2="94.4"/>
            <line class="cls-38" x1="176.25" y1="93.07" x2="186.53" y2="89.17"/>
            <line class="cls-38" x1="176.25" y1="93.07" x2="183.54" y2="84.84"/>
            <line class="cls-38" x1="176.25" y1="93.07" x2="178.88" y2="82.39"/>
            <line class="cls-38" x1="176.25" y1="93.07" x2="173.61" y2="82.39"/>
            <line class="cls-38" x1="176.25" y1="93.07" x2="168.95" y2="84.84"/>
            <line class="cls-38" x1="176.25" y1="93.07" x2="165.96" y2="89.17"/>
            <line class="cls-38" x1="176.25" y1="93.07" x2="165.33" y2="94.4"/>
            <line class="cls-38" x1="176.25" y1="93.07" x2="167.19" y2="99.32"/>
            <line class="cls-38" x1="176.25" y1="93.07" x2="171.13" y2="102.81"/>
          </g>
        </g>
        <g>
          <g>
            <circle class="cls-38" cx="210.83" cy="93.07" r="11"/>
            <circle class="cls-38" cx="210.83" cy="93.07" r="8.8"/>
            <circle class="cls-38" cx="210.83" cy="93.07" r="6.6"/>
            <circle class="cls-38" cx="210.83" cy="93.07" r="4.4"/>
            <circle class="cls-38" cx="210.83" cy="93.07" r="2.2"/>
          </g>
          <g>
            <line class="cls-38" x1="210.83" y1="93.07" x2="210.83" y2="104.07"/>
            <line class="cls-38" x1="210.83" y1="93.07" x2="215.94" y2="102.81"/>
            <line class="cls-38" x1="210.83" y1="93.07" x2="219.88" y2="99.32"/>
            <line class="cls-38" x1="210.83" y1="93.07" x2="221.74" y2="94.4"/>
            <line class="cls-38" x1="210.83" y1="93.07" x2="221.11" y2="89.17"/>
            <line class="cls-38" x1="210.83" y1="93.07" x2="218.12" y2="84.84"/>
            <line class="cls-38" x1="210.83" y1="93.07" x2="213.46" y2="82.39"/>
            <line class="cls-38" x1="210.83" y1="93.07" x2="208.19" y2="82.39"/>
            <line class="cls-38" x1="210.83" y1="93.07" x2="203.53" y2="84.84"/>
            <line class="cls-38" x1="210.83" y1="93.07" x2="200.54" y2="89.17"/>
            <line class="cls-38" x1="210.83" y1="93.07" x2="199.91" y2="94.4"/>
            <line class="cls-38" x1="210.83" y1="93.07" x2="201.77" y2="99.32"/>
            <line class="cls-38" x1="210.83" y1="93.07" x2="205.71" y2="102.81"/>
          </g>
        </g>
        <g>
          <g>
            <circle class="cls-38" cx="245.41" cy="93.07" r="11"/>
            <circle class="cls-38" cx="245.41" cy="93.07" r="8.8"/>
            <circle class="cls-38" cx="245.41" cy="93.07" r="6.6"/>
            <circle class="cls-38" cx="245.41" cy="93.07" r="4.4"/>
            <circle class="cls-38" cx="245.41" cy="93.07" r="2.2"/>
          </g>
          <g>
            <line class="cls-38" x1="245.41" y1="93.07" x2="245.41" y2="104.07"/>
            <line class="cls-38" x1="245.41" y1="93.07" x2="250.52" y2="102.81"/>
            <line class="cls-38" x1="245.41" y1="93.07" x2="254.46" y2="99.32"/>
            <line class="cls-38" x1="245.41" y1="93.07" x2="256.32" y2="94.4"/>
            <line class="cls-38" x1="245.41" y1="93.07" x2="255.69" y2="89.17"/>
            <line class="cls-38" x1="245.41" y1="93.07" x2="252.7" y2="84.84"/>
            <line class="cls-38" x1="245.41" y1="93.07" x2="248.04" y2="82.39"/>
            <line class="cls-38" x1="245.41" y1="93.07" x2="242.77" y2="82.39"/>
            <line class="cls-38" x1="245.41" y1="93.07" x2="238.11" y2="84.84"/>
            <line class="cls-38" x1="245.41" y1="93.07" x2="235.12" y2="89.17"/>
            <line class="cls-38" x1="245.41" y1="93.07" x2="234.49" y2="94.4"/>
            <line class="cls-38" x1="245.41" y1="93.07" x2="236.36" y2="99.32"/>
            <line class="cls-38" x1="245.41" y1="93.07" x2="240.3" y2="102.81"/>
          </g>
        </g>
        <g>
          <g>
            <circle class="cls-38" cx="279.99" cy="93.07" r="11"/>
            <circle class="cls-38" cx="279.99" cy="93.07" r="8.8"/>
            <circle class="cls-38" cx="279.99" cy="93.07" r="6.6"/>
            <circle class="cls-38" cx="279.99" cy="93.07" r="4.4"/>
            <circle class="cls-38" cx="279.99" cy="93.07" r="2.2"/>
          </g>
          <g>
            <line class="cls-38" x1="279.99" y1="93.07" x2="279.99" y2="104.07"/>
            <line class="cls-38" x1="279.99" y1="93.07" x2="285.1" y2="102.81"/>
            <line class="cls-38" x1="279.99" y1="93.07" x2="289.04" y2="99.32"/>
            <line class="cls-38" x1="279.99" y1="93.07" x2="290.9" y2="94.4"/>
            <line class="cls-38" x1="279.99" y1="93.07" x2="290.27" y2="89.17"/>
            <line class="cls-38" x1="279.99" y1="93.07" x2="287.28" y2="84.84"/>
            <line class="cls-38" x1="279.99" y1="93.07" x2="282.62" y2="82.39"/>
            <line class="cls-38" x1="279.99" y1="93.07" x2="277.35" y2="82.39"/>
            <line class="cls-38" x1="279.99" y1="93.07" x2="272.69" y2="84.84"/>
            <line class="cls-38" x1="279.99" y1="93.07" x2="269.7" y2="89.17"/>
            <line class="cls-38" x1="279.99" y1="93.07" x2="269.07" y2="94.4"/>
            <line class="cls-38" x1="279.99" y1="93.07" x2="270.94" y2="99.32"/>
            <line class="cls-38" x1="279.99" y1="93.07" x2="274.88" y2="102.81"/>
          </g>
        </g>
      </g>
      <g>
        <rect class="cls-38" x="325.94" y="108.55" width="58.23" height="58.23" rx="3.14" ry="3.14"/>
        <line class="cls-38" x1="384.17" y1="163.55" x2="325.94" y2="163.55"/>
        <line class="cls-38" x1="384.17" y1="160.31" x2="325.94" y2="160.31"/>
        <line class="cls-38" x1="384.17" y1="157.08" x2="325.94" y2="157.08"/>
        <line class="cls-38" x1="384.17" y1="153.84" x2="325.94" y2="153.84"/>
        <line class="cls-38" x1="384.17" y1="150.61" x2="325.94" y2="150.61"/>
        <line class="cls-38" x1="384.17" y1="147.37" x2="325.94" y2="147.37"/>
        <line class="cls-38" x1="384.17" y1="144.14" x2="325.94" y2="144.14"/>
        <line class="cls-38" x1="384.17" y1="140.9" x2="325.94" y2="140.9"/>
        <line class="cls-38" x1="384.17" y1="137.67" x2="325.94" y2="137.67"/>
        <line class="cls-38" x1="384.17" y1="134.43" x2="325.94" y2="134.43"/>
        <line class="cls-38" x1="384.17" y1="131.2" x2="325.94" y2="131.2"/>
        <line class="cls-38" x1="384.17" y1="127.96" x2="325.94" y2="127.96"/>
        <line class="cls-38" x1="384.17" y1="124.73" x2="325.94" y2="124.73"/>
        <line class="cls-38" x1="384.17" y1="121.49" x2="325.94" y2="121.49"/>
        <line class="cls-38" x1="384.17" y1="118.26" x2="325.94" y2="118.26"/>
        <line class="cls-38" x1="384.17" y1="115.02" x2="325.94" y2="115.02"/>
        <line class="cls-38" x1="384.17" y1="111.79" x2="325.94" y2="111.79"/>
        <line class="cls-38" x1="330.8" y1="108.55" x2="330.8" y2="166.78"/>
        <line class="cls-38" x1="335.65" y1="108.55" x2="335.65" y2="166.78"/>
        <line class="cls-38" x1="340.5" y1="108.55" x2="340.5" y2="166.78"/>
        <line class="cls-38" x1="345.35" y1="108.55" x2="345.35" y2="166.78"/>
        <line class="cls-38" x1="350.21" y1="108.55" x2="350.21" y2="166.78"/>
        <line class="cls-38" x1="355.06" y1="108.55" x2="355.06" y2="166.78"/>
        <line class="cls-38" x1="359.91" y1="108.55" x2="359.91" y2="166.78"/>
        <line class="cls-38" x1="364.76" y1="108.55" x2="364.76" y2="166.78"/>
        <line class="cls-38" x1="369.62" y1="108.55" x2="369.62" y2="166.78"/>
        <line class="cls-38" x1="374.47" y1="108.55" x2="374.47" y2="166.78"/>
        <line class="cls-38" x1="379.32" y1="108.55" x2="379.32" y2="166.78"/>
      </g>
      <g>
        <rect class="cls-38" x="5.85" y="18.2" width="58.23" height="58.23" rx="3.14" ry="3.14"/>
        <line class="cls-38" x1="64.08" y1="73.2" x2="5.85" y2="73.2"/>
        <line class="cls-38" x1="64.08" y1="69.96" x2="5.85" y2="69.96"/>
        <line class="cls-38" x1="64.08" y1="66.73" x2="5.85" y2="66.73"/>
        <line class="cls-38" x1="64.08" y1="63.49" x2="5.85" y2="63.49"/>
        <line class="cls-38" x1="64.08" y1="60.26" x2="5.85" y2="60.26"/>
        <line class="cls-38" x1="64.08" y1="57.02" x2="5.85" y2="57.02"/>
        <line class="cls-38" x1="64.08" y1="53.79" x2="5.85" y2="53.79"/>
        <line class="cls-38" x1="64.08" y1="50.55" x2="5.85" y2="50.55"/>
        <line class="cls-38" x1="64.08" y1="47.32" x2="5.85" y2="47.32"/>
        <line class="cls-38" x1="64.08" y1="44.08" x2="5.85" y2="44.08"/>
        <line class="cls-38" x1="64.08" y1="40.85" x2="5.85" y2="40.85"/>
        <line class="cls-38" x1="64.08" y1="37.61" x2="5.85" y2="37.61"/>
        <line class="cls-38" x1="64.08" y1="34.38" x2="5.85" y2="34.38"/>
        <line class="cls-38" x1="64.08" y1="31.14" x2="5.85" y2="31.14"/>
        <line class="cls-38" x1="64.08" y1="27.91" x2="5.85" y2="27.91"/>
        <line class="cls-38" x1="64.08" y1="24.67" x2="5.85" y2="24.67"/>
        <line class="cls-38" x1="64.08" y1="21.44" x2="5.85" y2="21.44"/>
        <line class="cls-38" x1="10.7" y1="18.2" x2="10.7" y2="76.43"/>
        <line class="cls-38" x1="15.56" y1="18.2" x2="15.56" y2="76.43"/>
        <line class="cls-38" x1="20.41" y1="18.2" x2="20.41" y2="76.43"/>
        <line class="cls-38" x1="25.26" y1="18.2" x2="25.26" y2="76.43"/>
        <line class="cls-38" x1="30.11" y1="18.2" x2="30.11" y2="76.43"/>
        <line class="cls-38" x1="34.97" y1="18.2" x2="34.97" y2="76.43"/>
        <line class="cls-38" x1="39.82" y1="18.2" x2="39.82" y2="76.43"/>
        <line class="cls-38" x1="44.67" y1="18.2" x2="44.67" y2="76.43"/>
        <line class="cls-38" x1="49.52" y1="18.2" x2="49.52" y2="76.43"/>
        <line class="cls-38" x1="54.38" y1="18.2" x2="54.38" y2="76.43"/>
        <line class="cls-38" x1="59.23" y1="18.2" x2="59.23" y2="76.43"/>
      </g>
      <g>
        <line class="cls-38" x1="384.17" y1="104.07" x2="384.17" y2="69.37"/>
        <line class="cls-38" x1="379.32" y1="104.07" x2="379.32" y2="69.37"/>
        <line class="cls-38" x1="374.47" y1="104.07" x2="374.47" y2="83.73"/>
        <line class="cls-38" x1="369.62" y1="104.07" x2="369.62" y2="83.73"/>
        <line class="cls-38" x1="364.76" y1="104.07" x2="364.76" y2="91.6"/>
        <line class="cls-38" x1="359.91" y1="104.07" x2="359.91" y2="91.6"/>
        <line class="cls-38" x1="355.06" y1="104.07" x2="355.06" y2="91.6"/>
        <line class="cls-38" x1="350.21" y1="104.07" x2="350.21" y2="91.6"/>
        <line class="cls-38" x1="345.35" y1="104.07" x2="345.35" y2="91.6"/>
        <line class="cls-38" x1="340.5" y1="104.07" x2="340.5" y2="91.6"/>
        <line class="cls-38" x1="335.65" y1="104.07" x2="335.65" y2="95.27"/>
        <line class="cls-38" x1="330.8" y1="104.07" x2="330.8" y2="95.27"/>
        <line class="cls-38" x1="325.94" y1="104.07" x2="325.94" y2="95.27"/>
      </g>
      <g>
        <line class="cls-38" x1="6.53" y1="80.12" x2="6.53" y2="114.82"/>
        <line class="cls-38" x1="11.39" y1="80.12" x2="11.39" y2="114.82"/>
        <line class="cls-38" x1="16.24" y1="80.12" x2="16.24" y2="100.47"/>
        <line class="cls-38" x1="21.09" y1="80.12" x2="21.09" y2="100.47"/>
        <line class="cls-38" x1="25.94" y1="80.12" x2="25.94" y2="92.59"/>
        <line class="cls-38" x1="30.8" y1="80.12" x2="30.8" y2="92.59"/>
        <line class="cls-38" x1="35.65" y1="80.12" x2="35.65" y2="92.59"/>
        <line class="cls-38" x1="40.5" y1="80.12" x2="40.5" y2="92.59"/>
        <line class="cls-38" x1="45.35" y1="80.12" x2="45.35" y2="92.59"/>
        <line class="cls-38" x1="50.21" y1="80.12" x2="50.21" y2="92.59"/>
        <line class="cls-38" x1="55.06" y1="80.12" x2="55.06" y2="88.92"/>
        <line class="cls-38" x1="59.91" y1="80.12" x2="59.91" y2="88.92"/>
        <line class="cls-38" x1="64.76" y1="80.12" x2="64.76" y2="88.92"/>
      </g>
      <circle class="cls-31" cx="118.08" cy="41.58" r="7.12"/>
      <circle class="cls-38" cx="255.69" cy="64.97" r="2.81"/>
      <circle class="cls-38" cx="181.7" cy="64.97" r="2.81"/>
      <circle class="cls-32" cx="93.99" cy="64.97" r="2.81"/>
      <circle class="cls-38" cx="174.05" cy="143.63" r="6.98"/>
      <circle class="cls-38" cx="284.51" cy="143.63" r="3.75"/>
      <circle class="cls-38" cx="117.37" cy="155.32" r="2.81"/>
      <circle class="cls-29" cx="139.47" cy="167.01" r="2.81"/>
      <circle class="cls-38" cx="198.76" cy="167.01" r="2.81"/>
      <circle class="cls-38" cx="258.05" cy="167.01" r="2.81"/>
      <circle class="cls-38" cx="317.81" cy="167.01" r="2.81"/>
      <circle class="cls-22" cx="208.19" cy="29.89" r="6.14"/>
      <circle class="cls-38" cx="125.21" cy="120.24" r="5.76"/>
      <circle class="cls-20" cx="193" cy="120.24" r="5.76"/>
      <circle class="cls-21" cx="262.35" cy="120.24" r="5.76"/>
      <rect class="cls-38" x="79.95" y="27.24" width="25.82" height="5.3" rx="2.65" ry="2.65"/>
      <rect class="cls-34" x="147.12" y="27.24" width="25.82" height="5.3" rx="2.65" ry="2.65"/>
      <rect class="cls-38" x="225.25" y="27.24" width="45.71" height="5.3" rx="2.65" ry="2.65"/>
      <rect class="cls-35" x="204.23" y="140.98" width="65.48" height="5.3" rx="2.65" ry="2.65"/>
      <rect class="cls-38" x="292.98" y="140.98" width="10.4" height="5.3" rx="2.65" ry="2.65"/>
      <rect class="cls-38" x="136.47" y="140.98" width="10.4" height="5.3" rx="2.65" ry="2.65"/>
      <rect class="cls-38" x="156.75" y="164.36" width="10.4" height="5.3" rx="2.65" ry="2.65"/>
      <rect class="cls-38" x="213.59" y="164.36" width="26.71" height="5.3" rx="2.65" ry="2.65"/>
      <rect class="cls-38" x="274.58" y="164.36" width="26.71" height="5.3" rx="2.65" ry="2.65"/>
    </g>
  </g>
</svg>