<?xml version="1.0" encoding="UTF-8"?>
<svg id="Layer_2" data-name="Layer 2" xmlns="http://www.w3.org/2000/svg" xmlns:xlink="http://www.w3.org/1999/xlink" viewBox="0 0 390.56 185.71">
  <defs>
    <style>
      .cls-1 {
        stroke: url(#New_Gradient_Swatch_copy_2-9);
      }

      .cls-1, .cls-2, .cls-3, .cls-4, .cls-5, .cls-6, .cls-7, .cls-8, .cls-9, .cls-10, .cls-11, .cls-12, .cls-13, .cls-14, .cls-15, .cls-16, .cls-17, .cls-18, .cls-19 {
        stroke-width: .5px;
      }

      .cls-1, .cls-2, .cls-3, .cls-4, .cls-5, .cls-6, .cls-7, .cls-11, .cls-12, .cls-13, .cls-14, .cls-15, .cls-16, .cls-17, .cls-18, .cls-19 {
        stroke-miterlimit: 10;
      }

      .cls-1, .cls-2, .cls-3, .cls-4, .cls-5, .cls-7, .cls-8, .cls-9, .cls-10, .cls-11, .cls-12, .cls-13, .cls-14, .cls-15, .cls-16, .cls-17, .cls-18, .cls-19 {
        fill: none;
      }

      .cls-2 {
        stroke: url(#New_Gradient_Swatch_copy_2-6);
      }

      .cls-3 {
        stroke: url(#New_Gradient_Swatch_copy_2-7);
      }

      .cls-4 {
        stroke: url(#New_Gradient_Swatch_copy_2-5);
      }

      .cls-5 {
        stroke: url(#New_Gradient_Swatch_copy_2-8);
      }

      .cls-20 {
        fill: rgba(249, 249, 249, .64);
        stroke-width: 0px;
      }

      .cls-6 {
        fill: #242023;
      }

      .cls-6, .cls-19 {
        stroke: #4d4d4d;
      }

      .cls-7 {
        stroke: url(#New_Gradient_Swatch_copy_2);
      }

      .cls-8 {
        stroke: url(#New_Gradient_Swatch_copy_2-4);
      }

      .cls-8, .cls-9, .cls-10 {
        stroke-dasharray: 0 0 0 1.87;
        stroke-linecap: round;
        stroke-linejoin: round;
      }

      .cls-9 {
        stroke: url(#New_Gradient_Swatch_copy_2-2);
      }

      .cls-10 {
        stroke: url(#New_Gradient_Swatch_copy_2-3);
      }

      .cls-11 {
        stroke: url(#New_Gradient_Swatch_copy_2-17);
      }

      .cls-12 {
        stroke: url(#New_Gradient_Swatch_copy_2-11);
      }

      .cls-13 {
        stroke: url(#New_Gradient_Swatch_copy_2-10);
      }

      .cls-14 {
        stroke: url(#New_Gradient_Swatch_copy_2-16);
      }

      .cls-15 {
        stroke: url(#New_Gradient_Swatch_copy_2-12);
      }

      .cls-16 {
        stroke: url(#New_Gradient_Swatch_copy_2-14);
      }

      .cls-17 {
        stroke: url(#New_Gradient_Swatch_copy_2-15);
      }

      .cls-18 {
        stroke: url(#New_Gradient_Swatch_copy_2-13);
      }
    </style>
    <linearGradient id="New_Gradient_Swatch_copy_2" data-name="New Gradient Swatch copy 2" x1="24.22" y1="44.53" x2="78.62" y2="44.53" gradientUnits="userSpaceOnUse">
      <stop offset="0" stop-color="#191919"/>
      <stop offset=".65" stop-color="#ff8b8b"/>
      <stop offset=".8" stop-color="#f9f9f9"/>
      <stop offset=".95" stop-color="#1e1e1e"/>
    </linearGradient>
    <linearGradient id="New_Gradient_Swatch_copy_2-2" data-name="New Gradient Swatch copy 2" x1="47.98" y1="142.01" x2="94.14" y2="142.01" xlink:href="#New_Gradient_Swatch_copy_2"/>
    <linearGradient id="New_Gradient_Swatch_copy_2-3" data-name="New Gradient Swatch copy 2" x1="107.26" y1="142.01" x2="153.43" y2="142.01" xlink:href="#New_Gradient_Swatch_copy_2"/>
    <linearGradient id="New_Gradient_Swatch_copy_2-4" data-name="New Gradient Swatch copy 2" x1="166.54" y1="142.01" x2="212.71" y2="142.01" xlink:href="#New_Gradient_Swatch_copy_2"/>
    <linearGradient id="New_Gradient_Swatch_copy_2-5" data-name="New Gradient Swatch copy 2" x1="89.56" y1="44.53" x2="126.98" y2="44.53" xlink:href="#New_Gradient_Swatch_copy_2"/>
    <linearGradient id="New_Gradient_Swatch_copy_2-6" data-name="New Gradient Swatch copy 2" x1="89.61" y1="44.53" x2="152.58" y2="44.53" xlink:href="#New_Gradient_Swatch_copy_2"/>
    <linearGradient id="New_Gradient_Swatch_copy_2-7" data-name="New Gradient Swatch copy 2" x1="89.66" y1="44.53" x2="195.95" y2="44.53" xlink:href="#New_Gradient_Swatch_copy_2"/>
    <linearGradient id="New_Gradient_Swatch_copy_2-8" data-name="New Gradient Swatch copy 2" x1="89.69" y1="44.53" x2="253.14" y2="44.53" xlink:href="#New_Gradient_Swatch_copy_2"/>
    <linearGradient id="New_Gradient_Swatch_copy_2-9" data-name="New Gradient Swatch copy 2" x1="89.7" y1="44.53" x2="307.32" y2="44.53" xlink:href="#New_Gradient_Swatch_copy_2"/>
    <linearGradient id="New_Gradient_Swatch_copy_2-10" data-name="New Gradient Swatch copy 2" x1="89.71" y1="44.53" x2="350.11" y2="44.53" xlink:href="#New_Gradient_Swatch_copy_2"/>
    <linearGradient id="New_Gradient_Swatch_copy_2-11" data-name="New Gradient Swatch copy 2" x1="369.47" y1="80.59" x2="369.47" y2="52.76" xlink:href="#New_Gradient_Swatch_copy_2"/>
    <linearGradient id="New_Gradient_Swatch_copy_2-12" data-name="New Gradient Swatch copy 2" x1="238.12" y1="162.54" x2="246.08" y2="162.54" xlink:href="#New_Gradient_Swatch_copy_2"/>
    <linearGradient id="New_Gradient_Swatch_copy_2-13" data-name="New Gradient Swatch copy 2" x1="179.04" y1="148.26" x2="186.6" y2="148.26" xlink:href="#New_Gradient_Swatch_copy_2"/>
    <linearGradient id="New_Gradient_Swatch_copy_2-14" data-name="New Gradient Swatch copy 2" x1="59.53" y1="151.7" x2="68.97" y2="151.7" xlink:href="#New_Gradient_Swatch_copy_2"/>
    <linearGradient id="New_Gradient_Swatch_copy_2-15" data-name="New Gradient Swatch copy 2" x1="15.11" y1="174.41" x2="22.07" y2="174.41" xlink:href="#New_Gradient_Swatch_copy_2"/>
    <linearGradient id="New_Gradient_Swatch_copy_2-16" data-name="New Gradient Swatch copy 2" x1="255.85" y1="137.14" x2="344.76" y2="137.14" xlink:href="#New_Gradient_Swatch_copy_2"/>
    <linearGradient id="New_Gradient_Swatch_copy_2-17" data-name="New Gradient Swatch copy 2" x1="272.13" y1="137.14" x2="328.48" y2="137.14" xlink:href="#New_Gradient_Swatch_copy_2"/>
  </defs>
  <g id="Layer_1-2" data-name="Layer 1">
    <g>
      <rect class="cls-6" x=".29" y=".25" width="390.02" height="185.21"/>
      <polygon class="cls-19" points="76.98 .25 25.85 .25 .29 44.53 25.85 88.81 76.98 88.81 102.55 44.53 76.98 .25"/>
      <line class="cls-19" x1="102.55" y1="44.53" x2="390.31" y2="44.53"/>
      <line class="cls-19" x1=".29" y1="88.81" x2="390.31" y2="88.81"/>
      <circle class="cls-7" cx="51.42" cy="44.53" r="26.95"/>
      <rect class="cls-19" x="348.63" y=".25" width="41.68" height="185.21"/>
      <g>
        <rect class="cls-19" x="251.98" y="88.81" width="96.65" height="96.65"/>
        <line class="cls-19" x1="348.63" y1="169.35" x2="251.98" y2="169.35"/>
        <line class="cls-19" x1="348.63" y1="153.24" x2="251.98" y2="153.24"/>
        <line class="cls-19" x1="348.63" y1="137.14" x2="251.98" y2="137.14"/>
        <line class="cls-19" x1="348.63" y1="121.03" x2="251.98" y2="121.03"/>
        <line class="cls-19" x1="348.63" y1="104.92" x2="251.98" y2="104.92"/>
        <line class="cls-19" x1="268.09" y1="88.81" x2="268.09" y2="185.46"/>
        <line class="cls-19" x1="284.2" y1="88.81" x2="284.2" y2="185.46"/>
        <line class="cls-19" x1="300.31" y1="88.81" x2="300.31" y2="185.46"/>
        <line class="cls-19" x1="316.41" y1="88.81" x2="316.41" y2="185.46"/>
        <line class="cls-19" x1="332.52" y1="88.81" x2="332.52" y2="185.46"/>
      </g>
      <g>
        <path class="cls-20" d="M53.12,40.62v-2.66h5.25c.68,0,1.23.52,1.23,1.17v10.82c0,.65-.55,1.17-1.23,1.17h-5.25v-2.65l4.68-2.07c.77-.34,1.25-1.06,1.25-1.86s-.48-1.52-1.25-1.86l-4.68-2.05h0Z"/>
        <path class="cls-20" d="M49.72,48.44v2.66h-5.25c-.68,0-1.23-.52-1.23-1.17v-10.82c0-.65.55-1.17,1.23-1.17h5.25v2.65l-4.68,2.07c-.77.34-1.25,1.06-1.25,1.86s.48,1.52,1.25,1.86l4.68,2.05h0Z"/>
        <path class="cls-20" d="M51.42,47.25c1.5,0,2.72-1.22,2.72-2.72s-1.22-2.72-2.72-2.72-2.72,1.22-2.72,2.72,1.22,2.72,2.72,2.72Z"/>
      </g>
      <path class="cls-19" d="M18.59,185.46v-64.08c0-12.61,10.22-22.83,22.83-22.83s22.83,10.22,22.83,22.83v64.08"/>
      <path class="cls-9" d="M48.23,185.46v-64.08c0-12.61,10.22-22.83,22.83-22.83s22.83,10.22,22.83,22.83v64.08"/>
      <path class="cls-19" d="M77.87,185.46v-64.08c0-12.61,10.22-22.83,22.83-22.83s22.83,10.22,22.83,22.83v64.08"/>
      <path class="cls-10" d="M107.51,185.46v-64.08c0-12.61,10.22-22.83,22.83-22.83s22.83,10.22,22.83,22.83v64.08"/>
      <path class="cls-19" d="M137.15,185.46v-64.08c0-12.61,10.22-22.83,22.83-22.83s22.83,10.22,22.83,22.83v64.08"/>
      <path class="cls-8" d="M166.79,185.46v-64.08c0-12.61,10.22-22.83,22.83-22.83s22.83,10.22,22.83,22.83v64.08"/>
      <path class="cls-19" d="M196.43,185.46v-64.08c0-12.61,10.22-22.83,22.83-22.83s22.83,10.22,22.83,22.83v64.08"/>
      <polyline class="cls-4" points="89.75 88.81 126.66 44.53 89.75 .25"/>
      <polyline class="cls-2" points="89.75 88.81 152.15 44.53 89.75 .25"/>
      <polyline class="cls-3" points="89.75 88.81 195.3 44.53 89.75 .25"/>
      <polyline class="cls-5" points="89.75 88.81 252.19 44.53 89.75 .25"/>
      <polyline class="cls-1" points="89.75 88.81 306.07 44.53 89.75 .25"/>
      <polyline class="cls-13" points="89.75 88.81 348.63 44.53 89.75 .25"/>
      <circle class="cls-19" cx="369.47" cy="21.46" r="13.67"/>
      <circle class="cls-12" cx="369.47" cy="66.67" r="13.67"/>
      <line class="cls-19" x1="348.63" y1="93.62" x2="390.31" y2="93.62"/>
      <line class="cls-19" x1="348.63" y1="108.01" x2="390.31" y2="108.01"/>
      <line class="cls-19" x1="348.63" y1="122.39" x2="390.31" y2="122.39"/>
      <line class="cls-19" x1="348.63" y1="142.72" x2="390.31" y2="142.72"/>
      <line class="cls-19" x1="348.63" y1="163.04" x2="390.31" y2="163.04"/>
      <line class="cls-19" x1="348.63" y1="182.35" x2="390.31" y2="182.35"/>
      <circle class="cls-19" cx="355.81" cy="93.62" r="2.09"/>
      <circle class="cls-19" cx="367.89" cy="108.01" r="2.09"/>
      <circle class="cls-19" cx="368.4" cy="142.72" r="2.09"/>
      <circle class="cls-19" cx="381.04" cy="163.04" r="2.09"/>
      <circle class="cls-19" cx="360" cy="182.35" r="2.09"/>
      <circle class="cls-19" cx="383.62" cy="93.62" r="2.09"/>
      <circle class="cls-15" cx="242.1" cy="162.54" r="3.73"/>
      <circle class="cls-18" cx="182.82" cy="148.26" r="3.53"/>
      <circle class="cls-19" cx="123.53" cy="171.18" r="4.91"/>
      <circle class="cls-19" cx="123.53" cy="130.85" r="2.7"/>
      <circle class="cls-16" cx="64.25" cy="151.7" r="4.47"/>
      <circle class="cls-19" cx="64.25" cy="129.84" r="2.94"/>
      <circle class="cls-17" cx="18.59" cy="174.41" r="3.23"/>
      <circle class="cls-19" cx="18.59" cy="138.78" r="3.23"/>
      <line class="cls-19" x1="369.47" y1="21.46" x2="277.07" y2="21.46"/>
      <line class="cls-19" x1="369.47" y1="66.67" x2="277.07" y2="66.67"/>
      <circle class="cls-19" cx="51.42" cy="11.72" r="2.72"/>
      <circle class="cls-19" cx="51.42" cy="77.34" r="2.72"/>
      <circle class="cls-19" cx="74.62" cy="21.33" r="2.72"/>
      <circle class="cls-19" cx="28.22" cy="67.73" r="2.72"/>
      <circle class="cls-19" cx="84.23" cy="44.53" r="2.72"/>
      <circle class="cls-19" cx="18.61" cy="44.53" r="2.72"/>
      <circle class="cls-19" cx="74.62" cy="67.73" r="2.72"/>
      <circle class="cls-19" cx="28.22" cy="21.33" r="2.72"/>
      <circle class="cls-19" cx="277.07" cy="21.46" r="1.97"/>
      <circle class="cls-19" cx="277.07" cy="66.67" r="1.97"/>
      <polygon class="cls-14" points="322.39 98.89 278.22 98.89 256.14 137.14 278.22 175.38 322.39 175.38 344.47 137.14 322.39 98.89"/>
      <circle class="cls-19" cx="300.31" cy="137.14" r="8.83"/>
      <circle class="cls-11" cx="300.31" cy="137.14" r="27.92"/>
    </g>
  </g>
</svg>