<?xml version="1.0" encoding="UTF-8"?>
<svg id="Layer_2" data-name="Layer 2" xmlns="http://www.w3.org/2000/svg" xmlns:xlink="http://www.w3.org/1999/xlink" viewBox="0 0 390.02 200">
  <defs>
    <style>
      .cls-1 {
        stroke: url(#New_Gradient_Swatch_copy-2);
      }

      .cls-1, .cls-2, .cls-3, .cls-4, .cls-5, .cls-6, .cls-7, .cls-8, .cls-9, .cls-10, .cls-11, .cls-12, .cls-13, .cls-14, .cls-15, .cls-16, .cls-17, .cls-18, .cls-19, .cls-20, .cls-21, .cls-22, .cls-23, .cls-24, .cls-25, .cls-26, .cls-27, .cls-28, .cls-29, .cls-30 {
        stroke-miterlimit: 10;
        stroke-width: .49px;
      }

      .cls-1, .cls-2, .cls-3, .cls-4, .cls-5, .cls-6, .cls-7, .cls-8, .cls-10, .cls-15, .cls-16, .cls-17, .cls-18, .cls-19, .cls-20, .cls-21, .cls-22, .cls-23, .cls-24, .cls-25, .cls-26, .cls-27, .cls-28 {
        fill: none;
      }

      .cls-2 {
        stroke: url(#New_Gradient_Swatch_copy-3);
      }

      .cls-3 {
        stroke: url(#New_Gradient_Swatch_copy-8);
      }

      .cls-4 {
        stroke: url(#New_Gradient_Swatch_copy-6);
      }

      .cls-5 {
        stroke: url(#New_Gradient_Swatch_copy-7);
      }

      .cls-6 {
        stroke: url(#New_Gradient_Swatch_copy-9);
      }

      .cls-7 {
        stroke: url(#New_Gradient_Swatch_copy-5);
      }

      .cls-8 {
        stroke: url(#New_Gradient_Swatch_copy-4);
      }

      .cls-9 {
        fill: #666;
        stroke: #666;
      }

      .cls-10, .cls-29 {
        stroke: #999;
      }

      .cls-11, .cls-12, .cls-13 {
        fill: #333;
      }

      .cls-11, .cls-15 {
        stroke: #333;
      }

      .cls-12 {
        stroke: url(#New_Gradient_Swatch_copy-19);
      }

      .cls-13 {
        stroke: url(#New_Gradient_Swatch_copy-17);
      }

      .cls-31 {
        fill: rgba(249, 249, 249, .64);
      }

      .cls-31, .cls-32 {
        stroke-width: 0px;
      }

      .cls-14 {
        stroke: #4d4d4d;
      }

      .cls-14, .cls-30 {
        fill: #4d4d4d;
      }

      .cls-16 {
        stroke: url(#New_Gradient_Swatch_copy);
      }

      .cls-17 {
        stroke: #000;
      }

      .cls-32 {
        fill: #242023;
      }

      .cls-18 {
        stroke: #b3b3b3;
      }

      .cls-19 {
        stroke: url(#New_Gradient_Swatch_copy-15);
      }

      .cls-20 {
        stroke: url(#New_Gradient_Swatch_copy-10);
      }

      .cls-21 {
        stroke: url(#New_Gradient_Swatch_copy-14);
      }

      .cls-22 {
        stroke: url(#New_Gradient_Swatch_copy-11);
      }

      .cls-23 {
        stroke: url(#New_Gradient_Swatch_copy-21);
      }

      .cls-24 {
        stroke: url(#New_Gradient_Swatch_copy-22);
      }

      .cls-25 {
        stroke: url(#New_Gradient_Swatch_copy-20);
      }

      .cls-26 {
        stroke: url(#New_Gradient_Swatch_copy-18);
      }

      .cls-27 {
        stroke: url(#New_Gradient_Swatch_copy-12);
      }

      .cls-28 {
        stroke: url(#New_Gradient_Swatch_copy-13);
      }

      .cls-29 {
        fill: #999;
      }

      .cls-30 {
        stroke: url(#New_Gradient_Swatch_copy-16);
      }
    </style>
    <linearGradient id="New_Gradient_Swatch_copy" data-name="New Gradient Swatch copy" x1="254.74" y1="100" x2="302.57" y2="100" gradientUnits="userSpaceOnUse">
      <stop offset="0" stop-color="#151515"/>
      <stop offset=".65" stop-color="#f3e569"/>
      <stop offset=".8" stop-color="#f9f9f9"/>
      <stop offset=".95" stop-color="#151515"/>
    </linearGradient>
    <linearGradient id="New_Gradient_Swatch_copy-2" data-name="New Gradient Swatch copy" x1="203" y1="100" x2="298.36" y2="100" xlink:href="#New_Gradient_Swatch_copy"/>
    <linearGradient id="New_Gradient_Swatch_copy-3" data-name="New Gradient Swatch copy" x1="62.45" y1="162.24" x2="215.91" y2="162.24" xlink:href="#New_Gradient_Swatch_copy"/>
    <linearGradient id="New_Gradient_Swatch_copy-4" data-name="New Gradient Swatch copy" x1="62.45" y1="37.76" x2="215.91" y2="37.76" xlink:href="#New_Gradient_Swatch_copy"/>
    <linearGradient id="New_Gradient_Swatch_copy-5" data-name="New Gradient Swatch copy" x1="291.92" y1="186.66" x2="291.92" y2="165.83" xlink:href="#New_Gradient_Swatch_copy"/>
    <linearGradient id="New_Gradient_Swatch_copy-6" data-name="New Gradient Swatch copy" x1="291.92" y1="183.64" x2="291.92" y2="168.86" xlink:href="#New_Gradient_Swatch_copy"/>
    <linearGradient id="New_Gradient_Swatch_copy-7" data-name="New Gradient Swatch copy" x1="308.58" y1="62.18" x2="308.58" y2="13.34" xlink:href="#New_Gradient_Swatch_copy"/>
    <linearGradient id="New_Gradient_Swatch_copy-8" data-name="New Gradient Swatch copy" x1="319.18" y1="155.46" x2="319.18" y2="13.34" xlink:href="#New_Gradient_Swatch_copy"/>
    <linearGradient id="New_Gradient_Swatch_copy-9" data-name="New Gradient Swatch copy" x1="338.67" y1="62.18" x2="338.67" y2="13.34" xlink:href="#New_Gradient_Swatch_copy"/>
    <linearGradient id="New_Gradient_Swatch_copy-10" data-name="New Gradient Swatch copy" x1="86.43" y1="179.92" x2="86.43" y2="147.89" xlink:href="#New_Gradient_Swatch_copy"/>
    <linearGradient id="New_Gradient_Swatch_copy-11" data-name="New Gradient Swatch copy" x1="1211.07" y1="179.92" x2="1211.07" y2="147.89" gradientTransform="translate(-914.9 327.81) scale(.8 -1)" xlink:href="#New_Gradient_Swatch_copy"/>
    <linearGradient id="New_Gradient_Swatch_copy-12" data-name="New Gradient Swatch copy" x1="1197" y1="179.92" x2="1197" y2="147.89" gradientTransform="translate(-892.49 327.81) scale(.8 -1)" xlink:href="#New_Gradient_Swatch_copy"/>
    <linearGradient id="New_Gradient_Swatch_copy-13" data-name="New Gradient Swatch copy" x1="86.43" y1="176.89" x2="86.43" y2="150.92" gradientTransform="translate(-77.48 250.34) rotate(-90)" xlink:href="#New_Gradient_Swatch_copy"/>
    <linearGradient id="New_Gradient_Swatch_copy-14" data-name="New Gradient Swatch copy" x1="86.43" y1="52.11" x2="86.43" y2="20.08" xlink:href="#New_Gradient_Swatch_copy"/>
    <linearGradient id="New_Gradient_Swatch_copy-15" data-name="New Gradient Swatch copy" x1="55.66" y1="52.11" x2="55.66" y2="20.08" xlink:href="#New_Gradient_Swatch_copy"/>
    <linearGradient id="New_Gradient_Swatch_copy-16" data-name="New Gradient Swatch copy" x1="202.76" y1="106" x2="215.25" y2="106" xlink:href="#New_Gradient_Swatch_copy"/>
    <linearGradient id="New_Gradient_Swatch_copy-17" data-name="New Gradient Swatch copy" x1="221.11" y1="106" x2="259.83" y2="106" xlink:href="#New_Gradient_Swatch_copy"/>
    <linearGradient id="New_Gradient_Swatch_copy-18" data-name="New Gradient Swatch copy" x1="229.33" y1="83.53" x2="253.52" y2="83.53" xlink:href="#New_Gradient_Swatch_copy"/>
    <linearGradient id="New_Gradient_Swatch_copy-19" data-name="New Gradient Swatch copy" x1="202.76" y1="121.6" x2="259.83" y2="121.6" xlink:href="#New_Gradient_Swatch_copy"/>
    <linearGradient id="New_Gradient_Swatch_copy-20" data-name="New Gradient Swatch copy" x1="267.91" y1="126.96" x2="267.91" y2="73.04" xlink:href="#New_Gradient_Swatch_copy"/>
    <linearGradient id="New_Gradient_Swatch_copy-21" data-name="New Gradient Swatch copy" x1="122.5" y1="150.98" x2="189.72" y2="150.98" xlink:href="#New_Gradient_Swatch_copy"/>
    <linearGradient id="New_Gradient_Swatch_copy-22" data-name="New Gradient Swatch copy" x1="196.16" y1="177.79" x2="196.16" y2="143.41" xlink:href="#New_Gradient_Swatch_copy"/>
  </defs>
  <g id="Layer_1-2" data-name="Layer 1">
    <g>
      <rect class="cls-32" width="390.02" height="200"/>
      <g>
        <g>
          <path class="cls-10" d="M224.57,13.58c47.73,0,86.42,38.69,86.42,86.42s-38.69,86.42-86.42,86.42"/>
          <path class="cls-16" d="M254.74,52.41c26.28,0,47.59,21.31,47.59,47.59s-21.31,47.59-47.59,47.59"/>
          <path class="cls-1" d="M203,87.99h15.75c3.21,0,5.82-2.6,5.82-5.82v-13.13c0-3.21,2.6-5.82,5.82-5.82h30.68c20.3,0,37.12,16.61,37.05,36.9-.07,20.24-16.51,36.63-36.77,36.63h-46.94"/>
          <g>
            <path class="cls-2" d="M215.91,186.42c-43.41,0-91.52-48.36-153.46-48.36"/>
            <path class="cls-8" d="M215.91,13.58c-43.41,0-91.52,48.36-153.46,48.36"/>
          </g>
          <g>
            <line class="cls-18" x1="40.47" y1="124.01" x2="189.47" y2="124.01"/>
            <line class="cls-18" x1="40.47" y1="112.01" x2="189.47" y2="112.01"/>
            <line class="cls-18" x1="40.47" y1="100" x2="189.47" y2="100"/>
            <line class="cls-18" x1="40.47" y1="87.99" x2="189.47" y2="87.99"/>
            <line class="cls-18" x1="40.47" y1="75.99" x2="189.47" y2="75.99"/>
          </g>
          <circle class="cls-15" cx="239.65" cy="34.6" r="15.09"/>
          <circle class="cls-15" cx="239.65" cy="164.59" r="15.09"/>
          <path class="cls-10" d="M239.65,164.59h-22.73c-6.32,0-11.44-5.12-11.44-11.44v-10.02c0-6.32-5.12-11.44-11.44-11.44H40.47"/>
          <path class="cls-10" d="M239.65,34.16h-22.73c-6.32,0-11.44,5.12-11.44,11.44v10.02c0,6.32-5.12,11.44-11.44,11.44H40.47"/>
          <g>
            <circle class="cls-14" cx="274.32" cy="181.77" r="4.65"/>
            <path class="cls-9" d="M274.32,183.39c-.9,0-1.62-.73-1.62-1.62s.73-1.62,1.62-1.62,1.62.73,1.62,1.62-.73,1.62-1.62,1.62Z"/>
            <circle class="cls-7" cx="291.92" cy="176.25" r="10.17"/>
            <path class="cls-4" d="M291.92,183.39c-3.94,0-7.15-3.21-7.15-7.15s3.21-7.15,7.15-7.15,7.15,3.21,7.15,7.15-3.21,7.15-7.15,7.15Z"/>
            <rect class="cls-11" x="306.18" y="138.06" width="4.8" height="48.36" rx="2.4" ry="2.4"/>
          </g>
          <g>
            <circle class="cls-10" cx="274.32" cy="18.23" r="4.65"/>
            <path class="cls-10" d="M274.32,19.85c-.9,0-1.62-.73-1.62-1.62s.73-1.62,1.62-1.62,1.62.73,1.62,1.62-.73,1.62-1.62,1.62Z"/>
            <circle class="cls-10" cx="291.92" cy="23.75" r="10.17"/>
            <path class="cls-14" d="M291.92,30.9c-3.94,0-7.15-3.21-7.15-7.15s3.21-7.15,7.15-7.15,7.15,3.21,7.15,7.15-3.21,7.15-7.15,7.15Z"/>
            <rect class="cls-5" x="306.18" y="13.58" width="4.8" height="48.36" rx="2.4" ry="2.4"/>
            <rect class="cls-3" x="316.78" y="13.58" width="4.8" height="141.63" rx="2.4" ry="2.4"/>
            <rect class="cls-6" x="327.38" y="13.58" width="22.59" height="48.36" rx="5.21" ry="5.21"/>
            <rect class="cls-10" x="316.78" y="160.6" width="4.8" height="25.82"/>
            <rect class="cls-10" x="327.38" y="65.15" width="22.59" height="121.27"/>
            <rect class="cls-10" x="349.97" y="65.15" width="33.31" height="121.27" transform="translate(733.24 251.57) rotate(180)"/>
            <rect class="cls-10" x="366.62" y="65.15" width="16.65" height="121.27" transform="translate(749.89 251.57) rotate(180)"/>
            <circle class="cls-10" cx="368.42" cy="28.43" r="14.85"/>
            <circle class="cls-10" cx="356.87" cy="53.92" r="3.31"/>
            <circle class="cls-10" cx="368.42" cy="53.92" r="3.31"/>
            <circle class="cls-10" cx="379.97" cy="53.92" r="3.31"/>
          </g>
          <g>
            <polyline class="cls-10" points="40.47 148.14 40.47 186.42 182.19 186.42"/>
            <rect class="cls-20" x="70.66" y="148.14" width="31.54" height="31.54" rx="6.16" ry="6.16"/>
            <rect class="cls-22" x="45.54" y="148.14" width="8.68" height="31.54" rx="3.23" ry="3.23" transform="translate(99.75 327.81) rotate(180)"/>
            <rect class="cls-27" x="58.11" y="148.14" width="5.94" height="31.54" rx="2.67" ry="2.67" transform="translate(122.16 327.81) rotate(180)"/>
            <rect class="cls-28" x="73.69" y="151.16" width="25.49" height="25.49" rx="3.13" ry="3.13" transform="translate(250.34 77.48) rotate(90)"/>
            <rect class="cls-29" x="112.32" y="166.07" width="32.44" height="13.6" rx="2.92" ry="2.92"/>
            <g>
              <line class="cls-17" x1="116.94" y1="169.1" x2="116.94" y2="176.65"/>
              <line class="cls-17" x1="119.84" y1="169.1" x2="119.84" y2="176.65"/>
              <line class="cls-17" x1="122.74" y1="169.1" x2="122.74" y2="176.65"/>
              <line class="cls-17" x1="125.64" y1="169.1" x2="125.64" y2="176.65"/>
              <line class="cls-17" x1="128.54" y1="169.1" x2="128.54" y2="176.65"/>
              <line class="cls-17" x1="131.43" y1="169.1" x2="131.43" y2="176.65"/>
              <line class="cls-17" x1="134.33" y1="169.1" x2="134.33" y2="176.65"/>
              <line class="cls-17" x1="137.23" y1="169.1" x2="137.23" y2="176.65"/>
              <line class="cls-17" x1="140.13" y1="169.1" x2="140.13" y2="176.65"/>
            </g>
          </g>
          <g>
            <polyline class="cls-10" points="40.47 51.86 40.47 13.58 182.19 13.58"/>
            <rect class="cls-21" x="70.66" y="20.32" width="31.54" height="31.54" rx="6.16" ry="6.16"/>
            <rect class="cls-19" x="45.54" y="20.32" width="20.24" height="31.54" rx="4.93" ry="4.93"/>
            <rect class="cls-11" x="73.69" y="23.35" width="25.49" height="25.49" rx="3.13" ry="3.13" transform="translate(122.52 -50.34) rotate(90)"/>
            <rect class="cls-29" x="112.32" y="20.32" width="32.44" height="13.6" rx="2.92" ry="2.92"/>
            <g>
              <path class="cls-31" d="M87.54,33.54v-1.74h3.43c.44,0,.8.34.8.76v7.06c0,.42-.36.76-.8.76h-3.43v-1.73l3.05-1.35c.5-.22.82-.69.82-1.22s-.31-.99-.82-1.22l-3.06-1.34h0Z"/>
              <path class="cls-31" d="M85.32,38.65v1.74h-3.43c-.45,0-.8-.34-.8-.76v-7.06c0-.42.36-.76.8-.76h3.43v1.73l-3.06,1.35c-.5.22-.82.69-.82,1.22s.31.99.82,1.22l3.06,1.34h0Z"/>
              <path class="cls-31" d="M86.43,37.87c.98,0,1.78-.79,1.78-1.78s-.8-1.78-1.78-1.78-1.78.79-1.78,1.78.79,1.78,1.78,1.78Z"/>
            </g>
          </g>
          <path class="cls-10" d="M195.88,52.41v-11.22c0-3.89-3.15-7.04-7.04-7.04h-14.31"/>
          <rect class="cls-30" x="203" y="100" width="12.01" height="12.01" rx=".91" ry=".91"/>
          <rect class="cls-13" x="221.36" y="100" width="38.23" height="12.01" rx="1.62" ry="1.62"/>
          <rect class="cls-26" x="229.57" y="72.55" width="23.71" height="21.97" rx="1.44" ry="1.44"/>
          <rect class="cls-12" x="203" y="119.18" width="56.58" height="4.84" rx=".76" ry=".76"/>
          <rect class="cls-25" x="264.17" y="73.29" width="7.5" height="53.43" rx="1.51" ry="1.51"/>
          <rect class="cls-10" x="275.95" y="85.32" width="10.91" height="10.91" rx=".76" ry=".76"/>
          <rect class="cls-10" x="275.95" y="107.03" width="5.8" height="5.8" rx=".76" ry=".76"/>
          <rect class="cls-29" x="275.95" y="100" width="14.84" height="2.89" rx=".76" ry=".76"/>
          <line class="cls-10" x1="310.99" y1="135.18" x2="310.99" y2="123.11"/>
          <line class="cls-10" x1="310.99" y1="77.21" x2="310.99" y2="65.15"/>
          <path class="cls-23" d="M126.07,138.06h60.06c1.84,0,3.33,1.49,3.33,3.33v17.25c0,2.9-2.35,5.26-5.26,5.26h-7.39c-1.51,0-3.01-.28-4.42-.83l-47.54-18.57c-1.28-.5-2.12-1.73-2.12-3.11h0c0-1.84,1.49-3.33,3.33-3.33Z"/>
          <rect class="cls-24" x="193.42" y="143.65" width="5.48" height="33.89" rx="2.74" ry="2.74"/>
          <circle class="cls-18" cx="193.57" cy="57.77" r="2.32"/>
          <circle class="cls-18" cx="185.21" cy="57.77" r="2.32"/>
          <circle class="cls-18" cx="176.85" cy="57.77" r="2.32"/>
        </g>
        <rect class="cls-10" x="7.15" y="13.58" width="28.38" height="172.84"/>
        <g>
          <rect class="cls-10" x="13.87" y="19.66" width="14.95" height="14.95" rx="3.82" ry="3.82"/>
          <rect class="cls-10" x="13.87" y="37.88" width="14.95" height="14.95" rx="3.82" ry="3.82"/>
          <rect class="cls-10" x="13.87" y="56.09" width="14.95" height="14.95" rx="3.82" ry="3.82"/>
          <rect class="cls-10" x="13.87" y="74.31" width="14.95" height="14.95" rx="3.82" ry="3.82"/>
          <rect class="cls-10" x="13.87" y="92.53" width="14.95" height="14.95" rx="3.82" ry="3.82"/>
          <rect class="cls-10" x="13.87" y="110.74" width="14.95" height="14.95" rx="3.82" ry="3.82"/>
          <rect class="cls-10" x="13.87" y="128.96" width="14.95" height="14.95" rx="3.82" ry="3.82"/>
          <rect class="cls-10" x="13.87" y="147.18" width="14.95" height="14.95" rx="3.82" ry="3.82"/>
          <rect class="cls-10" x="13.87" y="165.4" width="14.95" height="14.95" rx="3.82" ry="3.82"/>
        </g>
      </g>
    </g>
  </g>
</svg>