<?xml version="1.0" encoding="UTF-8"?>
<svg id="Layer_2" data-name="Layer 2" xmlns="http://www.w3.org/2000/svg" xmlns:xlink="http://www.w3.org/1999/xlink" viewBox="0 0 390.52 185.71">
  <defs>
    <style>
      .cls-1, .cls-2, .cls-3, .cls-4, .cls-5, .cls-6, .cls-7, .cls-8, .cls-9, .cls-10, .cls-11, .cls-12, .cls-13, .cls-14, .cls-15, .cls-16, .cls-17, .cls-18, .cls-19, .cls-20, .cls-21, .cls-22, .cls-23, .cls-24, .cls-25, .cls-26, .cls-27, .cls-28, .cls-29, .cls-30, .cls-31, .cls-32, .cls-33, .cls-34, .cls-35, .cls-36, .cls-37 {
        stroke-width: .5px;
      }

      .cls-1, .cls-2, .cls-3, .cls-4, .cls-5, .cls-6, .cls-7, .cls-8, .cls-9, .cls-10, .cls-11, .cls-13, .cls-14, .cls-15, .cls-16, .cls-17, .cls-18, .cls-19, .cls-20, .cls-21, .cls-22, .cls-23, .cls-24, .cls-25, .cls-26, .cls-27, .cls-28, .cls-29, .cls-30, .cls-31, .cls-32, .cls-33, .cls-34, .cls-35, .cls-36, .cls-37 {
        fill: none;
      }

      .cls-1, .cls-7, .cls-8, .cls-9, .cls-10, .cls-11, .cls-14, .cls-15, .cls-33, .cls-34, .cls-36, .cls-37 {
        stroke-linecap: round;
        stroke-linejoin: round;
      }

      .cls-1, .cls-36 {
        stroke: #333;
      }

      .cls-2 {
        stroke: url(#New_Gradient_Swatch_copy_2-9);
      }

      .cls-2, .cls-3, .cls-4, .cls-5, .cls-6, .cls-12, .cls-13, .cls-16, .cls-17, .cls-18, .cls-19, .cls-20, .cls-21, .cls-22, .cls-23, .cls-24, .cls-25, .cls-26, .cls-27, .cls-28, .cls-29, .cls-30, .cls-31, .cls-32, .cls-35 {
        stroke-miterlimit: 10;
      }

      .cls-3 {
        stroke: url(#New_Gradient_Swatch_copy_2-4);
      }

      .cls-4 {
        stroke: url(#New_Gradient_Swatch_copy_2-8);
      }

      .cls-5 {
        stroke: url(#New_Gradient_Swatch_copy_2-3);
      }

      .cls-6 {
        stroke: url(#New_Gradient_Swatch_copy_2-2);
      }

      .cls-7, .cls-12 {
        stroke: #4d4d4d;
      }

      .cls-8 {
        stroke: url(#New_Gradient_Swatch);
      }

      .cls-8, .cls-14, .cls-15, .cls-36 {
        stroke-dasharray: 0 0 0 1.87;
      }

      .cls-9 {
        stroke: gray;
      }

      .cls-10 {
        stroke: #ccc;
      }

      .cls-11 {
        stroke: #999;
      }

      .cls-38 {
        fill: rgba(249, 249, 249, .64);
        stroke-width: 0px;
      }

      .cls-12 {
        fill: #242023;
      }

      .cls-13 {
        stroke: url(#New_Gradient_Swatch_copy_2);
      }

      .cls-14 {
        stroke: url(#New_Gradient_Swatch_copy_2-5);
      }

      .cls-15 {
        stroke: url(#New_Gradient_Swatch_copy_2-6);
      }

      .cls-16 {
        stroke: url(#New_Gradient_Swatch_copy_2-20);
      }

      .cls-17 {
        stroke: url(#New_Gradient_Swatch_copy_2-26);
      }

      .cls-18 {
        stroke: url(#New_Gradient_Swatch_copy_2-24);
      }

      .cls-19 {
        stroke: url(#New_Gradient_Swatch_copy_2-25);
      }

      .cls-20 {
        stroke: url(#New_Gradient_Swatch_copy_2-23);
      }

      .cls-21 {
        stroke: url(#New_Gradient_Swatch_copy_2-21);
      }

      .cls-22 {
        stroke: url(#New_Gradient_Swatch_copy_2-22);
      }

      .cls-23 {
        stroke: url(#New_Gradient_Swatch_copy_2-18);
      }

      .cls-24 {
        stroke: url(#New_Gradient_Swatch_copy_2-17);
      }

      .cls-25 {
        stroke: url(#New_Gradient_Swatch_copy_2-11);
      }

      .cls-26 {
        stroke: url(#New_Gradient_Swatch_copy_2-10);
      }

      .cls-27 {
        stroke: url(#New_Gradient_Swatch_copy_2-16);
      }

      .cls-28 {
        stroke: url(#New_Gradient_Swatch_copy_2-19);
      }

      .cls-29 {
        stroke: url(#New_Gradient_Swatch_copy_2-12);
      }

      .cls-30 {
        stroke: url(#New_Gradient_Swatch_copy_2-14);
      }

      .cls-31 {
        stroke: url(#New_Gradient_Swatch_copy_2-15);
      }

      .cls-32 {
        stroke: url(#New_Gradient_Swatch_copy_2-13);
      }

      .cls-33, .cls-35 {
        stroke: #666;
      }

      .cls-34 {
        stroke: #b3b3b3;
      }

      .cls-37 {
        stroke: url(#New_Gradient_Swatch_copy_2-7);
        stroke-dasharray: 0 0 0 1.87;
      }
    </style>
    <linearGradient id="New_Gradient_Swatch_copy_2" data-name="New Gradient Swatch copy 2" x1="158.52" y1="59.12" x2="193.67" y2="59.12" gradientUnits="userSpaceOnUse">
      <stop offset="0" stop-color="#191919"/>
      <stop offset=".65" stop-color="#ff8b8b"/>
      <stop offset=".8" stop-color="#f9f9f9"/>
      <stop offset=".95" stop-color="#1e1e1e"/>
    </linearGradient>
    <linearGradient id="New_Gradient_Swatch_copy_2-2" data-name="New Gradient Swatch copy 2" x1="149.94" y1="103.5" x2="160.94" y2="103.5" xlink:href="#New_Gradient_Swatch_copy_2"/>
    <linearGradient id="New_Gradient_Swatch_copy_2-3" data-name="New Gradient Swatch copy 2" x1="106.64" y1="92.86" x2="284.84" y2="92.86" xlink:href="#New_Gradient_Swatch_copy_2"/>
    <linearGradient id="New_Gradient_Swatch_copy_2-4" data-name="New Gradient Swatch copy 2" x1="124.03" y1="92.86" x2="267.45" y2="92.86" xlink:href="#New_Gradient_Swatch_copy_2"/>
    <linearGradient id="New_Gradient_Swatch_copy_2-5" data-name="New Gradient Swatch copy 2" x1="195.74" y1="149.24" x2="195.74" y2="36.47" xlink:href="#New_Gradient_Swatch_copy_2"/>
    <linearGradient id="New_Gradient_Swatch_copy_2-6" data-name="New Gradient Swatch copy 2" x1="195.74" y1="145.95" x2="195.74" y2="39.76" xlink:href="#New_Gradient_Swatch_copy_2"/>
    <linearGradient id="New_Gradient_Swatch" data-name="New Gradient Swatch" x1="176.84" y1="92.86" x2="214.63" y2="92.86" gradientUnits="userSpaceOnUse">
      <stop offset="0" stop-color="#151515"/>
      <stop offset=".65" stop-color="#389181"/>
      <stop offset=".8" stop-color="#f9f9f9"/>
      <stop offset=".95" stop-color="#151515"/>
    </linearGradient>
    <linearGradient id="New_Gradient_Swatch_copy_2-7" data-name="New Gradient Swatch copy 2" x1="121.26" y1="92.86" x2="270.21" y2="92.86" gradientTransform="translate(249.9 -116.91) rotate(79.1)" xlink:href="#New_Gradient_Swatch_copy_2"/>
    <linearGradient id="New_Gradient_Swatch_copy_2-8" data-name="New Gradient Swatch copy 2" x1="174.06" y1="92.86" x2="217.42" y2="92.86" xlink:href="#New_Gradient_Swatch_copy_2"/>
    <linearGradient id="New_Gradient_Swatch_copy_2-9" data-name="New Gradient Swatch copy 2" x1="182.38" y1="92.86" x2="209.1" y2="92.86" xlink:href="#New_Gradient_Swatch_copy_2"/>
    <linearGradient id="New_Gradient_Swatch_copy_2-10" data-name="New Gradient Swatch copy 2" x1="185.39" y1="120.97" x2="199.9" y2="120.97" xlink:href="#New_Gradient_Swatch_copy_2"/>
    <linearGradient id="New_Gradient_Swatch_copy_2-11" data-name="New Gradient Swatch copy 2" x1="200.41" y1="79.32" x2="228.36" y2="79.32" xlink:href="#New_Gradient_Swatch_copy_2"/>
    <linearGradient id="New_Gradient_Swatch_copy_2-12" data-name="New Gradient Swatch copy 2" x1="195.74" y1="179.03" x2="195.74" y2="6.68" xlink:href="#New_Gradient_Swatch_copy_2"/>
    <linearGradient id="New_Gradient_Swatch_copy_2-13" data-name="New Gradient Swatch copy 2" x1="195.74" y1="173.47" x2="195.74" y2="12.24" xlink:href="#New_Gradient_Swatch_copy_2"/>
    <linearGradient id="New_Gradient_Swatch_copy_2-14" data-name="New Gradient Swatch copy 2" x1="314.46" y1="181.7" x2="314.46" y2="4.01" xlink:href="#New_Gradient_Swatch_copy_2"/>
    <linearGradient id="New_Gradient_Swatch_copy_2-15" data-name="New Gradient Swatch copy 2" x1="319.48" y1="181.7" x2="319.48" y2="4.01" xlink:href="#New_Gradient_Swatch_copy_2"/>
    <linearGradient id="New_Gradient_Swatch_copy_2-16" data-name="New Gradient Swatch copy 2" x1="323.42" y1="181.7" x2="323.42" y2="4.01" xlink:href="#New_Gradient_Swatch_copy_2"/>
    <linearGradient id="New_Gradient_Swatch_copy_2-17" data-name="New Gradient Swatch copy 2" x1="327.33" y1="181.7" x2="327.33" y2="4.01" xlink:href="#New_Gradient_Swatch_copy_2"/>
    <linearGradient id="New_Gradient_Swatch_copy_2-18" data-name="New Gradient Swatch copy 2" x1="307.67" y1="181.7" x2="307.67" y2="4.01" xlink:href="#New_Gradient_Swatch_copy_2"/>
    <linearGradient id="New_Gradient_Swatch_copy_2-19" data-name="New Gradient Swatch copy 2" x1="296.45" y1="181.7" x2="296.45" y2="4.01" xlink:href="#New_Gradient_Swatch_copy_2"/>
    <linearGradient id="New_Gradient_Swatch_copy_2-20" data-name="New Gradient Swatch copy 2" x1="280.67" y1="56.38" x2="280.67" y2="4.01" xlink:href="#New_Gradient_Swatch_copy_2"/>
    <linearGradient id="New_Gradient_Swatch_copy_2-21" data-name="New Gradient Swatch copy 2" x1="280.67" y1="181.7" x2="280.67" y2="129.33" xlink:href="#New_Gradient_Swatch_copy_2"/>
    <linearGradient id="New_Gradient_Swatch_copy_2-22" data-name="New Gradient Swatch copy 2" x1="261.65" y1="28.09" x2="261.65" y2="4.01" xlink:href="#New_Gradient_Swatch_copy_2"/>
    <linearGradient id="New_Gradient_Swatch_copy_2-23" data-name="New Gradient Swatch copy 2" x1="261.65" y1="181.7" x2="261.65" y2="157.62" xlink:href="#New_Gradient_Swatch_copy_2"/>
    <linearGradient id="New_Gradient_Swatch_copy_2-24" data-name="New Gradient Swatch copy 2" x1="233.72" y1="8.58" x2="233.72" y2="4.01" xlink:href="#New_Gradient_Swatch_copy_2"/>
    <linearGradient id="New_Gradient_Swatch_copy_2-25" data-name="New Gradient Swatch copy 2" x1="233.72" y1="181.7" x2="233.72" y2="177.13" xlink:href="#New_Gradient_Swatch_copy_2"/>
    <linearGradient id="New_Gradient_Swatch_copy_2-26" data-name="New Gradient Swatch copy 2" x1="290.09" y1="106.77" x2="290.09" y2="78.94" xlink:href="#New_Gradient_Swatch_copy_2"/>
  </defs>
  <g id="Layer_1-2" data-name="Layer 1">
    <g>
      <rect class="cls-12" x=".25" y=".25" width="390.02" height="185.21"/>
      <g>
        <g>
          <path class="cls-1" d="M145.46,53.5c11.27-14.38,28.58-23.8,48.11-24.45"/>
          <path class="cls-9" d="M132.24,86.14c.78-7.42,2.82-14.46,5.92-20.9"/>
          <path class="cls-7" d="M136.56,116.85c-2.51-6.18-4.08-12.85-4.53-19.81"/>
          <path class="cls-35" d="M166.25,153.39c-.61,0-1.22-.14-1.8-.44-11.35-5.92-20.77-14.89-27.23-25.95-1.08-1.85-.46-4.24,1.39-5.32,1.85-1.08,4.24-.46,5.32,1.39,5.73,9.79,14.06,17.74,24.11,22.98,1.9.99,2.64,3.34,1.65,5.25-.69,1.33-2.05,2.09-3.45,2.09Z"/>
          <path class="cls-33" d="M186.27,156c-3.97-.59-7.83-1.55-11.52-2.83"/>
          <path class="cls-1" d="M247.26,130.57c-11.62,15.84-30.37,26.13-51.52,26.13"/>
          <path class="cls-35" d="M251.87,127.18c-.63,0-1.26-.15-1.85-.47-1.89-1.03-2.59-3.39-1.56-5.27,4.73-8.71,7.23-18.59,7.23-28.58,0-2.15,1.74-3.89,3.89-3.89s3.89,1.74,3.89,3.89c0,11.28-2.83,22.44-8.18,32.29-.7,1.3-2.04,2.03-3.42,2.03Z"/>
          <path class="cls-33" d="M242.94,49.87c8.23,9.04,13.91,20.44,15.88,33.08"/>
          <path class="cls-1" d="M204.04,29.55c12.18,1.58,23.28,6.6,32.3,14.04"/>
          <path class="cls-13" d="M162.66,70.84c-.84,0-1.68-.27-2.4-.83-1.69-1.33-1.99-3.77-.66-5.46,7.29-9.3,17.72-15.38,29.35-17.11,2.12-.32,4.1,1.15,4.42,3.27.32,2.12-1.15,4.1-3.27,4.42-9.66,1.44-18.32,6.48-24.38,14.22-.77.98-1.91,1.49-3.06,1.49Z"/>
          <path class="cls-10" d="M153.96,88.44c.51-4.88,1.86-9.52,3.9-13.76"/>
          <path class="cls-6" d="M156.8,112.55c-1.54,0-2.99-.92-3.6-2.43-1.47-3.61-2.47-7.41-2.97-11.29-.28-2.13,1.23-4.08,3.36-4.36,2.13-.28,4.08,1.23,4.36,3.36.42,3.22,1.25,6.37,2.46,9.37.81,1.99-.15,4.26-2.14,5.07-.48.19-.97.29-1.46.29Z"/>
          <path class="cls-33" d="M173.62,128.6c-4.92-3.06-9.16-7.1-12.45-11.85"/>
          <path class="cls-10" d="M186.35,133.84c-1.5-.34-2.97-.77-4.4-1.27"/>
          <path class="cls-34" d="M225.96,122.1c-7.64,7.89-18.35,12.79-30.2,12.79"/>
          <path class="cls-11" d="M237.8,92.86c0,7.25-1.84,14.08-5.07,20.04"/>
          <path class="cls-1" d="M222.5,60.43c5.35,4.41,9.59,10.13,12.23,16.65"/>
          <path class="cls-33" d="M201.23,51.18c3.82.5,7.48,1.51,10.91,2.96"/>
          <circle class="cls-5" cx="195.74" cy="92.86" r="88.85"/>
          <circle class="cls-35" cx="195.74" cy="92.86" r="71.46"/>
          <circle class="cls-3" cx="195.74" cy="92.86" r="71.46"/>
          <circle class="cls-35" cx="195.74" cy="92.86" r="76.89"/>
          <circle class="cls-35" cx="195.74" cy="92.86" r="58.16"/>
          <circle class="cls-14" cx="195.74" cy="92.86" r="56.14"/>
          <circle class="cls-15" cx="195.74" cy="92.86" r="52.84"/>
          <circle class="cls-8" cx="195.74" cy="92.86" r="18.65"/>
          <circle class="cls-37" cx="195.74" cy="92.86" r="74.23" transform="translate(67.54 267.5) rotate(-79.1)"/>
          <circle class="cls-4" cx="195.74" cy="92.86" r="21.43"/>
          <circle class="cls-2" cx="195.74" cy="92.86" r="13.11"/>
          <circle class="cls-35" cx="195.74" cy="92.86" r="16.4"/>
          <path class="cls-9" d="M168.77,83.82c3.78-11.29,14.44-19.42,27-19.42"/>
          <path class="cls-1" d="M180.69,117c-8.04-5.03-13.39-13.96-13.39-24.15"/>
          <path class="cls-26" d="M195.76,125.2c-2.39,0-4.77-.26-7.08-.78-2.1-.47-3.42-2.55-2.95-4.64.47-2.1,2.55-3.42,4.64-2.95,1.76.39,3.57.59,5.39.59,2.15,0,3.89,1.74,3.89,3.89s-1.74,3.89-3.89,3.89Z"/>
          <path class="cls-1" d="M220.79,106.42c-2.51,4.62-6.25,8.46-10.79,11.09"/>
          <path class="cls-25" d="M224.22,96.74c-2.15,0-3.89-1.74-3.89-3.89,0-5.3-1.66-10.34-4.79-14.58-3.08-4.17-7.29-7.21-12.19-8.79-2.04-.66-3.16-2.86-2.5-4.9s2.86-3.16,4.9-2.5c6.45,2.09,12,6.09,16.05,11.57,4.13,5.59,6.32,12.23,6.32,19.21,0,2.15-1.74,3.89-3.89,3.89Z"/>
          <path class="cls-33" d="M166.26,149.5c-10.69-5.58-19.6-14.09-25.67-24.47"/>
          <path class="cls-11" d="M259.58,92.86c0,11.02-2.79,21.39-7.71,30.43"/>
          <path class="cls-33" d="M162.66,66.95c6.48-8.27,15.99-14.05,26.87-15.66"/>
          <path class="cls-9" d="M156.8,108.66c-1.32-3.26-2.25-6.72-2.72-10.33"/>
          <path class="cls-33" d="M195.76,121.32c-2.14,0-4.23-.24-6.23-.68"/>
          <path class="cls-33" d="M204.55,65.78c11.42,3.7,19.67,14.43,19.67,27.08"/>
          <circle class="cls-29" cx="195.74" cy="92.86" r="85.93"/>
          <circle class="cls-32" cx="195.74" cy="92.86" r="80.37"/>
          <line class="cls-30" x1="314.46" y1="181.7" x2="314.46" y2="4.01"/>
          <line class="cls-31" x1="319.48" y1="181.7" x2="319.48" y2="4.01"/>
          <line class="cls-27" x1="323.42" y1="181.7" x2="323.42" y2="4.01"/>
          <line class="cls-24" x1="327.33" y1="181.7" x2="327.33" y2="4.01"/>
          <line class="cls-23" x1="307.67" y1="181.7" x2="307.67" y2="4.01"/>
          <line class="cls-28" x1="296.45" y1="181.7" x2="296.45" y2="4.01"/>
          <line class="cls-16" x1="280.67" y1="56.38" x2="280.67" y2="4.01"/>
          <line class="cls-21" x1="280.67" y1="181.7" x2="280.67" y2="129.33"/>
          <line class="cls-22" x1="261.65" y1="28.09" x2="261.65" y2="4.01"/>
          <line class="cls-20" x1="261.65" y1="181.7" x2="261.65" y2="157.62"/>
          <line class="cls-18" x1="233.72" y1="8.58" x2="233.72" y2="4.01"/>
          <line class="cls-19" x1="233.72" y1="181.7" x2="233.72" y2="177.13"/>
          <line class="cls-35" x1="170.25" y1="4.01" x2="3.92" y2="4.01"/>
          <line class="cls-35" x1="150.1" y1="12.49" x2="3.92" y2="12.49"/>
          <line class="cls-35" x1="137.67" y1="20.97" x2="3.92" y2="20.97"/>
          <line class="cls-35" x1="128.52" y1="29.45" x2="3.92" y2="29.45"/>
          <line class="cls-35" x1="121.42" y1="37.93" x2="3.92" y2="37.93"/>
          <line class="cls-35" x1="115.83" y1="46.41" x2="3.92" y2="46.41"/>
          <line class="cls-35" x1="111.46" y1="54.89" x2="3.92" y2="54.89"/>
          <line class="cls-35" x1="108.13" y1="63.37" x2="3.92" y2="63.37"/>
          <line class="cls-35" x1="105.73" y1="71.85" x2="3.92" y2="71.85"/>
          <line class="cls-35" x1="104.17" y1="80.33" x2="3.92" y2="80.33"/>
          <line class="cls-35" x1="103.42" y1="88.81" x2="3.92" y2="88.81"/>
          <line class="cls-35" x1="103.43" y1="97.29" x2="3.92" y2="97.29"/>
          <line class="cls-35" x1="104.22" y1="105.77" x2="3.92" y2="105.77"/>
          <line class="cls-35" x1="105.82" y1="114.25" x2="3.92" y2="114.25"/>
          <line class="cls-35" x1="108.27" y1="122.73" x2="3.92" y2="122.73"/>
          <line class="cls-35" x1="111.64" y1="131.21" x2="3.92" y2="131.21"/>
          <line class="cls-35" x1="116.06" y1="139.69" x2="3.92" y2="139.69"/>
          <line class="cls-35" x1="121.71" y1="148.17" x2="3.92" y2="148.17"/>
          <line class="cls-35" x1="128.89" y1="156.66" x2="3.92" y2="156.66"/>
          <line class="cls-35" x1="138.16" y1="165.14" x2="3.92" y2="165.14"/>
          <line class="cls-35" x1="150.79" y1="173.62" x2="3.92" y2="173.62"/>
          <line class="cls-35" x1="170.25" y1="181.7" x2="3.92" y2="181.7"/>
          <line class="cls-17" x1="290.09" y1="78.94" x2="290.09" y2="106.77"/>
          <g>
            <path class="cls-38" d="M196.88,90.23v-1.79h3.53c.46,0,.82.35.82.79v7.26c0,.43-.37.79-.82.79h-3.53v-1.78l3.14-1.39c.52-.23.84-.71.84-1.25s-.32-1.02-.84-1.25l-3.14-1.38h0Z"/>
            <path class="cls-38" d="M194.6,95.48v1.79h-3.53c-.46,0-.83-.35-.83-.79v-7.26c0-.43.37-.79.83-.79h3.53v1.78l-3.14,1.39c-.52.23-.84.71-.84,1.25s.32,1.02.84,1.25l3.14,1.38h0Z"/>
            <path class="cls-38" d="M195.74,94.68c1.01,0,1.83-.82,1.83-1.83s-.82-1.83-1.83-1.83-1.83.82-1.83,1.83.82,1.83,1.83,1.83Z"/>
          </g>
        </g>
        <rect class="cls-36" x="333.94" y="4.01" width="9.69" height="177.7"/>
        <rect class="cls-1" x="349.22" y="4.01" width="9.69" height="177.7"/>
        <rect class="cls-1" x="365.09" y="4.01" width="21.67" height="177.7"/>
      </g>
    </g>
  </g>
</svg>