<svg width="65" height="64" viewBox="0 0 65 64" fill="none" xmlns="http://www.w3.org/2000/svg">
<path d="M44.3334 32L33.0534 28C31.8 27.5467 30.84 26.5067 30.52 25.2267L26.3334 8.69336L22.1467 25.2267C21.8267 26.5334 20.8667 27.5734 19.6134 28L8.33337 32L19.6134 36C20.8667 36.4534 21.8267 37.4934 22.1467 38.7734L26.3334 55.3067L30.52 38.7734C30.84 37.4667 31.8 36.4267 33.0534 36L44.3334 32Z" stroke="#F9F9F9" stroke-opacity="0.64" stroke-linecap="round" stroke-linejoin="round"/>
<path d="M57.6667 46.6665L54.28 45.7865C52.7867 45.3865 51.6667 44.1865 51.3733 42.6932L50.3333 37.3599L49.2933 42.6932C49 44.2132 47.8533 45.4132 46.3867 45.7865L43 46.6665L46.3867 47.5465C47.88 47.9465 49 49.1465 49.2933 50.6399L50.3333 55.9732L51.3733 50.6399C51.6667 49.1199 52.8133 47.9199 54.28 47.5465L57.6667 46.6665Z" stroke="#F9F9F9" stroke-opacity="0.64" stroke-linecap="round" stroke-linejoin="round" stroke-dasharray="2 2"/>
<path d="M57.6667 17.3335L54.28 16.4535C52.7867 16.0535 51.6667 14.8535 51.3733 13.3602L50.3333 8.02686L49.2933 13.3602C49 14.8802 47.8533 16.0802 46.3867 16.4535L43 17.3335L46.3867 18.2135C47.88 18.6135 49 19.8135 49.2933 21.3069L50.3333 26.6402L51.3733 21.3069C51.6667 19.7869 52.8133 18.5869 54.28 18.2135L57.6667 17.3335Z" stroke="#F9F9F9" stroke-opacity="0.64" stroke-linecap="round" stroke-linejoin="round" stroke-dasharray="2 2"/>
</svg>
