<svg width="25" height="24" viewBox="0 0 25 24" fill="none" xmlns="http://www.w3.org/2000/svg">
<path d="M17.5499 18.7179L19.2902 18.8422C20.0524 18.8966 20.4335 18.9238 20.7185 18.7887C20.9686 18.6701 21.1701 18.4686 21.2887 18.2185C21.4238 17.9335 21.3966 17.5524 21.3422 16.7902L21.2179 15.0499C21.1979 14.7705 21.1879 14.6308 21.1859 14.4882C21.1822 14.2301 21.179 14.366 21.1949 14.1083C21.2037 13.966 21.2835 13.2966 21.4433 11.9577C21.4807 11.6437 21.5 11.3241 21.5 11C21.5 6.58172 17.9183 3 13.5 3C10.7503 3 8.32466 4.38723 6.88468 6.5M14.3 15.6C14.3 12.6176 11.8823 10.2 8.9 10.2C7.6159 10.2 6.43648 10.6482 5.50966 11.3967C5.44279 11.4507 5.37722 11.5063 5.31303 11.5633C4.20072 12.5525 3.5 13.9944 3.5 15.6C3.5 15.8913 3.52307 16.1772 3.56748 16.456C3.66295 17.0554 3.71068 17.3551 3.71896 17.4476C3.73137 17.5865 3.73003 17.5555 3.72967 17.6949C3.72944 17.7878 3.72147 17.8994 3.70553 18.1225L3.60654 19.5084C3.56979 20.0228 3.55142 20.2801 3.64262 20.4724C3.72268 20.6413 3.85867 20.7773 4.02753 20.8573C4.21989 20.9485 4.47712 20.9302 4.99158 20.8934L6.3774 20.7944C6.60057 20.7785 6.71216 20.7705 6.80504 20.7703C6.94444 20.7699 6.91347 20.7686 7.05232 20.781C7.14482 20.7893 7.44471 20.837 8.04395 20.9325C8.32276 20.9769 8.60869 21 8.9 21C10.5056 21 11.9475 20.2992 12.9366 19.1869C12.9937 19.1227 13.0493 19.0572 13.1032 18.9903C13.8518 18.0635 14.3 16.8841 14.3 15.6Z" stroke="white" stroke-width="2" stroke-linecap="round" stroke-linejoin="round"/>
</svg>
