<svg width="40" height="40" viewBox="0 0 40 40" fill="none" xmlns="http://www.w3.org/2000/svg">
<path d="M4.3335 35C3.78121 35 3.3335 34.5523 3.3335 34V6C3.3335 5.44772 3.78121 5 4.3335 5H18.7222C19.2745 5 19.7222 5.44772 19.7222 6V10.8054C19.7222 11.3577 20.17 11.8054 20.7222 11.8054H35.6668C36.2191 11.8054 36.6668 12.2531 36.6668 12.8054V34C36.6668 34.5523 36.2191 35 35.6668 35H4.3335ZM6.11141 31.2221C6.11141 31.7744 6.55913 32.2221 7.11141 32.2221H9.13891C9.6912 32.2221 10.1389 31.7744 10.1389 31.2221V29.1946C10.1389 28.6423 9.6912 28.1946 9.13891 28.1946H7.11141C6.55913 28.1946 6.11141 28.6423 6.11141 29.1946V31.2221ZM6.11141 24.4167C6.11141 24.969 6.55913 25.4167 7.11141 25.4167H9.13891C9.6912 25.4167 10.1389 24.969 10.1389 24.4167V22.3888C10.1389 21.8365 9.6912 21.3888 9.13891 21.3888H7.11141C6.55913 21.3888 6.11141 21.8365 6.11141 22.3888V24.4167ZM6.11141 17.6112C6.11141 18.1635 6.55913 18.6112 7.11141 18.6112H9.13891C9.6912 18.6112 10.1389 18.1635 10.1389 17.6112V15.5833C10.1389 15.031 9.6912 14.5833 9.13891 14.5833H7.11141C6.55913 14.5833 6.11141 15.031 6.11141 15.5833V17.6112ZM6.11141 10.8054C6.11141 11.3577 6.55913 11.8054 7.11141 11.8054H9.13891C9.6912 11.8054 10.1389 11.3577 10.1389 10.8054V8.77792C10.1389 8.22563 9.6912 7.77792 9.13891 7.77792H7.11141C6.55913 7.77792 6.11141 8.22563 6.11141 8.77792V10.8054ZM12.9168 31.2221C12.9168 31.7744 13.3645 32.2221 13.9168 32.2221H15.9447C16.497 32.2221 16.9447 31.7744 16.9447 31.2221V29.1946C16.9447 28.6423 16.497 28.1946 15.9447 28.1946H13.9168C13.3645 28.1946 12.9168 28.6423 12.9168 29.1946V31.2221ZM12.9168 24.4167C12.9168 24.969 13.3645 25.4167 13.9168 25.4167H15.9447C16.497 25.4167 16.9447 24.969 16.9447 24.4167V22.3888C16.9447 21.8365 16.497 21.3888 15.9447 21.3888H13.9168C13.3645 21.3888 12.9168 21.8365 12.9168 22.3888V24.4167ZM12.9168 17.6112C12.9168 18.1635 13.3645 18.6112 13.9168 18.6112H15.9447C16.497 18.6112 16.9447 18.1635 16.9447 17.6112V15.5833C16.9447 15.031 16.497 14.5833 15.9447 14.5833H13.9168C13.3645 14.5833 12.9168 15.031 12.9168 15.5833V17.6112ZM12.9168 10.8054C12.9168 11.3577 13.3645 11.8054 13.9168 11.8054H15.9447C16.497 11.8054 16.9447 11.3577 16.9447 10.8054V8.77792C16.9447 8.22563 16.497 7.77792 15.9447 7.77792H13.9168C13.3645 7.77792 12.9168 8.22563 12.9168 8.77792V10.8054ZM19.7222 31.2221C19.7222 31.7744 20.17 32.2221 20.7222 32.2221H32.8889C33.4412 32.2221 33.8889 31.7744 33.8889 31.2221V15.5833C33.8889 15.0311 33.4412 14.5833 32.8889 14.5833H20.7222C20.17 14.5833 19.7222 15.031 19.7222 15.5833V17.6112C19.7222 18.1635 20.17 18.6112 20.7222 18.6112H22.0556C22.6079 18.6112 23.0556 19.059 23.0556 19.6112V20.3888C23.0556 20.941 22.6079 21.3888 22.0556 21.3888H20.7222C20.17 21.3888 19.7222 21.8365 19.7222 22.3888V24.4167C19.7222 24.969 20.17 25.4167 20.7222 25.4167H22.0556C22.6079 25.4167 23.0556 25.8644 23.0556 26.4167V27.1946C23.0556 27.7469 22.6079 28.1946 22.0556 28.1946H20.7222C20.17 28.1946 19.7222 28.6423 19.7222 29.1946V31.2221ZM28.0835 21.3888C27.5312 21.3888 27.0835 20.941 27.0835 20.3888V19.6112C27.0835 19.059 27.5312 18.6112 28.0835 18.6112H28.8614C29.4137 18.6112 29.8614 19.059 29.8614 19.6112V20.3888C29.8614 20.941 29.4137 21.3888 28.8614 21.3888H28.0835ZM28.0835 28.1946C27.5312 28.1946 27.0835 27.7469 27.0835 27.1946V26.4167C27.0835 25.8644 27.5312 25.4167 28.0835 25.4167H28.8614C29.4137 25.4167 29.8614 25.8644 29.8614 26.4167V27.1946C29.8614 27.7469 29.4137 28.1946 28.8614 28.1946H28.0835Z" fill="white"/>
</svg>
