<svg width="65" height="64" viewBox="0 0 65 64" fill="none" xmlns="http://www.w3.org/2000/svg">
<path d="M40.6666 8C45.938 8.00411 48.7011 8.07133 50.8428 9.1626C52.8498 10.1852 54.4816 11.817 55.5043 13.8241C56.5955 15.9658 56.6625 18.7288 56.6666 24M40.6666 56C45.938 55.9959 48.7011 55.9287 50.8428 54.8374C52.8498 53.8148 54.4816 52.183 55.5043 50.1759C56.5955 48.0342 56.6625 45.2712 56.6666 40M24.6666 56C19.3953 55.9959 16.6322 55.9287 14.4905 54.8374C12.4834 53.8148 10.8516 52.183 9.82896 50.1759C8.73772 48.0342 8.67074 45.2712 8.66663 40M8.66663 24C8.67074 18.7288 8.73576 15.9658 9.82701 13.8241C10.8497 11.817 12.4815 10.1852 14.4885 9.1626C16.6305 8.0712 19.394 8.00436 24.6666 8.00027" stroke="#F9F9F9" stroke-opacity="0.64" stroke-linecap="round" stroke-linejoin="round" stroke-dasharray="2 2"/>
<path d="M20.6666 21.333V25.333M44.6666 21.333V25.333M28.6666 33.5999C30.8 33.5999 32.6666 31.7333 32.6666 29.5999V22.1142M41.2239 41.7043C36.4239 46.5043 28.6905 46.5043 23.8905 41.7043" stroke="#F9F9F9" stroke-opacity="0.64" stroke-linecap="round" stroke-linejoin="round"/>
</svg>
