<svg xmlns="http://www.w3.org/2000/svg" width="24" height="24" viewBox="0 0 24 24" fill="none">
  <path d="M15.3621 5.21389C17.087 5.98466 18.4951 7.32395 19.3513 9.00803C20.2076 10.6921 20.46 12.619 20.0665 14.4668C19.6729 16.3146 18.6573 17.9714 17.1891 19.1605C15.721 20.3495 13.8894 20.9988 12.0001 20.9999C10.3839 21 8.8033 20.5254 7.45449 19.635C6.10568 18.7447 5.0481 17.4777 4.41306 15.9915C3.77802 14.5053 3.59349 12.8653 3.88239 11.2752C4.17129 9.68501 4.92089 8.21473 6.03812 7.04689C6.80754 8.12235 7.82315 8.99807 9.00012 9.60089C9.02073 8.27951 9.33264 6.97896 9.9136 5.79198C10.4946 4.60499 11.3303 3.56081 12.3611 2.73389C13.1479 3.78908 14.1768 4.63965 15.3611 5.21389H15.3621Z" stroke="#F9F9F9" stroke-linecap="round" stroke-linejoin="round"/>
  <path d="M12.0001 18.0002C12.9528 18.0018 13.8704 17.6407 14.5665 16.9903C15.2626 16.3399 15.6851 15.4489 15.7481 14.4982C15.8111 13.5476 15.5099 12.6087 14.9058 11.8721C14.3016 11.1355 13.4397 10.6564 12.4951 10.5322C11.4625 11.4563 10.7822 12.7098 10.5701 14.0792C9.79972 13.8904 9.07463 13.5502 8.43712 13.0782C8.25178 13.6416 8.20268 14.2408 8.29386 14.8268C8.38503 15.4128 8.61389 15.9688 8.96163 16.4492C9.30937 16.9295 9.76609 17.3206 10.2943 17.5902C10.8225 17.8598 11.4071 18.0004 12.0001 18.0002Z" stroke="#F9F9F9" stroke-linecap="round" stroke-linejoin="round"/>
</svg>