<svg width="65" height="64" viewBox="0 0 65 64" fill="none" xmlns="http://www.w3.org/2000/svg">
<g opacity="0.64">
<path d="M45.7362 53.3331H13.6237C10.7141 53.3331 8.3334 50.9331 8.3334 47.9998L8.33337 17.3332C8.33337 13.3065 10.7781 10.6664 14.7781 10.6664H18.6724C24.1114 10.6664 25.0236 10.4265 26.778 11.9998L30.5793 15.7864C31.5845 16.7998 31.9198 17.3598 37.2101 17.3598H42.479C46.4467 17.3598 48.3334 19.9998 48.3334 23.9998V32.0264" stroke="#F9F9F9" stroke-linecap="round" stroke-linejoin="round" stroke-dasharray="2 2"/>
<path d="M9.66675 50.6667L14.2681 35.52C15.0271 33.4133 16.9899 32 19.1883 32H52.3998C55.1216 32 57.0321 34.7467 56.0899 37.36L51.6408 49.8133C50.8818 51.92 48.919 53.3333 46.7206 53.3333H13.5091" stroke="#F9F9F9" stroke-linecap="round" stroke-linejoin="round"/>
</g>
</svg>
