<svg width="64" height="64" viewBox="0 0 64 64" fill="none" xmlns="http://www.w3.org/2000/svg">
<g opacity="0.64">
<path d="M8.13331 20.0801C6.34665 23.6534 5.33331 27.7067 5.33331 32.0001C5.33331 46.7201 17.28 58.6667 32 58.6667C40.9333 58.6667 48.8533 54.2667 53.7066 47.4934" stroke="#F9F9F9" stroke-linecap="round" stroke-linejoin="round" stroke-dasharray="2 2"/>
<path d="M58.2935 36.5602C58.5602 35.0935 58.6668 33.5735 58.6668 32.0002C58.6668 17.2802 46.7202 5.3335 32.0002 5.3335C26.2135 5.3335 20.8535 7.1735 16.4802 10.3202" stroke="#F9F9F9" stroke-linecap="round" stroke-linejoin="round"/>
<path d="M32 37.3332C34.9455 37.3332 37.3334 34.9454 37.3334 31.9998C37.3334 29.0543 34.9455 26.6665 32 26.6665C29.0545 26.6665 26.6667 29.0543 26.6667 31.9998C26.6667 34.9454 29.0545 37.3332 32 37.3332Z" stroke="#F9F9F9" stroke-linecap="round" stroke-linejoin="round"/>
<path d="M42.6667 23.9998C44.1394 23.9998 45.3333 22.8059 45.3333 21.3332C45.3333 19.8604 44.1394 18.6665 42.6667 18.6665C41.1939 18.6665 40 19.8604 40 21.3332C40 22.8059 41.1939 23.9998 42.6667 23.9998Z" fill="#F9F9F9" stroke="#F9F9F9" stroke-linecap="round" stroke-linejoin="round"/>
<path d="M53.3334 50.6668C54.8061 50.6668 56 49.4729 56 48.0002C56 46.5274 54.8061 45.3335 53.3334 45.3335C51.8606 45.3335 50.6667 46.5274 50.6667 48.0002C50.6667 49.4729 51.8606 50.6668 53.3334 50.6668Z" fill="#F9F9F9" stroke="#F9F9F9" stroke-linecap="round" stroke-linejoin="round"/>
<path d="M16 13.3333C17.4727 13.3333 18.6666 12.1394 18.6666 10.6667C18.6666 9.19391 17.4727 8 16 8C14.5272 8 13.3333 9.19391 13.3333 10.6667C13.3333 12.1394 14.5272 13.3333 16 13.3333Z" fill="#F9F9F9" stroke="#F9F9F9" stroke-linecap="round" stroke-linejoin="round"/>
</g>
</svg>
