<svg width="64" height="64" viewBox="0 0 64 64" fill="none" xmlns="http://www.w3.org/2000/svg">
<path d="M13.5781 28.0431C10.2553 26.2361 8.00002 22.7145 8.00002 18.6661C8.00002 14.6177 10.2554 11.096 13.5782 9.28906M8.07833 41.1119C4.86378 42.7748 2.66669 46.1305 2.66669 49.9994C2.66669 52.7635 4.53568 55.0909 7.07883 55.7871M56.9212 55.7871C59.4644 55.0909 61.3334 52.7635 61.3334 49.9994C61.3334 46.1305 59.1363 42.7748 55.9217 41.1119M50.4219 28.043C53.7447 26.2361 56 22.7145 56 18.6661C56 14.6177 53.7447 11.096 50.4218 9.28907" stroke="#F9F9F9" stroke-opacity="0.64" stroke-linecap="round" stroke-linejoin="round" stroke-dasharray="2 2"/>
<path d="M42.6667 18.6667C42.6667 24.5577 37.891 29.3333 32 29.3333C26.109 29.3333 21.3333 24.5577 21.3333 18.6667C21.3333 12.7756 26.109 8 32 8C37.891 8 42.6667 12.7756 42.6667 18.6667Z" stroke="#F9F9F9" stroke-opacity="0.64" stroke-linecap="round" stroke-linejoin="round"/>
<path d="M16 50C16 44.4772 20.4772 40 26 40H38C43.5228 40 48 44.4772 48 50C48 53.3137 45.3137 56 42 56H22C18.6863 56 16 53.3137 16 50Z" stroke="#F9F9F9" stroke-opacity="0.64" stroke-linecap="round" stroke-linejoin="round"/>
</svg>
