<?xml version="1.0" encoding="UTF-8"?>
<svg id="Layer_2" data-name="Layer 2" xmlns="http://www.w3.org/2000/svg" xmlns:xlink="http://www.w3.org/1999/xlink" viewBox="0 0 390.58 185.77">
  <defs>
    <style>
      .cls-1 {
        stroke: url(#New_Gradient_Swatch_copy_3-40);
      }

      .cls-1, .cls-2, .cls-3, .cls-4, .cls-5, .cls-6, .cls-7, .cls-8, .cls-9, .cls-10, .cls-11, .cls-12, .cls-13, .cls-14, .cls-15, .cls-16, .cls-17, .cls-18, .cls-19, .cls-20, .cls-21, .cls-22, .cls-23, .cls-24, .cls-25, .cls-26, .cls-27, .cls-28, .cls-29, .cls-30, .cls-31, .cls-32, .cls-33, .cls-34, .cls-35, .cls-36, .cls-37, .cls-38, .cls-39, .cls-40, .cls-41, .cls-42, .cls-43, .cls-44, .cls-45, .cls-46, .cls-47, .cls-48, .cls-49, .cls-50 {
        stroke-miterlimit: 10;
      }

      .cls-1, .cls-2, .cls-3, .cls-4, .cls-5, .cls-6, .cls-7, .cls-8, .cls-9, .cls-10, .cls-11, .cls-12, .cls-13, .cls-14, .cls-15, .cls-16, .cls-17, .cls-18, .cls-19, .cls-20, .cls-21, .cls-22, .cls-23, .cls-24, .cls-25, .cls-26, .cls-27, .cls-28, .cls-29, .cls-30, .cls-31, .cls-32, .cls-33, .cls-34, .cls-35, .cls-36, .cls-37, .cls-38, .cls-39, .cls-40, .cls-41, .cls-42, .cls-43, .cls-44, .cls-45, .cls-46, .cls-47, .cls-48, .cls-50 {
        fill: none;
      }

      .cls-1, .cls-2, .cls-3, .cls-4, .cls-5, .cls-6, .cls-7, .cls-8, .cls-9, .cls-10, .cls-11, .cls-12, .cls-13, .cls-14, .cls-15, .cls-16, .cls-17, .cls-18, .cls-19, .cls-20, .cls-21, .cls-22, .cls-23, .cls-24, .cls-25, .cls-26, .cls-27, .cls-28, .cls-29, .cls-30, .cls-31, .cls-40, .cls-41, .cls-42, .cls-43, .cls-44, .cls-45, .cls-46, .cls-47, .cls-48, .cls-49, .cls-50 {
        stroke-width: .56px;
      }

      .cls-2 {
        stroke: url(#New_Gradient_Swatch_copy_3-41);
      }

      .cls-3 {
        stroke: url(#New_Gradient_Swatch_copy_3-48);
      }

      .cls-4 {
        stroke: url(#New_Gradient_Swatch_copy_3-44);
      }

      .cls-5 {
        stroke: url(#New_Gradient_Swatch_copy_3-47);
      }

      .cls-6 {
        stroke: url(#New_Gradient_Swatch_copy_3-45);
      }

      .cls-7 {
        stroke: url(#New_Gradient_Swatch_copy_3-46);
      }

      .cls-8 {
        stroke: url(#New_Gradient_Swatch_copy_3-43);
      }

      .cls-9 {
        stroke: url(#New_Gradient_Swatch_copy_3-42);
      }

      .cls-10 {
        stroke: url(#New_Gradient_Swatch_copy_3-17);
      }

      .cls-11 {
        stroke: url(#New_Gradient_Swatch_copy_3-16);
      }

      .cls-12 {
        stroke: url(#New_Gradient_Swatch_copy_3-14);
      }

      .cls-13 {
        stroke: url(#New_Gradient_Swatch_copy_3-12);
      }

      .cls-14 {
        stroke: url(#New_Gradient_Swatch_copy_3-13);
      }

      .cls-15 {
        stroke: url(#New_Gradient_Swatch_copy_3-15);
      }

      .cls-16 {
        stroke: url(#New_Gradient_Swatch_copy_3-26);
      }

      .cls-17 {
        stroke: url(#New_Gradient_Swatch_copy_3-28);
      }

      .cls-18 {
        stroke: url(#New_Gradient_Swatch_copy_3-33);
      }

      .cls-19 {
        stroke: url(#New_Gradient_Swatch_copy_3-27);
      }

      .cls-20 {
        stroke: url(#New_Gradient_Swatch_copy_3-29);
      }

      .cls-21 {
        stroke: url(#New_Gradient_Swatch_copy_3-36);
      }

      .cls-22 {
        stroke: url(#New_Gradient_Swatch_copy_3-35);
      }

      .cls-23 {
        stroke: url(#New_Gradient_Swatch_copy_3-38);
      }

      .cls-24 {
        stroke: url(#New_Gradient_Swatch_copy_3-32);
      }

      .cls-25 {
        stroke: url(#New_Gradient_Swatch_copy_3-39);
      }

      .cls-26 {
        stroke: url(#New_Gradient_Swatch_copy_3-34);
      }

      .cls-27 {
        stroke: url(#New_Gradient_Swatch_copy_3-37);
      }

      .cls-28 {
        stroke: url(#New_Gradient_Swatch_copy_3-31);
      }

      .cls-29 {
        stroke: url(#New_Gradient_Swatch_copy_3-10);
      }

      .cls-30 {
        stroke: url(#New_Gradient_Swatch_copy_3-11);
      }

      .cls-31 {
        stroke: url(#New_Gradient_Swatch_copy_3-30);
      }

      .cls-32 {
        stroke: url(#New_Gradient_Swatch_copy_3-19);
      }

      .cls-32, .cls-33, .cls-34, .cls-35, .cls-36, .cls-37, .cls-38, .cls-39 {
        stroke-width: .6px;
      }

      .cls-33 {
        stroke: url(#New_Gradient_Swatch_copy_3-18);
      }

      .cls-34 {
        stroke: url(#New_Gradient_Swatch_copy_3-22);
      }

      .cls-35 {
        stroke: url(#New_Gradient_Swatch_copy_3-25);
      }

      .cls-36 {
        stroke: url(#New_Gradient_Swatch_copy_3-24);
      }

      .cls-37 {
        stroke: url(#New_Gradient_Swatch_copy_3-23);
      }

      .cls-38 {
        stroke: url(#New_Gradient_Swatch_copy_3-21);
      }

      .cls-39 {
        stroke: url(#New_Gradient_Swatch_copy_3-20);
      }

      .cls-40 {
        stroke: url(#New_Gradient_Swatch_copy_3-8);
      }

      .cls-41 {
        stroke: url(#New_Gradient_Swatch_copy_3-5);
      }

      .cls-42 {
        stroke: url(#New_Gradient_Swatch_copy_3-6);
      }

      .cls-43 {
        stroke: url(#New_Gradient_Swatch_copy_3-9);
      }

      .cls-44 {
        stroke: url(#New_Gradient_Swatch_copy_3-7);
      }

      .cls-45 {
        stroke: url(#New_Gradient_Swatch_copy_3-2);
      }

      .cls-46 {
        stroke: url(#New_Gradient_Swatch_copy_3-3);
      }

      .cls-47 {
        stroke: url(#New_Gradient_Swatch_copy_3-4);
      }

      .cls-51 {
        fill: rgba(249, 249, 249, .64);
        stroke-width: 0px;
      }

      .cls-48 {
        stroke: url(#New_Gradient_Swatch_copy_3);
      }

      .cls-49 {
        fill: #242023;
      }

      .cls-49, .cls-50 {
        stroke: #4d4d4d;
      }
    </style>
    <linearGradient id="New_Gradient_Swatch_copy_3" data-name="New Gradient Swatch copy 3" x1="13.58" y1="185.77" x2="13.58" y2="0" gradientUnits="userSpaceOnUse">
      <stop offset="0" stop-color="#151515"/>
      <stop offset=".65" stop-color="#7c429f"/>
      <stop offset=".8" stop-color="gray"/>
      <stop offset=".95" stop-color="#151515"/>
    </linearGradient>
    <linearGradient id="New_Gradient_Swatch_copy_3-2" data-name="New Gradient Swatch copy 3" y1="167.25" x2="13.58" y2="166.69" xlink:href="#New_Gradient_Swatch_copy_3"/>
    <linearGradient id="New_Gradient_Swatch_copy_3-3" data-name="New Gradient Swatch copy 3" y1="148.73" x2="13.58" y2="148.17" xlink:href="#New_Gradient_Swatch_copy_3"/>
    <linearGradient id="New_Gradient_Swatch_copy_3-4" data-name="New Gradient Swatch copy 3" y1="130.21" x2="13.58" y2="129.65" xlink:href="#New_Gradient_Swatch_copy_3"/>
    <linearGradient id="New_Gradient_Swatch_copy_3-5" data-name="New Gradient Swatch copy 3" y1="111.69" x2="13.58" y2="111.13" xlink:href="#New_Gradient_Swatch_copy_3"/>
    <linearGradient id="New_Gradient_Swatch_copy_3-6" data-name="New Gradient Swatch copy 3" y1="93.16" x2="13.58" y2="92.61" xlink:href="#New_Gradient_Swatch_copy_3"/>
    <linearGradient id="New_Gradient_Swatch_copy_3-7" data-name="New Gradient Swatch copy 3" y1="74.64" x2="13.58" y2="74.08" xlink:href="#New_Gradient_Swatch_copy_3"/>
    <linearGradient id="New_Gradient_Swatch_copy_3-8" data-name="New Gradient Swatch copy 3" y1="56.12" x2="13.58" y2="55.56" xlink:href="#New_Gradient_Swatch_copy_3"/>
    <linearGradient id="New_Gradient_Swatch_copy_3-9" data-name="New Gradient Swatch copy 3" y1="37.6" x2="13.58" y2="37.04" xlink:href="#New_Gradient_Swatch_copy_3"/>
    <linearGradient id="New_Gradient_Swatch_copy_3-10" data-name="New Gradient Swatch copy 3" y1="19.08" x2="13.58" y2="18.52" xlink:href="#New_Gradient_Swatch_copy_3"/>
    <linearGradient id="New_Gradient_Swatch_copy_3-11" data-name="New Gradient Swatch copy 3" x1="23.55" y1="185.49" x2="23.55" y2=".28" xlink:href="#New_Gradient_Swatch_copy_3"/>
    <linearGradient id="New_Gradient_Swatch_copy_3-12" data-name="New Gradient Swatch copy 3" x1="20.22" y1="185.49" x2="20.22" y2=".28" xlink:href="#New_Gradient_Swatch_copy_3"/>
    <linearGradient id="New_Gradient_Swatch_copy_3-13" data-name="New Gradient Swatch copy 3" x1="16.9" y1="185.49" x2="16.9" y2=".28" xlink:href="#New_Gradient_Swatch_copy_3"/>
    <linearGradient id="New_Gradient_Swatch_copy_3-14" data-name="New Gradient Swatch copy 3" y1="185.49" y2=".28" xlink:href="#New_Gradient_Swatch_copy_3"/>
    <linearGradient id="New_Gradient_Swatch_copy_3-15" data-name="New Gradient Swatch copy 3" x1="10.25" y1="185.49" x2="10.25" y2=".28" xlink:href="#New_Gradient_Swatch_copy_3"/>
    <linearGradient id="New_Gradient_Swatch_copy_3-16" data-name="New Gradient Swatch copy 3" x1="6.93" y1="185.49" x2="6.93" y2=".28" xlink:href="#New_Gradient_Swatch_copy_3"/>
    <linearGradient id="New_Gradient_Swatch_copy_3-17" data-name="New Gradient Swatch copy 3" x1="3.6" y1="185.49" x2="3.6" y2=".28" xlink:href="#New_Gradient_Swatch_copy_3"/>
    <linearGradient id="New_Gradient_Swatch_copy_3-18" data-name="New Gradient Swatch copy 3" x1="330.33" y1="11.86" x2="387.51" y2="11.86" xlink:href="#New_Gradient_Swatch_copy_3"/>
    <linearGradient id="New_Gradient_Swatch_copy_3-19" data-name="New Gradient Swatch copy 3" x1="330.33" y1="35.01" x2="387.51" y2="35.01" xlink:href="#New_Gradient_Swatch_copy_3"/>
    <linearGradient id="New_Gradient_Swatch_copy_3-20" data-name="New Gradient Swatch copy 3" x1="330.33" y1="58.16" x2="387.51" y2="58.16" xlink:href="#New_Gradient_Swatch_copy_3"/>
    <linearGradient id="New_Gradient_Swatch_copy_3-21" data-name="New Gradient Swatch copy 3" x1="330.33" y1="81.31" x2="387.51" y2="81.31" xlink:href="#New_Gradient_Swatch_copy_3"/>
    <linearGradient id="New_Gradient_Swatch_copy_3-22" data-name="New Gradient Swatch copy 3" x1="330.33" y1="104.46" x2="387.51" y2="104.46" xlink:href="#New_Gradient_Swatch_copy_3"/>
    <linearGradient id="New_Gradient_Swatch_copy_3-23" data-name="New Gradient Swatch copy 3" x1="330.33" y1="127.61" x2="387.51" y2="127.61" xlink:href="#New_Gradient_Swatch_copy_3"/>
    <linearGradient id="New_Gradient_Swatch_copy_3-24" data-name="New Gradient Swatch copy 3" x1="330.33" y1="150.76" x2="387.51" y2="150.76" xlink:href="#New_Gradient_Swatch_copy_3"/>
    <linearGradient id="New_Gradient_Swatch_copy_3-25" data-name="New Gradient Swatch copy 3" x1="330.33" y1="173.91" x2="387.51" y2="173.91" xlink:href="#New_Gradient_Swatch_copy_3"/>
    <linearGradient id="New_Gradient_Swatch_copy_3-26" data-name="New Gradient Swatch copy 3" x1="311.1" y1="92.88" x2="311.66" y2="92.88" xlink:href="#New_Gradient_Swatch_copy_3"/>
    <linearGradient id="New_Gradient_Swatch_copy_3-27" data-name="New Gradient Swatch copy 3" x1="308.08" y1="92.88" x2="308.64" y2="92.88" xlink:href="#New_Gradient_Swatch_copy_3"/>
    <linearGradient id="New_Gradient_Swatch_copy_3-28" data-name="New Gradient Swatch copy 3" x1="305.05" y1="92.88" x2="305.61" y2="92.88" xlink:href="#New_Gradient_Swatch_copy_3"/>
    <linearGradient id="New_Gradient_Swatch_copy_3-29" data-name="New Gradient Swatch copy 3" x1="302.03" y1="92.88" x2="302.59" y2="92.88" xlink:href="#New_Gradient_Swatch_copy_3"/>
    <linearGradient id="New_Gradient_Swatch_copy_3-30" data-name="New Gradient Swatch copy 3" x1="138.25" y1="92.88" x2="138.81" y2="92.88" xlink:href="#New_Gradient_Swatch_copy_3"/>
    <linearGradient id="New_Gradient_Swatch_copy_3-31" data-name="New Gradient Swatch copy 3" x1="141.28" y1="92.88" x2="141.83" y2="92.88" xlink:href="#New_Gradient_Swatch_copy_3"/>
    <linearGradient id="New_Gradient_Swatch_copy_3-32" data-name="New Gradient Swatch copy 3" x1="144.3" y1="92.88" x2="144.86" y2="92.88" xlink:href="#New_Gradient_Swatch_copy_3"/>
    <linearGradient id="New_Gradient_Swatch_copy_3-33" data-name="New Gradient Swatch copy 3" x1="147.33" y1="92.88" x2="147.88" y2="92.88" xlink:href="#New_Gradient_Swatch_copy_3"/>
    <linearGradient id="New_Gradient_Swatch_copy_3-34" data-name="New Gradient Swatch copy 3" x1="183.4" y1="179.31" x2="266.51" y2="179.31" xlink:href="#New_Gradient_Swatch_copy_3"/>
    <linearGradient id="New_Gradient_Swatch_copy_3-35" data-name="New Gradient Swatch copy 3" x1="199.07" y1="176.29" x2="250.84" y2="176.29" xlink:href="#New_Gradient_Swatch_copy_3"/>
    <linearGradient id="New_Gradient_Swatch_copy_3-36" data-name="New Gradient Swatch copy 3" x1="209.33" y1="173.26" x2="240.58" y2="173.26" xlink:href="#New_Gradient_Swatch_copy_3"/>
    <linearGradient id="New_Gradient_Swatch_copy_3-37" data-name="New Gradient Swatch copy 3" x1="217.64" y1="170.24" x2="232.27" y2="170.24" xlink:href="#New_Gradient_Swatch_copy_3"/>
    <linearGradient id="New_Gradient_Swatch_copy_3-38" data-name="New Gradient Swatch copy 3" x1="183.4" y1="6.46" x2="266.51" y2="6.46" xlink:href="#New_Gradient_Swatch_copy_3"/>
    <linearGradient id="New_Gradient_Swatch_copy_3-39" data-name="New Gradient Swatch copy 3" x1="199.07" y1="9.48" x2="250.84" y2="9.48" xlink:href="#New_Gradient_Swatch_copy_3"/>
    <linearGradient id="New_Gradient_Swatch_copy_3-40" data-name="New Gradient Swatch copy 3" x1="209.33" y1="12.51" x2="240.58" y2="12.51" xlink:href="#New_Gradient_Swatch_copy_3"/>
    <linearGradient id="New_Gradient_Swatch_copy_3-41" data-name="New Gradient Swatch copy 3" x1="217.64" y1="15.53" x2="232.27" y2="15.53" xlink:href="#New_Gradient_Swatch_copy_3"/>
    <linearGradient id="New_Gradient_Swatch_copy_3-42" data-name="New Gradient Swatch copy 3" x1="227.84" y1="64.47" x2="236.08" y2="64.47" xlink:href="#New_Gradient_Swatch_copy_3"/>
    <linearGradient id="New_Gradient_Swatch_copy_3-43" data-name="New Gradient Swatch copy 3" x1="251.19" y1="96.41" x2="256.82" y2="96.41" xlink:href="#New_Gradient_Swatch_copy_3"/>
    <linearGradient id="New_Gradient_Swatch_copy_3-44" data-name="New Gradient Swatch copy 3" x1="203.5" y1="125.28" x2="212.41" y2="125.28" xlink:href="#New_Gradient_Swatch_copy_3"/>
    <linearGradient id="New_Gradient_Swatch_copy_3-45" data-name="New Gradient Swatch copy 3" x1="179.53" y1="98.18" x2="183.24" y2="98.18" xlink:href="#New_Gradient_Swatch_copy_3"/>
    <linearGradient id="New_Gradient_Swatch_copy_3-46" data-name="New Gradient Swatch copy 3" x1="183.93" y1="49.07" x2="188.36" y2="49.07" xlink:href="#New_Gradient_Swatch_copy_3"/>
    <linearGradient id="New_Gradient_Swatch_copy_3-47" data-name="New Gradient Swatch copy 3" x1="251.64" y1="151.2" x2="259.48" y2="151.2" xlink:href="#New_Gradient_Swatch_copy_3"/>
    <linearGradient id="New_Gradient_Swatch_copy_3-48" data-name="New Gradient Swatch copy 3" x1="243.17" y1="131.76" x2="247.55" y2="131.76" xlink:href="#New_Gradient_Swatch_copy_3"/>
  </defs>
  <g id="Layer_1-2" data-name="Layer 1">
    <g>
      <rect class="cls-49" x=".28" y=".28" width="390.02" height="185.21"/>
      <g>
        <path class="cls-51" d="M226.32,89.75v-2.14h4.21c.54,0,.98.42.98.94v8.67c0,.52-.44.94-.98.94h-4.21v-2.12l3.75-1.66c.62-.27,1-.85,1-1.49s-.38-1.22-1-1.49l-3.75-1.64h0Z"/>
        <path class="cls-51" d="M223.6,96.02v2.14h-4.21c-.55,0-.99-.42-.99-.94v-8.67c0-.52.44-.94.99-.94h4.21v2.12l-3.75,1.66c-.62.27-1,.85-1,1.49s.39,1.22,1,1.49l3.75,1.64h0Z"/>
        <path class="cls-51" d="M224.96,95.07c1.2,0,2.18-.98,2.18-2.18s-.98-2.18-2.18-2.18-2.18.98-2.18,2.18.97,2.18,2.18,2.18Z"/>
      </g>
      <g>
        <rect class="cls-48" x=".28" y=".28" width="26.59" height="185.21"/>
        <line class="cls-45" x1=".28" y1="166.97" x2="26.87" y2="166.97"/>
        <line class="cls-46" x1=".28" y1="148.45" x2="26.87" y2="148.45"/>
        <line class="cls-47" x1=".28" y1="129.93" x2="26.87" y2="129.93"/>
        <line class="cls-41" x1=".28" y1="111.41" x2="26.87" y2="111.41"/>
        <line class="cls-42" x1=".28" y1="92.88" x2="26.87" y2="92.88"/>
        <line class="cls-44" x1=".28" y1="74.36" x2="26.87" y2="74.36"/>
        <line class="cls-40" x1=".28" y1="55.84" x2="26.87" y2="55.84"/>
        <line class="cls-43" x1=".28" y1="37.32" x2="26.87" y2="37.32"/>
        <line class="cls-29" x1=".28" y1="18.8" x2="26.87" y2="18.8"/>
        <line class="cls-30" x1="23.55" y1=".28" x2="23.55" y2="185.49"/>
        <line class="cls-13" x1="20.22" y1=".28" x2="20.22" y2="185.49"/>
        <line class="cls-14" x1="16.9" y1=".28" x2="16.9" y2="185.49"/>
        <line class="cls-12" x1="13.58" y1=".28" x2="13.58" y2="185.49"/>
        <line class="cls-15" x1="10.25" y1=".28" x2="10.25" y2="185.49"/>
        <line class="cls-11" x1="6.93" y1=".28" x2="6.93" y2="185.49"/>
        <line class="cls-10" x1="3.6" y1=".28" x2="3.6" y2="185.49"/>
      </g>
      <g>
        <rect class="cls-50" x="26.87" y=".28" width="99.78" height="185.21"/>
        <line class="cls-50" x1="26.87" y1="175.2" x2="126.65" y2="175.2"/>
        <line class="cls-50" x1="26.87" y1="164.91" x2="126.65" y2="164.91"/>
        <line class="cls-50" x1="26.87" y1="154.62" x2="126.65" y2="154.62"/>
        <line class="cls-50" x1="26.87" y1="144.33" x2="126.65" y2="144.33"/>
        <line class="cls-50" x1="26.87" y1="134.04" x2="126.65" y2="134.04"/>
        <line class="cls-50" x1="26.87" y1="123.75" x2="126.65" y2="123.75"/>
        <line class="cls-50" x1="26.87" y1="113.46" x2="126.65" y2="113.46"/>
        <line class="cls-50" x1="26.87" y1="103.17" x2="126.65" y2="103.17"/>
        <line class="cls-50" x1="26.87" y1="92.88" x2="126.65" y2="92.88"/>
        <line class="cls-50" x1="26.87" y1="82.6" x2="126.65" y2="82.6"/>
        <line class="cls-50" x1="26.87" y1="72.31" x2="126.65" y2="72.31"/>
        <line class="cls-50" x1="26.87" y1="62.02" x2="126.65" y2="62.02"/>
        <line class="cls-50" x1="26.87" y1="51.73" x2="126.65" y2="51.73"/>
        <line class="cls-50" x1="26.87" y1="41.44" x2="126.65" y2="41.44"/>
        <line class="cls-50" x1="26.87" y1="31.15" x2="126.65" y2="31.15"/>
        <line class="cls-50" x1="26.87" y1="20.86" x2="126.65" y2="20.86"/>
        <line class="cls-50" x1="26.87" y1="10.57" x2="126.65" y2="10.57"/>
        <line class="cls-50" x1="118.34" y1=".28" x2="118.34" y2="185.49"/>
        <line class="cls-50" x1="110.02" y1=".28" x2="110.02" y2="185.49"/>
        <line class="cls-50" x1="101.71" y1=".28" x2="101.71" y2="185.49"/>
        <line class="cls-50" x1="93.39" y1=".28" x2="93.39" y2="185.49"/>
        <line class="cls-50" x1="85.08" y1=".28" x2="85.08" y2="185.49"/>
        <line class="cls-50" x1="76.76" y1=".28" x2="76.76" y2="185.49"/>
        <line class="cls-50" x1="68.45" y1=".28" x2="68.45" y2="185.49"/>
        <line class="cls-50" x1="60.13" y1=".28" x2="60.13" y2="185.49"/>
        <line class="cls-50" x1="51.82" y1=".28" x2="51.82" y2="185.49"/>
        <line class="cls-50" x1="43.5" y1=".28" x2="43.5" y2="185.49"/>
        <line class="cls-50" x1="35.19" y1=".28" x2="35.19" y2="185.49"/>
      </g>
      <line class="cls-50" x1="323.26" y1="185.49" x2="323.26" y2=".28"/>
      <g>
        <g>
          <g>
            <path class="cls-50" d="M224.95,19.74c-40.43,0-73.14,32.72-73.14,73.15,0,2.98.18,5.92.53,8.81,4.34,36.27,35.16,64.33,72.61,64.33s68.28-28.06,72.62-64.33c.35-2.89.53-5.83.53-8.81,0-40.43-32.72-73.15-73.15-73.15ZM236.99,101.2c-1.34,1.94-3.14,3.54-5.24,4.64-2.03,1.08-4.34,1.68-6.8,1.68s-4.77-.61-6.8-1.68c-2.1-1.1-3.9-2.7-5.24-4.64-1.32-1.9-2.2-4.14-2.48-6.55-.07-.58-.11-1.17-.11-1.76,0-1.83.33-3.58.95-5.19.84-2.23,2.22-4.21,3.98-5.76,1.74-1.55,3.86-2.68,6.2-3.26,1.12-.27,2.29-.42,3.5-.42s2.38.15,3.5.42c2.34.58,4.46,1.71,6.2,3.26,1.76,1.55,3.14,3.53,3.98,5.76.62,1.61.95,3.36.95,5.19,0,.59-.04,1.18-.11,1.76-.28,2.41-1.16,4.65-2.48,6.55Z"/>
            <path class="cls-50" d="M286.53,69.54c-3.81-10.06-10.01-18.93-17.91-25.93-7.85-6.96-17.38-12.07-27.91-14.65-5.05-1.24-10.33-1.9-15.76-1.9s-10.71.66-15.75,1.9c-10.53,2.57-20.06,7.68-27.91,14.65-7.9,6.99-14.1,15.87-17.91,25.93-2.76,7.25-4.26,15.12-4.26,23.35,0,2.68.16,5.33.48,7.93,1.29,10.86,5.24,20.91,11.16,29.48,6.04,8.73,14.13,15.93,23.59,20.89,9.14,4.81,19.55,7.53,30.6,7.53s21.47-2.72,30.61-7.53c9.46-4.96,17.55-12.16,23.59-20.89,5.92-8.57,9.87-18.62,11.16-29.48.32-2.6.48-5.25.48-7.93,0-8.23-1.5-16.1-4.26-23.35ZM236.99,101.2c-1.34,1.94-3.14,3.54-5.24,4.64-2.03,1.08-4.34,1.68-6.8,1.68s-4.77-.61-6.8-1.68c-2.1-1.1-3.9-2.7-5.24-4.64-1.32-1.9-2.2-4.14-2.48-6.55-.07-.58-.11-1.17-.11-1.76,0-1.83.33-3.58.95-5.19.84-2.23,2.22-4.21,3.98-5.76,1.74-1.55,3.86-2.68,6.2-3.26,1.12-.27,2.29-.42,3.5-.42s2.38.15,3.5.42c2.34.58,4.46,1.71,6.2,3.26,1.76,1.55,3.14,3.53,3.98,5.76.62,1.61.95,3.36.95,5.19,0,.59-.04,1.18-.11,1.76-.28,2.41-1.16,4.65-2.48,6.55Z"/>
            <path class="cls-50" d="M279.69,72.13c-3.39-8.94-8.9-16.83-15.92-23.05-6.97-6.19-15.45-10.73-24.81-13.02-4.49-1.11-9.18-1.69-14.01-1.69s-9.52.58-14,1.69c-9.36,2.29-17.84,6.83-24.81,13.02-7.02,6.22-12.53,14.11-15.92,23.05-2.44,6.45-3.78,13.45-3.78,20.76,0,2.39.14,4.74.42,7.05,1.15,9.65,4.66,18.58,9.93,26.19,5.35,7.77,12.55,14.17,20.96,18.58,8.12,4.28,17.38,6.69,27.2,6.69s19.08-2.41,27.21-6.69c8.4-4.41,15.6-10.81,20.96-18.57,5.27-7.62,8.77-16.55,9.93-26.2.28-2.31.42-4.66.42-7.05,0-7.31-1.34-14.31-3.78-20.76ZM236.99,101.2c-1.34,1.94-3.14,3.54-5.24,4.64-2.03,1.08-4.34,1.68-6.8,1.68s-4.77-.61-6.8-1.68c-2.1-1.1-3.9-2.7-5.24-4.64-1.32-1.9-2.2-4.14-2.48-6.55-.07-.58-.11-1.17-.11-1.76,0-1.83.33-3.58.95-5.19.84-2.23,2.22-4.21,3.98-5.76,1.74-1.55,3.86-2.68,6.2-3.26,1.12-.27,2.29-.42,3.5-.42s2.38.15,3.5.42c2.34.58,4.46,1.71,6.2,3.26,1.76,1.55,3.14,3.53,3.98,5.76.62,1.61.95,3.36.95,5.19,0,.59-.04,1.18-.11,1.76-.28,2.41-1.16,4.65-2.48,6.55Z"/>
            <path class="cls-50" d="M272.85,74.73c-2.96-7.83-7.79-14.74-13.94-20.17-6.1-5.42-13.51-9.4-21.7-11.4-3.93-.97-8.03-1.48-12.26-1.48s-8.33.51-12.25,1.48c-8.19,2-15.6,5.98-21.71,11.4-6.15,5.44-10.97,12.35-13.92,20.17-2.15,5.64-3.32,11.76-3.32,18.16,0,2.09.12,4.15.37,6.17,1.01,8.44,4.08,16.26,8.68,22.92,4.69,6.8,10.99,12.4,18.35,16.25,7.11,3.75,15.2,5.86,23.8,5.86s16.7-2.11,23.81-5.86c7.35-3.85,13.65-9.45,18.34-16.24,4.62-6.67,7.68-14.48,8.69-22.93.25-2.02.37-4.08.37-6.17,0-6.4-1.17-12.52-3.31-18.16ZM236.99,101.2c-1.34,1.94-3.14,3.54-5.24,4.64-2.03,1.08-4.34,1.68-6.8,1.68s-4.77-.61-6.8-1.68c-2.1-1.1-3.9-2.7-5.24-4.64-1.32-1.9-2.2-4.14-2.48-6.55-.07-.58-.11-1.17-.11-1.76,0-1.83.33-3.58.95-5.19.84-2.23,2.22-4.21,3.98-5.76,1.74-1.55,3.86-2.68,6.2-3.26,1.12-.27,2.29-.42,3.5-.42s2.38.15,3.5.42c2.34.58,4.46,1.71,6.2,3.26,1.76,1.55,3.14,3.53,3.98,5.76.62,1.61.95,3.36.95,5.19,0,.59-.04,1.18-.11,1.76-.28,2.41-1.16,4.65-2.48,6.55Z"/>
            <path class="cls-50" d="M266,77.32c-2.54-6.71-6.67-12.62-11.94-17.28-5.23-4.65-11.58-8.05-18.6-9.77-3.36-.83-6.89-1.27-10.51-1.27s-7.14.44-10.5,1.26c-7.02,1.72-13.37,5.13-18.6,9.78-5.27,4.66-9.4,10.57-11.94,17.28-1.84,4.84-2.84,10.08-2.84,15.57,0,1.79.11,3.56.32,5.29.86,7.24,3.49,13.94,7.44,19.65,4.02,5.82,9.42,10.62,15.72,13.92,6.09,3.21,13.03,5.02,20.4,5.02s14.31-1.81,20.4-5.02c6.31-3.3,11.7-8.1,15.73-13.92,3.95-5.71,6.58-12.41,7.44-19.65.21-1.73.32-3.5.32-5.29,0-5.49-1-10.73-2.84-15.57ZM236.99,101.2c-1.34,1.94-3.14,3.54-5.24,4.64-2.03,1.08-4.34,1.68-6.8,1.68s-4.77-.61-6.8-1.68c-2.1-1.1-3.9-2.7-5.24-4.64-1.32-1.9-2.2-4.14-2.48-6.55-.07-.58-.11-1.17-.11-1.76,0-1.83.33-3.58.95-5.19.84-2.23,2.22-4.21,3.98-5.76,1.74-1.55,3.86-2.68,6.2-3.26,1.12-.27,2.29-.42,3.5-.42s2.38.15,3.5.42c2.34.58,4.46,1.71,6.2,3.26,1.76,1.55,3.14,3.53,3.98,5.76.62,1.61.95,3.36.95,5.19,0,.59-.04,1.18-.11,1.76-.28,2.41-1.16,4.65-2.48,6.55Z"/>
            <path class="cls-50" d="M259.16,79.92c-2.11-5.59-5.55-10.52-9.95-14.41-4.36-3.87-9.65-6.71-15.5-8.14-2.81-.7-5.74-1.06-8.76-1.06s-5.95.36-8.75,1.06c-5.85,1.42-11.14,4.26-15.5,8.14-4.39,3.88-7.84,8.82-9.95,14.41-1.53,4.03-2.37,8.4-2.37,12.97,0,1.49.09,2.97.26,4.41.73,6.04,2.92,11.61,6.21,16.37,3.35,4.85,7.85,8.85,13.1,11.61,5.08,2.67,10.86,4.18,17,4.18s11.92-1.51,17-4.18c5.26-2.76,9.76-6.76,13.11-11.61,3.29-4.76,5.48-10.33,6.21-16.37.17-1.44.26-2.92.26-4.41,0-4.57-.84-8.94-2.37-12.97ZM236.99,101.2c-1.34,1.94-3.14,3.54-5.24,4.64-2.03,1.08-4.34,1.68-6.8,1.68s-4.77-.61-6.8-1.68c-2.1-1.1-3.9-2.7-5.24-4.64-1.32-1.9-2.2-4.14-2.48-6.55-.07-.58-.11-1.17-.11-1.76,0-1.83.33-3.58.95-5.19.84-2.23,2.22-4.21,3.98-5.76,1.74-1.55,3.86-2.68,6.2-3.26,1.12-.27,2.29-.42,3.5-.42s2.38.15,3.5.42c2.34.58,4.46,1.71,6.2,3.26,1.76,1.55,3.14,3.53,3.98,5.76.62,1.61.95,3.36.95,5.19,0,.59-.04,1.18-.11,1.76-.28,2.41-1.16,4.65-2.48,6.55Z"/>
            <path class="cls-50" d="M252.32,82.51c-1.69-4.47-4.45-8.42-7.96-11.53-3.49-3.09-7.72-5.36-12.4-6.5-2.24-.56-4.59-.85-7.01-.85s-4.76.29-7,.85c-4.68,1.14-8.91,3.41-12.4,6.51-3.51,3.1-6.27,7.05-7.96,11.52-1.22,3.22-1.89,6.72-1.89,10.38,0,1.19.07,2.37.22,3.52.57,4.83,2.32,9.29,4.95,13.1,2.68,3.89,6.28,7.09,10.48,9.29,4.06,2.14,8.69,3.35,13.6,3.35s9.54-1.21,13.6-3.35c4.21-2.2,7.81-5.4,10.48-9.29,2.64-3.81,4.39-8.27,4.96-13.1.15-1.15.22-2.33.22-3.52,0-3.66-.67-7.16-1.89-10.38ZM236.99,101.2c-1.34,1.94-3.14,3.54-5.24,4.64-2.03,1.08-4.34,1.68-6.8,1.68s-4.77-.61-6.8-1.68c-2.1-1.1-3.9-2.7-5.24-4.64-1.32-1.9-2.2-4.14-2.48-6.55-.07-.58-.11-1.17-.11-1.76,0-1.83.33-3.58.95-5.19.84-2.23,2.22-4.21,3.98-5.76,1.74-1.55,3.86-2.68,6.2-3.26,1.12-.27,2.29-.42,3.5-.42s2.38.15,3.5.42c2.34.58,4.46,1.71,6.2,3.26,1.76,1.55,3.14,3.53,3.98,5.76.62,1.61.95,3.36.95,5.19,0,.59-.04,1.18-.11,1.76-.28,2.41-1.16,4.65-2.48,6.55Z"/>
            <path class="cls-50" d="M245.48,85.11c-1.27-3.36-3.34-6.32-5.98-8.65-2.61-2.32-5.79-4.03-9.3-4.88-1.68-.42-3.44-.64-5.25-.64s-3.57.22-5.25.64c-3.51.85-6.69,2.56-9.3,4.88-2.64,2.33-4.7,5.29-5.97,8.65-.92,2.41-1.42,5.04-1.42,7.78,0,.89.05,1.77.16,2.64.43,3.62,1.74,6.97,3.72,9.83,2.01,2.91,4.71,5.31,7.86,6.97,3.05,1.6,6.51,2.5,10.2,2.5s7.15-.9,10.2-2.51c3.15-1.65,5.85-4.05,7.86-6.96,1.98-2.86,3.3-6.21,3.73-9.83.11-.87.16-1.75.16-2.64,0-2.74-.5-5.37-1.42-7.78ZM236.99,101.2c-1.34,1.94-3.14,3.54-5.24,4.64-2.03,1.08-4.34,1.68-6.8,1.68s-4.77-.61-6.8-1.68c-2.1-1.1-3.9-2.7-5.24-4.64-1.32-1.9-2.2-4.14-2.48-6.55-.07-.58-.11-1.17-.11-1.76,0-1.83.33-3.58.95-5.19.84-2.23,2.22-4.21,3.98-5.76,1.74-1.55,3.86-2.68,6.2-3.26,1.12-.27,2.29-.42,3.5-.42s2.38.15,3.5.42c2.34.58,4.46,1.71,6.2,3.26,1.76,1.55,3.14,3.53,3.98,5.76.62,1.61.95,3.36.95,5.19,0,.59-.04,1.18-.11,1.76-.28,2.41-1.16,4.65-2.48,6.55Z"/>
          </g>
          <g>
            <polyline class="cls-50" points="224.95 107.52 224.95 114.83 224.95 122.15 224.95 129.46 224.95 136.77 224.95 144.09 224.95 151.4 224.95 158.72 224.95 166.03"/>
            <polyline class="cls-50" points="231.75 105.84 235.15 112.32 238.55 118.8 241.95 125.28 245.35 131.75 248.76 138.23 252.16 144.71 255.56 151.19 258.95 157.65"/>
            <polyline class="cls-50" points="236.99 101.2 243.01 105.36 249.03 109.51 255.06 113.67 261.08 117.83 267.1 121.99 273.12 126.14 279.15 130.3 285.15 134.44"/>
            <polyline class="cls-50" points="239.47 94.65 246.74 95.53 253.99 96.41 261.27 97.3 268.52 98.18 275.79 99.06 283.05 99.94 290.31 100.82 297.57 101.7"/>
            <polyline class="cls-50" points="293.35 66.95 286.53 69.54 279.69 72.13 272.85 74.73 266 77.32 259.16 79.92 252.32 82.51 245.48 85.11 238.63 87.7"/>
            <polyline class="cls-50" points="234.65 81.94 239.5 76.46 244.36 70.98 249.21 65.51 254.06 60.04 258.91 54.56 263.77 49.08 268.62 43.61 273.46 38.14"/>
            <polyline class="cls-50" points="228.45 78.68 230.2 71.58 231.96 64.48 233.71 57.37 235.46 50.27 237.21 43.16 238.96 36.06 240.71 28.96 242.46 21.87"/>
            <polyline class="cls-50" points="221.45 78.68 219.7 71.58 217.95 64.48 216.2 57.37 214.45 50.26 212.7 43.16 210.95 36.06 209.2 28.96 207.45 21.87"/>
            <polyline class="cls-50" points="215.25 81.94 210.4 76.46 205.55 70.99 200.7 65.51 195.85 60.04 190.99 54.56 186.14 49.08 181.29 43.61 176.45 38.14"/>
            <polyline class="cls-50" points="211.27 87.7 204.43 85.11 197.59 82.51 190.75 79.92 183.91 77.32 177.07 74.73 170.22 72.13 163.38 69.54 156.56 66.95"/>
            <polyline class="cls-50" points="210.43 94.65 203.17 95.53 195.92 96.41 188.64 97.3 181.39 98.18 174.12 99.06 166.86 99.94 159.6 100.82 152.34 101.7"/>
            <polyline class="cls-50" points="212.91 101.2 206.89 105.36 200.87 109.51 194.85 113.67 188.83 117.83 182.8 121.98 176.79 126.13 170.76 130.3 164.76 134.44"/>
            <polyline class="cls-50" points="218.15 105.84 214.75 112.33 211.35 118.8 207.95 125.28 204.55 131.75 201.15 138.23 197.75 144.71 194.35 151.19 190.96 157.65"/>
          </g>
        </g>
        <g>
          <g>
            <polygon class="cls-50" points="311.38 37.5 311.38 12.1 285.99 12.1 311.38 37.5"/>
            <polygon class="cls-50" points="138.53 37.5 138.53 12.1 163.93 12.1 138.53 37.5"/>
          </g>
          <g>
            <polygon class="cls-50" points="138.53 148.27 138.53 173.67 163.93 173.67 138.53 148.27"/>
            <polygon class="cls-50" points="311.38 148.27 311.38 173.67 285.99 173.67 311.38 148.27"/>
          </g>
        </g>
      </g>
      <g>
        <g>
          <path class="cls-33" d="M330.63.28c0,19.72,56.59,3.39,56.59,23.15"/>
          <path class="cls-32" d="M330.63,46.58c0-19.72,56.59-3.39,56.59-23.15"/>
        </g>
        <g>
          <path class="cls-39" d="M330.63,46.58c0,19.72,56.59,3.39,56.59,23.15"/>
          <path class="cls-38" d="M330.63,92.88c0-19.72,56.59-3.39,56.59-23.15"/>
        </g>
        <g>
          <path class="cls-34" d="M330.63,92.88c0,19.72,56.59,3.39,56.59,23.15"/>
          <path class="cls-37" d="M330.63,139.19c0-19.72,56.59-3.39,56.59-23.15"/>
        </g>
        <g>
          <path class="cls-36" d="M330.63,139.19c0,19.72,56.59,3.39,56.59,23.15"/>
          <path class="cls-35" d="M330.63,185.49c0-19.72,56.59-3.39,56.59-23.15"/>
        </g>
      </g>
      <g>
        <g>
          <line class="cls-16" x1="311.38" y1="51.33" x2="311.38" y2="134.44"/>
          <line class="cls-19" x1="308.36" y1="118.77" x2="308.36" y2="67"/>
          <line class="cls-17" x1="305.33" y1="77.26" x2="305.33" y2="108.51"/>
          <line class="cls-20" x1="302.31" y1="100.2" x2="302.31" y2="85.57"/>
        </g>
        <g>
          <line class="cls-31" x1="138.53" y1="134.44" x2="138.53" y2="51.33"/>
          <line class="cls-28" x1="141.56" y1="67" x2="141.56" y2="118.77"/>
          <line class="cls-24" x1="144.58" y1="108.51" x2="144.58" y2="77.26"/>
          <line class="cls-18" x1="147.6" y1="85.57" x2="147.6" y2="100.2"/>
        </g>
      </g>
      <g>
        <g>
          <line class="cls-26" x1="266.51" y1="179.31" x2="183.4" y2="179.31"/>
          <line class="cls-22" x1="199.07" y1="176.29" x2="250.84" y2="176.29"/>
          <line class="cls-21" x1="240.58" y1="173.26" x2="209.33" y2="173.26"/>
          <line class="cls-27" x1="217.64" y1="170.24" x2="232.27" y2="170.24"/>
        </g>
        <g>
          <line class="cls-23" x1="183.4" y1="6.46" x2="266.51" y2="6.46"/>
          <line class="cls-25" x1="250.84" y1="9.48" x2="199.07" y2="9.48"/>
          <line class="cls-1" x1="209.33" y1="12.51" x2="240.58" y2="12.51"/>
          <line class="cls-2" x1="232.27" y1="15.53" x2="217.64" y2="15.53"/>
        </g>
      </g>
      <circle class="cls-9" cx="231.96" cy="64.47" r="3.84"/>
      <circle class="cls-8" cx="254" cy="96.41" r="2.54"/>
      <circle class="cls-4" cx="207.95" cy="125.28" r="4.18"/>
      <circle class="cls-6" cx="181.39" cy="98.18" r="1.58"/>
      <circle class="cls-7" cx="186.14" cy="49.07" r="1.94"/>
      <circle class="cls-5" cx="255.56" cy="151.2" r="3.64"/>
      <circle class="cls-3" cx="245.36" cy="131.76" r="1.91"/>
    </g>
  </g>
</svg>