<?xml version="1.0" encoding="UTF-8"?>
<svg id="Layer_2" data-name="Layer 2" xmlns="http://www.w3.org/2000/svg" xmlns:xlink="http://www.w3.org/1999/xlink" viewBox="0 0 390.58 185.77">
  <defs>
    <style>
      .cls-1 {
        stroke: url(#New_Gradient_Swatch_copy-4);
      }

      .cls-1, .cls-2, .cls-3, .cls-4, .cls-5, .cls-6, .cls-7, .cls-8, .cls-9, .cls-10, .cls-11, .cls-12, .cls-13, .cls-14, .cls-15, .cls-16, .cls-17, .cls-18, .cls-19, .cls-20, .cls-21, .cls-22, .cls-23, .cls-24, .cls-25 {
        fill: none;
      }

      .cls-1, .cls-2, .cls-3, .cls-5 {
        stroke-dasharray: 0 0 0 1.87;
        stroke-linecap: round;
        stroke-linejoin: round;
        stroke-width: .47px;
      }

      .cls-2 {
        stroke: url(#New_Gradient_Swatch_copy-2);
      }

      .cls-3 {
        stroke: url(#New_Gradient_Swatch_copy-3);
      }

      .cls-4 {
        stroke-width: .77px;
      }

      .cls-4, .cls-6, .cls-7, .cls-8, .cls-9, .cls-10, .cls-11, .cls-12, .cls-13, .cls-14, .cls-15, .cls-16, .cls-17, .cls-18, .cls-19, .cls-20, .cls-21, .cls-22, .cls-23, .cls-24, .cls-26, .cls-25 {
        stroke-miterlimit: 10;
      }

      .cls-4, .cls-26, .cls-25 {
        stroke: #4d4d4d;
      }

      .cls-27 {
        fill: rgba(249, 249, 249, .64);
        stroke-width: 0px;
      }

      .cls-5 {
        stroke: url(#New_Gradient_Swatch_copy);
      }

      .cls-6 {
        stroke: url(#New_Gradient_Swatch_copy-12);
      }

      .cls-6, .cls-7, .cls-8, .cls-9, .cls-10, .cls-11, .cls-12, .cls-13, .cls-14, .cls-15, .cls-16, .cls-17, .cls-18, .cls-19, .cls-20, .cls-21, .cls-22, .cls-23, .cls-24, .cls-26, .cls-25 {
        stroke-width: .56px;
      }

      .cls-7 {
        stroke: url(#New_Gradient_Swatch_copy-19);
      }

      .cls-8 {
        stroke: url(#New_Gradient_Swatch_copy-13);
      }

      .cls-9 {
        stroke: url(#New_Gradient_Swatch_copy-17);
      }

      .cls-10 {
        stroke: url(#New_Gradient_Swatch_copy-15);
      }

      .cls-11 {
        stroke: url(#New_Gradient_Swatch_copy-16);
      }

      .cls-12 {
        stroke: url(#New_Gradient_Swatch_copy-10);
      }

      .cls-13 {
        stroke: url(#New_Gradient_Swatch_copy-11);
      }

      .cls-14 {
        stroke: url(#New_Gradient_Swatch_copy-14);
      }

      .cls-15 {
        stroke: url(#New_Gradient_Swatch_copy-22);
      }

      .cls-16 {
        stroke: url(#New_Gradient_Swatch_copy-21);
      }

      .cls-17 {
        stroke: url(#New_Gradient_Swatch_copy-23);
      }

      .cls-18 {
        stroke: url(#New_Gradient_Swatch_copy-20);
      }

      .cls-19 {
        stroke: url(#New_Gradient_Swatch_copy-18);
      }

      .cls-20 {
        stroke: url(#New_Gradient_Swatch_copy-6);
      }

      .cls-21 {
        stroke: url(#New_Gradient_Swatch_copy-7);
      }

      .cls-22 {
        stroke: url(#New_Gradient_Swatch_copy-9);
      }

      .cls-23 {
        stroke: url(#New_Gradient_Swatch_copy-8);
      }

      .cls-24 {
        stroke: url(#New_Gradient_Swatch_copy-5);
      }

      .cls-26 {
        fill: #242023;
      }
    </style>
    <linearGradient id="New_Gradient_Swatch_copy" data-name="New Gradient Swatch copy" x1="374.58" y1="124.57" x2="374.58" y2="61.2" gradientUnits="userSpaceOnUse">
      <stop offset="0" stop-color="#151515"/>
      <stop offset=".65" stop-color="#f3e569"/>
      <stop offset=".8" stop-color="#f9f9f9"/>
      <stop offset=".95" stop-color="#151515"/>
    </linearGradient>
    <linearGradient id="New_Gradient_Swatch_copy-2" data-name="New Gradient Swatch copy" x1="364.99" y1="143.76" x2="364.99" y2="42.01" xlink:href="#New_Gradient_Swatch_copy"/>
    <linearGradient id="New_Gradient_Swatch_copy-3" data-name="New Gradient Swatch copy" x1="352.52" y1="168.68" x2="352.52" y2="17.09" xlink:href="#New_Gradient_Swatch_copy"/>
    <linearGradient id="New_Gradient_Swatch_copy-4" data-name="New Gradient Swatch copy" x1="347.39" y1="178.95" x2="347.39" y2="6.82" xlink:href="#New_Gradient_Swatch_copy"/>
    <linearGradient id="New_Gradient_Swatch_copy-5" data-name="New Gradient Swatch copy" x1="180.09" y1="8.36" x2="263.3" y2="8.36" xlink:href="#New_Gradient_Swatch_copy"/>
    <linearGradient id="New_Gradient_Swatch_copy-6" data-name="New Gradient Swatch copy" x1="31.48" y1="8.36" x2="172.68" y2="8.36" xlink:href="#New_Gradient_Swatch_copy"/>
    <linearGradient id="New_Gradient_Swatch_copy-7" data-name="New Gradient Swatch copy" x1="158.83" y1="33.87" x2="219.46" y2="33.87" xlink:href="#New_Gradient_Swatch_copy"/>
    <linearGradient id="New_Gradient_Swatch_copy-8" data-name="New Gradient Swatch copy" x1="165.83" y1="33.87" x2="212.46" y2="33.87" gradientTransform="translate(223.02 -155.27) rotate(90)" xlink:href="#New_Gradient_Swatch_copy"/>
    <linearGradient id="New_Gradient_Swatch_copy-9" data-name="New Gradient Swatch copy" x1="132.18" y1="33.87" x2="148.31" y2="33.87" xlink:href="#New_Gradient_Swatch_copy"/>
    <linearGradient id="New_Gradient_Swatch_copy-10" data-name="New Gradient Swatch copy" x1="95.64" y1="26.84" x2="119.26" y2="26.84" xlink:href="#New_Gradient_Swatch_copy"/>
    <linearGradient id="New_Gradient_Swatch_copy-11" data-name="New Gradient Swatch copy" x1="69.95" y1="22.92" x2="86.49" y2="22.92" xlink:href="#New_Gradient_Swatch_copy"/>
    <linearGradient id="New_Gradient_Swatch_copy-12" data-name="New Gradient Swatch copy" x1="180.09" y1="177.34" x2="263.3" y2="177.34" xlink:href="#New_Gradient_Swatch_copy"/>
    <linearGradient id="New_Gradient_Swatch_copy-13" data-name="New Gradient Swatch copy" x1="31.48" y1="177.34" x2="172.68" y2="177.34" xlink:href="#New_Gradient_Swatch_copy"/>
    <linearGradient id="New_Gradient_Swatch_copy-14" data-name="New Gradient Swatch copy" x1="158.83" y1="151.83" x2="219.46" y2="151.83" xlink:href="#New_Gradient_Swatch_copy"/>
    <linearGradient id="New_Gradient_Swatch_copy-15" data-name="New Gradient Swatch copy" x1="132.18" y1="151.83" x2="148.31" y2="151.83" xlink:href="#New_Gradient_Swatch_copy"/>
    <linearGradient id="New_Gradient_Swatch_copy-16" data-name="New Gradient Swatch copy" x1="95.64" y1="158.86" x2="119.26" y2="158.86" xlink:href="#New_Gradient_Swatch_copy"/>
    <linearGradient id="New_Gradient_Swatch_copy-17" data-name="New Gradient Swatch copy" x1="69.95" y1="162.78" x2="86.49" y2="162.78" xlink:href="#New_Gradient_Swatch_copy"/>
    <linearGradient id="New_Gradient_Swatch_copy-18" data-name="New Gradient Swatch copy" x1="255.99" y1="102.98" x2="255.99" y2="82.79" xlink:href="#New_Gradient_Swatch_copy"/>
    <linearGradient id="New_Gradient_Swatch_copy-19" data-name="New Gradient Swatch copy" x1="216.42" y1="95.92" x2="216.42" y2="89.84" xlink:href="#New_Gradient_Swatch_copy"/>
    <linearGradient id="New_Gradient_Swatch_copy-20" data-name="New Gradient Swatch copy" x1="282.36" y1="95.92" x2="282.36" y2="89.84" xlink:href="#New_Gradient_Swatch_copy"/>
    <linearGradient id="New_Gradient_Swatch_copy-21" data-name="New Gradient Swatch copy" x1="124.09" y1="99.68" x2="124.09" y2="86.09" xlink:href="#New_Gradient_Swatch_copy"/>
    <linearGradient id="New_Gradient_Swatch_copy-22" data-name="New Gradient Swatch copy" x1="18.57" y1="99.68" x2="18.57" y2="86.09" xlink:href="#New_Gradient_Swatch_copy"/>
    <linearGradient id="New_Gradient_Swatch_copy-23" data-name="New Gradient Swatch copy" x1="71.33" y1="111.03" x2="71.33" y2="74.74" xlink:href="#New_Gradient_Swatch_copy"/>
  </defs>
  <g id="Layer_1-2" data-name="Layer 1">
    <g>
      <rect class="cls-26" x=".28" y=".28" width="390.02" height="185.21"/>
      <g>
        <path class="cls-27" d="M73.03,88.97v-2.66h5.25c.68,0,1.23.52,1.23,1.17v10.82c0,.65-.55,1.17-1.23,1.17h-5.25v-2.65l4.68-2.07c.77-.34,1.25-1.06,1.25-1.86s-.48-1.52-1.25-1.86l-4.68-2.05h0Z"/>
        <path class="cls-27" d="M69.64,96.8v2.66h-5.25c-.68,0-1.23-.52-1.23-1.17v-10.82c0-.65.55-1.17,1.23-1.17h5.25v2.65l-4.68,2.07c-.77.34-1.25,1.06-1.25,1.86s.48,1.52,1.25,1.86l4.68,2.05h0Z"/>
        <path class="cls-27" d="M71.33,95.6c1.5,0,2.72-1.22,2.72-2.72s-1.22-2.72-2.72-2.72-2.72,1.22-2.72,2.72,1.22,2.72,2.72,2.72Z"/>
      </g>
      <path class="cls-25" d="M390.3,185.49c-51.14,0-92.61-41.46-92.61-92.61S339.16.28,390.3.28"/>
      <path class="cls-25" d="M390.3,173.29c-44.41,0-80.4-36-80.4-80.4S345.9,12.48,390.3,12.48"/>
      <path class="cls-25" d="M390.3,155.78c-34.74,0-62.9-28.16-62.9-62.9s28.16-62.9,62.9-62.9"/>
      <path class="cls-25" d="M390.3,134.57c-23.02,0-41.68-18.66-41.68-41.68s18.66-41.68,41.68-41.68"/>
      <path class="cls-25" d="M390.3,113.73c-11.51,0-20.84-9.33-20.84-20.84s9.33-20.84,20.84-20.84"/>
      <path class="cls-5" d="M390.3,124.33c-17.37,0-31.45-14.08-31.45-31.45s14.08-31.45,31.45-31.45"/>
      <path class="cls-2" d="M390.3,143.52c-27.97,0-50.64-22.67-50.64-50.64s22.67-50.64,50.64-50.64"/>
      <path class="cls-3" d="M390.3,168.45c-41.73,0-75.56-33.83-75.56-75.56s33.83-75.56,75.56-75.56"/>
      <path class="cls-1" d="M390.3,178.71c-47.4,0-85.83-38.43-85.83-85.83S342.9,7.06,390.3,7.06"/>
      <path class="cls-25" d="M.28,23.74c67.88,0,137.56,42.37,182.53,42.37S229.39,33.19,291.47.28"/>
      <path class="cls-25" d="M.28,162.03c67.88,0,137.56-42.37,182.53-42.37s46.58,32.91,108.66,65.82"/>
      <polyline class="cls-25" points="297.7 92.88 295.55 92.88 282.36 92.88 269.18 92.88 255.99 92.88 242.8 92.88 229.61 92.88 216.42 92.88 203.23 92.88 190.04 92.88 176.85 92.88 163.66 92.88 150.47 92.88 137.28 92.88 124.09 92.88 110.9 92.88 97.71 92.88 89.2 92.88"/>
      <polyline class="cls-25" points=".28 92.88 5.39 92.88 18.57 92.88 31.76 92.88 44.95 92.88 53.46 92.88"/>
      <g>
        <path class="cls-25" d="M390.3.28c-31.54,0-87.97,0-166.97,61.16C171.48,101.57,101.24,51.18.28,51.18"/>
        <g>
          <line class="cls-25" x1="5.39" y1="134.54" x2="5.39" y2="51.23"/>
          <line class="cls-25" x1="18.57" y1="134.04" x2="18.57" y2="51.73"/>
          <line class="cls-25" x1="31.76" y1="133.02" x2="31.76" y2="52.75"/>
          <line class="cls-25" x1="44.95" y1="131.49" x2="44.95" y2="54.28"/>
          <line class="cls-25" x1="58.14" y1="80.83" x2="58.14" y2="56.25"/>
          <line class="cls-25" x1="58.14" y1="129.52" x2="58.14" y2="104.94"/>
          <line class="cls-25" x1="71.33" y1="75.02" x2="71.33" y2="58.6"/>
          <line class="cls-25" x1="71.33" y1="127.17" x2="71.33" y2="110.75"/>
          <line class="cls-25" x1="84.52" y1="80.83" x2="84.52" y2="61.27"/>
          <line class="cls-25" x1="84.52" y1="124.5" x2="84.52" y2="104.94"/>
          <line class="cls-25" x1="97.71" y1="121.62" x2="97.71" y2="64.15"/>
          <line class="cls-25" x1="110.9" y1="118.64" x2="110.9" y2="67.13"/>
          <line class="cls-25" x1="124.09" y1="115.71" x2="124.09" y2="70.06"/>
          <line class="cls-25" x1="137.28" y1="113" x2="137.28" y2="72.77"/>
          <line class="cls-25" x1="150.47" y1="110.75" x2="150.47" y2="75.02"/>
          <line class="cls-25" x1="163.66" y1="109.24" x2="163.66" y2="76.53"/>
          <line class="cls-25" x1="176.85" y1="108.84" x2="176.85" y2="76.93"/>
          <line class="cls-25" x1="190.04" y1="110.01" x2="190.04" y2="75.76"/>
          <line class="cls-25" x1="203.23" y1="113.33" x2="203.23" y2="72.44"/>
          <line class="cls-25" x1="216.42" y1="119.57" x2="216.42" y2="66.2"/>
          <line class="cls-25" x1="229.61" y1="129.1" x2="229.61" y2="56.67"/>
          <line class="cls-4" x1="242.8" y1="138.51" x2="242.8" y2="47.26"/>
          <line class="cls-4" x1="255.99" y1="147.09" x2="255.99" y2="38.68"/>
          <line class="cls-4" x1="269.18" y1="154.83" x2="269.18" y2="30.94"/>
          <line class="cls-4" x1="282.36" y1="161.71" x2="282.36" y2="24.06"/>
          <line class="cls-4" x1="295.55" y1="167.72" x2="295.55" y2="18.05"/>
          <line class="cls-4" x1="308.74" y1="48.99" x2="308.74" y2="12.92"/>
          <line class="cls-4" x1="308.74" y1="172.85" x2="308.74" y2="136.78"/>
          <line class="cls-4" x1="321.93" y1="30.43" x2="321.93" y2="8.68"/>
          <line class="cls-4" x1="321.93" y1="177.1" x2="321.93" y2="155.34"/>
          <line class="cls-4" x1="335.12" y1="18.52" x2="335.12" y2="5.33"/>
          <line class="cls-4" x1="335.12" y1="180.44" x2="335.12" y2="167.26"/>
          <line class="cls-4" x1="348.31" y1="10.33" x2="348.31" y2="2.88"/>
          <line class="cls-4" x1="348.31" y1="182.89" x2="348.31" y2="175.44"/>
          <line class="cls-4" x1="361.5" y1="4.85" x2="361.5" y2="1.29"/>
          <line class="cls-4" x1="361.5" y1="184.48" x2="361.5" y2="180.92"/>
          <line class="cls-4" x1="374.69" y1="1.6" x2="374.69" y2=".48"/>
          <line class="cls-4" x1="374.69" y1="185.29" x2="374.69" y2="184.17"/>
        </g>
        <path class="cls-25" d="M390.3,185.49c-31.54,0-87.97,0-166.97-61.16-51.85-40.14-122.09,10.26-223.05,10.26"/>
      </g>
      <g>
        <rect class="cls-24" x="180.37" y="5.51" width="82.65" height="5.69" rx="2.44" ry="2.44"/>
        <rect class="cls-20" x="31.76" y="5.51" width="140.63" height="5.69" rx="2.44" ry="2.44"/>
        <rect class="cls-21" x="159.11" y="20.49" width="60.07" height="26.78" rx="2.44" ry="2.44"/>
        <rect class="cls-23" x="182.76" y="10.84" width="12.78" height="46.07" rx="6.39" ry="6.39" transform="translate(155.27 223.02) rotate(-90)"/>
        <rect class="cls-22" x="132.46" y="20.49" width="15.57" height="26.78" rx="2.44" ry="2.44"/>
        <rect class="cls-12" x="95.92" y="20.49" width="23.06" height="12.71" rx="2.44" ry="2.44"/>
        <rect class="cls-13" x="70.23" y="20.49" width="15.97" height="4.88" rx="2.44" ry="2.44"/>
      </g>
      <g>
        <rect class="cls-6" x="180.37" y="174.5" width="82.65" height="5.69" rx="2.44" ry="2.44"/>
        <rect class="cls-8" x="31.76" y="174.5" width="140.63" height="5.69" rx="2.44" ry="2.44"/>
        <rect class="cls-14" x="159.11" y="138.44" width="60.07" height="26.78" rx="2.44" ry="2.44"/>
        <rect class="cls-10" x="132.46" y="138.44" width="15.57" height="26.78" rx="2.44" ry="2.44"/>
        <rect class="cls-11" x="95.92" y="152.51" width="23.06" height="12.71" rx="2.44" ry="2.44"/>
        <rect class="cls-9" x="70.23" y="160.34" width="15.97" height="4.88" rx="2.44" ry="2.44"/>
      </g>
      <circle class="cls-25" cx="140.24" cy="151.83" r="4.66"/>
      <circle class="cls-25" cx="170.96" cy="151.83" r="4.66"/>
      <circle class="cls-25" cx="187.16" cy="151.83" r="4.66"/>
      <rect class="cls-25" x="196.15" y="147.16" width="17.58" height="9.33" rx="2.66" ry="2.66"/>
      <circle class="cls-19" cx="255.99" cy="92.88" r="9.82"/>
      <circle class="cls-7" cx="216.42" cy="92.88" r="2.76"/>
      <circle class="cls-18" cx="282.36" cy="92.88" r="2.76"/>
      <circle class="cls-16" cx="124.09" cy="92.88" r="6.52"/>
      <circle class="cls-15" cx="18.57" cy="92.88" r="6.52"/>
      <circle class="cls-17" cx="71.33" cy="92.88" r="17.87"/>
    </g>
  </g>
</svg>