<?xml version="1.0" encoding="UTF-8"?>
<svg id="Layer_2" data-name="Layer 2" xmlns="http://www.w3.org/2000/svg" xmlns:xlink="http://www.w3.org/1999/xlink" viewBox="0 0 390.58 185.87">
  <defs>
    <style>
      .cls-1 {
        stroke: url(#linear-gradient);
      }

      .cls-1, .cls-2, .cls-3, .cls-4, .cls-5, .cls-6, .cls-7, .cls-8, .cls-9, .cls-10, .cls-11, .cls-12, .cls-13, .cls-14, .cls-15, .cls-16, .cls-17, .cls-18, .cls-19, .cls-20, .cls-21, .cls-22, .cls-23, .cls-24, .cls-25, .cls-26, .cls-27, .cls-28, .cls-29, .cls-30, .cls-31, .cls-32, .cls-33, .cls-34, .cls-35, .cls-36, .cls-37, .cls-38, .cls-39, .cls-40, .cls-41, .cls-42, .cls-43, .cls-44, .cls-45, .cls-46, .cls-47, .cls-48, .cls-49, .cls-50, .cls-51, .cls-52, .cls-53, .cls-54, .cls-55, .cls-56, .cls-57, .cls-58 {
        stroke-miterlimit: 10;
      }

      .cls-1, .cls-2, .cls-3, .cls-4, .cls-5, .cls-6, .cls-7, .cls-8, .cls-10, .cls-11, .cls-12, .cls-13, .cls-14, .cls-15, .cls-16, .cls-17, .cls-18, .cls-19, .cls-20, .cls-21, .cls-22, .cls-23, .cls-24, .cls-25, .cls-26, .cls-27, .cls-28, .cls-29, .cls-30, .cls-31, .cls-32, .cls-33, .cls-34, .cls-35, .cls-36, .cls-37, .cls-38, .cls-39, .cls-40, .cls-41, .cls-42, .cls-43, .cls-44, .cls-45, .cls-46, .cls-47, .cls-48, .cls-49, .cls-50, .cls-51, .cls-52, .cls-53, .cls-54, .cls-55, .cls-56, .cls-57, .cls-58 {
        fill: none;
      }

      .cls-1, .cls-9, .cls-10, .cls-11, .cls-12, .cls-13, .cls-14, .cls-15, .cls-16, .cls-17, .cls-18, .cls-19, .cls-20, .cls-21, .cls-22, .cls-23, .cls-24, .cls-25, .cls-26, .cls-27, .cls-28, .cls-29, .cls-30, .cls-31, .cls-32, .cls-40 {
        stroke-width: .56px;
      }

      .cls-2 {
        stroke: url(#New_Gradient_Swatch);
        stroke-width: .58px;
      }

      .cls-3, .cls-4, .cls-5, .cls-9, .cls-40, .cls-58 {
        stroke: #4d4d4d;
      }

      .cls-3, .cls-6, .cls-7, .cls-8 {
        stroke-width: .68px;
      }

      .cls-4 {
        stroke-width: .41px;
      }

      .cls-5 {
        stroke-width: .33px;
      }

      .cls-6 {
        stroke: url(#linear-gradient-25);
      }

      .cls-7 {
        stroke: url(#linear-gradient-26);
      }

      .cls-8 {
        stroke: url(#New_Gradient_Swatch-2);
      }

      .cls-9 {
        fill: #242023;
      }

      .cls-10 {
        stroke: url(#linear-gradient-24);
      }

      .cls-11 {
        stroke: url(#linear-gradient-12);
      }

      .cls-12 {
        stroke: url(#linear-gradient-13);
      }

      .cls-13 {
        stroke: url(#linear-gradient-11);
      }

      .cls-14 {
        stroke: url(#linear-gradient-22);
      }

      .cls-15 {
        stroke: url(#linear-gradient-21);
      }

      .cls-16 {
        stroke: url(#linear-gradient-23);
      }

      .cls-17 {
        stroke: url(#linear-gradient-20);
      }

      .cls-18 {
        stroke: url(#linear-gradient-14);
      }

      .cls-19 {
        stroke: url(#linear-gradient-16);
      }

      .cls-20 {
        stroke: url(#linear-gradient-18);
      }

      .cls-21 {
        stroke: url(#linear-gradient-15);
      }

      .cls-22 {
        stroke: url(#linear-gradient-17);
      }

      .cls-23 {
        stroke: url(#linear-gradient-19);
      }

      .cls-24 {
        stroke: url(#linear-gradient-10);
      }

      .cls-25 {
        stroke: url(#linear-gradient-4);
      }

      .cls-26 {
        stroke: url(#linear-gradient-2);
      }

      .cls-27 {
        stroke: url(#linear-gradient-3);
      }

      .cls-28 {
        stroke: url(#linear-gradient-6);
      }

      .cls-29 {
        stroke: url(#linear-gradient-7);
      }

      .cls-30 {
        stroke: url(#linear-gradient-5);
      }

      .cls-31 {
        stroke: url(#linear-gradient-9);
      }

      .cls-32 {
        stroke: url(#linear-gradient-8);
      }

      .cls-33 {
        stroke: url(#New_Gradient_Swatch-8);
      }

      .cls-33, .cls-34, .cls-35, .cls-36, .cls-37, .cls-38, .cls-39, .cls-41, .cls-42, .cls-43, .cls-44, .cls-45, .cls-46, .cls-47, .cls-48, .cls-49, .cls-50, .cls-51, .cls-52, .cls-53, .cls-54, .cls-55, .cls-56, .cls-57, .cls-58 {
        stroke-width: .41px;
      }

      .cls-34 {
        stroke: url(#New_Gradient_Swatch-7);
      }

      .cls-35 {
        stroke: url(#New_Gradient_Swatch-6);
      }

      .cls-36 {
        stroke: url(#New_Gradient_Swatch-3);
      }

      .cls-37 {
        stroke: url(#New_Gradient_Swatch-5);
      }

      .cls-38 {
        stroke: url(#New_Gradient_Swatch-4);
      }

      .cls-39 {
        stroke: url(#New_Gradient_Swatch-9);
      }

      .cls-41 {
        stroke: url(#New_Gradient_Swatch-15);
      }

      .cls-42 {
        stroke: url(#New_Gradient_Swatch-18);
      }

      .cls-43 {
        stroke: url(#New_Gradient_Swatch-17);
      }

      .cls-44 {
        stroke: url(#New_Gradient_Swatch-11);
      }

      .cls-45 {
        stroke: url(#New_Gradient_Swatch-16);
      }

      .cls-46 {
        stroke: url(#New_Gradient_Swatch-12);
      }

      .cls-47 {
        stroke: url(#New_Gradient_Swatch-14);
      }

      .cls-48 {
        stroke: url(#New_Gradient_Swatch-19);
      }

      .cls-49 {
        stroke: url(#New_Gradient_Swatch-10);
      }

      .cls-50 {
        stroke: url(#New_Gradient_Swatch-13);
      }

      .cls-51 {
        stroke: url(#New_Gradient_Swatch-20);
      }

      .cls-52 {
        stroke: url(#New_Gradient_Swatch-23);
      }

      .cls-53 {
        stroke: url(#New_Gradient_Swatch-25);
      }

      .cls-54 {
        stroke: url(#New_Gradient_Swatch-26);
      }

      .cls-55 {
        stroke: url(#New_Gradient_Swatch-24);
      }

      .cls-56 {
        stroke: url(#New_Gradient_Swatch-21);
      }

      .cls-57 {
        stroke: url(#New_Gradient_Swatch-22);
      }
    </style>
    <linearGradient id="New_Gradient_Swatch" data-name="New Gradient Swatch" x1="190.87" y1="9.18" x2="199.71" y2="9.18" gradientUnits="userSpaceOnUse">
      <stop offset="0" stop-color="#151515"/>
      <stop offset=".65" stop-color="#389181"/>
      <stop offset=".8" stop-color="#f9f9f9"/>
      <stop offset=".95" stop-color="#151515"/>
    </linearGradient>
    <linearGradient id="New_Gradient_Swatch-2" data-name="New Gradient Swatch" x1="172.48" y1="173.91" x2="219.22" y2="173.91" xlink:href="#New_Gradient_Swatch"/>
    <linearGradient id="New_Gradient_Swatch-3" data-name="New Gradient Swatch" x1="315.65" y1="6.59" x2="315.65" y2="16.39" xlink:href="#New_Gradient_Swatch"/>
    <linearGradient id="New_Gradient_Swatch-4" data-name="New Gradient Swatch" x1="315.65" y1="21.02" x2="315.65" y2="30.82" xlink:href="#New_Gradient_Swatch"/>
    <linearGradient id="New_Gradient_Swatch-5" data-name="New Gradient Swatch" x1="315.65" y1="35.45" x2="315.65" y2="45.25" xlink:href="#New_Gradient_Swatch"/>
    <linearGradient id="New_Gradient_Swatch-6" data-name="New Gradient Swatch" x1="315.65" y1="49.88" x2="315.65" y2="59.68" xlink:href="#New_Gradient_Swatch"/>
    <linearGradient id="New_Gradient_Swatch-7" data-name="New Gradient Swatch" x1="315.65" y1="64.31" x2="315.65" y2="74.11" xlink:href="#New_Gradient_Swatch"/>
    <linearGradient id="New_Gradient_Swatch-8" data-name="New Gradient Swatch" x1="315.65" y1="78.74" x2="315.65" y2="88.54" xlink:href="#New_Gradient_Swatch"/>
    <linearGradient id="New_Gradient_Swatch-9" data-name="New Gradient Swatch" x1="315.65" y1="93.17" x2="315.65" y2="102.97" xlink:href="#New_Gradient_Swatch"/>
    <linearGradient id="New_Gradient_Swatch-10" data-name="New Gradient Swatch" x1="315.65" y1="107.6" x2="315.65" y2="117.4" xlink:href="#New_Gradient_Swatch"/>
    <linearGradient id="New_Gradient_Swatch-11" data-name="New Gradient Swatch" x1="315.65" y1="122.03" x2="315.65" y2="131.83" xlink:href="#New_Gradient_Swatch"/>
    <linearGradient id="New_Gradient_Swatch-12" data-name="New Gradient Swatch" x1="315.65" y1="136.46" x2="315.65" y2="146.26" xlink:href="#New_Gradient_Swatch"/>
    <linearGradient id="New_Gradient_Swatch-13" data-name="New Gradient Swatch" x1="315.65" y1="150.89" x2="315.65" y2="160.69" xlink:href="#New_Gradient_Swatch"/>
    <linearGradient id="New_Gradient_Swatch-14" data-name="New Gradient Swatch" x1="315.65" y1="165.33" x2="315.65" y2="175.12" xlink:href="#New_Gradient_Swatch"/>
    <linearGradient id="New_Gradient_Swatch-15" data-name="New Gradient Swatch" x1="74.72" y1="174.96" x2="74.72" y2="165.17" xlink:href="#New_Gradient_Swatch"/>
    <linearGradient id="New_Gradient_Swatch-16" data-name="New Gradient Swatch" x1="74.72" y1="160.53" x2="74.72" y2="150.74" xlink:href="#New_Gradient_Swatch"/>
    <linearGradient id="New_Gradient_Swatch-17" data-name="New Gradient Swatch" x1="74.72" y1="146.1" x2="74.72" y2="136.31" xlink:href="#New_Gradient_Swatch"/>
    <linearGradient id="New_Gradient_Swatch-18" data-name="New Gradient Swatch" x1="74.72" y1="131.67" x2="74.72" y2="121.88" xlink:href="#New_Gradient_Swatch"/>
    <linearGradient id="New_Gradient_Swatch-19" data-name="New Gradient Swatch" x1="74.72" y1="117.24" x2="74.72" y2="107.45" xlink:href="#New_Gradient_Swatch"/>
    <linearGradient id="New_Gradient_Swatch-20" data-name="New Gradient Swatch" x1="74.72" y1="102.81" x2="74.72" y2="93.02" xlink:href="#New_Gradient_Swatch"/>
    <linearGradient id="New_Gradient_Swatch-21" data-name="New Gradient Swatch" x1="74.72" y1="88.38" x2="74.72" y2="78.59" xlink:href="#New_Gradient_Swatch"/>
    <linearGradient id="New_Gradient_Swatch-22" data-name="New Gradient Swatch" x1="74.72" y1="73.95" x2="74.72" y2="64.15" xlink:href="#New_Gradient_Swatch"/>
    <linearGradient id="New_Gradient_Swatch-23" data-name="New Gradient Swatch" x1="74.72" y1="59.52" x2="74.72" y2="49.72" xlink:href="#New_Gradient_Swatch"/>
    <linearGradient id="New_Gradient_Swatch-24" data-name="New Gradient Swatch" x1="74.72" y1="45.09" x2="74.72" y2="35.29" xlink:href="#New_Gradient_Swatch"/>
    <linearGradient id="New_Gradient_Swatch-25" data-name="New Gradient Swatch" x1="74.72" y1="30.66" x2="74.72" y2="20.86" xlink:href="#New_Gradient_Swatch"/>
    <linearGradient id="New_Gradient_Swatch-26" data-name="New Gradient Swatch" x1="74.72" y1="16.23" x2="74.72" y2="6.43" xlink:href="#New_Gradient_Swatch"/>
    <linearGradient id="linear-gradient" x1="359.99" y1="166.54" x2="370.71" y2="147.98" gradientUnits="userSpaceOnUse">
      <stop offset=".05" stop-color="#151515"/>
      <stop offset=".2" stop-color="#f9f9f9"/>
      <stop offset=".35" stop-color="#389181"/>
      <stop offset="1" stop-color="#151515"/>
    </linearGradient>
    <linearGradient id="linear-gradient-2" x1="366.21" y1="139.28" x2="373.88" y2="125.98" xlink:href="#linear-gradient"/>
    <linearGradient id="linear-gradient-3" x1="371.17" y1="116.99" x2="376.71" y2="107.39" xlink:href="#linear-gradient"/>
    <linearGradient id="linear-gradient-4" x1="374.89" y1="101.13" x2="378.35" y2="95.13" xlink:href="#linear-gradient"/>
    <linearGradient id="linear-gradient-5" x1="359.4" y1="151.48" x2="369.85" y2="133.38" xlink:href="#linear-gradient"/>
    <linearGradient id="linear-gradient-6" x1="363.84" y1="124.02" x2="371.33" y2="111.04" xlink:href="#linear-gradient"/>
    <linearGradient id="linear-gradient-7" x1="367.34" y1="101.56" x2="372.76" y2="92.18" xlink:href="#linear-gradient"/>
    <linearGradient id="linear-gradient-8" x1="370.04" y1="85.6" x2="373.44" y2="79.72" xlink:href="#linear-gradient"/>
    <linearGradient id="linear-gradient-9" x1="357.32" y1="134.1" x2="367.34" y2="116.74" xlink:href="#linear-gradient"/>
    <linearGradient id="linear-gradient-10" x1="359.4" y1="106.58" x2="366.59" y2="94.13" xlink:href="#linear-gradient"/>
    <linearGradient id="linear-gradient-11" x1="360.95" y1="84.07" x2="366.15" y2="75.05" xlink:href="#linear-gradient"/>
    <linearGradient id="linear-gradient-12" x1="362.3" y1="68.08" x2="365.57" y2="62.41" xlink:href="#linear-gradient"/>
    <linearGradient id="linear-gradient-13" x1="19.25" y1="164.8" x2="27.95" y2="149.73" xlink:href="#linear-gradient"/>
    <linearGradient id="linear-gradient-14" x1="15.78" y1="138.05" x2="22.04" y2="127.21" xlink:href="#linear-gradient"/>
    <linearGradient id="linear-gradient-15" x1="12.74" y1="116.13" x2="17.29" y2="108.25" xlink:href="#linear-gradient"/>
    <linearGradient id="linear-gradient-16" x1="10.89" y1="100.63" x2="13.78" y2="95.63" xlink:href="#linear-gradient"/>
    <linearGradient id="linear-gradient-17" x1="19.74" y1="150.38" x2="28.92" y2="134.48" xlink:href="#linear-gradient"/>
    <linearGradient id="linear-gradient-18" x1="18.07" y1="123.25" x2="24.66" y2="111.82" xlink:href="#linear-gradient"/>
    <linearGradient id="linear-gradient-19" x1="16.51" y1="101.02" x2="21.3" y2="92.72" xlink:href="#linear-gradient"/>
    <linearGradient id="linear-gradient-20" x1="15.7" y1="85.28" x2="18.73" y2="80.04" xlink:href="#linear-gradient"/>
    <linearGradient id="linear-gradient-21" x1="21.76" y1="133.85" x2="31.49" y2="116.99" xlink:href="#linear-gradient"/>
    <linearGradient id="linear-gradient-22" x1="22.46" y1="106.41" x2="29.45" y2="94.3" xlink:href="#linear-gradient"/>
    <linearGradient id="linear-gradient-23" x1="22.87" y1="83.94" x2="27.93" y2="75.17" xlink:href="#linear-gradient"/>
    <linearGradient id="linear-gradient-24" x1="23.42" y1="68.01" x2="26.62" y2="62.48" xlink:href="#linear-gradient"/>
    <linearGradient id="linear-gradient-25" x1="195.29" y1="157.15" x2="195.29" y2="77.1" xlink:href="#linear-gradient"/>
    <linearGradient id="linear-gradient-26" x1="195.29" y1="158.25" x2="195.29" y2="144.36" xlink:href="#linear-gradient"/>
  </defs>
  <g id="Layer_1-2" data-name="Layer 1">
    <g>
      <rect class="cls-9" x=".28" y=".38" width="390.02" height="185.21"/>
      <g>
        <g>
          <polyline class="cls-40" points="240.17 185.59 195.29 130.12 173.98 103.77 157.64 83.58 135.55 56.28 114.75 30.58"/>
          <polyline class="cls-40" points="125.68 28.65 152.07 50.46 152.09 50.46 177.72 71.66 195.29 86.17 216.61 103.77 302.53 174.76"/>
          <polyline class="cls-40" points="137.04 26.65 137.06 26.65 167.83 44.93 195.29 61.23 212.86 71.66 232.94 83.58 302.53 124.89"/>
          <polyline class="cls-40" points="159.53 22.71 159.55 22.71 195.29 35.28 195.3 35.28 222.75 44.93 238.5 50.46 255.03 56.28 302.53 72.97"/>
        </g>
        <g>
          <polyline class="cls-40" points="150.42 185.59 195.29 130.12 216.61 103.77 232.94 83.58 255.03 56.28 275.83 30.58"/>
          <polyline class="cls-40" points="264.9 28.65 238.5 50.46 212.86 71.66 195.29 86.17 173.98 103.77 88.06 174.76"/>
          <polyline class="cls-40" points="253.53 26.65 222.75 44.93 195.29 61.23 177.72 71.66 157.64 83.58 88.06 124.89"/>
          <polyline class="cls-40" points="231.05 22.71 195.29 35.28 167.83 44.93 152.09 50.46 135.55 56.28 88.06 72.97"/>
        </g>
      </g>
      <circle class="cls-2" cx="195.29" cy="9.18" r="4.13"/>
      <path class="cls-8" d="M172.82,185.59c0-12.72,10.31-23.03,23.03-23.03s23.03,10.31,23.03,23.03"/>
      <g>
        <polygon class="cls-36" points="321.92 6.8 315.65 16.03 309.38 6.8 321.92 6.8"/>
        <polygon class="cls-38" points="321.92 21.23 315.65 30.46 309.38 21.23 321.92 21.23"/>
        <polygon class="cls-37" points="321.92 35.66 315.65 44.89 309.38 35.66 321.92 35.66"/>
        <polygon class="cls-35" points="321.92 50.09 315.65 59.32 309.38 50.09 321.92 50.09"/>
        <polygon class="cls-34" points="321.92 64.52 315.65 73.75 309.38 64.52 321.92 64.52"/>
        <polygon class="cls-33" points="321.92 78.95 315.65 88.18 309.38 78.95 321.92 78.95"/>
        <polygon class="cls-39" points="321.92 93.38 315.65 102.61 309.38 93.38 321.92 93.38"/>
        <polygon class="cls-49" points="321.92 107.81 315.65 117.04 309.38 107.81 321.92 107.81"/>
        <polygon class="cls-44" points="321.92 122.24 315.65 131.47 309.38 122.24 321.92 122.24"/>
        <polygon class="cls-46" points="321.92 136.67 315.65 145.9 309.38 136.67 321.92 136.67"/>
        <polygon class="cls-50" points="321.92 151.1 315.65 160.33 309.38 151.1 321.92 151.1"/>
        <polygon class="cls-47" points="321.92 165.53 315.65 174.76 309.38 165.53 321.92 165.53"/>
      </g>
      <g>
        <polygon class="cls-41" points="68.45 174.76 74.72 165.53 80.99 174.76 68.45 174.76"/>
        <polygon class="cls-45" points="68.45 160.33 74.72 151.1 80.99 160.33 68.45 160.33"/>
        <polygon class="cls-43" points="68.45 145.9 74.72 136.67 80.99 145.9 68.45 145.9"/>
        <polygon class="cls-42" points="68.45 131.47 74.72 122.24 80.99 131.47 68.45 131.47"/>
        <polygon class="cls-48" points="68.45 117.04 74.72 107.81 80.99 117.04 68.45 117.04"/>
        <polygon class="cls-51" points="68.45 102.61 74.72 93.38 80.99 102.61 68.45 102.61"/>
        <polygon class="cls-56" points="68.45 88.18 74.72 78.95 80.99 88.18 68.45 88.18"/>
        <polygon class="cls-57" points="68.45 73.75 74.72 64.52 80.99 73.75 68.45 73.75"/>
        <polygon class="cls-52" points="68.45 59.32 74.72 50.09 80.99 59.32 68.45 59.32"/>
        <polygon class="cls-55" points="68.45 44.89 74.72 35.66 80.99 44.89 68.45 44.89"/>
        <polygon class="cls-53" points="68.45 30.46 74.72 21.23 80.99 30.46 68.45 30.46"/>
        <polygon class="cls-54" points="68.45 16.03 74.72 6.8 80.99 16.03 68.45 16.03"/>
      </g>
      <g>
        <path class="cls-58" d="M328.82,185.59V.38s30.1,19.85,30.1,143.29"/>
        <circle class="cls-58" cx="358.92" cy="147.07" r="1.54"/>
        <circle class="cls-58" cx="358.92" cy="152.64" r="1.54"/>
        <circle class="cls-58" cx="358.92" cy="158.21" r="1.54"/>
        <circle class="cls-58" cx="358.92" cy="163.78" r="1.54"/>
        <circle class="cls-58" cx="358.92" cy="169.35" r="1.54"/>
        <line class="cls-58" x1="348.66" y1="170.89" x2="369.18" y2="170.89"/>
        <g>
          <line class="cls-1" x1="363.24" y1="168.31" x2="367.46" y2="146.21"/>
          <line class="cls-26" x1="368.54" y1="140.52" x2="371.55" y2="124.74"/>
          <line class="cls-27" x1="372.86" y1="117.86" x2="375.02" y2="106.52"/>
          <line class="cls-25" x1="375.95" y1="101.64" x2="377.29" y2="94.62"/>
        </g>
        <g>
          <line class="cls-30" x1="363.29" y1="153.6" x2="365.95" y2="131.26"/>
          <line class="cls-28" x1="366.64" y1="125.5" x2="368.54" y2="109.56"/>
          <line class="cls-29" x1="369.37" y1="102.6" x2="370.73" y2="91.14"/>
          <line class="cls-32" x1="371.32" y1="86.21" x2="372.16" y2="79.11"/>
        </g>
        <g>
          <line class="cls-31" x1="362.03" y1="136.67" x2="362.63" y2="114.18"/>
          <line class="cls-24" x1="362.78" y1="108.38" x2="363.21" y2="92.33"/>
          <line class="cls-13" x1="363.4" y1="85.33" x2="363.71" y2="73.79"/>
          <line class="cls-11" x1="363.84" y1="68.82" x2="364.03" y2="61.68"/>
        </g>
        <line class="cls-4" x1="336.33" y1="170.89" x2="328.82" y2="170.89"/>
        <line class="cls-5" x1="333.74" y1="165.32" x2="328.82" y2="165.32"/>
        <line class="cls-4" x1="336.33" y1="159.75" x2="328.82" y2="159.75"/>
        <line class="cls-5" x1="333.74" y1="154.18" x2="328.82" y2="154.18"/>
        <line class="cls-4" x1="336.33" y1="148.61" x2="328.82" y2="148.61"/>
        <line class="cls-5" x1="333.74" y1="143.04" x2="328.82" y2="143.04"/>
        <line class="cls-4" x1="336.33" y1="137.47" x2="328.82" y2="137.47"/>
        <line class="cls-5" x1="333.74" y1="131.9" x2="328.82" y2="131.9"/>
        <line class="cls-4" x1="336.33" y1="126.33" x2="328.82" y2="126.33"/>
        <line class="cls-5" x1="333.74" y1="120.76" x2="328.82" y2="120.76"/>
        <line class="cls-4" x1="336.33" y1="115.19" x2="328.82" y2="115.19"/>
        <line class="cls-5" x1="333.74" y1="109.62" x2="328.82" y2="109.62"/>
        <line class="cls-4" x1="336.33" y1="104.05" x2="328.82" y2="104.05"/>
        <line class="cls-5" x1="333.74" y1="98.48" x2="328.82" y2="98.48"/>
        <line class="cls-4" x1="336.33" y1="92.91" x2="328.82" y2="92.91"/>
        <line class="cls-5" x1="333.74" y1="87.34" x2="328.82" y2="87.34"/>
        <line class="cls-4" x1="336.33" y1="81.77" x2="328.82" y2="81.77"/>
        <line class="cls-5" x1="333.74" y1="76.2" x2="328.82" y2="76.2"/>
        <line class="cls-4" x1="336.33" y1="70.63" x2="328.82" y2="70.63"/>
        <line class="cls-5" x1="333.74" y1="65.06" x2="328.82" y2="65.06"/>
        <line class="cls-4" x1="336.33" y1="59.49" x2="328.82" y2="59.49"/>
        <line class="cls-5" x1="333.74" y1="53.92" x2="328.82" y2="53.92"/>
        <line class="cls-4" x1="336.33" y1="48.35" x2="328.82" y2="48.35"/>
        <line class="cls-5" x1="333.74" y1="42.78" x2="328.82" y2="42.78"/>
        <line class="cls-4" x1="336.33" y1="37.21" x2="328.82" y2="37.21"/>
        <line class="cls-5" x1="333.74" y1="31.64" x2="328.82" y2="31.64"/>
        <line class="cls-4" x1="336.33" y1="26.07" x2="328.82" y2="26.07"/>
        <line class="cls-5" x1="333.74" y1="20.5" x2="328.82" y2="20.5"/>
        <line class="cls-4" x1="336.33" y1="14.94" x2="328.82" y2="14.94"/>
        <line class="cls-5" x1="333.74" y1="9.36" x2="328.82" y2="9.36"/>
      </g>
      <g>
        <path class="cls-58" d="M60.13,185.59V.38s-30.1,19.85-30.1,143.29"/>
        <circle class="cls-58" cx="30.03" cy="147.07" r="1.54"/>
        <circle class="cls-58" cx="30.03" cy="152.64" r="1.54"/>
        <circle class="cls-58" cx="30.03" cy="158.21" r="1.54"/>
        <circle class="cls-58" cx="30.03" cy="163.78" r="1.54"/>
        <circle class="cls-58" cx="30.03" cy="169.35" r="1.54"/>
        <line class="cls-58" x1="40.29" y1="170.89" x2="19.77" y2="170.89"/>
        <g>
          <line class="cls-12" x1="25.71" y1="168.31" x2="21.5" y2="146.21"/>
          <line class="cls-18" x1="20.41" y1="140.52" x2="17.41" y2="124.74"/>
          <line class="cls-21" x1="16.09" y1="117.86" x2="13.93" y2="106.52"/>
          <line class="cls-19" x1="13" y1="101.64" x2="11.67" y2="94.62"/>
        </g>
        <g>
          <line class="cls-22" x1="25.66" y1="153.6" x2="23" y2="131.26"/>
          <line class="cls-20" x1="22.31" y1="125.5" x2="20.41" y2="109.56"/>
          <line class="cls-23" x1="19.59" y1="102.6" x2="18.22" y2="91.14"/>
          <line class="cls-17" x1="17.63" y1="86.21" x2="16.79" y2="79.11"/>
        </g>
        <g>
          <line class="cls-15" x1="26.92" y1="136.67" x2="26.32" y2="114.18"/>
          <line class="cls-14" x1="26.17" y1="108.38" x2="25.74" y2="92.33"/>
          <line class="cls-16" x1="25.56" y1="85.33" x2="25.25" y2="73.79"/>
          <line class="cls-10" x1="25.11" y1="68.82" x2="24.92" y2="61.68"/>
        </g>
        <line class="cls-4" x1="52.62" y1="170.89" x2="60.13" y2="170.89"/>
        <line class="cls-5" x1="55.21" y1="165.32" x2="60.13" y2="165.32"/>
        <line class="cls-4" x1="52.62" y1="159.75" x2="60.13" y2="159.75"/>
        <line class="cls-5" x1="55.21" y1="154.18" x2="60.13" y2="154.18"/>
        <line class="cls-4" x1="52.62" y1="148.61" x2="60.13" y2="148.61"/>
        <line class="cls-5" x1="55.21" y1="143.04" x2="60.13" y2="143.04"/>
        <line class="cls-4" x1="52.62" y1="137.47" x2="60.13" y2="137.47"/>
        <line class="cls-5" x1="55.21" y1="131.9" x2="60.13" y2="131.9"/>
        <line class="cls-4" x1="52.62" y1="126.33" x2="60.13" y2="126.33"/>
        <line class="cls-5" x1="55.21" y1="120.76" x2="60.13" y2="120.76"/>
        <line class="cls-4" x1="52.62" y1="115.19" x2="60.13" y2="115.19"/>
        <line class="cls-5" x1="55.21" y1="109.62" x2="60.13" y2="109.62"/>
        <line class="cls-4" x1="52.62" y1="104.05" x2="60.13" y2="104.05"/>
        <line class="cls-5" x1="55.21" y1="98.48" x2="60.13" y2="98.48"/>
        <line class="cls-4" x1="52.62" y1="92.91" x2="60.13" y2="92.91"/>
        <line class="cls-5" x1="55.21" y1="87.34" x2="60.13" y2="87.34"/>
        <line class="cls-4" x1="52.62" y1="81.77" x2="60.13" y2="81.77"/>
        <line class="cls-5" x1="55.21" y1="76.2" x2="60.13" y2="76.2"/>
        <line class="cls-4" x1="52.62" y1="70.63" x2="60.13" y2="70.63"/>
        <line class="cls-5" x1="55.21" y1="65.06" x2="60.13" y2="65.06"/>
        <line class="cls-4" x1="52.62" y1="59.49" x2="60.13" y2="59.49"/>
        <line class="cls-5" x1="55.21" y1="53.92" x2="60.13" y2="53.92"/>
        <line class="cls-4" x1="52.62" y1="48.35" x2="60.13" y2="48.35"/>
        <line class="cls-5" x1="55.21" y1="42.78" x2="60.13" y2="42.78"/>
        <line class="cls-4" x1="52.62" y1="37.21" x2="60.13" y2="37.21"/>
        <line class="cls-5" x1="55.21" y1="31.64" x2="60.13" y2="31.64"/>
        <line class="cls-4" x1="52.62" y1="26.07" x2="60.13" y2="26.07"/>
        <line class="cls-5" x1="55.21" y1="20.5" x2="60.13" y2="20.5"/>
        <line class="cls-4" x1="52.62" y1="14.94" x2="60.13" y2="14.94"/>
        <line class="cls-5" x1="55.21" y1="9.36" x2="60.13" y2="9.36"/>
      </g>
      <g>
        <line class="cls-3" x1="184.02" y1="9.18" x2="103.96" y2="9.18"/>
        <polyline class="cls-3" points="171.33 13.31 184.02 9.18 171.33 5.05"/>
      </g>
      <g>
        <line class="cls-6" x1="195.29" y1="157.15" x2="195.29" y2="77.1"/>
        <polyline class="cls-7" points="191.16 144.47 195.29 157.15 199.43 144.47"/>
      </g>
      <polyline class="cls-40" points="302.53 35.27 275.83 30.58 264.9 28.65 253.53 26.65 231.05 22.71 195.29 16.42"/>
      <polyline class="cls-40" points="88.06 35.27 114.75 30.58 125.68 28.65 137.04 26.65 137.06 26.65 159.53 22.71 159.55 22.71 195.29 16.42"/>
      <line class="cls-40" x1="302.53" y1="185.59" x2="302.53" y2=".38"/>
      <line class="cls-40" x1="88.06" y1="185.59" x2="88.06" y2=".38"/>
    </g>
  </g>
</svg>