<?xml version="1.0" encoding="UTF-8"?>
<svg id="Layer_2" data-name="Layer 2" xmlns="http://www.w3.org/2000/svg" xmlns:xlink="http://www.w3.org/1999/xlink" viewBox="0 0 390.52 185.71">
  <defs>
    <style>
      .cls-1 {
        stroke: url(#New_Gradient_Swatch_copy);
      }

      .cls-1, .cls-2, .cls-3, .cls-4, .cls-5, .cls-6, .cls-7, .cls-8, .cls-9, .cls-10, .cls-11, .cls-12, .cls-13, .cls-14, .cls-15, .cls-16, .cls-17, .cls-18, .cls-19, .cls-20, .cls-21, .cls-22, .cls-23, .cls-24, .cls-25 {
        stroke-width: .5px;
      }

      .cls-1, .cls-3, .cls-4, .cls-5, .cls-6, .cls-7, .cls-8, .cls-9, .cls-10, .cls-11, .cls-12, .cls-13, .cls-14, .cls-15, .cls-16, .cls-17, .cls-18, .cls-19, .cls-20, .cls-21, .cls-22, .cls-23, .cls-24, .cls-25 {
        fill: none;
      }

      .cls-1, .cls-8, .cls-9, .cls-10 {
        stroke-dasharray: 0 0 0 1.87;
        stroke-linecap: round;
        stroke-linejoin: round;
      }

      .cls-26 {
        fill: rgba(249, 249, 249, .64);
        stroke-width: 0px;
      }

      .cls-2 {
        fill: #242023;
      }

      .cls-2, .cls-3, .cls-4, .cls-5, .cls-6, .cls-7, .cls-11, .cls-12, .cls-13, .cls-14, .cls-15, .cls-16, .cls-17, .cls-18, .cls-19, .cls-20, .cls-21, .cls-22, .cls-23, .cls-24, .cls-25 {
        stroke-miterlimit: 10;
      }

      .cls-2, .cls-11 {
        stroke: #4d4d4d;
      }

      .cls-3 {
        stroke: url(#New_Gradient_Swatch_copy-5);
      }

      .cls-4 {
        stroke: url(#New_Gradient_Swatch_copy-6);
      }

      .cls-5 {
        stroke: url(#New_Gradient_Swatch_copy-7);
      }

      .cls-6 {
        stroke: url(#New_Gradient_Swatch_copy-9);
      }

      .cls-7 {
        stroke: url(#New_Gradient_Swatch_copy-8);
      }

      .cls-8 {
        stroke: url(#New_Gradient_Swatch_copy-3);
      }

      .cls-9 {
        stroke: url(#New_Gradient_Swatch_copy-2);
      }

      .cls-10 {
        stroke: url(#New_Gradient_Swatch_copy-4);
      }

      .cls-12 {
        stroke: url(#New_Gradient_Swatch_copy-23);
      }

      .cls-13 {
        stroke: url(#New_Gradient_Swatch_copy-20);
      }

      .cls-14 {
        stroke: url(#New_Gradient_Swatch_copy-18);
      }

      .cls-15 {
        stroke: url(#New_Gradient_Swatch_copy-17);
      }

      .cls-16 {
        stroke: url(#New_Gradient_Swatch_copy-16);
      }

      .cls-17 {
        stroke: url(#New_Gradient_Swatch_copy-10);
      }

      .cls-18 {
        stroke: url(#New_Gradient_Swatch_copy-15);
      }

      .cls-19 {
        stroke: url(#New_Gradient_Swatch_copy-11);
      }

      .cls-20 {
        stroke: url(#New_Gradient_Swatch_copy-14);
      }

      .cls-21 {
        stroke: url(#New_Gradient_Swatch_copy-21);
      }

      .cls-22 {
        stroke: url(#New_Gradient_Swatch_copy-22);
      }

      .cls-23 {
        stroke: url(#New_Gradient_Swatch_copy-19);
      }

      .cls-24 {
        stroke: url(#New_Gradient_Swatch_copy-12);
      }

      .cls-25 {
        stroke: url(#New_Gradient_Swatch_copy-13);
      }
    </style>
    <linearGradient id="New_Gradient_Swatch_copy" data-name="New Gradient Swatch copy" x1="374.55" y1="124.55" x2="374.55" y2="61.16" gradientUnits="userSpaceOnUse">
      <stop offset="0" stop-color="#151515"/>
      <stop offset=".65" stop-color="#f3e569"/>
      <stop offset=".8" stop-color="#f9f9f9"/>
      <stop offset=".95" stop-color="#151515"/>
    </linearGradient>
    <linearGradient id="New_Gradient_Swatch_copy-2" data-name="New Gradient Swatch copy" x1="364.96" y1="143.74" x2="364.96" y2="41.97" xlink:href="#New_Gradient_Swatch_copy"/>
    <linearGradient id="New_Gradient_Swatch_copy-3" data-name="New Gradient Swatch copy" x1="352.49" y1="168.67" x2="352.49" y2="17.04" xlink:href="#New_Gradient_Swatch_copy"/>
    <linearGradient id="New_Gradient_Swatch_copy-4" data-name="New Gradient Swatch copy" x1="347.36" y1="178.93" x2="347.36" y2="6.78" xlink:href="#New_Gradient_Swatch_copy"/>
    <linearGradient id="New_Gradient_Swatch_copy-5" data-name="New Gradient Swatch copy" x1="180.09" y1="8.33" x2="263.24" y2="8.33" xlink:href="#New_Gradient_Swatch_copy"/>
    <linearGradient id="New_Gradient_Swatch_copy-6" data-name="New Gradient Swatch copy" x1="31.48" y1="8.33" x2="172.62" y2="8.33" xlink:href="#New_Gradient_Swatch_copy"/>
    <linearGradient id="New_Gradient_Swatch_copy-7" data-name="New Gradient Swatch copy" x1="158.83" y1="33.84" x2="219.4" y2="33.84" xlink:href="#New_Gradient_Swatch_copy"/>
    <linearGradient id="New_Gradient_Swatch_copy-8" data-name="New Gradient Swatch copy" x1="165.83" y1="33.84" x2="212.4" y2="33.84" gradientTransform="translate(222.96 -155.27) rotate(90)" xlink:href="#New_Gradient_Swatch_copy"/>
    <linearGradient id="New_Gradient_Swatch_copy-9" data-name="New Gradient Swatch copy" x1="132.18" y1="33.84" x2="148.25" y2="33.84" xlink:href="#New_Gradient_Swatch_copy"/>
    <linearGradient id="New_Gradient_Swatch_copy-10" data-name="New Gradient Swatch copy" x1="95.64" y1="26.81" x2="119.2" y2="26.81" xlink:href="#New_Gradient_Swatch_copy"/>
    <linearGradient id="New_Gradient_Swatch_copy-11" data-name="New Gradient Swatch copy" x1="69.95" y1="22.89" x2="86.43" y2="22.89" xlink:href="#New_Gradient_Swatch_copy"/>
    <linearGradient id="New_Gradient_Swatch_copy-12" data-name="New Gradient Swatch copy" x1="180.09" y1="177.31" x2="263.24" y2="177.31" xlink:href="#New_Gradient_Swatch_copy"/>
    <linearGradient id="New_Gradient_Swatch_copy-13" data-name="New Gradient Swatch copy" x1="31.48" y1="177.31" x2="172.62" y2="177.31" xlink:href="#New_Gradient_Swatch_copy"/>
    <linearGradient id="New_Gradient_Swatch_copy-14" data-name="New Gradient Swatch copy" x1="158.83" y1="151.8" x2="219.4" y2="151.8" xlink:href="#New_Gradient_Swatch_copy"/>
    <linearGradient id="New_Gradient_Swatch_copy-15" data-name="New Gradient Swatch copy" x1="132.18" y1="151.8" x2="148.25" y2="151.8" xlink:href="#New_Gradient_Swatch_copy"/>
    <linearGradient id="New_Gradient_Swatch_copy-16" data-name="New Gradient Swatch copy" x1="95.64" y1="158.83" x2="119.2" y2="158.83" xlink:href="#New_Gradient_Swatch_copy"/>
    <linearGradient id="New_Gradient_Swatch_copy-17" data-name="New Gradient Swatch copy" x1="69.95" y1="162.75" x2="86.43" y2="162.75" xlink:href="#New_Gradient_Swatch_copy"/>
    <linearGradient id="New_Gradient_Swatch_copy-18" data-name="New Gradient Swatch copy" x1="255.96" y1="102.92" x2="255.96" y2="82.79" xlink:href="#New_Gradient_Swatch_copy"/>
    <linearGradient id="New_Gradient_Swatch_copy-19" data-name="New Gradient Swatch copy" x1="216.39" y1="95.87" x2="216.39" y2="89.84" xlink:href="#New_Gradient_Swatch_copy"/>
    <linearGradient id="New_Gradient_Swatch_copy-20" data-name="New Gradient Swatch copy" x1="282.33" y1="95.87" x2="282.33" y2="89.84" xlink:href="#New_Gradient_Swatch_copy"/>
    <linearGradient id="New_Gradient_Swatch_copy-21" data-name="New Gradient Swatch copy" x1="124.06" y1="99.62" x2="124.06" y2="86.09" xlink:href="#New_Gradient_Swatch_copy"/>
    <linearGradient id="New_Gradient_Swatch_copy-22" data-name="New Gradient Swatch copy" x1="18.54" y1="99.62" x2="18.54" y2="86.09" xlink:href="#New_Gradient_Swatch_copy"/>
    <linearGradient id="New_Gradient_Swatch_copy-23" data-name="New Gradient Swatch copy" x1="71.3" y1="110.97" x2="71.3" y2="74.74" xlink:href="#New_Gradient_Swatch_copy"/>
  </defs>
  <g id="Layer_1-2" data-name="Layer 1">
    <g>
      <rect class="cls-2" x=".25" y=".25" width="390.02" height="185.21"/>
      <g>
        <path class="cls-26" d="M73,88.94v-2.66h5.25c.68,0,1.23.52,1.23,1.17v10.82c0,.65-.55,1.17-1.23,1.17h-5.25v-2.65l4.68-2.07c.77-.34,1.25-1.06,1.25-1.86s-.48-1.52-1.25-1.86l-4.68-2.05h0Z"/>
        <path class="cls-26" d="M69.61,96.77v2.66h-5.25c-.68,0-1.23-.52-1.23-1.17v-10.82c0-.65.55-1.17,1.23-1.17h5.25v2.65l-4.68,2.07c-.77.34-1.25,1.06-1.25,1.86s.48,1.52,1.25,1.86l4.68,2.05h0Z"/>
        <path class="cls-26" d="M71.3,95.58c1.5,0,2.72-1.22,2.72-2.72s-1.22-2.72-2.72-2.72-2.72,1.22-2.72,2.72,1.22,2.72,2.72,2.72Z"/>
      </g>
      <path class="cls-11" d="M390.27,185.46c-51.14,0-92.61-41.46-92.61-92.61S339.13.25,390.27.25"/>
      <path class="cls-11" d="M390.27,173.26c-44.41,0-80.4-36-80.4-80.4S345.87,12.45,390.27,12.45"/>
      <path class="cls-11" d="M390.27,155.75c-34.74,0-62.9-28.16-62.9-62.9s28.16-62.9,62.9-62.9"/>
      <path class="cls-11" d="M390.27,134.54c-23.02,0-41.68-18.66-41.68-41.68s18.66-41.68,41.68-41.68"/>
      <path class="cls-11" d="M390.27,113.7c-11.51,0-20.84-9.33-20.84-20.84s9.33-20.84,20.84-20.84"/>
      <path class="cls-1" d="M390.27,124.3c-17.37,0-31.45-14.08-31.45-31.45s14.08-31.45,31.45-31.45"/>
      <path class="cls-9" d="M390.27,143.49c-27.97,0-50.64-22.67-50.64-50.64s22.67-50.64,50.64-50.64"/>
      <path class="cls-8" d="M390.27,168.42c-41.73,0-75.56-33.83-75.56-75.56s33.83-75.56,75.56-75.56"/>
      <path class="cls-10" d="M390.27,178.68c-47.4,0-85.83-38.43-85.83-85.83S342.87,7.03,390.27,7.03"/>
      <path class="cls-11" d="M.25,23.71c67.88,0,137.56,42.37,182.53,42.37S229.36,33.16,291.44.25"/>
      <path class="cls-11" d="M.25,162c67.88,0,137.56-42.37,182.53-42.37s46.58,32.91,108.66,65.82"/>
      <polyline class="cls-11" points="297.67 92.85 295.52 92.85 282.33 92.85 269.15 92.85 255.96 92.85 242.77 92.85 229.58 92.85 216.39 92.85 203.2 92.85 190.01 92.85 176.82 92.85 163.63 92.85 150.44 92.85 137.25 92.85 124.06 92.85 110.87 92.85 97.68 92.85 89.17 92.85"/>
      <polyline class="cls-11" points=".25 92.85 5.36 92.85 18.54 92.85 31.73 92.85 44.92 92.85 53.43 92.85"/>
      <g>
        <path class="cls-11" d="M390.27.25c-31.54,0-87.97,0-166.97,61.16C171.45,101.54,101.21,51.15.25,51.15"/>
        <g>
          <line class="cls-11" x1="5.36" y1="134.51" x2="5.36" y2="51.2"/>
          <line class="cls-11" x1="18.54" y1="134.01" x2="18.54" y2="51.7"/>
          <line class="cls-11" x1="31.73" y1="132.99" x2="31.73" y2="52.72"/>
          <line class="cls-11" x1="44.92" y1="131.46" x2="44.92" y2="54.25"/>
          <line class="cls-11" x1="58.11" y1="80.8" x2="58.11" y2="56.22"/>
          <line class="cls-11" x1="58.11" y1="129.49" x2="58.11" y2="104.91"/>
          <line class="cls-11" x1="71.3" y1="74.99" x2="71.3" y2="58.57"/>
          <line class="cls-11" x1="71.3" y1="127.14" x2="71.3" y2="110.72"/>
          <line class="cls-11" x1="84.49" y1="80.8" x2="84.49" y2="61.24"/>
          <line class="cls-11" x1="84.49" y1="124.47" x2="84.49" y2="104.91"/>
          <line class="cls-11" x1="97.68" y1="121.59" x2="97.68" y2="64.12"/>
          <line class="cls-11" x1="110.87" y1="118.61" x2="110.87" y2="67.1"/>
          <line class="cls-11" x1="124.06" y1="115.68" x2="124.06" y2="70.03"/>
          <line class="cls-11" x1="137.25" y1="112.97" x2="137.25" y2="72.74"/>
          <line class="cls-11" x1="150.44" y1="110.72" x2="150.44" y2="74.99"/>
          <line class="cls-11" x1="163.63" y1="109.21" x2="163.63" y2="76.5"/>
          <line class="cls-11" x1="176.82" y1="108.81" x2="176.82" y2="76.9"/>
          <line class="cls-11" x1="190.01" y1="109.98" x2="190.01" y2="75.73"/>
          <line class="cls-11" x1="203.2" y1="113.3" x2="203.2" y2="72.41"/>
          <line class="cls-11" x1="216.39" y1="119.54" x2="216.39" y2="66.17"/>
          <line class="cls-11" x1="229.58" y1="129.07" x2="229.58" y2="56.64"/>
          <line class="cls-11" x1="242.77" y1="138.48" x2="242.77" y2="47.23"/>
          <line class="cls-11" x1="255.96" y1="147.06" x2="255.96" y2="38.65"/>
          <line class="cls-11" x1="269.15" y1="154.8" x2="269.15" y2="30.91"/>
          <line class="cls-11" x1="282.33" y1="161.68" x2="282.33" y2="24.03"/>
          <line class="cls-11" x1="295.52" y1="167.69" x2="295.52" y2="18.02"/>
          <line class="cls-11" x1="308.71" y1="48.96" x2="308.71" y2="12.89"/>
          <line class="cls-11" x1="308.71" y1="172.82" x2="308.71" y2="136.75"/>
          <line class="cls-11" x1="321.9" y1="30.4" x2="321.9" y2="8.65"/>
          <line class="cls-11" x1="321.9" y1="177.07" x2="321.9" y2="155.31"/>
          <line class="cls-11" x1="335.09" y1="18.49" x2="335.09" y2="5.3"/>
          <line class="cls-11" x1="335.09" y1="180.41" x2="335.09" y2="167.23"/>
          <line class="cls-11" x1="348.28" y1="10.3" x2="348.28" y2="2.85"/>
          <line class="cls-11" x1="348.28" y1="182.86" x2="348.28" y2="175.41"/>
          <line class="cls-11" x1="361.47" y1="4.82" x2="361.47" y2="1.26"/>
          <line class="cls-11" x1="361.47" y1="184.45" x2="361.47" y2="180.89"/>
          <line class="cls-11" x1="374.66" y1="1.57" x2="374.66" y2=".45"/>
          <line class="cls-11" x1="374.66" y1="185.26" x2="374.66" y2="184.14"/>
        </g>
        <path class="cls-11" d="M390.27,185.46c-31.54,0-87.97,0-166.97-61.16-51.85-40.14-122.09,10.26-223.05,10.26"/>
      </g>
      <g>
        <rect class="cls-3" x="180.34" y="5.48" width="82.65" height="5.69" rx="2.44" ry="2.44"/>
        <rect class="cls-4" x="31.73" y="5.48" width="140.63" height="5.69" rx="2.44" ry="2.44"/>
        <rect class="cls-5" x="159.08" y="20.46" width="60.07" height="26.78" rx="2.44" ry="2.44"/>
        <rect class="cls-7" x="182.73" y="10.81" width="12.78" height="46.07" rx="6.39" ry="6.39" transform="translate(155.27 222.96) rotate(-90)"/>
        <rect class="cls-6" x="132.43" y="20.46" width="15.57" height="26.78" rx="2.44" ry="2.44"/>
        <rect class="cls-17" x="95.89" y="20.46" width="23.06" height="12.71" rx="2.44" ry="2.44"/>
        <rect class="cls-19" x="70.2" y="20.46" width="15.97" height="4.88" rx="2.44" ry="2.44"/>
      </g>
      <g>
        <rect class="cls-24" x="180.34" y="174.47" width="82.65" height="5.69" rx="2.44" ry="2.44"/>
        <rect class="cls-25" x="31.73" y="174.47" width="140.63" height="5.69" rx="2.44" ry="2.44"/>
        <rect class="cls-20" x="159.08" y="138.41" width="60.07" height="26.78" rx="2.44" ry="2.44"/>
        <rect class="cls-18" x="132.43" y="138.41" width="15.57" height="26.78" rx="2.44" ry="2.44"/>
        <rect class="cls-16" x="95.89" y="152.48" width="23.06" height="12.71" rx="2.44" ry="2.44"/>
        <rect class="cls-15" x="70.2" y="160.31" width="15.97" height="4.88" rx="2.44" ry="2.44"/>
      </g>
      <circle class="cls-11" cx="140.21" cy="151.8" r="4.66"/>
      <circle class="cls-11" cx="170.93" cy="151.8" r="4.66"/>
      <circle class="cls-11" cx="187.14" cy="151.8" r="4.66"/>
      <rect class="cls-11" x="196.12" y="147.14" width="17.58" height="9.33" rx="2.66" ry="2.66"/>
      <circle class="cls-14" cx="255.96" cy="92.86" r="9.82"/>
      <circle class="cls-23" cx="216.39" cy="92.86" r="2.76"/>
      <circle class="cls-13" cx="282.33" cy="92.86" r="2.76"/>
      <circle class="cls-21" cx="124.06" cy="92.86" r="6.52"/>
      <circle class="cls-22" cx="18.54" cy="92.86" r="6.52"/>
      <circle class="cls-12" cx="71.3" cy="92.86" r="17.87"/>
    </g>
  </g>
</svg>