<?xml version="1.0" encoding="UTF-8"?>
<svg id="Layer_2" data-name="Layer 2" xmlns="http://www.w3.org/2000/svg" xmlns:xlink="http://www.w3.org/1999/xlink" viewBox="0 0 390.52 185.93">
  <defs>
    <style>
      .cls-1 {
        stroke: url(#linear-gradient-3);
      }

      .cls-1, .cls-2, .cls-3, .cls-4, .cls-5, .cls-6, .cls-7, .cls-8, .cls-9, .cls-10, .cls-11, .cls-12, .cls-13, .cls-14, .cls-15, .cls-16, .cls-17, .cls-18, .cls-19, .cls-20, .cls-21, .cls-22, .cls-23, .cls-24, .cls-25, .cls-26, .cls-27, .cls-28, .cls-29, .cls-30, .cls-31, .cls-32, .cls-33, .cls-34, .cls-35, .cls-36, .cls-37, .cls-38, .cls-39, .cls-40, .cls-41, .cls-42, .cls-43, .cls-44, .cls-45, .cls-46, .cls-47, .cls-48, .cls-49, .cls-50, .cls-51, .cls-52, .cls-53, .cls-54, .cls-55 {
        stroke-miterlimit: 10;
        stroke-width: .5px;
      }

      .cls-1, .cls-2, .cls-3, .cls-4, .cls-5, .cls-6, .cls-7, .cls-8, .cls-9, .cls-10, .cls-11, .cls-12, .cls-13, .cls-14, .cls-15, .cls-16, .cls-17, .cls-18, .cls-19, .cls-20, .cls-21, .cls-22, .cls-23, .cls-24, .cls-25, .cls-27, .cls-28, .cls-29, .cls-30, .cls-31, .cls-32, .cls-33, .cls-34, .cls-35, .cls-36, .cls-37, .cls-38, .cls-39, .cls-40, .cls-41, .cls-42, .cls-43, .cls-44, .cls-45, .cls-46, .cls-47, .cls-48, .cls-49, .cls-50, .cls-51, .cls-52, .cls-53, .cls-54, .cls-55 {
        fill: none;
      }

      .cls-2 {
        stroke: url(#linear-gradient-4);
      }

      .cls-3 {
        stroke: url(#linear-gradient-2);
      }

      .cls-4 {
        stroke: url(#linear-gradient-7);
      }

      .cls-5 {
        stroke: url(#linear-gradient-6);
      }

      .cls-6 {
        stroke: url(#linear-gradient-5);
      }

      .cls-7 {
        stroke: url(#linear-gradient-9);
      }

      .cls-8 {
        stroke: url(#linear-gradient-8);
      }

      .cls-9 {
        stroke: url(#linear-gradient-25);
      }

      .cls-10 {
        stroke: url(#linear-gradient-26);
      }

      .cls-11 {
        stroke: url(#linear-gradient-24);
      }

      .cls-12 {
        stroke: url(#linear-gradient-23);
      }

      .cls-13 {
        stroke: url(#linear-gradient-20);
      }

      .cls-14 {
        stroke: url(#linear-gradient-14);
      }

      .cls-15 {
        stroke: url(#linear-gradient-16);
      }

      .cls-16 {
        stroke: url(#linear-gradient-18);
      }

      .cls-17 {
        stroke: url(#linear-gradient-15);
      }

      .cls-18 {
        stroke: url(#linear-gradient-17);
      }

      .cls-19 {
        stroke: url(#linear-gradient-19);
      }

      .cls-20 {
        stroke: url(#linear-gradient-10);
      }

      .cls-21 {
        stroke: url(#linear-gradient-12);
      }

      .cls-22 {
        stroke: url(#linear-gradient-13);
      }

      .cls-23 {
        stroke: url(#linear-gradient-11);
      }

      .cls-24 {
        stroke: url(#linear-gradient-22);
      }

      .cls-25 {
        stroke: url(#linear-gradient-21);
      }

      .cls-26 {
        fill: #242023;
      }

      .cls-26, .cls-46 {
        stroke: #4d4d4d;
      }

      .cls-27 {
        stroke: url(#linear-gradient);
      }

      .cls-28 {
        stroke: url(#New_Gradient_Swatch-15);
      }

      .cls-29 {
        stroke: url(#New_Gradient_Swatch-18);
      }

      .cls-30 {
        stroke: url(#New_Gradient_Swatch-17);
      }

      .cls-31 {
        stroke: url(#New_Gradient_Swatch-16);
      }

      .cls-32 {
        stroke: url(#New_Gradient_Swatch-11);
      }

      .cls-33 {
        stroke: url(#New_Gradient_Swatch-12);
      }

      .cls-34 {
        stroke: url(#New_Gradient_Swatch-14);
      }

      .cls-35 {
        stroke: url(#New_Gradient_Swatch-10);
      }

      .cls-36 {
        stroke: url(#New_Gradient_Swatch-19);
      }

      .cls-37 {
        stroke: url(#New_Gradient_Swatch-13);
      }

      .cls-38 {
        stroke: url(#New_Gradient_Swatch-20);
      }

      .cls-39 {
        stroke: url(#New_Gradient_Swatch-23);
      }

      .cls-40 {
        stroke: url(#New_Gradient_Swatch-25);
      }

      .cls-41 {
        stroke: url(#New_Gradient_Swatch-26);
      }

      .cls-42 {
        stroke: url(#New_Gradient_Swatch-22);
      }

      .cls-43 {
        stroke: url(#New_Gradient_Swatch-24);
      }

      .cls-44 {
        stroke: url(#New_Gradient_Swatch-21);
      }

      .cls-45 {
        stroke: #4d4d4d;
      }

      .cls-47 {
        stroke: url(#New_Gradient_Swatch);
      }

      .cls-48 {
        stroke: url(#New_Gradient_Swatch-5);
      }

      .cls-49 {
        stroke: url(#New_Gradient_Swatch-4);
      }

      .cls-50 {
        stroke: url(#New_Gradient_Swatch-9);
      }

      .cls-51 {
        stroke: url(#New_Gradient_Swatch-6);
      }

      .cls-52 {
        stroke: url(#New_Gradient_Swatch-8);
      }

      .cls-53 {
        stroke: url(#New_Gradient_Swatch-2);
      }

      .cls-54 {
        stroke: url(#New_Gradient_Swatch-7);
      }

      .cls-55 {
        stroke: url(#New_Gradient_Swatch-3);
      }
    </style>
    <linearGradient id="New_Gradient_Swatch" data-name="New Gradient Swatch" x1="190.88" y1="9.26" x2="199.65" y2="9.26" gradientUnits="userSpaceOnUse">
      <stop offset="0" stop-color="#151515"/>
      <stop offset=".65" stop-color="#389181"/>
      <stop offset=".8" stop-color="#f9f9f9"/>
      <stop offset=".95" stop-color="#151515"/>
    </linearGradient>
    <linearGradient id="New_Gradient_Swatch-2" data-name="New Gradient Swatch" x1="172.54" y1="174.04" x2="219.1" y2="174.04" xlink:href="#New_Gradient_Swatch"/>
    <linearGradient id="New_Gradient_Swatch-3" data-name="New Gradient Swatch" x1="315.62" y1="6.63" x2="315.62" y2="16.55" xlink:href="#New_Gradient_Swatch"/>
    <linearGradient id="New_Gradient_Swatch-4" data-name="New Gradient Swatch" x1="315.62" y1="21.06" x2="315.62" y2="30.98" xlink:href="#New_Gradient_Swatch"/>
    <linearGradient id="New_Gradient_Swatch-5" data-name="New Gradient Swatch" x1="315.62" y1="35.49" x2="315.62" y2="45.41" xlink:href="#New_Gradient_Swatch"/>
    <linearGradient id="New_Gradient_Swatch-6" data-name="New Gradient Swatch" x1="315.62" y1="49.92" x2="315.62" y2="59.85" xlink:href="#New_Gradient_Swatch"/>
    <linearGradient id="New_Gradient_Swatch-7" data-name="New Gradient Swatch" x1="315.62" y1="64.35" x2="315.62" y2="74.28" xlink:href="#New_Gradient_Swatch"/>
    <linearGradient id="New_Gradient_Swatch-8" data-name="New Gradient Swatch" x1="315.62" y1="78.78" x2="315.62" y2="88.71" xlink:href="#New_Gradient_Swatch"/>
    <linearGradient id="New_Gradient_Swatch-9" data-name="New Gradient Swatch" x1="315.62" y1="93.21" x2="315.62" y2="103.14" xlink:href="#New_Gradient_Swatch"/>
    <linearGradient id="New_Gradient_Swatch-10" data-name="New Gradient Swatch" x1="315.62" y1="107.64" x2="315.62" y2="117.57" xlink:href="#New_Gradient_Swatch"/>
    <linearGradient id="New_Gradient_Swatch-11" data-name="New Gradient Swatch" x1="315.62" y1="122.07" x2="315.62" y2="132" xlink:href="#New_Gradient_Swatch"/>
    <linearGradient id="New_Gradient_Swatch-12" data-name="New Gradient Swatch" x1="315.62" y1="136.5" x2="315.62" y2="146.43" xlink:href="#New_Gradient_Swatch"/>
    <linearGradient id="New_Gradient_Swatch-13" data-name="New Gradient Swatch" x1="315.62" y1="150.93" x2="315.62" y2="160.86" xlink:href="#New_Gradient_Swatch"/>
    <linearGradient id="New_Gradient_Swatch-14" data-name="New Gradient Swatch" x1="315.62" y1="165.36" x2="315.62" y2="175.29" xlink:href="#New_Gradient_Swatch"/>
    <linearGradient id="New_Gradient_Swatch-15" data-name="New Gradient Swatch" x1="74.69" y1="175.09" x2="74.69" y2="165.17" xlink:href="#New_Gradient_Swatch"/>
    <linearGradient id="New_Gradient_Swatch-16" data-name="New Gradient Swatch" x1="74.69" y1="160.66" x2="74.69" y2="150.74" xlink:href="#New_Gradient_Swatch"/>
    <linearGradient id="New_Gradient_Swatch-17" data-name="New Gradient Swatch" x1="74.69" y1="146.23" x2="74.69" y2="136.31" xlink:href="#New_Gradient_Swatch"/>
    <linearGradient id="New_Gradient_Swatch-18" data-name="New Gradient Swatch" x1="74.69" y1="131.8" x2="74.69" y2="121.88" xlink:href="#New_Gradient_Swatch"/>
    <linearGradient id="New_Gradient_Swatch-19" data-name="New Gradient Swatch" x1="74.69" y1="117.37" x2="74.69" y2="107.45" xlink:href="#New_Gradient_Swatch"/>
    <linearGradient id="New_Gradient_Swatch-20" data-name="New Gradient Swatch" x1="74.69" y1="102.94" x2="74.69" y2="93.02" xlink:href="#New_Gradient_Swatch"/>
    <linearGradient id="New_Gradient_Swatch-21" data-name="New Gradient Swatch" x1="74.69" y1="88.51" x2="74.69" y2="78.59" xlink:href="#New_Gradient_Swatch"/>
    <linearGradient id="New_Gradient_Swatch-22" data-name="New Gradient Swatch" x1="74.69" y1="74.08" x2="74.69" y2="64.16" xlink:href="#New_Gradient_Swatch"/>
    <linearGradient id="New_Gradient_Swatch-23" data-name="New Gradient Swatch" x1="74.69" y1="59.65" x2="74.69" y2="49.73" xlink:href="#New_Gradient_Swatch"/>
    <linearGradient id="New_Gradient_Swatch-24" data-name="New Gradient Swatch" x1="74.69" y1="45.22" x2="74.69" y2="35.3" xlink:href="#New_Gradient_Swatch"/>
    <linearGradient id="New_Gradient_Swatch-25" data-name="New Gradient Swatch" x1="74.69" y1="30.79" x2="74.69" y2="20.87" xlink:href="#New_Gradient_Swatch"/>
    <linearGradient id="New_Gradient_Swatch-26" data-name="New Gradient Swatch" x1="74.69" y1="16.36" x2="74.69" y2="6.44" xlink:href="#New_Gradient_Swatch"/>
    <linearGradient id="linear-gradient" x1="359.97" y1="166.62" x2="370.67" y2="148.07" gradientUnits="userSpaceOnUse">
      <stop offset=".05" stop-color="#151515"/>
      <stop offset=".2" stop-color="#f9f9f9"/>
      <stop offset=".35" stop-color="#389181"/>
      <stop offset="1" stop-color="#151515"/>
    </linearGradient>
    <linearGradient id="linear-gradient-2" x1="366.18" y1="139.35" x2="373.85" y2="126.07" xlink:href="#linear-gradient"/>
    <linearGradient id="linear-gradient-3" x1="371.14" y1="117.07" x2="376.68" y2="107.49" xlink:href="#linear-gradient"/>
    <linearGradient id="linear-gradient-4" x1="374.86" y1="101.21" x2="378.32" y2="95.22" xlink:href="#linear-gradient"/>
    <linearGradient id="linear-gradient-5" x1="359.38" y1="151.56" x2="369.81" y2="133.48" xlink:href="#linear-gradient"/>
    <linearGradient id="linear-gradient-6" x1="363.82" y1="124.09" x2="371.3" y2="111.14" xlink:href="#linear-gradient"/>
    <linearGradient id="linear-gradient-7" x1="367.32" y1="101.63" x2="372.72" y2="92.28" xlink:href="#linear-gradient"/>
    <linearGradient id="linear-gradient-8" x1="370.02" y1="85.67" x2="373.4" y2="79.81" xlink:href="#linear-gradient"/>
    <linearGradient id="linear-gradient-9" x1="357.29" y1="134.18" x2="367.3" y2="116.84" xlink:href="#linear-gradient"/>
    <linearGradient id="linear-gradient-10" x1="359.38" y1="106.66" x2="366.56" y2="94.22" xlink:href="#linear-gradient"/>
    <linearGradient id="linear-gradient-11" x1="360.93" y1="84.14" x2="366.12" y2="75.15" xlink:href="#linear-gradient"/>
    <linearGradient id="linear-gradient-12" x1="362.27" y1="68.16" x2="365.53" y2="62.51" xlink:href="#linear-gradient"/>
    <linearGradient id="linear-gradient-13" x1="19.23" y1="164.86" x2="27.91" y2="149.83" xlink:href="#linear-gradient"/>
    <linearGradient id="linear-gradient-14" x1="15.76" y1="138.12" x2="22" y2="127.31" xlink:href="#linear-gradient"/>
    <linearGradient id="linear-gradient-15" x1="12.72" y1="116.2" x2="17.25" y2="108.35" xlink:href="#linear-gradient"/>
    <linearGradient id="linear-gradient-16" x1="10.87" y1="100.7" x2="13.74" y2="95.73" xlink:href="#linear-gradient"/>
    <linearGradient id="linear-gradient-17" x1="19.72" y1="150.45" x2="28.88" y2="134.58" xlink:href="#linear-gradient"/>
    <linearGradient id="linear-gradient-18" x1="18.04" y1="123.31" x2="24.63" y2="111.92" xlink:href="#linear-gradient"/>
    <linearGradient id="linear-gradient-19" x1="16.49" y1="101.09" x2="21.26" y2="92.82" xlink:href="#linear-gradient"/>
    <linearGradient id="linear-gradient-20" x1="15.68" y1="85.35" x2="18.69" y2="80.13" xlink:href="#linear-gradient"/>
    <linearGradient id="linear-gradient-21" x1="21.74" y1="133.93" x2="31.46" y2="117.09" xlink:href="#linear-gradient"/>
    <linearGradient id="linear-gradient-22" x1="22.44" y1="106.48" x2="29.41" y2="94.4" xlink:href="#linear-gradient"/>
    <linearGradient id="linear-gradient-23" x1="22.85" y1="84.02" x2="27.9" y2="75.27" xlink:href="#linear-gradient"/>
    <linearGradient id="linear-gradient-24" x1="23.4" y1="68.08" x2="26.58" y2="62.58" xlink:href="#linear-gradient"/>
    <linearGradient id="linear-gradient-25" x1="195.26" y1="157.24" x2="195.26" y2="77.18" xlink:href="#linear-gradient"/>
    <linearGradient id="linear-gradient-26" x1="195.26" y1="158.04" x2="195.26" y2="144.47" xlink:href="#linear-gradient"/>
  </defs>
  <g id="Layer_1-2" data-name="Layer 1">
    <g>
      <rect class="cls-26" x=".25" y=".46" width="390.02" height="185.21"/>
      <g>
        <g>
          <polyline class="cls-45" points="240.14 185.68 195.26 130.2 173.95 103.86 157.61 83.67 135.52 56.36 114.72 30.66"/>
          <polyline class="cls-45" points="125.65 28.74 152.04 50.54 152.06 50.54 177.7 71.74 195.26 86.25 216.58 103.86 302.5 174.84"/>
          <polyline class="cls-45" points="137.01 26.74 137.03 26.74 167.8 45.01 195.26 61.32 212.83 71.74 232.91 83.67 302.5 124.97"/>
          <polyline class="cls-45" points="159.51 22.79 159.52 22.79 195.26 35.36 195.27 35.36 222.72 45.01 238.47 50.54 255 56.36 302.5 73.06"/>
        </g>
        <g>
          <polyline class="cls-45" points="150.39 185.68 195.26 130.2 216.58 103.86 232.91 83.67 255 56.36 275.8 30.66"/>
          <polyline class="cls-45" points="264.87 28.74 238.47 50.54 212.83 71.74 195.26 86.25 173.95 103.86 88.03 174.84"/>
          <polyline class="cls-45" points="253.5 26.74 222.72 45.01 195.26 61.32 177.7 71.74 157.61 83.67 88.03 124.97"/>
          <polyline class="cls-45" points="231.02 22.79 195.26 35.36 167.8 45.01 152.06 50.54 135.52 56.36 88.03 73.06"/>
        </g>
      </g>
      <circle class="cls-47" cx="195.26" cy="9.26" r="4.13"/>
      <path class="cls-53" d="M172.79,185.68c0-12.72,10.31-23.03,23.03-23.03s23.03,10.31,23.03,23.03"/>
      <g>
        <polygon class="cls-55" points="321.89 6.88 315.62 16.11 309.35 6.88 321.89 6.88"/>
        <polygon class="cls-49" points="321.89 21.31 315.62 30.54 309.35 21.31 321.89 21.31"/>
        <polygon class="cls-48" points="321.89 35.74 315.62 44.97 309.35 35.74 321.89 35.74"/>
        <polygon class="cls-51" points="321.89 50.17 315.62 59.4 309.35 50.17 321.89 50.17"/>
        <polygon class="cls-54" points="321.89 64.6 315.62 73.83 309.35 64.6 321.89 64.6"/>
        <polygon class="cls-52" points="321.89 79.03 315.62 88.26 309.35 79.03 321.89 79.03"/>
        <polygon class="cls-50" points="321.89 93.46 315.62 102.69 309.35 93.46 321.89 93.46"/>
        <polygon class="cls-35" points="321.89 107.89 315.62 117.12 309.35 107.89 321.89 107.89"/>
        <polygon class="cls-32" points="321.89 122.32 315.62 131.55 309.35 122.32 321.89 122.32"/>
        <polygon class="cls-33" points="321.89 136.75 315.62 145.98 309.35 136.75 321.89 136.75"/>
        <polygon class="cls-37" points="321.89 151.18 315.62 160.41 309.35 151.18 321.89 151.18"/>
        <polygon class="cls-34" points="321.89 165.61 315.62 174.84 309.35 165.61 321.89 165.61"/>
      </g>
      <g>
        <polygon class="cls-28" points="68.42 174.84 74.69 165.61 80.96 174.84 68.42 174.84"/>
        <polygon class="cls-31" points="68.42 160.41 74.69 151.18 80.96 160.41 68.42 160.41"/>
        <polygon class="cls-30" points="68.42 145.98 74.69 136.75 80.96 145.98 68.42 145.98"/>
        <polygon class="cls-29" points="68.42 131.55 74.69 122.32 80.96 131.55 68.42 131.55"/>
        <polygon class="cls-36" points="68.42 117.12 74.69 107.89 80.96 117.12 68.42 117.12"/>
        <polygon class="cls-38" points="68.42 102.69 74.69 93.46 80.96 102.69 68.42 102.69"/>
        <polygon class="cls-44" points="68.42 88.26 74.69 79.03 80.96 88.26 68.42 88.26"/>
        <polygon class="cls-42" points="68.42 73.83 74.69 64.6 80.96 73.83 68.42 73.83"/>
        <polygon class="cls-39" points="68.42 59.4 74.69 50.17 80.96 59.4 68.42 59.4"/>
        <polygon class="cls-43" points="68.42 44.97 74.69 35.74 80.96 44.97 68.42 44.97"/>
        <polygon class="cls-40" points="68.42 30.54 74.69 21.31 80.96 30.54 68.42 30.54"/>
        <polygon class="cls-41" points="68.42 16.11 74.69 6.88 80.96 16.11 68.42 16.11"/>
      </g>
      <g>
        <path class="cls-46" d="M328.79,185.68V.46s30.1,19.85,30.1,143.29"/>
        <circle class="cls-46" cx="358.89" cy="147.15" r="1.54"/>
        <circle class="cls-46" cx="358.89" cy="152.72" r="1.54"/>
        <circle class="cls-46" cx="358.89" cy="158.29" r="1.54"/>
        <circle class="cls-46" cx="358.89" cy="163.86" r="1.54"/>
        <circle class="cls-46" cx="358.89" cy="169.43" r="1.54"/>
        <line class="cls-46" x1="348.63" y1="170.97" x2="369.15" y2="170.97"/>
        <g>
          <line class="cls-27" x1="363.22" y1="168.4" x2="367.43" y2="146.29"/>
          <line class="cls-3" x1="368.51" y1="140.6" x2="371.52" y2="124.82"/>
          <line class="cls-1" x1="372.83" y1="117.94" x2="374.99" y2="106.61"/>
          <line class="cls-2" x1="375.92" y1="101.72" x2="377.26" y2="94.7"/>
        </g>
        <g>
          <line class="cls-6" x1="363.26" y1="153.69" x2="365.92" y2="131.34"/>
          <line class="cls-5" x1="366.61" y1="125.59" x2="368.51" y2="109.64"/>
          <line class="cls-4" x1="369.34" y1="102.69" x2="370.7" y2="91.23"/>
          <line class="cls-8" x1="371.29" y1="86.29" x2="372.13" y2="79.19"/>
        </g>
        <g>
          <line class="cls-7" x1="362" y1="136.75" x2="362.6" y2="114.26"/>
          <line class="cls-20" x1="362.75" y1="108.47" x2="363.18" y2="92.41"/>
          <line class="cls-23" x1="363.37" y1="85.41" x2="363.68" y2="73.87"/>
          <line class="cls-21" x1="363.81" y1="68.9" x2="364" y2="61.76"/>
        </g>
        <line class="cls-46" x1="336.3" y1="170.97" x2="328.79" y2="170.97"/>
        <line class="cls-46" x1="333.71" y1="165.4" x2="328.79" y2="165.4"/>
        <line class="cls-46" x1="336.3" y1="159.83" x2="328.79" y2="159.83"/>
        <line class="cls-46" x1="333.71" y1="154.26" x2="328.79" y2="154.26"/>
        <line class="cls-46" x1="336.3" y1="148.69" x2="328.79" y2="148.69"/>
        <line class="cls-46" x1="333.71" y1="143.12" x2="328.79" y2="143.12"/>
        <line class="cls-46" x1="336.3" y1="137.56" x2="328.79" y2="137.56"/>
        <line class="cls-46" x1="333.71" y1="131.99" x2="328.79" y2="131.99"/>
        <line class="cls-46" x1="336.3" y1="126.42" x2="328.79" y2="126.42"/>
        <line class="cls-46" x1="333.71" y1="120.85" x2="328.79" y2="120.85"/>
        <line class="cls-46" x1="336.3" y1="115.28" x2="328.79" y2="115.28"/>
        <line class="cls-46" x1="333.71" y1="109.71" x2="328.79" y2="109.71"/>
        <line class="cls-46" x1="336.3" y1="104.14" x2="328.79" y2="104.14"/>
        <line class="cls-46" x1="333.71" y1="98.57" x2="328.79" y2="98.57"/>
        <line class="cls-46" x1="336.3" y1="93" x2="328.79" y2="93"/>
        <line class="cls-46" x1="333.71" y1="87.43" x2="328.79" y2="87.43"/>
        <line class="cls-46" x1="336.3" y1="81.86" x2="328.79" y2="81.86"/>
        <line class="cls-46" x1="333.71" y1="76.29" x2="328.79" y2="76.29"/>
        <line class="cls-46" x1="336.3" y1="70.72" x2="328.79" y2="70.72"/>
        <line class="cls-46" x1="333.71" y1="65.15" x2="328.79" y2="65.15"/>
        <line class="cls-46" x1="336.3" y1="59.58" x2="328.79" y2="59.58"/>
        <line class="cls-46" x1="333.71" y1="54.01" x2="328.79" y2="54.01"/>
        <line class="cls-46" x1="336.3" y1="48.44" x2="328.79" y2="48.44"/>
        <line class="cls-46" x1="333.71" y1="42.87" x2="328.79" y2="42.87"/>
        <line class="cls-46" x1="336.3" y1="37.3" x2="328.79" y2="37.3"/>
        <line class="cls-46" x1="333.71" y1="31.73" x2="328.79" y2="31.73"/>
        <line class="cls-46" x1="336.3" y1="26.16" x2="328.79" y2="26.16"/>
        <line class="cls-46" x1="333.71" y1="20.59" x2="328.79" y2="20.59"/>
        <line class="cls-46" x1="336.3" y1="15.02" x2="328.79" y2="15.02"/>
        <line class="cls-46" x1="333.71" y1="9.45" x2="328.79" y2="9.45"/>
      </g>
      <g>
        <path class="cls-46" d="M60.1,185.68V.46s-30.1,19.85-30.1,143.29"/>
        <circle class="cls-46" cx="30" cy="147.15" r="1.54"/>
        <circle class="cls-46" cx="30" cy="152.72" r="1.54"/>
        <circle class="cls-46" cx="30" cy="158.29" r="1.54"/>
        <circle class="cls-46" cx="30" cy="163.86" r="1.54"/>
        <circle class="cls-46" cx="30" cy="169.43" r="1.54"/>
        <line class="cls-46" x1="40.26" y1="170.97" x2="19.75" y2="170.97"/>
        <g>
          <line class="cls-22" x1="25.68" y1="168.4" x2="21.47" y2="146.29"/>
          <line class="cls-14" x1="20.38" y1="140.6" x2="17.38" y2="124.82"/>
          <line class="cls-17" x1="16.06" y1="117.94" x2="13.9" y2="106.61"/>
          <line class="cls-15" x1="12.97" y1="101.72" x2="11.64" y2="94.7"/>
        </g>
        <g>
          <line class="cls-18" x1="25.63" y1="153.69" x2="22.97" y2="131.34"/>
          <line class="cls-16" x1="22.28" y1="125.59" x2="20.39" y2="109.64"/>
          <line class="cls-19" x1="19.56" y1="102.69" x2="18.19" y2="91.23"/>
          <line class="cls-13" x1="17.61" y1="86.29" x2="16.76" y2="79.19"/>
        </g>
        <g>
          <line class="cls-25" x1="26.9" y1="136.75" x2="26.3" y2="114.26"/>
          <line class="cls-24" x1="26.14" y1="108.47" x2="25.71" y2="92.41"/>
          <line class="cls-12" x1="25.53" y1="85.41" x2="25.22" y2="73.87"/>
          <line class="cls-11" x1="25.09" y1="68.9" x2="24.9" y2="61.76"/>
        </g>
        <line class="cls-46" x1="52.59" y1="170.97" x2="60.1" y2="170.97"/>
        <line class="cls-46" x1="55.18" y1="165.4" x2="60.1" y2="165.4"/>
        <line class="cls-46" x1="52.59" y1="159.83" x2="60.1" y2="159.83"/>
        <line class="cls-46" x1="55.18" y1="154.26" x2="60.1" y2="154.26"/>
        <line class="cls-46" x1="52.59" y1="148.69" x2="60.1" y2="148.69"/>
        <line class="cls-46" x1="55.18" y1="143.12" x2="60.1" y2="143.12"/>
        <line class="cls-46" x1="52.59" y1="137.56" x2="60.1" y2="137.56"/>
        <line class="cls-46" x1="55.18" y1="131.99" x2="60.1" y2="131.99"/>
        <line class="cls-46" x1="52.59" y1="126.42" x2="60.1" y2="126.42"/>
        <line class="cls-46" x1="55.18" y1="120.85" x2="60.1" y2="120.85"/>
        <line class="cls-46" x1="52.59" y1="115.28" x2="60.1" y2="115.28"/>
        <line class="cls-46" x1="55.18" y1="109.71" x2="60.1" y2="109.71"/>
        <line class="cls-46" x1="52.59" y1="104.14" x2="60.1" y2="104.14"/>
        <line class="cls-46" x1="55.18" y1="98.57" x2="60.1" y2="98.57"/>
        <line class="cls-46" x1="52.59" y1="93" x2="60.1" y2="93"/>
        <line class="cls-46" x1="55.18" y1="87.43" x2="60.1" y2="87.43"/>
        <line class="cls-46" x1="52.59" y1="81.86" x2="60.1" y2="81.86"/>
        <line class="cls-46" x1="55.18" y1="76.29" x2="60.1" y2="76.29"/>
        <line class="cls-46" x1="52.59" y1="70.72" x2="60.1" y2="70.72"/>
        <line class="cls-46" x1="55.18" y1="65.15" x2="60.1" y2="65.15"/>
        <line class="cls-46" x1="52.59" y1="59.58" x2="60.1" y2="59.58"/>
        <line class="cls-46" x1="55.18" y1="54.01" x2="60.1" y2="54.01"/>
        <line class="cls-46" x1="52.59" y1="48.44" x2="60.1" y2="48.44"/>
        <line class="cls-46" x1="55.18" y1="42.87" x2="60.1" y2="42.87"/>
        <line class="cls-46" x1="52.59" y1="37.3" x2="60.1" y2="37.3"/>
        <line class="cls-46" x1="55.18" y1="31.73" x2="60.1" y2="31.73"/>
        <line class="cls-46" x1="52.59" y1="26.16" x2="60.1" y2="26.16"/>
        <line class="cls-46" x1="55.18" y1="20.59" x2="60.1" y2="20.59"/>
        <line class="cls-46" x1="52.59" y1="15.02" x2="60.1" y2="15.02"/>
        <line class="cls-46" x1="55.18" y1="9.45" x2="60.1" y2="9.45"/>
      </g>
      <g>
        <line class="cls-46" x1="183.99" y1="9.26" x2="103.93" y2="9.26"/>
        <polyline class="cls-46" points="171.3 13.4 183.99 9.26 171.3 5.13"/>
      </g>
      <g>
        <line class="cls-9" x1="195.26" y1="157.24" x2="195.26" y2="77.18"/>
        <polyline class="cls-10" points="191.13 144.55 195.26 157.24 199.4 144.55"/>
      </g>
      <polyline class="cls-46" points="302.5 35.35 275.8 30.66 264.87 28.74 253.5 26.74 231.02 22.79 195.26 16.5"/>
      <polyline class="cls-46" points="88.03 35.35 114.72 30.66 125.65 28.74 137.01 26.74 137.03 26.74 159.51 22.79 159.52 22.79 195.26 16.5"/>
      <line class="cls-46" x1="302.5" y1="185.68" x2="302.5" y2=".46"/>
      <line class="cls-46" x1="88.03" y1="185.68" x2="88.03" y2=".46"/>
    </g>
  </g>
</svg>