<?xml version="1.0" encoding="UTF-8"?>
<svg id="Layer_2" data-name="Layer 2" xmlns="http://www.w3.org/2000/svg" xmlns:xlink="http://www.w3.org/1999/xlink" viewBox="0 0 387.05 178.43">
  <defs>
    <style>
      .cls-1 {
        stroke: #ccc;
      }

      .cls-1, .cls-2, .cls-3, .cls-4, .cls-5, .cls-6, .cls-7, .cls-8, .cls-9, .cls-10, .cls-11, .cls-12, .cls-13, .cls-14, .cls-15, .cls-16, .cls-17, .cls-18, .cls-19, .cls-20, .cls-21, .cls-22, .cls-23, .cls-24, .cls-25, .cls-26, .cls-27, .cls-28, .cls-29, .cls-30, .cls-31, .cls-32, .cls-33, .cls-34, .cls-35, .cls-36, .cls-37, .cls-38, .cls-39, .cls-40, .cls-41, .cls-42 {
        fill: none;
      }

      .cls-1, .cls-2, .cls-3, .cls-4, .cls-6, .cls-8, .cls-12, .cls-28, .cls-29, .cls-30, .cls-33, .cls-34, .cls-38, .cls-39, .cls-40, .cls-41, .cls-42 {
        stroke-linecap: round;
        stroke-linejoin: round;
      }

      .cls-1, .cls-3, .cls-4, .cls-6, .cls-8, .cls-33, .cls-42 {
        stroke-width: 7.78px;
      }

      .cls-2 {
        stroke: url(#New_Gradient_Swatch_copy_2-7);
        stroke-dasharray: 0 0 0 1.87;
      }

      .cls-2, .cls-9, .cls-10, .cls-11, .cls-29, .cls-30, .cls-31, .cls-32, .cls-38, .cls-39, .cls-41 {
        stroke-width: .47px;
      }

      .cls-3, .cls-40 {
        stroke: #999;
      }

      .cls-4, .cls-5, .cls-11, .cls-34 {
        stroke: #666;
      }

      .cls-5, .cls-7, .cls-9, .cls-10, .cls-11, .cls-13, .cls-14, .cls-15, .cls-16, .cls-17, .cls-18, .cls-19, .cls-20, .cls-21, .cls-22, .cls-23, .cls-24, .cls-25, .cls-26, .cls-27, .cls-31, .cls-32, .cls-35, .cls-36, .cls-37 {
        stroke-miterlimit: 10;
      }

      .cls-5, .cls-15, .cls-16, .cls-17, .cls-18, .cls-19, .cls-20, .cls-21, .cls-22, .cls-23, .cls-24, .cls-25, .cls-26, .cls-27, .cls-37 {
        stroke-width: .16px;
      }

      .cls-6, .cls-28, .cls-29, .cls-30 {
        stroke: #333;
      }

      .cls-7 {
        stroke: url(#New_Gradient_Swatch_copy_2);
      }

      .cls-7, .cls-13, .cls-14, .cls-35, .cls-36 {
        stroke-width: .31px;
      }

      .cls-8 {
        stroke: #4d4d4d;
      }

      .cls-9 {
        stroke: url(#New_Gradient_Swatch_copy_2-12);
      }

      .cls-10 {
        stroke: url(#New_Gradient_Swatch_copy_2-13);
      }

      .cls-12, .cls-34, .cls-40 {
        stroke-width: 3.11px;
      }

      .cls-12, .cls-42 {
        stroke: gray;
      }

      .cls-13 {
        stroke: url(#New_Gradient_Swatch_copy_2-11);
      }

      .cls-14 {
        stroke: url(#New_Gradient_Swatch_copy_2-10);
      }

      .cls-43 {
        fill: rgba(249, 249, 249, .64);
        stroke-width: 0px;
      }

      .cls-15 {
        stroke: url(#New_Gradient_Swatch_copy_2-24);
      }

      .cls-16 {
        stroke: url(#New_Gradient_Swatch_copy_2-25);
      }

      .cls-17 {
        stroke: url(#New_Gradient_Swatch_copy_2-23);
      }

      .cls-18 {
        stroke: url(#New_Gradient_Swatch_copy_2-20);
      }

      .cls-19 {
        stroke: url(#New_Gradient_Swatch_copy_2-26);
      }

      .cls-20 {
        stroke: url(#New_Gradient_Swatch_copy_2-21);
      }

      .cls-21 {
        stroke: url(#New_Gradient_Swatch_copy_2-22);
      }

      .cls-22 {
        stroke: url(#New_Gradient_Swatch_copy_2-19);
      }

      .cls-23 {
        stroke: url(#New_Gradient_Swatch_copy_2-14);
      }

      .cls-24 {
        stroke: url(#New_Gradient_Swatch_copy_2-15);
      }

      .cls-25 {
        stroke: url(#New_Gradient_Swatch_copy_2-16);
      }

      .cls-26 {
        stroke: url(#New_Gradient_Swatch_copy_2-18);
      }

      .cls-27 {
        stroke: url(#New_Gradient_Swatch_copy_2-17);
      }

      .cls-28 {
        stroke-width: .73px;
      }

      .cls-29, .cls-38, .cls-39, .cls-41 {
        stroke-dasharray: 0 0 0 1.87;
      }

      .cls-31 {
        stroke: url(#New_Gradient_Swatch_copy_2-4);
      }

      .cls-32 {
        stroke: url(#New_Gradient_Swatch_copy_2-9);
      }

      .cls-33 {
        stroke: #b3b3b3;
      }

      .cls-35 {
        stroke: url(#New_Gradient_Swatch_copy_2-2);
      }

      .cls-36 {
        stroke: url(#New_Gradient_Swatch_copy_2-8);
      }

      .cls-37 {
        stroke: url(#New_Gradient_Swatch_copy_2-3);
      }

      .cls-38 {
        stroke: url(#New_Gradient_Swatch_copy_2-6);
      }

      .cls-39 {
        stroke: url(#New_Gradient_Swatch_copy_2-5);
      }

      .cls-41 {
        stroke: url(#New_Gradient_Swatch);
      }
    </style>
    <linearGradient id="New_Gradient_Swatch_copy_2" data-name="New Gradient Swatch copy 2" x1="156.7" y1="55.48" x2="191.66" y2="55.48" gradientUnits="userSpaceOnUse">
      <stop offset="0" stop-color="#191919"/>
      <stop offset=".65" stop-color="#ff8b8b"/>
      <stop offset=".8" stop-color="#f9f9f9"/>
      <stop offset=".95" stop-color="#1e1e1e"/>
    </linearGradient>
    <linearGradient id="New_Gradient_Swatch_copy_2-2" data-name="New Gradient Swatch copy 2" x1="148.12" y1="99.86" x2="158.93" y2="99.86" xlink:href="#New_Gradient_Swatch_copy_2"/>
    <linearGradient id="New_Gradient_Swatch_copy_2-3" data-name="New Gradient Swatch copy 2" x1="104.9" y1="89.21" x2="282.75" y2="89.21" xlink:href="#New_Gradient_Swatch_copy_2"/>
    <linearGradient id="New_Gradient_Swatch_copy_2-4" data-name="New Gradient Swatch copy 2" x1="122.13" y1="89.21" x2="265.52" y2="89.21" xlink:href="#New_Gradient_Swatch_copy_2"/>
    <linearGradient id="New_Gradient_Swatch_copy_2-5" data-name="New Gradient Swatch copy 2" x1="193.82" y1="145.58" x2="193.82" y2="32.84" xlink:href="#New_Gradient_Swatch_copy_2"/>
    <linearGradient id="New_Gradient_Swatch_copy_2-6" data-name="New Gradient Swatch copy 2" x1="193.82" y1="142.29" x2="193.82" y2="36.14" xlink:href="#New_Gradient_Swatch_copy_2"/>
    <linearGradient id="New_Gradient_Swatch" data-name="New Gradient Swatch" x1="174.94" y1="89.21" x2="212.7" y2="89.21" gradientUnits="userSpaceOnUse">
      <stop offset="0" stop-color="#151515"/>
      <stop offset=".65" stop-color="#389181"/>
      <stop offset=".8" stop-color="#f9f9f9"/>
      <stop offset=".95" stop-color="#151515"/>
    </linearGradient>
    <linearGradient id="New_Gradient_Swatch_copy_2-7" data-name="New Gradient Swatch copy 2" x1="119.36" y1="89.21" x2="268.28" y2="89.21" xlink:href="#New_Gradient_Swatch_copy_2"/>
    <linearGradient id="New_Gradient_Swatch_copy_2-8" data-name="New Gradient Swatch copy 2" x1="172.24" y1="89.21" x2="215.41" y2="89.21" xlink:href="#New_Gradient_Swatch_copy_2"/>
    <linearGradient id="New_Gradient_Swatch_copy_2-9" data-name="New Gradient Swatch copy 2" x1="180.48" y1="89.21" x2="207.16" y2="89.21" xlink:href="#New_Gradient_Swatch_copy_2"/>
    <linearGradient id="New_Gradient_Swatch_copy_2-10" data-name="New Gradient Swatch copy 2" x1="183.57" y1="117.33" x2="197.89" y2="117.33" xlink:href="#New_Gradient_Swatch_copy_2"/>
    <linearGradient id="New_Gradient_Swatch_copy_2-11" data-name="New Gradient Swatch copy 2" x1="198.59" y1="75.67" x2="226.35" y2="75.67" xlink:href="#New_Gradient_Swatch_copy_2"/>
    <linearGradient id="New_Gradient_Swatch_copy_2-12" data-name="New Gradient Swatch copy 2" x1="193.82" y1="175.37" x2="193.82" y2="3.05" xlink:href="#New_Gradient_Swatch_copy_2"/>
    <linearGradient id="New_Gradient_Swatch_copy_2-13" data-name="New Gradient Swatch copy 2" x1="193.82" y1="169.81" x2="193.82" y2="8.61" xlink:href="#New_Gradient_Swatch_copy_2"/>
    <linearGradient id="New_Gradient_Swatch_copy_2-14" data-name="New Gradient Swatch copy 2" x1="312.55" y1="178.06" x2="312.55" y2=".36" xlink:href="#New_Gradient_Swatch_copy_2"/>
    <linearGradient id="New_Gradient_Swatch_copy_2-15" data-name="New Gradient Swatch copy 2" x1="317.57" y1="178.06" x2="317.57" y2=".36" xlink:href="#New_Gradient_Swatch_copy_2"/>
    <linearGradient id="New_Gradient_Swatch_copy_2-16" data-name="New Gradient Swatch copy 2" x1="321.5" y1="178.06" x2="321.5" y2=".36" xlink:href="#New_Gradient_Swatch_copy_2"/>
    <linearGradient id="New_Gradient_Swatch_copy_2-17" data-name="New Gradient Swatch copy 2" x1="325.42" y1="178.06" x2="325.42" y2=".36" xlink:href="#New_Gradient_Swatch_copy_2"/>
    <linearGradient id="New_Gradient_Swatch_copy_2-18" data-name="New Gradient Swatch copy 2" x1="305.75" y1="178.06" x2="305.75" y2=".36" xlink:href="#New_Gradient_Swatch_copy_2"/>
    <linearGradient id="New_Gradient_Swatch_copy_2-19" data-name="New Gradient Swatch copy 2" x1="294.53" y1="178.06" x2="294.53" y2=".36" xlink:href="#New_Gradient_Swatch_copy_2"/>
    <linearGradient id="New_Gradient_Swatch_copy_2-20" data-name="New Gradient Swatch copy 2" x1="278.75" y1="52.74" x2="278.75" y2=".36" xlink:href="#New_Gradient_Swatch_copy_2"/>
    <linearGradient id="New_Gradient_Swatch_copy_2-21" data-name="New Gradient Swatch copy 2" x1="278.75" y1="178.06" x2="278.75" y2="125.69" xlink:href="#New_Gradient_Swatch_copy_2"/>
    <linearGradient id="New_Gradient_Swatch_copy_2-22" data-name="New Gradient Swatch copy 2" x1="259.74" y1="24.45" x2="259.74" y2=".36" xlink:href="#New_Gradient_Swatch_copy_2"/>
    <linearGradient id="New_Gradient_Swatch_copy_2-23" data-name="New Gradient Swatch copy 2" x1="259.74" y1="178.06" x2="259.74" y2="153.98" xlink:href="#New_Gradient_Swatch_copy_2"/>
    <linearGradient id="New_Gradient_Swatch_copy_2-24" data-name="New Gradient Swatch copy 2" x1="231.8" y1="4.94" x2="231.8" y2=".36" xlink:href="#New_Gradient_Swatch_copy_2"/>
    <linearGradient id="New_Gradient_Swatch_copy_2-25" data-name="New Gradient Swatch copy 2" x1="231.8" y1="178.06" x2="231.8" y2="173.48" xlink:href="#New_Gradient_Swatch_copy_2"/>
    <linearGradient id="New_Gradient_Swatch_copy_2-26" data-name="New Gradient Swatch copy 2" x1="288.17" y1="103.13" x2="288.17" y2="75.3" xlink:href="#New_Gradient_Swatch_copy_2"/>
  </defs>
  <g id="Layer_1-2" data-name="Layer 1">
    <g>
      <g>
        <path class="cls-6" d="M143.55,49.86c11.27-14.38,28.58-23.8,48.11-24.45"/>
        <path class="cls-42" d="M130.33,82.49c.78-7.42,2.82-14.46,5.92-20.9"/>
        <path class="cls-8" d="M134.64,113.21c-2.51-6.18-4.08-12.85-4.53-19.81"/>
        <path class="cls-5" d="M164.34,149.75c-.61,0-1.22-.14-1.8-.44-11.35-5.92-20.77-14.89-27.23-25.95-1.08-1.85-.46-4.24,1.39-5.32,1.85-1.08,4.24-.46,5.32,1.39,5.73,9.79,14.06,17.74,24.11,22.98,1.9.99,2.64,3.34,1.65,5.25-.69,1.33-2.05,2.09-3.45,2.09Z"/>
        <path class="cls-4" d="M184.35,152.36c-3.97-.59-7.83-1.55-11.52-2.83"/>
        <path class="cls-6" d="M245.34,126.92c-11.62,15.84-30.37,26.13-51.52,26.13"/>
        <path class="cls-5" d="M249.96,123.53c-.63,0-1.26-.15-1.85-.47-1.89-1.03-2.59-3.39-1.56-5.27,4.73-8.71,7.23-18.59,7.23-28.58,0-2.15,1.74-3.89,3.89-3.89s3.89,1.74,3.89,3.89c0,11.28-2.83,22.44-8.18,32.29-.7,1.3-2.04,2.03-3.42,2.03Z"/>
        <path class="cls-4" d="M241.03,46.23c8.23,9.04,13.91,20.44,15.88,33.08"/>
        <path class="cls-6" d="M202.13,25.9c12.18,1.58,23.28,6.6,32.3,14.04"/>
        <path class="cls-7" d="M160.74,67.2c-.84,0-1.68-.27-2.4-.83-1.69-1.33-1.99-3.77-.66-5.46,7.29-9.3,17.72-15.38,29.35-17.11,2.12-.32,4.1,1.15,4.42,3.27.32,2.12-1.15,4.1-3.27,4.42-9.66,1.44-18.32,6.48-24.38,14.22-.77.98-1.91,1.49-3.06,1.49Z"/>
        <path class="cls-1" d="M152.04,84.79c.51-4.88,1.86-9.52,3.9-13.76"/>
        <path class="cls-35" d="M154.88,108.91c-1.54,0-2.99-.92-3.6-2.43-1.47-3.61-2.47-7.41-2.97-11.29-.28-2.13,1.23-4.08,3.36-4.36,2.13-.28,4.08,1.23,4.36,3.36.42,3.22,1.25,6.37,2.46,9.37.81,1.99-.15,4.26-2.14,5.07-.48.19-.97.29-1.46.29Z"/>
        <path class="cls-4" d="M171.7,124.95c-4.92-3.06-9.16-7.1-12.45-11.85"/>
        <path class="cls-1" d="M184.43,130.19c-1.5-.34-2.97-.77-4.4-1.27"/>
        <path class="cls-33" d="M224.04,118.46c-7.64,7.89-18.35,12.79-30.2,12.79"/>
        <path class="cls-3" d="M235.88,89.22c0,7.25-1.84,14.08-5.07,20.04"/>
        <path class="cls-6" d="M220.58,56.78c5.35,4.41,9.59,10.13,12.23,16.65"/>
        <path class="cls-4" d="M199.31,47.54c3.82.5,7.48,1.51,10.91,2.96"/>
        <circle class="cls-37" cx="193.82" cy="89.21" r="88.85"/>
        <circle class="cls-5" cx="193.82" cy="89.21" r="71.46"/>
        <circle class="cls-31" cx="193.82" cy="89.21" r="71.46"/>
        <circle class="cls-5" cx="193.82" cy="89.21" r="76.89"/>
        <circle class="cls-5" cx="193.82" cy="89.21" r="58.16"/>
        <circle class="cls-39" cx="193.82" cy="89.21" r="56.14"/>
        <circle class="cls-38" cx="193.82" cy="89.21" r="52.84"/>
        <circle class="cls-41" cx="193.82" cy="89.21" r="18.65"/>
        <circle class="cls-2" cx="193.82" cy="89.21" r="74.23"/>
        <circle class="cls-36" cx="193.82" cy="89.21" r="21.43"/>
        <circle class="cls-32" cx="193.82" cy="89.21" r="13.11"/>
        <circle class="cls-5" cx="193.82" cy="89.21" r="16.4"/>
        <path class="cls-42" d="M166.85,80.18c3.78-11.29,14.44-19.42,27-19.42"/>
        <path class="cls-6" d="M178.77,113.36c-8.04-5.03-13.39-13.96-13.39-24.15"/>
        <path class="cls-14" d="M193.85,121.56c-2.39,0-4.77-.26-7.08-.78-2.1-.47-3.42-2.55-2.95-4.64.47-2.1,2.55-3.42,4.64-2.95,1.76.39,3.57.59,5.39.59,2.15,0,3.89,1.74,3.89,3.89s-1.74,3.89-3.89,3.89Z"/>
        <path class="cls-6" d="M218.87,102.78c-2.51,4.62-6.25,8.46-10.79,11.09"/>
        <path class="cls-13" d="M222.31,93.1c-2.15,0-3.89-1.74-3.89-3.89,0-5.3-1.66-10.34-4.79-14.58-3.08-4.17-7.29-7.21-12.19-8.79-2.04-.66-3.16-2.86-2.5-4.9s2.86-3.16,4.9-2.5c6.45,2.09,12,6.09,16.05,11.57,4.13,5.59,6.32,12.23,6.32,19.21,0,2.15-1.74,3.89-3.89,3.89Z"/>
        <path class="cls-34" d="M164.34,145.86c-10.69-5.58-19.6-14.09-25.67-24.47"/>
        <path class="cls-40" d="M257.67,89.21c0,11.02-2.79,21.39-7.71,30.43"/>
        <path class="cls-34" d="M160.75,63.31c6.48-8.27,15.99-14.05,26.87-15.66"/>
        <path class="cls-12" d="M154.88,105.02c-1.32-3.26-2.25-6.72-2.72-10.33"/>
        <path class="cls-34" d="M193.85,117.67c-2.14,0-4.23-.24-6.23-.68"/>
        <path class="cls-34" d="M202.63,62.13c11.42,3.7,19.67,14.43,19.67,27.08"/>
        <circle class="cls-9" cx="193.82" cy="89.21" r="85.93"/>
        <circle class="cls-10" cx="193.82" cy="89.21" r="80.37"/>
        <line class="cls-23" x1="312.55" y1="178.06" x2="312.55" y2=".36"/>
        <line class="cls-24" x1="317.57" y1="178.06" x2="317.57" y2=".36"/>
        <line class="cls-25" x1="321.5" y1="178.06" x2="321.5" y2=".36"/>
        <line class="cls-27" x1="325.42" y1="178.06" x2="325.42" y2=".36"/>
        <line class="cls-26" x1="305.75" y1="178.06" x2="305.75" y2=".36"/>
        <line class="cls-22" x1="294.53" y1="178.06" x2="294.53" y2=".36"/>
        <line class="cls-18" x1="278.75" y1="52.74" x2="278.75" y2=".36"/>
        <line class="cls-20" x1="278.75" y1="178.06" x2="278.75" y2="125.69"/>
        <line class="cls-21" x1="259.74" y1="24.45" x2="259.74" y2=".36"/>
        <line class="cls-17" x1="259.74" y1="178.06" x2="259.74" y2="153.98"/>
        <line class="cls-15" x1="231.8" y1="4.94" x2="231.8" y2=".36"/>
        <line class="cls-16" x1="231.8" y1="178.06" x2="231.8" y2="173.48"/>
        <line class="cls-5" x1="168.33" y1=".36" y2=".36"/>
        <line class="cls-11" x1="148.18" y1="8.84" y2="8.84"/>
        <line class="cls-5" x1="135.75" y1="17.32" y2="17.32"/>
        <line class="cls-11" x1="126.6" y1="25.8" y2="25.8"/>
        <line class="cls-5" x1="119.5" y1="34.29" y2="34.29"/>
        <line class="cls-11" x1="113.92" y1="42.77" y2="42.77"/>
        <line class="cls-5" x1="109.55" y1="51.25" y2="51.25"/>
        <line class="cls-11" x1="106.22" y1="59.73" y2="59.73"/>
        <line class="cls-5" x1="103.81" y1="68.21" y2="68.21"/>
        <line class="cls-11" x1="102.25" y1="76.69" y2="76.69"/>
        <line class="cls-5" x1="101.5" y1="85.17" y2="85.17"/>
        <line class="cls-11" x1="101.52" y1="93.65" y2="93.65"/>
        <line class="cls-5" x1="102.31" y1="102.13" y2="102.13"/>
        <line class="cls-11" x1="103.9" y1="110.61" y2="110.61"/>
        <line class="cls-5" x1="106.35" y1="119.09" y2="119.09"/>
        <line class="cls-11" x1="109.73" y1="127.57" y2="127.57"/>
        <line class="cls-5" x1="114.15" y1="136.05" y2="136.05"/>
        <line class="cls-11" x1="119.79" y1="144.53" y2="144.53"/>
        <line class="cls-5" x1="126.97" y1="153.01" y2="153.01"/>
        <line class="cls-11" x1="136.24" y1="161.49" y2="161.49"/>
        <line class="cls-5" x1="148.87" y1="169.97" y2="169.97"/>
        <line class="cls-11" x1="168.33" y1="178.06" y2="178.06"/>
        <line class="cls-19" x1="288.17" y1="75.3" x2="288.17" y2="103.13"/>
        <g>
          <path class="cls-43" d="M194.96,86.59v-1.79h3.53c.46,0,.82.35.82.79v7.26c0,.43-.37.79-.82.79h-3.53v-1.78l3.14-1.39c.52-.23.84-.71.84-1.25s-.32-1.02-.84-1.25l-3.14-1.38h0Z"/>
          <path class="cls-43" d="M192.68,91.84v1.79h-3.53c-.46,0-.83-.35-.83-.79v-7.26c0-.43.37-.79.83-.79h3.53v1.78l-3.14,1.39c-.52.23-.84.71-.84,1.25s.32,1.02.84,1.25l3.14,1.38h0Z"/>
          <path class="cls-43" d="M193.82,91.04c1.01,0,1.83-.82,1.83-1.83s-.82-1.83-1.83-1.83-1.83.82-1.83,1.83.82,1.83,1.83,1.83Z"/>
        </g>
      </g>
      <rect class="cls-29" x="332.02" y=".36" width="9.69" height="177.7"/>
      <rect class="cls-30" x="347.3" y=".36" width="9.69" height="177.7"/>
      <rect class="cls-28" x="363.18" y=".36" width="23.51" height="177.7"/>
    </g>
  </g>
</svg>