<?xml version="1.0" encoding="UTF-8"?>
<svg id="Layer_2" data-name="Layer 2" xmlns="http://www.w3.org/2000/svg" xmlns:xlink="http://www.w3.org/1999/xlink" viewBox="0 0 390.52 185.71">
  <defs>
    <style>
      .cls-1 {
        stroke: #999;
      }

      .cls-1, .cls-2, .cls-3, .cls-4, .cls-5, .cls-6, .cls-7, .cls-8, .cls-9, .cls-10, .cls-11, .cls-12, .cls-13, .cls-14, .cls-15, .cls-16, .cls-17, .cls-18, .cls-19, .cls-20, .cls-21, .cls-22 {
        stroke-width: .5px;
      }

      .cls-1, .cls-2, .cls-3, .cls-4, .cls-5, .cls-7, .cls-8, .cls-9, .cls-10, .cls-11, .cls-12, .cls-13, .cls-14, .cls-15, .cls-16, .cls-17, .cls-18, .cls-19, .cls-20, .cls-21, .cls-22 {
        fill: none;
      }

      .cls-1, .cls-4, .cls-5, .cls-6, .cls-7, .cls-8, .cls-9, .cls-10, .cls-11, .cls-12, .cls-13, .cls-14, .cls-15, .cls-16, .cls-17, .cls-18, .cls-19, .cls-20, .cls-21, .cls-22 {
        stroke-miterlimit: 10;
      }

      .cls-2 {
        stroke: url(#New_Gradient_Swatch_copy-3);
      }

      .cls-2, .cls-3 {
        stroke-dasharray: 0 0 0 4;
        stroke-linecap: round;
        stroke-linejoin: round;
      }

      .cls-3 {
        stroke: url(#New_Gradient_Swatch_copy);
      }

      .cls-4 {
        stroke: url(#linear-gradient-3);
      }

      .cls-5 {
        stroke: url(#linear-gradient-2);
      }

      .cls-6 {
        fill: #242023;
        stroke: #4d4d4d;
      }

      .cls-7 {
        stroke: url(#New_Gradient_Swatch_copy-4);
      }

      .cls-8 {
        stroke: url(#New_Gradient_Swatch_copy-5);
      }

      .cls-9 {
        stroke: url(#New_Gradient_Swatch_copy-6);
      }

      .cls-10 {
        stroke: url(#New_Gradient_Swatch_copy-7);
      }

      .cls-11 {
        stroke: url(#New_Gradient_Swatch_copy-2);
      }

      .cls-12 {
        stroke: url(#New_Gradient_Swatch_copy-9);
      }

      .cls-13 {
        stroke: url(#New_Gradient_Swatch_copy-8);
      }

      .cls-14 {
        stroke: url(#linear-gradient);
      }

      .cls-15 {
        stroke: #4d4d4d;
      }

      .cls-16 {
        stroke: url(#New_Gradient_Swatch_copy-16);
      }

      .cls-17 {
        stroke: url(#New_Gradient_Swatch_copy-10);
      }

      .cls-18 {
        stroke: url(#New_Gradient_Swatch_copy-15);
      }

      .cls-19 {
        stroke: url(#New_Gradient_Swatch_copy-11);
      }

      .cls-20 {
        stroke: url(#New_Gradient_Swatch_copy-14);
      }

      .cls-21 {
        stroke: url(#New_Gradient_Swatch_copy-12);
      }

      .cls-22 {
        stroke: url(#New_Gradient_Swatch_copy-13);
      }
    </style>
    <linearGradient id="New_Gradient_Swatch_copy" data-name="New Gradient Swatch copy" x1="8.14" y1="124.42" x2="382.38" y2="124.42" gradientUnits="userSpaceOnUse">
      <stop offset="0" stop-color="#151515"/>
      <stop offset=".65" stop-color="#f3e569"/>
      <stop offset=".8" stop-color="#f9f9f9"/>
      <stop offset=".95" stop-color="#151515"/>
    </linearGradient>
    <linearGradient id="New_Gradient_Swatch_copy-2" data-name="New Gradient Swatch copy" x1="195.73" y1="91.37" x2="195.73" y2="35.19" xlink:href="#New_Gradient_Swatch_copy"/>
    <linearGradient id="New_Gradient_Swatch_copy-3" data-name="New Gradient Swatch copy" x1="195.73" y1="85.18" x2="195.73" y2="47.72" xlink:href="#New_Gradient_Swatch_copy"/>
    <linearGradient id="New_Gradient_Swatch_copy-4" data-name="New Gradient Swatch copy" x1="302.85" y1="91.36" x2="302.85" y2="47.73" xlink:href="#New_Gradient_Swatch_copy"/>
    <linearGradient id="New_Gradient_Swatch_copy-5" data-name="New Gradient Swatch copy" x1="302.85" y1="81.26" x2="302.85" y2="37.64" xlink:href="#New_Gradient_Swatch_copy"/>
    <linearGradient id="New_Gradient_Swatch_copy-6" data-name="New Gradient Swatch copy" x1="312.52" y1="65.9" x2="312.52" y2="27.54" xlink:href="#New_Gradient_Swatch_copy"/>
    <linearGradient id="New_Gradient_Swatch_copy-7" data-name="New Gradient Swatch copy" x1="336.37" y1="42.83" x2="336.37" y2="17.44" xlink:href="#New_Gradient_Swatch_copy"/>
    <linearGradient id="New_Gradient_Swatch_copy-8" data-name="New Gradient Swatch copy" x1="363.14" y1="18.16" x2="363.14" y2="7.34" xlink:href="#New_Gradient_Swatch_copy"/>
    <linearGradient id="New_Gradient_Swatch_copy-9" data-name="New Gradient Swatch copy" x1="269.8" y1="91.36" x2="269.8" y2="47.73" gradientTransform="translate(357.47) rotate(-180) scale(1 -1)" xlink:href="#New_Gradient_Swatch_copy"/>
    <linearGradient id="New_Gradient_Swatch_copy-10" data-name="New Gradient Swatch copy" x1="269.8" y1="81.26" x2="269.8" y2="37.64" gradientTransform="translate(357.47) rotate(-180) scale(1 -1)" xlink:href="#New_Gradient_Swatch_copy"/>
    <linearGradient id="New_Gradient_Swatch_copy-11" data-name="New Gradient Swatch copy" x1="279.47" y1="65.9" x2="279.47" y2="27.54" gradientTransform="translate(357.47) rotate(-180) scale(1 -1)" xlink:href="#New_Gradient_Swatch_copy"/>
    <linearGradient id="New_Gradient_Swatch_copy-12" data-name="New Gradient Swatch copy" x1="303.31" y1="42.83" x2="303.31" y2="17.44" gradientTransform="translate(357.47) rotate(-180) scale(1 -1)" xlink:href="#New_Gradient_Swatch_copy"/>
    <linearGradient id="New_Gradient_Swatch_copy-13" data-name="New Gradient Swatch copy" x1="330.08" y1="18.16" x2="330.08" y2="7.34" gradientTransform="translate(357.47) rotate(-180) scale(1 -1)" xlink:href="#New_Gradient_Swatch_copy"/>
    <linearGradient id="linear-gradient" x1="215.98" y1="7.82" x2="325.02" y2="7.82" gradientUnits="userSpaceOnUse">
      <stop offset=".05" stop-color="#151515"/>
      <stop offset=".2" stop-color="#f9f9f9"/>
      <stop offset=".35" stop-color="#f3e569"/>
      <stop offset="1" stop-color="#151515"/>
    </linearGradient>
    <linearGradient id="linear-gradient-2" x1="234.87" y1="17.68" x2="330.55" y2="17.68" xlink:href="#linear-gradient"/>
    <linearGradient id="linear-gradient-3" x1="253.76" y1="27.54" x2="319.48" y2="27.54" xlink:href="#linear-gradient"/>
    <linearGradient id="New_Gradient_Swatch_copy-14" data-name="New Gradient Swatch copy" x1="66.44" y1="7.82" x2="175.48" y2="7.82" xlink:href="#New_Gradient_Swatch_copy"/>
    <linearGradient id="New_Gradient_Swatch_copy-15" data-name="New Gradient Swatch copy" x1="60.92" y1="17.68" x2="156.59" y2="17.68" xlink:href="#New_Gradient_Swatch_copy"/>
    <linearGradient id="New_Gradient_Swatch_copy-16" data-name="New Gradient Swatch copy" x1="71.98" y1="27.54" x2="137.7" y2="27.54" xlink:href="#New_Gradient_Swatch_copy"/>
  </defs>
  <g id="Layer_1-2" data-name="Layer 1">
    <g>
      <rect class="cls-6" x=".25" y=".25" width="390.02" height="185.21"/>
      <g>
        <path class="cls-15" d="M8.39,149.92c15.57,0,15.57,20,31.14,20s15.57-20,31.14-20,15.57,20,31.14,20,15.57-20,31.15-20,15.57,20,31.14,20,15.57-20,31.14-20,15.57,20,31.15,20,15.57-20,31.15-20,15.57,20,31.15,20,15.57-20,31.15-20,15.58,20,31.15,20,15.58-20,31.15-20"/>
        <path class="cls-3" d="M8.39,107.42c8.49,0,8.49,34,16.99,34s8.49-34,16.99-34,8.49,34,16.99,34,8.49-34,16.99-34,8.49,34,16.99,34,8.49-34,16.99-34,8.49,34,16.99,34,8.49-34,16.99-34,8.49,34,16.99,34,8.49-34,16.98-34,8.49,34,16.98,34,8.49-34,16.99-34,8.49,34,16.99,34,8.49-34,16.99-34,8.49,34,16.99,34,8.49-34,16.99-34,8.5,34,16.99,34,8.49-34,16.99-34,8.5,34,16.99,34,8.5-34,16.99-34,8.5,34,17,34,8.5-34,17-34"/>
        <path class="cls-15" d="M8.39,65.02c93.44,0,93.44,32,186.87,32s93.44-32,186.87-32"/>
        <line class="cls-15" x1="382.13" y1="174.94" x2="8.39" y2="178.13"/>
        <g>
          <line class="cls-15" x1="8.39" y1="94.08" x2="116.32" y2="94.08"/>
          <line class="cls-15" x1="8.39" y1="81.02" x2="68.47" y2="81.02"/>
          <line class="cls-15" x1="8.39" y1="72.15" x2="37.69" y2="72.15"/>
        </g>
        <g>
          <line class="cls-15" x1="382.13" y1="94.08" x2="274.2" y2="94.08"/>
          <line class="cls-15" x1="382.13" y1="81.02" x2="322.05" y2="81.02"/>
          <line class="cls-15" x1="382.13" y1="72.15" x2="352.83" y2="72.15"/>
        </g>
        <circle class="cls-11" cx="195.73" cy="63.28" r="27.84"/>
        <circle class="cls-2" cx="195.73" cy="66.45" r="18.48"/>
        <g>
          <g>
            <line class="cls-7" x1="223.57" y1="91.12" x2="382.13" y2="47.97"/>
            <line class="cls-8" x1="223.57" y1="81.02" x2="382.13" y2="37.88"/>
            <polyline class="cls-9" points="242.91 65.66 290.6 52.69 344.14 38.12 382.14 27.78"/>
            <polyline class="cls-10" points="290.6 42.59 344.14 28.02 382.14 17.68"/>
            <line class="cls-13" x1="382.14" y1="7.58" x2="344.14" y2="17.92"/>
          </g>
          <line class="cls-1" x1="242.91" y1="75.76" x2="242.91" y2="65.66"/>
          <line class="cls-1" x1="290.6" y1="52.69" x2="290.6" y2="42.59"/>
          <line class="cls-1" x1="290.6" y1="72.88" x2="290.6" y2="62.78"/>
          <line class="cls-1" x1="344.14" y1="48.21" x2="344.14" y2="38.12"/>
          <polyline class="cls-1" points="344.14 28.02 344.14 17.92 344.14 7.82"/>
        </g>
        <g>
          <g>
            <line class="cls-12" x1="166.95" y1="91.12" x2="8.39" y2="47.97"/>
            <line class="cls-17" x1="166.95" y1="81.02" x2="8.39" y2="37.88"/>
            <polyline class="cls-19" points="8.39 27.78 46.39 38.12 99.93 52.69 147.62 65.66"/>
            <polyline class="cls-21" points="8.39 17.68 46.39 28.02 99.93 42.59"/>
            <line class="cls-22" x1="46.39" y1="17.92" x2="8.39" y2="7.58"/>
          </g>
          <line class="cls-1" x1="147.62" y1="65.66" x2="147.62" y2="75.76"/>
          <line class="cls-1" x1="99.93" y1="42.59" x2="99.93" y2="52.69"/>
          <line class="cls-1" x1="99.93" y1="62.78" x2="99.93" y2="72.88"/>
          <line class="cls-1" x1="46.39" y1="38.12" x2="46.39" y2="48.21"/>
          <polyline class="cls-1" points="46.39 7.82 46.39 17.92 46.39 28.02"/>
        </g>
        <g>
          <g>
            <line class="cls-14" x1="325.02" y1="7.82" x2="215.98" y2="7.82"/>
            <line class="cls-15" x1="330.55" y1="12.75" x2="215.98" y2="12.75"/>
            <line class="cls-5" x1="330.55" y1="17.68" x2="234.87" y2="17.68"/>
            <line class="cls-15" x1="319.48" y1="22.61" x2="234.87" y2="22.61"/>
            <line class="cls-4" x1="319.48" y1="27.54" x2="253.76" y2="27.54"/>
            <line class="cls-15" x1="308.39" y1="32.47" x2="253.76" y2="32.47"/>
          </g>
          <g>
            <line class="cls-20" x1="66.44" y1="7.82" x2="175.48" y2="7.82"/>
            <line class="cls-15" x1="60.92" y1="12.75" x2="175.48" y2="12.75"/>
            <line class="cls-18" x1="60.92" y1="17.68" x2="156.59" y2="17.68"/>
            <line class="cls-15" x1="71.98" y1="22.61" x2="156.59" y2="22.61"/>
            <line class="cls-16" x1="71.98" y1="27.54" x2="137.7" y2="27.54"/>
            <line class="cls-15" x1="83.07" y1="32.47" x2="137.7" y2="32.47"/>
          </g>
        </g>
        <g>
          <path class="cls-15" d="M207.28,7.58c0,19.96,49.6,25.56,49.6,46.26"/>
          <path class="cls-15" d="M184.19,7.58c0,19.96-49.6,25.56-49.6,46.26"/>
        </g>
        <g>
          <circle class="cls-15" cx="234.51" cy="47.89" r="5.96"/>
          <circle class="cls-15" cx="156.95" cy="47.89" r="5.96"/>
        </g>
      </g>
    </g>
  </g>
</svg>