<?xml version="1.0" encoding="UTF-8"?>
<svg id="Layer_2" data-name="Layer 2" xmlns="http://www.w3.org/2000/svg" xmlns:xlink="http://www.w3.org/1999/xlink" viewBox="0 0 387.23 185.73">
  <defs>
    <style>
      .cls-1 {
        fill: #4d4d4d;
      }

      .cls-1, .cls-2, .cls-3, .cls-4, .cls-5, .cls-6, .cls-7, .cls-8, .cls-9, .cls-10, .cls-11, .cls-12, .cls-13, .cls-14, .cls-15, .cls-16, .cls-17, .cls-18, .cls-19, .cls-20, .cls-21, .cls-22, .cls-23, .cls-24, .cls-25, .cls-26, .cls-27, .cls-28, .cls-29, .cls-30, .cls-31, .cls-32, .cls-33, .cls-34, .cls-35, .cls-36, .cls-37, .cls-38, .cls-39, .cls-40, .cls-41, .cls-42, .cls-43, .cls-44, .cls-45, .cls-46, .cls-47, .cls-48, .cls-49, .cls-50, .cls-51, .cls-52, .cls-53, .cls-54, .cls-55, .cls-56, .cls-57, .cls-58, .cls-59 {
        stroke-miterlimit: 10;
      }

      .cls-1, .cls-2, .cls-3, .cls-4, .cls-5, .cls-6, .cls-7, .cls-8, .cls-9, .cls-10, .cls-12, .cls-14, .cls-16, .cls-17, .cls-18, .cls-19, .cls-20, .cls-21, .cls-22, .cls-23, .cls-24, .cls-25, .cls-26, .cls-27, .cls-28, .cls-29, .cls-30, .cls-31, .cls-32, .cls-33, .cls-34, .cls-35, .cls-36, .cls-37, .cls-38, .cls-39, .cls-40, .cls-41, .cls-42, .cls-43, .cls-44, .cls-45, .cls-46, .cls-47, .cls-48, .cls-49, .cls-50, .cls-51, .cls-52, .cls-53, .cls-54, .cls-55, .cls-56, .cls-59 {
        stroke-width: .49px;
      }

      .cls-1, .cls-11, .cls-13, .cls-56, .cls-57, .cls-58 {
        stroke: #4d4d4d;
      }

      .cls-2 {
        stroke: url(#New_Gradient_Swatch_copy_4-2);
      }

      .cls-2, .cls-3, .cls-4, .cls-5, .cls-6, .cls-7, .cls-8, .cls-11, .cls-13, .cls-15, .cls-16, .cls-17, .cls-18, .cls-19, .cls-20, .cls-21, .cls-22, .cls-23, .cls-24, .cls-25, .cls-26, .cls-27, .cls-28, .cls-29, .cls-30, .cls-31, .cls-32, .cls-33, .cls-34, .cls-35, .cls-36, .cls-37, .cls-38, .cls-39, .cls-40, .cls-41, .cls-42, .cls-43, .cls-44, .cls-45, .cls-46, .cls-47, .cls-48, .cls-49, .cls-50, .cls-51, .cls-52, .cls-53, .cls-54, .cls-55, .cls-56, .cls-57, .cls-58 {
        fill: none;
      }

      .cls-3 {
        stroke: url(#New_Gradient_Swatch_copy_4-9);
      }

      .cls-4 {
        stroke: url(#New_Gradient_Swatch_copy_4-5);
      }

      .cls-5 {
        stroke: url(#New_Gradient_Swatch_copy_4-7);
      }

      .cls-6 {
        stroke: url(#New_Gradient_Swatch_copy_4-8);
      }

      .cls-7 {
        stroke: url(#New_Gradient_Swatch_copy_4-6);
      }

      .cls-8 {
        stroke: url(#New_Gradient_Swatch_copy_4-4);
      }

      .cls-9 {
        stroke: #333;
      }

      .cls-9, .cls-10 {
        fill: #333;
      }

      .cls-10 {
        stroke: url(#New_Gradient_Swatch_copy_4-52);
      }

      .cls-11 {
        stroke-width: .51px;
      }

      .cls-12 {
        fill: gray;
        stroke: url(#New_Gradient_Swatch_copy_4);
      }

      .cls-13 {
        stroke-width: .6px;
      }

      .cls-60 {
        fill: rgba(249, 249, 249, .64);
        stroke-width: 0px;
      }

      .cls-14 {
        fill: #ccc;
        stroke: url(#New_Gradient_Swatch_copy_4-51);
      }

      .cls-15 {
        stroke: url(#New_Gradient_Swatch_copy_4-40);
        stroke-width: .51px;
      }

      .cls-16 {
        stroke: url(#New_Gradient_Swatch_copy_4-35);
      }

      .cls-17 {
        stroke: url(#New_Gradient_Swatch_copy_4-36);
      }

      .cls-18 {
        stroke: url(#New_Gradient_Swatch_copy_4-34);
      }

      .cls-19 {
        stroke: url(#New_Gradient_Swatch_copy_4-27);
      }

      .cls-20 {
        stroke: url(#New_Gradient_Swatch_copy_4-28);
      }

      .cls-21 {
        stroke: url(#New_Gradient_Swatch_copy_4-33);
      }

      .cls-22 {
        stroke: url(#New_Gradient_Swatch_copy_4-23);
      }

      .cls-23 {
        stroke: url(#New_Gradient_Swatch_copy_4-31);
      }

      .cls-24 {
        stroke: url(#New_Gradient_Swatch_copy_4-32);
      }

      .cls-25 {
        stroke: url(#New_Gradient_Swatch_copy_4-24);
      }

      .cls-26 {
        stroke: url(#New_Gradient_Swatch_copy_4-37);
      }

      .cls-27 {
        stroke: url(#New_Gradient_Swatch_copy_4-30);
      }

      .cls-28 {
        stroke: url(#New_Gradient_Swatch_copy_4-20);
      }

      .cls-29 {
        stroke: url(#New_Gradient_Swatch_copy_4-21);
      }

      .cls-30 {
        stroke: url(#New_Gradient_Swatch_copy_4-26);
      }

      .cls-31 {
        stroke: url(#New_Gradient_Swatch_copy_4-29);
      }

      .cls-32 {
        stroke: url(#New_Gradient_Swatch_copy_4-38);
      }

      .cls-33 {
        stroke: url(#New_Gradient_Swatch_copy_4-25);
      }

      .cls-34 {
        stroke: url(#New_Gradient_Swatch_copy_4-39);
      }

      .cls-35 {
        stroke: url(#New_Gradient_Swatch_copy_4-22);
      }

      .cls-36 {
        stroke: url(#New_Gradient_Swatch_copy_4-10);
      }

      .cls-37 {
        stroke: url(#New_Gradient_Swatch_copy_4-11);
      }

      .cls-38 {
        stroke: url(#New_Gradient_Swatch_copy_4-17);
      }

      .cls-39 {
        stroke: url(#New_Gradient_Swatch_copy_4-13);
      }

      .cls-40 {
        stroke: url(#New_Gradient_Swatch_copy_4-16);
      }

      .cls-41 {
        stroke: url(#New_Gradient_Swatch_copy_4-14);
      }

      .cls-42 {
        stroke: url(#New_Gradient_Swatch_copy_4-15);
      }

      .cls-43 {
        stroke: url(#New_Gradient_Swatch_copy_4-12);
      }

      .cls-44 {
        stroke: url(#New_Gradient_Swatch_copy_4-50);
      }

      .cls-45 {
        stroke: url(#New_Gradient_Swatch_copy_4-19);
      }

      .cls-46 {
        stroke: url(#New_Gradient_Swatch_copy_4-18);
      }

      .cls-47 {
        stroke: url(#New_Gradient_Swatch_copy_4-45);
      }

      .cls-48 {
        stroke: url(#New_Gradient_Swatch_copy_4-41);
      }

      .cls-49 {
        stroke: url(#New_Gradient_Swatch_copy_4-42);
      }

      .cls-50 {
        stroke: url(#New_Gradient_Swatch_copy_4-44);
      }

      .cls-51 {
        stroke: url(#New_Gradient_Swatch_copy_4-49);
      }

      .cls-52 {
        stroke: url(#New_Gradient_Swatch_copy_4-43);
      }

      .cls-53 {
        stroke: url(#New_Gradient_Swatch_copy_4-47);
      }

      .cls-54 {
        stroke: url(#New_Gradient_Swatch_copy_4-48);
      }

      .cls-55 {
        stroke: url(#New_Gradient_Swatch_copy_4-46);
      }

      .cls-57 {
        stroke-width: .49px;
      }

      .cls-58 {
        stroke-width: .56px;
      }

      .cls-59 {
        fill: #999;
        stroke: url(#New_Gradient_Swatch_copy_4-3);
      }
    </style>
    <linearGradient id="New_Gradient_Swatch_copy_4" data-name="New Gradient Swatch copy 4" x1="198.92" y1="163.69" x2="209.46" y2="163.69" gradientUnits="userSpaceOnUse">
      <stop offset="0" stop-color="#151515"/>
      <stop offset=".65" stop-color="#1a6e92"/>
      <stop offset=".8" stop-color="#f9f9f9"/>
      <stop offset=".95" stop-color="#151515"/>
    </linearGradient>
    <linearGradient id="New_Gradient_Swatch_copy_4-2" data-name="New Gradient Swatch copy 4" x1="123.04" y1="147.55" x2="186.43" y2="147.55" xlink:href="#New_Gradient_Swatch_copy_4"/>
    <linearGradient id="New_Gradient_Swatch_copy_4-3" data-name="New Gradient Swatch copy 4" x1="148.53" y1="38.22" x2="158.54" y2="38.22" xlink:href="#New_Gradient_Swatch_copy_4"/>
    <linearGradient id="New_Gradient_Swatch_copy_4-4" data-name="New Gradient Swatch copy 4" x1="227.21" y1="9.16" x2="236.21" y2="9.16" xlink:href="#New_Gradient_Swatch_copy_4"/>
    <linearGradient id="New_Gradient_Swatch_copy_4-5" data-name="New Gradient Swatch copy 4" x1="218.46" y1="9.16" x2="227.46" y2="9.16" xlink:href="#New_Gradient_Swatch_copy_4"/>
    <linearGradient id="New_Gradient_Swatch_copy_4-6" data-name="New Gradient Swatch copy 4" x1="209.72" y1="9.16" x2="218.72" y2="9.16" xlink:href="#New_Gradient_Swatch_copy_4"/>
    <linearGradient id="New_Gradient_Swatch_copy_4-7" data-name="New Gradient Swatch copy 4" x1="200.97" y1="9.16" x2="209.97" y2="9.16" xlink:href="#New_Gradient_Swatch_copy_4"/>
    <linearGradient id="New_Gradient_Swatch_copy_4-8" data-name="New Gradient Swatch copy 4" x1="192.22" y1="9.16" x2="201.22" y2="9.16" xlink:href="#New_Gradient_Swatch_copy_4"/>
    <linearGradient id="New_Gradient_Swatch_copy_4-9" data-name="New Gradient Swatch copy 4" x1="183.48" y1="9.16" x2="192.48" y2="9.16" xlink:href="#New_Gradient_Swatch_copy_4"/>
    <linearGradient id="New_Gradient_Swatch_copy_4-10" data-name="New Gradient Swatch copy 4" x1="174.73" y1="9.16" x2="183.73" y2="9.16" xlink:href="#New_Gradient_Swatch_copy_4"/>
    <linearGradient id="New_Gradient_Swatch_copy_4-11" data-name="New Gradient Swatch copy 4" x1="165.98" y1="9.16" x2="174.99" y2="9.16" xlink:href="#New_Gradient_Swatch_copy_4"/>
    <linearGradient id="New_Gradient_Swatch_copy_4-12" data-name="New Gradient Swatch copy 4" x1="157.24" y1="9.16" x2="166.24" y2="9.16" xlink:href="#New_Gradient_Swatch_copy_4"/>
    <linearGradient id="New_Gradient_Swatch_copy_4-13" data-name="New Gradient Swatch copy 4" x1="148.49" y1="9.16" x2="157.49" y2="9.16" xlink:href="#New_Gradient_Swatch_copy_4"/>
    <linearGradient id="New_Gradient_Swatch_copy_4-14" data-name="New Gradient Swatch copy 4" x1="139.75" y1="9.16" x2="148.75" y2="9.16" xlink:href="#New_Gradient_Swatch_copy_4"/>
    <linearGradient id="New_Gradient_Swatch_copy_4-15" data-name="New Gradient Swatch copy 4" x1="131" y1="9.16" x2="140" y2="9.16" xlink:href="#New_Gradient_Swatch_copy_4"/>
    <linearGradient id="New_Gradient_Swatch_copy_4-16" data-name="New Gradient Swatch copy 4" x1="122.25" y1="9.16" x2="131.25" y2="9.16" xlink:href="#New_Gradient_Swatch_copy_4"/>
    <linearGradient id="New_Gradient_Swatch_copy_4-17" data-name="New Gradient Swatch copy 4" x1="113.51" y1="9.16" x2="122.51" y2="9.16" xlink:href="#New_Gradient_Swatch_copy_4"/>
    <linearGradient id="New_Gradient_Swatch_copy_4-18" data-name="New Gradient Swatch copy 4" x1="104.76" y1="9.16" x2="113.76" y2="9.16" xlink:href="#New_Gradient_Swatch_copy_4"/>
    <linearGradient id="New_Gradient_Swatch_copy_4-19" data-name="New Gradient Swatch copy 4" x1="96.01" y1="9.16" x2="105.02" y2="9.16" xlink:href="#New_Gradient_Swatch_copy_4"/>
    <linearGradient id="New_Gradient_Swatch_copy_4-20" data-name="New Gradient Swatch copy 4" x1="87.27" y1="9.16" x2="96.27" y2="9.16" xlink:href="#New_Gradient_Swatch_copy_4"/>
    <linearGradient id="New_Gradient_Swatch_copy_4-21" data-name="New Gradient Swatch copy 4" x1="78.52" y1="9.16" x2="87.52" y2="9.16" xlink:href="#New_Gradient_Swatch_copy_4"/>
    <linearGradient id="New_Gradient_Swatch_copy_4-22" data-name="New Gradient Swatch copy 4" x1="227.21" y1="67.28" x2="236.21" y2="67.28" xlink:href="#New_Gradient_Swatch_copy_4"/>
    <linearGradient id="New_Gradient_Swatch_copy_4-23" data-name="New Gradient Swatch copy 4" x1="218.46" y1="67.28" x2="227.46" y2="67.28" xlink:href="#New_Gradient_Swatch_copy_4"/>
    <linearGradient id="New_Gradient_Swatch_copy_4-24" data-name="New Gradient Swatch copy 4" x1="209.72" y1="67.28" x2="218.72" y2="67.28" xlink:href="#New_Gradient_Swatch_copy_4"/>
    <linearGradient id="New_Gradient_Swatch_copy_4-25" data-name="New Gradient Swatch copy 4" x1="200.97" y1="67.28" x2="209.97" y2="67.28" xlink:href="#New_Gradient_Swatch_copy_4"/>
    <linearGradient id="New_Gradient_Swatch_copy_4-26" data-name="New Gradient Swatch copy 4" x1="192.22" y1="67.28" x2="201.22" y2="67.28" xlink:href="#New_Gradient_Swatch_copy_4"/>
    <linearGradient id="New_Gradient_Swatch_copy_4-27" data-name="New Gradient Swatch copy 4" x1="183.48" y1="67.28" x2="192.48" y2="67.28" xlink:href="#New_Gradient_Swatch_copy_4"/>
    <linearGradient id="New_Gradient_Swatch_copy_4-28" data-name="New Gradient Swatch copy 4" x1="174.73" y1="67.28" x2="183.73" y2="67.28" xlink:href="#New_Gradient_Swatch_copy_4"/>
    <linearGradient id="New_Gradient_Swatch_copy_4-29" data-name="New Gradient Swatch copy 4" x1="165.98" y1="67.28" x2="174.99" y2="67.28" xlink:href="#New_Gradient_Swatch_copy_4"/>
    <linearGradient id="New_Gradient_Swatch_copy_4-30" data-name="New Gradient Swatch copy 4" x1="157.24" y1="67.28" x2="166.24" y2="67.28" xlink:href="#New_Gradient_Swatch_copy_4"/>
    <linearGradient id="New_Gradient_Swatch_copy_4-31" data-name="New Gradient Swatch copy 4" x1="148.49" y1="67.28" x2="157.49" y2="67.28" xlink:href="#New_Gradient_Swatch_copy_4"/>
    <linearGradient id="New_Gradient_Swatch_copy_4-32" data-name="New Gradient Swatch copy 4" x1="139.75" y1="67.28" x2="148.75" y2="67.28" xlink:href="#New_Gradient_Swatch_copy_4"/>
    <linearGradient id="New_Gradient_Swatch_copy_4-33" data-name="New Gradient Swatch copy 4" x1="131" y1="67.28" x2="140" y2="67.28" xlink:href="#New_Gradient_Swatch_copy_4"/>
    <linearGradient id="New_Gradient_Swatch_copy_4-34" data-name="New Gradient Swatch copy 4" x1="122.25" y1="67.28" x2="131.25" y2="67.28" xlink:href="#New_Gradient_Swatch_copy_4"/>
    <linearGradient id="New_Gradient_Swatch_copy_4-35" data-name="New Gradient Swatch copy 4" x1="113.51" y1="67.28" x2="122.51" y2="67.28" xlink:href="#New_Gradient_Swatch_copy_4"/>
    <linearGradient id="New_Gradient_Swatch_copy_4-36" data-name="New Gradient Swatch copy 4" x1="104.76" y1="67.28" x2="113.76" y2="67.28" xlink:href="#New_Gradient_Swatch_copy_4"/>
    <linearGradient id="New_Gradient_Swatch_copy_4-37" data-name="New Gradient Swatch copy 4" x1="96.01" y1="67.28" x2="105.02" y2="67.28" xlink:href="#New_Gradient_Swatch_copy_4"/>
    <linearGradient id="New_Gradient_Swatch_copy_4-38" data-name="New Gradient Swatch copy 4" x1="87.27" y1="67.28" x2="96.27" y2="67.28" xlink:href="#New_Gradient_Swatch_copy_4"/>
    <linearGradient id="New_Gradient_Swatch_copy_4-39" data-name="New Gradient Swatch copy 4" x1="78.52" y1="67.28" x2="87.52" y2="67.28" xlink:href="#New_Gradient_Swatch_copy_4"/>
    <linearGradient id="New_Gradient_Swatch_copy_4-40" data-name="New Gradient Swatch copy 4" x1="73.51" y1="92.88" x2="386.93" y2="92.88" xlink:href="#New_Gradient_Swatch_copy_4"/>
    <linearGradient id="New_Gradient_Swatch_copy_4-41" data-name="New Gradient Swatch copy 4" x1="260.56" y1="134.45" x2="260.56" y2="110.26" xlink:href="#New_Gradient_Swatch_copy_4"/>
    <linearGradient id="New_Gradient_Swatch_copy_4-42" data-name="New Gradient Swatch copy 4" x1="248.15" y1="11.79" x2="248.15" y2="5.56" xlink:href="#New_Gradient_Swatch_copy_4"/>
    <linearGradient id="New_Gradient_Swatch_copy_4-43" data-name="New Gradient Swatch copy 4" x1="280.52" y1="11.79" x2="280.52" y2="5.56" xlink:href="#New_Gradient_Swatch_copy_4"/>
    <linearGradient id="New_Gradient_Swatch_copy_4-44" data-name="New Gradient Swatch copy 4" x1="345.25" y1="11.79" x2="345.25" y2="5.56" xlink:href="#New_Gradient_Swatch_copy_4"/>
    <linearGradient id="New_Gradient_Swatch_copy_4-45" data-name="New Gradient Swatch copy 4" x1="264.33" y1="21.8" x2="264.33" y2="15.57" xlink:href="#New_Gradient_Swatch_copy_4"/>
    <linearGradient id="New_Gradient_Swatch_copy_4-46" data-name="New Gradient Swatch copy 4" x1="296.7" y1="21.8" x2="296.7" y2="15.57" xlink:href="#New_Gradient_Swatch_copy_4"/>
    <linearGradient id="New_Gradient_Swatch_copy_4-47" data-name="New Gradient Swatch copy 4" x1="312.88" y1="21.8" x2="312.88" y2="15.57" xlink:href="#New_Gradient_Swatch_copy_4"/>
    <linearGradient id="New_Gradient_Swatch_copy_4-48" data-name="New Gradient Swatch copy 4" x1="345.25" y1="21.8" x2="345.25" y2="15.57" xlink:href="#New_Gradient_Swatch_copy_4"/>
    <linearGradient id="New_Gradient_Swatch_copy_4-49" data-name="New Gradient Swatch copy 4" x1="292.3" y1="44.5" x2="322.16" y2="44.5" xlink:href="#New_Gradient_Swatch_copy_4"/>
    <linearGradient id="New_Gradient_Swatch_copy_4-50" data-name="New Gradient Swatch copy 4" x1="302.45" y1="44.5" x2="312.01" y2="44.5" xlink:href="#New_Gradient_Swatch_copy_4"/>
    <linearGradient id="New_Gradient_Swatch_copy_4-51" data-name="New Gradient Swatch copy 4" x1="255.86" y1="102.82" x2="265.26" y2="102.82" xlink:href="#New_Gradient_Swatch_copy_4"/>
    <linearGradient id="New_Gradient_Swatch_copy_4-52" data-name="New Gradient Swatch copy 4" x1="245.04" y1="55.21" x2="285.24" y2="55.21" xlink:href="#New_Gradient_Swatch_copy_4"/>
  </defs>
  <g id="Layer_1-2" data-name="Layer 1">
    <g>
      <rect class="cls-56" x="53.02" y=".28" width="9.56" height="185.21" transform="translate(115.61 185.77) rotate(180)"/>
      <rect class="cls-56" x=".24" y=".28" width="52.78" height="185.21"/>
      <rect class="cls-56" x="73.65" y="109.61" width="119.02" height="75.88" rx="37.94" ry="37.94"/>
      <rect class="cls-56" x="192.68" y="141.89" width="23.02" height="43.6" rx="11.51" ry="11.51"/>
      <path class="cls-12" d="M204.19,179c-2.77,0-5.03-2.25-5.03-5.03v-20.58c0-2.77,2.25-5.03,5.03-5.03s5.03,2.25,5.03,5.03v20.58c0,2.77-2.25,5.03-5.03,5.03Z"/>
      <path class="cls-56" d="M215.7,141.89h91.41c12.03,0,21.8,9.77,21.8,21.8h0c0,12.03-9.77,21.8-21.8,21.8h-69.61c-12.03,0-21.8-9.77-21.8-21.8v-21.8h0Z" transform="translate(544.61 327.38) rotate(-180)"/>
      <rect class="cls-56" x="192.67" y="109.61" width="56.14" height="10.22"/>
      <rect class="cls-13" x="272.31" y="109.61" width="114.63" height="10.22"/>
      <polyline class="cls-56" points="248.81 119.83 192.67 119.83 192.67 141.89 248.81 141.89"/>
      <polyline class="cls-13" points="272.31 141.89 386.93 141.89 386.93 119.83 272.31 119.83"/>
      <rect class="cls-57" x="272.31" y="109.61" width="56.61" height="10.22"/>
      <polyline class="cls-57" points="272.31 141.89 328.91 141.89 328.91 119.83 272.31 119.83"/>
      <rect class="cls-58" x="241.08" y=".28" width="145.85" height="75.88" transform="translate(628.01 76.44) rotate(180)"/>
      <circle class="cls-2" cx="154.74" cy="147.55" r="31.45"/>
      <g>
        <path class="cls-60" d="M156.43,143.64v-2.66h5.25c.68,0,1.23.52,1.23,1.17v10.82c0,.65-.55,1.17-1.23,1.17h-5.25v-2.65l4.68-2.07c.77-.34,1.25-1.06,1.25-1.86s-.48-1.52-1.25-1.86l-4.68-2.05h0Z"/>
        <path class="cls-60" d="M153.04,151.46v2.66h-5.25c-.68,0-1.23-.52-1.23-1.17v-10.82c0-.65.55-1.17,1.23-1.17h5.25v2.65l-4.68,2.07c-.77.34-1.25,1.06-1.25,1.86s.48,1.52,1.25,1.86l4.68,2.05h0Z"/>
        <path class="cls-60" d="M154.74,150.27c1.5,0,2.72-1.22,2.72-2.72s-1.22-2.72-2.72-2.72-2.72,1.22-2.72,2.72,1.22,2.72,2.72,2.72Z"/>
      </g>
      <polyline class="cls-56" points="99.15 147.55 68.12 147.55 68.12 38.22 153.54 38.22"/>
      <circle class="cls-56" cx="153.54" cy="38.22" r="13.02"/>
      <circle class="cls-59" cx="153.54" cy="38.22" r="4.76"/>
      <circle class="cls-56" cx="126.75" cy="38.22" r="4.76"/>
      <circle class="cls-56" cx="99.97" cy="38.22" r="4.76"/>
      <circle class="cls-56" cx="179.58" cy="38.22" r="4.76"/>
      <path class="cls-56" d="M179.58,51.24c-7.19,0-13.02-5.83-13.02-13.02s5.83-13.02,13.02-13.02v26.04Z"/>
      <line class="cls-56" x1="179.58" y1="51.24" x2="241.08" y2="51.24"/>
      <line class="cls-56" x1="179.58" y1="25.2" x2="241.08" y2="25.2"/>
      <line class="cls-56" x1="195.75" y1="38.22" x2="285" y2="38.22"/>
      <line class="cls-56" x1="195.75" y1="32.19" x2="285" y2="32.19"/>
      <line class="cls-56" x1="195.75" y1="44.73" x2="285" y2="44.73"/>
      <line class="cls-56" x1="272.31" y1="119.83" x2="272.31" y2="109.61"/>
      <line class="cls-56" x1="248.81" y1="119.83" x2="248.81" y2="109.61"/>
      <path class="cls-56" d="M204.19,163.69h32.88c6.49,0,11.75-5.26,11.75-11.75v-32.11"/>
      <path class="cls-56" d="M248.81,109.61v-4.97c0-3.24,1.31-6.18,3.44-8.3,2.13-2.13,5.06-3.44,8.31-3.44,6.49,0,11.75,5.26,11.75,11.75v4.97"/>
      <path class="cls-56" d="M272.31,119.83v32.11c0,6.49,5.26,11.75,11.75,11.75h44.86"/>
      <path class="cls-56" d="M328.91,175.53h-44.86c-13,0-23.58-10.58-23.58-23.58v-32.11"/>
      <line class="cls-56" x1="106.24" y1="140.38" x2="91.91" y2="154.72"/>
      <line class="cls-56" x1="91.91" y1="140.38" x2="106.24" y2="154.72"/>
      <g>
        <line class="cls-8" x1="235.99" y1=".28" x2="227.43" y2="18.04"/>
        <line class="cls-4" x1="227.24" y1=".28" x2="218.68" y2="18.04"/>
        <line class="cls-7" x1="218.5" y1=".28" x2="209.93" y2="18.04"/>
        <line class="cls-5" x1="209.75" y1=".28" x2="201.19" y2="18.04"/>
        <line class="cls-6" x1="201" y1=".28" x2="192.44" y2="18.04"/>
        <line class="cls-3" x1="192.26" y1=".28" x2="183.7" y2="18.04"/>
        <line class="cls-36" x1="183.51" y1=".28" x2="174.95" y2="18.04"/>
        <line class="cls-37" x1="174.77" y1=".28" x2="166.2" y2="18.04"/>
        <line class="cls-43" x1="166.02" y1=".28" x2="157.46" y2="18.04"/>
        <line class="cls-39" x1="157.27" y1=".28" x2="148.71" y2="18.04"/>
        <line class="cls-41" x1="148.53" y1=".28" x2="139.96" y2="18.04"/>
        <line class="cls-42" x1="139.78" y1=".28" x2="131.22" y2="18.04"/>
        <line class="cls-40" x1="131.03" y1=".28" x2="122.47" y2="18.04"/>
        <line class="cls-38" x1="122.29" y1=".28" x2="113.73" y2="18.04"/>
        <line class="cls-46" x1="113.54" y1=".28" x2="104.98" y2="18.04"/>
        <line class="cls-45" x1="104.8" y1=".28" x2="96.23" y2="18.04"/>
        <line class="cls-28" x1="96.05" y1=".28" x2="87.49" y2="18.04"/>
        <line class="cls-29" x1="87.3" y1=".28" x2="78.74" y2="18.04"/>
      </g>
      <g>
        <line class="cls-35" x1="235.99" y1="58.4" x2="227.43" y2="76.16"/>
        <line class="cls-22" x1="227.24" y1="58.4" x2="218.68" y2="76.16"/>
        <line class="cls-25" x1="218.5" y1="58.4" x2="209.93" y2="76.16"/>
        <line class="cls-33" x1="209.75" y1="58.4" x2="201.19" y2="76.16"/>
        <line class="cls-30" x1="201" y1="58.4" x2="192.44" y2="76.16"/>
        <line class="cls-19" x1="192.26" y1="58.4" x2="183.7" y2="76.16"/>
        <line class="cls-20" x1="183.51" y1="58.4" x2="174.95" y2="76.16"/>
        <line class="cls-31" x1="174.77" y1="58.4" x2="166.2" y2="76.16"/>
        <line class="cls-27" x1="166.02" y1="58.4" x2="157.46" y2="76.16"/>
        <line class="cls-23" x1="157.27" y1="58.4" x2="148.71" y2="76.16"/>
        <line class="cls-24" x1="148.53" y1="58.4" x2="139.96" y2="76.16"/>
        <line class="cls-21" x1="139.78" y1="58.4" x2="131.22" y2="76.16"/>
        <line class="cls-18" x1="131.03" y1="58.4" x2="122.47" y2="76.16"/>
        <line class="cls-16" x1="122.29" y1="58.4" x2="113.73" y2="76.16"/>
        <line class="cls-17" x1="113.54" y1="58.4" x2="104.98" y2="76.16"/>
        <line class="cls-26" x1="104.8" y1="58.4" x2="96.23" y2="76.16"/>
        <line class="cls-32" x1="96.05" y1="58.4" x2="87.49" y2="76.16"/>
        <line class="cls-34" x1="87.3" y1="58.4" x2="78.74" y2="76.16"/>
      </g>
      <path class="cls-15" d="M386.93,100.84c-27.22,0-67.83-15.9-109.34-15.9s-101.97,13.66-145,13.66-58.95-10.32-58.95-10.32"/>
      <circle class="cls-9" cx="186.19" cy="180.3" r="5.19"/>
      <rect class="cls-48" x="256.1" y="110.5" width="8.92" height="23.71" rx="4.46" ry="4.46"/>
      <line class="cls-56" x1="260.47" y1="119.83" x2="260.47" y2="175.53"/>
      <circle class="cls-49" cx="248.15" cy="8.67" r="2.87"/>
      <circle class="cls-1" cx="264.33" cy="8.67" r="2.87"/>
      <circle class="cls-52" cx="280.52" cy="8.67" r="2.87"/>
      <circle class="cls-1" cx="296.7" cy="8.67" r="2.87"/>
      <circle class="cls-1" cx="312.88" cy="8.67" r="2.87"/>
      <circle class="cls-1" cx="329.07" cy="8.67" r="2.87"/>
      <circle class="cls-50" cx="345.25" cy="8.67" r="2.87"/>
      <circle class="cls-1" cx="248.15" cy="18.69" r="2.87"/>
      <circle class="cls-47" cx="264.33" cy="18.69" r="2.87"/>
      <circle class="cls-1" cx="280.52" cy="18.69" r="2.87"/>
      <circle class="cls-55" cx="296.7" cy="18.69" r="2.87"/>
      <circle class="cls-53" cx="312.88" cy="18.69" r="2.87"/>
      <circle class="cls-1" cx="329.07" cy="18.69" r="2.87"/>
      <circle class="cls-54" cx="345.25" cy="18.69" r="2.87"/>
      <circle class="cls-51" cx="307.23" cy="44.5" r="14.69"/>
      <circle class="cls-56" cx="307.23" cy="44.5" r="9.94"/>
      <circle class="cls-44" cx="307.23" cy="44.5" r="4.54"/>
      <rect class="cls-56" x="245.28" y="64.45" width="76.64" height="3.73" rx="1.87" ry="1.87"/>
      <line class="cls-56" x1="285" y1="32.19" x2="285" y2="44.73"/>
      <circle class="cls-14" cx="260.56" cy="102.82" r="4.46"/>
      <rect class="cls-10" x="245.28" y="51.24" width="39.72" height="7.94" rx="3.97" ry="3.97"/>
      <rect class="cls-56" x="73.65" y=".28" width="167.43" height="75.88"/>
      <rect class="cls-57" x="328.91" y="141.89" width="58.02" height="43.6"/>
      <polyline class="cls-11" points="268.46 109.61 206.4 109.61 62.59 109.61 62.59 76.16 386.93 76.16 386.93 109.61 294.43 109.61"/>
      <rect class="cls-56" x="62.59" y=".28" width="11.06" height="185.21"/>
    </g>
  </g>
</svg>