<svg width="98" height="24" viewBox="0 0 98 24" fill="none" xmlns="http://www.w3.org/2000/svg">
    <g clip-path="url(#clip0_6004_948)">
        <path
            d="M35.4925 17.8796C33.7535 18.273 30.232 18.8413 30.6233 16.2621C30.9276 14.3386 33.9708 14.3386 35.9272 14.6009L35.4925 17.8796ZM29.1016 10.7539C31.6232 10.1856 36.2316 8.65552 36.1881 12.5025C33.9708 12.5462 32.3188 12.2402 30.232 12.9834C24.8845 14.9506 26.4931 22.5134 35.9272 20.2402C38.8401 19.5408 38.3184 19.3659 38.7531 16.4807C39.2748 13.1145 40.4486 8.8741 35.7968 7.73749C34.4925 7.43147 31.1884 7.60634 29.9277 8.0435L29.1016 10.7539ZM72.7072 12.8522L67.0119 12.896C67.4032 9.35497 73.2723 8.26207 72.7072 12.8522ZM73.881 17.4861C72.2289 17.7921 70.9247 18.4479 69.0553 18.1419C67.4032 17.8358 66.4468 16.9615 66.5772 15.038H75.4461C75.7069 12.3714 76.1852 8.39322 71.7507 7.69377C63.7078 6.46973 60.6646 16.7429 65.7946 19.8031C67.838 21.0271 72.6202 20.6774 73.1419 19.8468C73.3158 19.6282 73.794 17.8796 73.881 17.4861ZM86.7931 17.355L86.0975 19.7593C89.0973 21.508 97.8358 20.6774 95.9664 15.4752C95.6186 14.5134 94.8795 13.9451 94.01 13.4205C93.4448 13.0708 91.8362 12.3276 91.4884 11.9342C90.445 10.6664 92.2275 8.96153 96.4446 10.6664C96.7054 10.3167 96.7489 10.0107 96.9228 9.52983C97.0967 9.04896 97.1837 8.78667 97.3141 8.30579C95.0534 7.7812 92.8796 7.16918 90.445 8.08721C88.6191 8.78667 85.4888 12.0654 90.6189 14.8632C91.4015 15.3003 92.7492 15.7812 92.7057 16.7867C92.6622 17.9233 91.2276 18.1419 90.0537 18.0981C88.5321 18.0981 88.0539 17.7047 86.7931 17.355ZM86.4453 8.26207C84.1846 7.82492 81.8369 7.08175 79.4458 8.13093C78.4459 8.56809 77.7938 9.04896 77.359 10.0544C75.4461 14.5572 82.1847 14.8195 81.8804 16.8741C81.7065 17.9233 80.3153 18.1419 79.1415 18.0981C77.7938 18.0544 77.1851 17.7484 76.0548 17.355C75.707 17.7921 75.3591 19.0599 75.3157 19.7593C76.8808 20.6774 80.5762 20.8085 82.4021 20.1965C84.1846 19.5845 86.2279 17.7047 85.0541 15.2129C84.1846 13.4205 81.0109 12.7211 80.5327 11.7156C79.8806 10.4042 81.4457 9.96699 82.4456 9.92328C83.8368 9.87956 84.5759 10.273 85.7062 10.6664L86.4453 8.26207ZM52.2304 8.30579C49.7523 7.65005 47.3177 7.21289 44.7961 8.26207C40.3617 10.0544 39.0574 16.6118 42.6659 19.4096C44.4483 20.7648 47.2308 20.7648 49.8393 20.3276L50.7522 17.5736C49.0132 17.967 47.4047 18.4479 45.7526 17.4424C43.1441 15.8249 43.7527 11.5845 46.796 10.4479C48.7959 9.7047 49.7523 10.3167 51.4478 10.7102L52.2304 8.30579ZM62.1427 17.6173C60.3168 17.967 58.9256 18.4479 57.23 17.5298C54.7519 16.1746 54.9693 11.8031 58.1865 10.4916C60.1863 9.66098 61.1428 10.4479 62.8383 10.7102L63.6643 8.34951C61.0558 7.65005 58.0995 7.16918 55.6649 8.52437C50.4479 11.4096 49.7523 21.6828 60.1429 20.5025C61.2732 20.3714 61.2297 20.5025 61.5341 19.5408C61.7514 18.885 62.0123 18.273 62.1427 17.6173Z"
            fill="#F5F5F5" />
        <path
            d="M9.79873 1.9235L20.5806 12.7213L11.2769 22.0765L1.97321 12.7213L6.45114 8.08743H4.62519L0.0603027 12.7213L11.2769 24L22.45 12.7213L9.8422 0L9.79873 1.9235Z"
            fill="#F5F5F5" />
        <path
            d="M9.84228 8.13101L7.8859 8.08729L3.40796 12.7212L11.277 20.6337L19.146 12.7212L9.84228 3.32227L9.7988 5.15833L17.32 12.7212L11.277 18.7977L5.27739 12.7212L9.84228 8.13101Z"
            fill="#F5F5F5" />
        <path
            d="M11.2334 10.0109L13.9723 12.7213L11.2334 15.4317L8.49443 12.7213L11.2334 10.0109ZM15.8417 12.7213L11.2334 8.0874L6.625 12.7213L11.2334 17.3552L15.8417 12.7213Z"
            fill="#F5F5F5" />
    </g>
    <defs>
        <clipPath id="clip0_6004_948">
            <rect width="97.2973" height="24" fill="white" transform="translate(0.0603027)" />
        </clipPath>
    </defs>
</svg>