<svg fill="none" viewBox="0 0 185 32" xmlns="http://www.w3.org/2000/svg">
    <g clip-path="url(#clip0_4134:3718)">
        <path
            fill="#F9F9F9"
            d="M84.927 0H67.972c-2.587 0-4.704 2.141-4.704 4.758v17.15c0 2.618 2.117 4.759 4.704 4.759h16.955c2.587 0 4.704-2.141 4.704-4.758V4.759C89.63 2.14 87.514 0 84.927 0zm-1.138 21.333H69.11a.572.572 0 01-.569-.576V5.91c0-.318.255-.576.57-.576h14.68c.314 0 .569.258.569.576v14.85a.573.573 0 01-.57.574zM115.757 0H95.472a.572.572 0 00-.57.576V26.09c0 .318.255.576.57.576h20.285c.151 0 .295-.06.402-.169l4.939-4.996a.58.58 0 00.167-.407V5.572a.578.578 0 00-.167-.407L116.159.169a.566.566 0 00-.402-.169zm-2.636 21.333h-12.377a.572.572 0 01-.569-.576V5.91c0-.318.255-.576.569-.576h12.377c.151 0 .295.06.402.169l2.303 2.33a.58.58 0 01.167.406v10.19c0 .154-.06.3-.167.407l-2.303 2.33a.569.569 0 01-.402.168zM147.794.169a.566.566 0 00-.402-.169H131.81c-2.687 0-4.922 2.062-5.235 4.7a.571.571 0 00.567.634h17.613c.152 0 .296.06.403.169l2.303 2.33a.58.58 0 01.167.406v1.853a.573.573 0 01-.57.576h-19.951a.573.573 0 00-.57.576V21.91c0 2.617 2.117 4.758 4.704 4.758h21.09a.572.572 0 00.569-.576V5.572a.578.578 0 00-.167-.407L147.794.169zm-.737 21.164h-14.679a.572.572 0 01-.569-.576v-4.181c0-.318.254-.576.569-.576h14.679c.315 0 .57.258.57.576v4.182a.572.572 0 01-.57.575zm-89.06-7.851V.576a.572.572 0 00-.57-.576c-2.587 0-4.704 2.141-4.704 4.758V13.4c0 .143-.053.28-.147.385l-7.34 8.222a.565.565 0 01-.844 0l-7.34-8.222a.58.58 0 01-.146-.385V.576a.572.572 0 00-.57-.576c-2.587 0-4.703 2.141-4.703 4.758v11.11c0 .142.052.28.146.385l9.128 10.224c.108.12.26.189.422.189h6.97c.16 0 .315-.069.422-.19l9.128-10.223a.58.58 0 00.146-.386l.001-2.385zm125.565 17.535l-3.464-3.503c-.316-.32-.16-.872.277-.968 2.369-.521 4.158-2.666 4.158-5.213V4.758c0-2.617-2.116-4.758-4.703-4.758h-16.955c-2.587 0-4.704 2.141-4.704 4.758v17.15c0 2.618 2.117 4.759 4.704 4.759h8.694c.151 0 .295.06.402.169l4.939 4.996a.565.565 0 00.403.169h5.847c.507-.001.761-.622.402-.984zM164.013 5.333h14.68c.315 0 .569.258.569.576v14.85a.572.572 0 01-.569.575h-14.68a.572.572 0 01-.569-.576V5.908c0-.317.255-.575.569-.575z"
        />
        <path
            fill="#F9F9F9"
            d="M26.361 5.333H0V0h21.09c2.9 0 5.271 2.4 5.271 5.333zm0 5.334v16H5.273C2.372 26.666 0 24.267 0 21.333V10.667h26.361zM21.09 16H5.272v5.333H21.09V16z"
        />
    </g>
    <defs>
        <clipPath id="clip0_4134:3718">
            <path fill="#F9F9F9" d="M0 0h184.533v32H0z" />
        </clipPath>
    </defs>
</svg>