<svg viewBox="0 0 82 36" fill="none" xmlns="http://www.w3.org/2000/svg">
    <g>
        <path
            fill="#F9F9F9"
            d="M0.845703 17.6464C0.845703 10.795 4.65564 6.41211 10.6051 6.41211C15.2331 6.41211 18.8885 9.42925 19.4835 13.7035H17.4069C16.8005 10.5493 14.0089 8.33782 10.6108 8.33782C5.96566 8.33782 2.97949 11.9607 2.97949 17.6464C2.97949 23.3321 5.97138 27.0578 10.628 27.0578C14.1175 27.0578 16.7605 25.195 17.4126 22.1607H19.4892C18.7169 26.4178 15.3646 28.9835 10.6108 28.9835C4.63847 28.9835 0.845703 24.5721 0.845703 17.6464Z"
        />
        <path
            fill="#F9F9F9"
            d="M21.6853 24.2683C21.6853 21.5712 23.7046 19.9312 27.343 19.6912L32.257 19.3883V18.0226C32.257 15.7483 30.8154 14.3826 28.3555 14.3826C26.0329 14.3826 24.5456 15.5198 24.1966 17.4283H22.2516C22.4804 14.6112 24.803 12.6055 28.3956 12.6055C31.9881 12.6055 34.2535 14.6226 34.2535 17.834V28.6283H32.3428V25.6283H32.297C31.416 27.5826 29.2594 28.8855 26.9082 28.8855C23.7962 28.8855 21.6738 27.0226 21.6738 24.2626L21.6853 24.2683ZM32.2627 22.7083V20.9655L27.589 21.2855C25.1005 21.4512 23.7218 22.5255 23.7218 24.2683C23.7218 26.0112 25.192 27.1655 27.3315 27.1655C30.0946 27.1655 32.2627 25.2112 32.2627 22.7083Z"
        />
        <path
            fill="#F9F9F9"
            d="M37.8066 12.8685H39.7059V15.6742H39.7516C40.3294 13.7485 41.7996 12.6113 43.7446 12.6113C44.2767 12.6113 44.7458 12.7199 44.986 12.777V14.7485C44.7286 14.6285 44.168 14.5199 43.4815 14.5199C41.2333 14.5199 39.8089 16.2628 39.8089 18.8113V28.6342H37.8066V12.8685Z"
        />
        <path
            fill="#F9F9F9"
            d="M80.0365 17.6855C80.0365 10.6798 75.9234 6.37695 69.4763 6.37695C63.0291 6.37695 58.916 10.7598 58.916 17.6855C58.916 24.6112 62.9376 29.0055 69.4763 29.0055C70.3115 29.0055 71.0952 28.9198 71.8446 28.777L69.2074 25.2627C65.735 25.1141 63.544 22.177 63.544 17.6855C63.544 13.1941 65.8494 10.1084 69.4763 10.1084C73.1032 10.1084 75.4372 13.097 75.4372 17.6855C75.4372 19.9712 74.8136 21.9312 73.6638 23.1998L72.3595 21.4284H68.0461L74.991 30.6912H79.31L76.3353 26.7198C78.8066 24.7655 80.0365 21.6112 80.0365 17.6855Z"
        />
        <path
            fill="#F9F9F9"
            d="M51.8965 28.635V6.76074H56.4787V28.635H51.8965Z"
        />
        <path
            fill="#F9F9F9"
            d="M78.1992 27.1261C78.1992 26.4233 78.7656 25.8633 79.4806 25.8633C80.1957 25.8633 80.7621 26.4176 80.7621 27.1261C80.7621 27.8347 80.1957 28.3947 79.4806 28.3947C78.7656 28.3947 78.1992 27.8347 78.1992 27.1261ZM80.5218 27.1261C80.5218 26.549 80.0641 26.0919 79.4864 26.0919C78.9086 26.0919 78.4509 26.549 78.4509 27.1261C78.4509 27.7033 78.9086 28.1604 79.4864 28.1604C80.0641 28.1604 80.5218 27.7033 80.5218 27.1261ZM79.0001 27.7261V26.4633H79.5664C79.8239 26.4633 80.0012 26.6233 80.0012 26.8461C80.0012 27.0461 79.8925 27.1776 79.698 27.2176L80.0584 27.7204H79.7953L79.4749 27.2461H79.2118V27.7204H79.0001V27.7261ZM79.2118 27.0804H79.5207C79.6809 27.0804 79.7667 27.0004 79.7667 26.8633C79.7667 26.7261 79.6809 26.6576 79.5207 26.6576H79.206V27.0861L79.2118 27.0804Z"
        />
    </g>
</svg>