<svg width="29" height="28" viewBox="0 0 29 28" fill="none" xmlns="http://www.w3.org/2000/svg">
    <path
        d="M14.041 28C13.9111 28 13.7597 28 13.6299 28L16.4857 20.1358H20.4233C21.1156 20.1358 21.8728 19.5957 22.1108 18.9475L25.2262 10.4136C25.7455 9.00926 24.9234 7.8642 23.4522 7.8642H17.9785L13.3919 20.4815L10.7957 27.6327C4.62974 26.1636 0.0214844 20.6327 0.0214844 14C0.0214844 7.58333 4.34848 2.16049 10.2548 0.518518L7.57209 7.8858L3.11529 20.1358H6.07928L9.8654 9.72222H12.0938L8.30768 20.1358H11.2717L14.8198 10.4352C15.3391 9.03086 14.5386 7.8858 13.0457 7.8858H10.5361L13.4135 0.0216046C13.6299 0.0216046 13.8246 0 14.041 0C21.7863 0 28.0604 6.26543 28.0604 14C28.0604 21.7346 21.7863 28 14.041 28ZM22.5219 9.72222H20.2935L17.1564 18.2994H19.3848L22.5219 9.72222Z"
        fill="#F5F5F5" />
</svg>