<svg xmlns:xlink="http://www.w3.org/1999/xlink" xmlns="http://www.w3.org/2000/svg" version="1.1"
  viewBox="0 0 483 153.6" width="483" height="153.6">
  <defs>
    <style>
      .cls-1 {
      fill: #F5F5F5;
      stroke-width: 0px;
      }

      .cls-2 {
      display: none;
      }
    </style>
  </defs>
  <g id="kyndryl_" data-name="kyndryl ™" class="cls-2">
    <path id="b" class="cls-1"
      d="M461,0v115.2h-13.5V0h13.5ZM187.7,36.6c-11.5-.7-21.5,7.7-22.7,19.2h-.7v-17.4h-13.5v76.8h13.5v-47.8c0-12.9,6.9-18.9,18.4-18.9s19.1,6.5,19.1,19.6v47.2h13.5v-48.9c0-18.3-10.4-29.7-27.8-29.7h0ZM104.9,113.2h-.4l-23.5-74.8h-14l24.8,76.8h12.4l-12.7,38.4h13.5l37.2-115.2h-14l-23.4,74.8h0ZM401.6,113.2h-.4l-23.5-74.8h-14l24.8,76.8h12.4l-12.7,38.4h13.5l37.2-115.2h-14l-23.4,74.8h0ZM28.1,76.8l33.4-38.4h-16.4l-31.1,37.1h-.4V0H0v115.2h13.5v-37.7h12.8l26,37.7h15.7l-26.9-38.4h-13ZM331.7,55.8h-.7v-17.4h-13.5v76.8h13.5v-48c0-12.9,7.3-17.7,19.9-17.7,2.8,0,5.6.3,8.4.9v-13.1c-2.1-.6-4.2-.9-6.4-.8-11.1-.3-20.4,8.2-21.2,19.2h0ZM286.6,0h13.5v115.2h-13.5v-17.4h-.6c-1.3,10.7-9.5,19.2-25.1,19.2s-32.5-15.1-32.5-40.2,13.5-40.2,32.5-40.2,23.8,8.5,25.1,19.2h.6V0h0ZM286.6,66.7c0-12.9-9.8-18.2-21.9-18.2s-22.3,7.9-22.3,28.3,9.6,28.3,22.3,28.3,21.9-5.2,21.9-18.2v-20.3ZM467,107.1v.9h2.5v7.2h1.1v-7.2h2.5v-.9h-6.1,0ZM480.5,107.1l-2,8h0l-1.9-8h-2.2l-.2,8.1h1.1l.2-8h0l2,8h2l2.1-8h0l.2,8h1.1l-.3-8.1h-2.2,0Z" />
  </g>
  <g id="kyndryl_-2" data-name="kyndryl ®">
    <g id="Artwork">
      <g>
        <path id="Kyndryl_logo_TM" data-name="Kyndryl logo TM" class="cls-1"
          d="M460.4,0v115.1h-13.5V0h13.5ZM187.4,36.7c-13.2,0-21.4,8.4-22.6,19.1h-.7v-17.4h-13.5v76.7h13.5v-47.8c0-12.9,6.8-18.9,18.4-18.9s19.1,6.6,19.1,19.6v47.1h13.5v-48.8c0-18.3-10.3-29.6-27.7-29.6ZM104.8,113.1h-.4l-23.4-74.6h-14l24.8,76.7h12.5l-12.6,38.4h13.5l37.2-115.1h-13.9l-23.5,74.5ZM401.1,113.1h-.4l-23.4-74.6h-14l24.8,76.7h12.5l-12.6,38.4h13.5l37.2-115.1h-13.9l-23.5,74.5ZM28.1,76.8l33.3-38.4h-16.4l-31,37h-.4V0H0v115.1h13.5v-37.6h12.8l26,37.6h15.7l-26.8-38.3h-13.1ZM331.3,55.9h-.6v-17.4h-13.5v76.7h13.5v-48c0-12.9,7.4-17.6,19.9-17.6s6.1.4,8.3.9v-13.1c-1.1-.4-3.6-.8-6.4-.8-11.8,0-19.7,7.9-21.2,19.2ZM286.3,0h13.5v115.1h-13.5v-17.4h-.6c-1.3,10.7-9.5,19.1-25.1,19.1s-32.5-15.1-32.5-40.2,13.5-40.2,32.5-40.2,23.8,8.4,25.1,19.1h.6V0ZM286.3,66.7c0-12.9-9.7-18.2-21.8-18.2s-22.3,7.9-22.3,28.2,9.6,28.2,22.3,28.2,21.8-5.2,21.8-18.2v-20.2Z" />
        <path class="cls-1"
          d="M479.9,109.8c0,3-2.4,5.3-5.3,5.3s-5.3-2.5-5.3-5.3,2.4-5.3,5.3-5.3c2.9,0,5.3,2.4,5.3,5.3ZM478.8,109.8c0-2.5-1.9-4.4-4.4-4.4s-4.4,1.9-4.4,4.4,1.9,4.4,4.4,4.4,4.4-1.9,4.4-4.4ZM475.7,110.3l1.5,2.5h-1.2l-1.3-2.4h-1.1v2.4h-1.2v-6.1h2.4c1.5,0,2.4.7,2.4,1.8s-.4,1.5-1.3,1.8ZM473.4,107.7v1.9h1.2c.8,0,1.2-.4,1.2-1s-.4-1-1.2-1h-1.2Z" />
      </g>
    </g>
  </g>
</svg>