<svg width="42" height="56" viewBox="0 0 42 56" fill="none" xmlns="http://www.w3.org/2000/svg">
<g clip-path="url(#clip0_830_111)">
<path d="M40.7341 25.9149C40.7341 31.4256 39.3937 35.5958 36.7128 39.3192C31.0532 47.3618 23.4575 52.5745 14.0745 55.2554C11.0958 56.149 7.96812 56.149 4.9894 54.9575C1.41493 53.6171 -0.223367 50.4894 0.819187 46.766C1.266 45.4256 1.7128 44.0852 2.45748 42.8937C5.28727 38.2767 6.77663 33.0639 7.52131 27.7022C9.30855 16.0852 14.2234 11.6171 25.8405 10.5745C27.1809 10.5745 27.4788 9.97878 27.1809 8.78729C26.7341 6.70218 26.1383 4.61708 25.3937 2.68091C24.9468 1.63835 24.7979 0.744737 26.1383 0.446865C27.3298 0.297929 28.5213 -0.14888 28.8192 1.63835C29.266 4.17027 29.266 6.70218 29.4149 9.08516C29.4149 9.82984 29.4149 10.7235 30.3085 11.0213C38.0532 13.4043 40.1383 19.6596 40.5851 25.9149H40.7341ZM25.8405 12.3618C18.0958 12.3618 13.3298 16.0852 11.5426 23.532C11.2447 24.5745 10.9468 25.6171 10.9468 26.8086C10.3511 32.0213 8.7128 37.0852 6.03195 41.5532C4.54259 44.0852 3.3511 46.9149 5.28727 49.5958C7.37238 52.4256 10.649 51.8298 13.4788 51.0852C21.8192 49.0001 28.6702 44.383 33.7341 37.2341C35.8192 34.2554 37.3085 30.9788 37.6064 27.2554C38.3511 20.4043 34.3298 11.915 25.8405 12.2128V12.3618Z" fill="#F9F9F9"/>
<path d="M30.4575 8.48936C31.2021 3.42553 35.2234 0 39.8404 0C41.0319 0 41.3298 0.446809 41.3298 1.48936C41.3298 5.80851 37.1596 10.2766 32.6915 10.4255C31.7979 10.4255 30.7553 10.4255 31.7979 9.38298C37.4575 3.2766 37.1596 2.82979 31.2021 7.89362C30.9043 8.04255 30.6064 8.34043 30.3085 8.34043L30.4575 8.48936Z" fill="#F9F9F9"/>
<path d="M31.0532 26.3617C31.0532 25.0213 30.6064 23.6808 30.1596 22.4894C29.7128 21.5957 29.4149 20.7021 30.4574 20.2553C31.6489 19.6596 32.0957 20.7021 32.5426 21.5957C34.6277 26.0638 33.4362 30.234 31.0532 34.1064C30.6064 34.8511 30.0106 35.1489 29.117 34.7021C28.3723 34.2553 28.3723 33.5106 28.8191 32.7659C30.0106 30.6808 30.9043 28.7447 30.9043 26.3617H31.0532Z" fill="#F9F9F9"/>
</g>
<defs>
<clipPath id="clip0_830_111">
<rect width="40.9574" height="56" fill="white" transform="translate(0.521301)"/>
</clipPath>
</defs>
</svg>
