<svg xmlns="http://www.w3.org/2000/svg" xmlns:xlink="http://www.w3.org/1999/xlink" viewBox="0 0 125 27">
  <path d="M 8.085 7.03 L 7.046 10.868 L 12.99 7.008 L 9.103 21.571 L 13.05 21.575 L 18.793 0.064" fill="#3395ff"></path>
  <path
    d="M 1.688 15.452 L 0.053 21.574 L 8.144 21.574 L 11.455 9.12 Z M 29.794 10.062 C 29.596 10.8 29.215 11.342 28.647 11.689 C 28.08 12.034 27.284 12.208 26.257 12.208 L 22.994 12.208 L 24.14 7.918 L 27.403 7.918 C 28.429 7.918 29.134 8.09 29.516 8.441 C 29.898 8.792 29.991 9.328 29.794 10.069 Z M 33.173 9.977 C 33.588 8.428 33.417 7.236 32.658 6.402 C 31.899 5.574 30.569 5.157 28.67 5.157 L 21.387 5.157 L 17.003 21.582 L 20.541 21.582 L 22.308 14.962 L 24.629 14.962 C 25.15 14.962 25.56 15.048 25.859 15.213 C 26.159 15.385 26.335 15.683 26.389 16.113 L 27.021 21.582 L 30.812 21.582 L 30.197 16.484 C 30.072 15.346 29.553 14.677 28.641 14.478 C 29.803 14.141 30.777 13.578 31.562 12.797 C 32.341 12.021 32.897 11.05 33.173 9.983 Z M 41.774 15.703 C 41.477 16.815 41.022 17.656 40.407 18.245 C 39.792 18.834 39.056 19.126 38.197 19.126 C 37.323 19.126 36.731 18.841 36.417 18.265 C 36.104 17.689 36.093 16.855 36.384 15.763 C 36.676 14.67 37.141 13.816 37.78 13.201 C 38.42 12.585 39.167 12.277 40.026 12.277 C 40.883 12.277 41.469 12.575 41.766 13.166 C 42.069 13.76 42.076 14.609 41.779 15.715 Z M 43.325 9.891 L 42.882 11.552 C 42.691 10.956 42.319 10.48 41.771 10.122 C 41.221 9.771 40.541 9.593 39.729 9.593 C 38.734 9.593 37.778 9.851 36.861 10.367 C 35.945 10.884 35.14 11.612 34.455 12.552 C 33.769 13.492 33.268 14.558 32.945 15.756 C 32.629 16.961 32.563 18.014 32.754 18.927 C 32.952 19.847 33.367 20.549 34.007 21.039 C 34.653 21.535 35.477 21.78 36.485 21.78 C 37.287 21.784 38.079 21.61 38.806 21.271 C 39.525 20.945 40.164 20.466 40.678 19.867 L 40.217 21.599 L 43.639 21.599 L 46.763 9.897 L 43.335 9.897 Z M 59.059 9.891 L 49.108 9.891 L 48.412 12.499 L 54.202 12.499 L 46.548 19.139 L 45.894 21.588 L 56.166 21.588 L 56.861 18.98 L 50.657 18.98 L 58.429 12.241 Z M 67.817 15.683 C 67.509 16.835 67.052 17.701 66.449 18.265 C 65.846 18.834 65.115 19.119 64.258 19.119 C 62.464 19.119 61.875 17.974 62.487 15.683 C 62.79 14.545 63.249 13.689 63.862 13.112 C 64.475 12.533 65.218 12.245 66.092 12.245 C 66.949 12.245 67.528 12.531 67.826 13.109 C 68.124 13.685 68.121 14.543 67.817 15.682 Z M 69.82 10.331 C 69.032 9.838 68.027 9.592 66.8 9.592 C 65.559 9.592 64.41 9.837 63.352 10.327 C 62.299 10.814 61.374 11.54 60.649 12.449 C 59.904 13.37 59.368 14.449 59.039 15.68 C 58.716 16.907 58.677 17.984 58.927 18.906 C 59.178 19.826 59.705 20.534 60.496 21.024 C 61.294 21.518 62.309 21.764 63.555 21.764 C 64.782 21.764 65.922 21.516 66.971 21.024 C 68.019 20.529 68.915 19.825 69.66 18.899 C 70.405 17.976 70.939 16.899 71.269 15.668 C 71.599 14.437 71.638 13.362 71.388 12.437 C 71.137 11.517 70.616 10.809 69.832 10.316 Z M 82.035 13.017 L 82.912 9.832 C 82.615 9.68 82.226 9.601 81.739 9.601 C 80.954 9.601 80.202 9.795 79.477 10.19 C 78.854 10.525 78.323 10.997 77.875 11.589 L 78.33 9.875 L 77.337 9.879 L 74.897 9.879 L 71.752 21.576 L 75.222 21.576 L 76.854 15.461 C 77.091 14.572 77.519 13.873 78.135 13.376 C 78.748 12.878 79.513 12.628 80.436 12.628 C 81.003 12.628 81.53 12.758 82.031 13.019 Z M 91.69 15.74 C 91.393 16.832 90.945 17.666 90.332 18.242 C 89.719 18.821 88.98 19.109 88.123 19.109 C 87.266 19.109 86.679 18.818 86.369 18.235 C 86.053 17.649 86.046 16.805 86.343 15.696 C 86.64 14.587 87.095 13.736 87.721 13.147 C 88.347 12.553 89.086 12.257 89.943 12.257 C 90.787 12.257 91.354 12.561 91.657 13.177 C 91.96 13.793 91.967 14.647 91.675 15.739 Z M 94.101 10.35 C 93.459 9.834 92.638 9.575 91.642 9.575 C 90.77 9.575 89.939 9.774 89.15 10.175 C 88.362 10.576 87.723 11.122 87.232 11.813 L 87.244 11.734 L 87.826 9.873 L 84.437 9.873 L 83.573 13.111 L 83.547 13.223 L 79.987 26.559 L 83.461 26.559 L 85.255 19.846 C 85.433 20.443 85.795 20.912 86.349 21.251 C 86.903 21.588 87.586 21.756 88.399 21.756 C 89.408 21.756 90.371 21.511 91.284 21.021 C 92.2 20.53 92.991 19.823 93.664 18.909 C 94.336 17.996 94.835 16.936 95.154 15.738 C 95.477 14.538 95.543 13.467 95.358 12.531 C 95.17 11.593 94.754 10.866 94.112 10.353 Z M 105.626 15.692 C 105.33 16.797 104.875 17.645 104.262 18.227 C 103.648 18.814 102.91 19.106 102.053 19.106 C 101.176 19.106 100.583 18.821 100.273 18.245 C 99.957 17.669 99.95 16.835 100.24 15.743 C 100.53 14.65 100.993 13.796 101.632 13.181 C 102.272 12.565 103.02 12.258 103.879 12.258 C 104.736 12.258 105.316 12.556 105.619 13.145 C 105.922 13.736 105.924 14.586 105.629 15.694 Z M 107.176 9.876 L 106.732 11.538 C 106.541 10.939 106.172 10.462 105.624 10.108 C 105.071 9.754 104.391 9.578 103.581 9.578 C 102.585 9.578 101.624 9.836 100.706 10.353 C 99.79 10.869 98.985 11.593 98.3 12.531 C 97.614 13.468 97.113 14.537 96.79 15.735 C 96.47 16.938 96.408 17.992 96.599 18.91 C 96.792 19.823 97.208 20.529 97.851 21.022 C 98.493 21.511 99.322 21.759 100.33 21.759 C 101.141 21.759 101.916 21.59 102.651 21.249 C 103.368 20.922 104.005 20.443 104.519 19.844 L 104.057 21.577 L 107.479 21.577 L 110.603 9.879 L 107.181 9.879 Z M 124.968 9.88 L 124.97 9.877 L 122.867 9.877 C 122.799 9.877 122.74 9.88 122.679 9.881 L 121.588 9.881 L 121.027 10.663 L 120.889 10.848 L 120.829 10.941 L 116.396 17.142 L 115.479 9.88 L 111.848 9.88 L 113.687 20.916 L 109.626 26.563 L 113.246 26.563 L 114.228 25.164 C 114.256 25.123 114.281 25.088 114.314 25.045 L 115.461 23.41 L 115.494 23.363 L 120.632 16.048 L 124.963 9.891 L 124.97 9.887 L 124.968 9.887 Z"
    fill="#F9F9F9"
  ></path>
</svg>
