<svg width="80" height="56" viewBox="0 0 80 56" fill="none" xmlns="http://www.w3.org/2000/svg">
<g clip-path="url(#clip0_830_134)">
<path d="M50.2929 23.772C49.6816 23.772 49.2495 23.9807 48.9644 24.4157C48.6793 24.8536 48.5323 25.4767 48.5323 26.2703C48.5323 27.0638 48.6764 27.6928 48.9644 28.1337C49.2495 28.5716 49.6845 28.7833 50.2929 28.7833C50.9013 28.7833 51.3393 28.5687 51.6273 28.1308C51.9183 27.6869 52.0652 27.0609 52.0652 26.2673C52.0652 25.4738 51.9183 24.8506 51.6273 24.4157C51.3393 23.9836 50.9043 23.772 50.2929 23.772Z" fill="#F9F9F9"/>
<path d="M22.5531 26.529C22.1357 26.4643 21.7154 26.429 21.2951 26.4231C20.3487 26.4114 19.946 26.7582 19.949 26.7582C19.6697 26.9551 19.5345 27.249 19.5345 27.6547C19.5345 27.9133 19.5816 28.1161 19.6727 28.2572C19.7344 28.3512 19.7579 28.3865 19.9402 28.5335C19.9402 28.5335 20.3546 28.8627 21.298 28.8068C21.9623 28.7657 22.5501 28.6393 22.5501 28.6393V26.5319L22.5531 26.529Z" fill="#F9F9F9"/>
<path d="M31.6675 23.7368C31.0591 23.7368 30.627 23.9749 30.3419 24.4099C30.1538 24.695 30.0304 25.0624 29.9657 25.5033H33.2723C33.2399 25.0771 33.1576 24.6979 32.9666 24.4099C32.6786 23.9749 32.2759 23.7368 31.6675 23.7368Z" fill="#F9F9F9"/>
<path d="M68.7892 23.7368C68.1808 23.7368 67.7487 23.9749 67.4636 24.4099C67.2726 24.695 67.1521 25.0624 67.0874 25.5033H70.394C70.3616 25.0771 70.2793 24.6979 70.0883 24.4099C69.8003 23.9749 69.3976 23.7368 68.7892 23.7368Z" fill="#F9F9F9"/>
<path d="M62.7404 7.58306C60.3391 7.58306 57.9671 8.0886 55.7745 9.06734C53.3056 4.68798 48.7205 1.74881 43.43 1.74881C39.4621 1.74881 35.8705 3.41238 33.2899 6.09878V6.11347C30.4712 2.39542 25.9743 0 20.9483 0C12.3659 0 5.40009 6.93644 5.40009 15.5188C5.40009 17.6409 5.83215 19.7424 6.67863 21.6911C2.69311 24.0424 0.00671387 28.3924 0.00671387 33.389C0.00671387 40.8251 5.97323 46.8798 13.3505 46.8798C14.2734 46.8798 15.1934 46.7857 16.0957 46.5947C18.1238 52.0909 23.3849 56 29.5865 56C35.7882 56 40.6231 52.3848 42.8128 47.2413C44.5351 48.0819 46.425 48.5139 48.3384 48.511C53.0411 48.511 57.1706 45.8951 59.3309 42.0448C60.4419 42.2653 61.5764 42.3828 62.7404 42.3828C72.2633 42.3828 79.9933 34.594 79.9933 24.9829C79.9933 15.3719 72.2633 7.58306 62.7404 7.58306ZM17.2009 27.7634C17.2009 29.1683 16.181 30.0413 14.5409 30.0413C13.7356 30.0413 12.9655 29.9149 12.1484 29.4828C11.9956 29.3946 11.8427 29.3153 11.6929 29.2065C11.6782 29.183 11.6076 29.1566 11.6576 29.0243L11.9809 28.122C12.0309 27.9691 12.1484 28.0191 12.1955 28.0485C12.2836 28.1014 12.3512 28.1514 12.4659 28.219C13.4211 28.8215 14.3028 28.8274 14.5791 28.8274C15.2904 28.8274 15.7342 28.4482 15.7342 27.9397V27.9133C15.7342 27.3607 15.0523 27.1491 14.2646 26.9081L14.0912 26.8552C13.0096 26.5466 11.8516 26.0998 11.8516 24.7302V24.7008C11.8516 23.4017 12.9009 22.4935 14.4028 22.4935H14.5674C15.4491 22.4935 16.3015 22.7492 16.9187 23.1254C16.9745 23.1577 17.0304 23.2253 16.9981 23.3106C16.9687 23.3929 16.6953 24.1276 16.663 24.2099C16.6042 24.3628 16.4455 24.2599 16.4455 24.2599C15.9076 23.9631 15.067 23.7279 14.3616 23.7279C13.7268 23.7279 13.3153 24.0659 13.3153 24.5244V24.5509C13.3153 25.0858 14.0177 25.3151 14.8319 25.5796L14.973 25.6237C16.0487 25.9617 17.2009 26.4349 17.2009 27.734V27.7605V27.7634ZM23.9286 29.568C23.9286 29.568 23.7581 29.6151 23.6024 29.6503C23.2144 29.7356 22.8264 29.8091 22.4355 29.8767C21.977 29.9531 21.5038 29.9942 21.0277 29.9942C20.5515 29.9942 20.1635 29.9531 19.7991 29.8678C19.4317 29.7855 19.1143 29.6474 18.8556 29.4593C18.597 29.2712 18.3883 29.0214 18.2501 28.7333C18.1091 28.4423 18.0385 28.0867 18.0385 27.6752C18.0385 27.2637 18.1208 26.911 18.2854 26.6054C18.4471 26.3026 18.6793 26.041 18.9585 25.8412C19.2377 25.6413 19.5639 25.4885 19.9255 25.3915C20.284 25.2945 20.6691 25.2445 21.0659 25.2445C21.3568 25.2445 21.6008 25.2504 21.7889 25.2651L21.7948 25.2769C21.7948 25.2769 22.1622 25.3092 22.559 25.368V25.171C22.559 24.5538 22.4296 24.2599 22.1769 24.0659C21.9182 23.869 21.5303 23.7661 21.0306 23.7661C21.0306 23.7661 19.902 23.7514 19.0114 24.2364C18.9702 24.2599 18.935 24.2746 18.935 24.2746C18.935 24.2746 18.8233 24.3128 18.7821 24.1982L18.4529 23.3164C18.403 23.1901 18.4941 23.1313 18.4941 23.1313C18.9115 22.805 19.9225 22.6081 19.9225 22.6081C20.2576 22.5405 20.819 22.4935 21.1658 22.4935C22.0916 22.4935 22.8059 22.708 23.2938 23.1342C23.7846 23.5604 24.0315 24.2511 24.0315 25.1799V29.4123C24.0315 29.4123 24.0432 29.5357 23.9286 29.5651V29.568ZM27.0383 29.7179C27.0383 29.7944 26.9824 29.859 26.906 29.859H25.6774C25.5981 29.859 25.5452 29.7944 25.5452 29.7179V19.8218C25.5452 19.7453 25.601 19.6807 25.6774 19.6807H26.906C26.9824 19.6807 27.0383 19.7424 27.0383 19.8218V29.7179ZM34.7212 26.5289C34.7095 26.6495 34.586 26.6495 34.586 26.6495H29.9422C29.9686 27.3519 30.1391 27.8486 30.48 28.1896C30.8151 28.5217 31.35 28.7363 32.0672 28.7363C33.1694 28.7392 33.6396 28.5158 33.9718 28.3924C33.9718 28.3924 34.1011 28.3454 34.1481 28.4747L34.4508 29.3241C34.5126 29.4681 34.4626 29.5181 34.4126 29.5445C34.1246 29.7062 33.4192 30.006 32.0789 30.0089C31.4264 30.0089 30.8621 29.9178 30.3948 29.7356C29.9245 29.5534 29.5336 29.2947 29.2279 28.9626C28.9252 28.6334 28.6989 28.2366 28.5578 27.784C28.4167 27.3343 28.3462 26.8376 28.3462 26.3026C28.3462 25.7677 28.4138 25.2798 28.549 24.8242C28.6842 24.3628 28.8958 23.9601 29.178 23.6192C29.4601 23.2782 29.8187 23.0049 30.2449 22.805C30.6711 22.6052 31.1972 22.5082 31.7762 22.5082C32.2318 22.5082 32.6844 22.5993 33.1047 22.7786C33.3957 22.902 33.6867 23.1283 33.9865 23.4487C34.1746 23.6515 34.4626 24.0953 34.5802 24.5333H34.5831C34.88 25.5767 34.7271 26.479 34.7212 26.5289ZM38.551 30.0383C37.7457 30.0383 36.9756 29.9119 36.1585 29.4799C36.0057 29.3917 35.8528 29.3123 35.7029 29.2036C35.6853 29.1801 35.6177 29.1536 35.6677 29.0214H35.6647L35.988 28.119C36.0351 27.9721 36.1732 28.025 36.2026 28.0456C36.2908 28.1014 36.3584 28.1484 36.473 28.216C37.4253 28.8186 38.31 28.8244 38.5863 28.8244C39.2975 28.8244 39.7413 28.4453 39.7413 27.9368V27.9104C39.7413 27.3578 39.0624 27.1462 38.2718 26.9052L38.0984 26.8523C37.0167 26.5436 35.8587 26.0969 35.8587 24.7272V24.7008C35.8587 23.4017 36.908 22.4935 38.4099 22.4935H38.5745C39.4562 22.4935 40.3086 22.7492 40.9258 23.1254C40.9817 23.1577 41.0375 23.2253 41.0052 23.3106C40.9787 23.3929 40.7054 24.1276 40.6731 24.2099C40.6143 24.3628 40.4556 24.2599 40.4556 24.2599C39.9148 23.9631 39.0771 23.7279 38.3717 23.7279C37.7368 23.7279 37.3254 24.0659 37.3254 24.5244V24.5509C37.3254 25.0858 38.0278 25.3151 38.842 25.5796L38.983 25.6237C40.0617 25.9617 41.2109 26.4349 41.2109 27.734V27.7605C41.2109 29.1654 40.191 30.0383 38.551 30.0383ZM46.669 23.7691C46.6425 23.9101 46.5132 23.9043 46.5132 23.9043H44.9848L43.9414 29.8149C43.8327 30.4263 43.6945 30.9495 43.5329 31.3727C43.3712 31.7989 43.2007 32.1104 42.9303 32.4102C42.6805 32.6865 42.3984 32.8923 42.0751 33.0069C41.7517 33.1244 41.3638 33.1832 40.9376 33.1832C40.7348 33.1832 40.5173 33.1803 40.2586 33.1186C40.0735 33.0745 39.9706 33.0421 39.8354 32.9951C39.7766 32.9745 39.7325 32.9011 39.7649 32.81C39.7972 32.7159 40.0705 31.9664 40.1087 31.8665C40.1558 31.746 40.2763 31.793 40.2763 31.793C40.3586 31.8283 40.4174 31.8518 40.5261 31.8753C40.6378 31.8988 40.7848 31.9164 40.8994 31.9164C41.1022 31.9164 41.2844 31.8929 41.4461 31.8371C41.6401 31.7724 41.7517 31.6607 41.8693 31.5108C41.9928 31.3551 42.0897 31.1376 42.1926 30.8525C42.2955 30.5615 42.3895 30.1765 42.4718 29.7091L43.5123 23.9072H42.4865C42.3631 23.9072 42.3249 23.8514 42.3366 23.7573L42.51 22.7933C42.5365 22.6522 42.6658 22.6581 42.6658 22.6581H43.718L43.7739 22.3436C43.9297 21.4118 44.2442 20.7065 44.7056 20.2421C45.17 19.7747 45.8313 19.5367 46.669 19.5367C46.8806 19.5367 47.0922 19.5514 47.298 19.5866C47.4537 19.6131 47.6066 19.6513 47.7565 19.6954C47.7888 19.7071 47.877 19.7512 47.8417 19.857L47.4861 20.8299C47.4567 20.9034 47.4361 20.9475 47.2862 20.9004C47.248 20.8887 47.1921 20.874 47.0481 20.8417C46.9423 20.8211 46.8071 20.8034 46.666 20.8034C46.4985 20.8034 46.331 20.824 46.1693 20.874C46.0224 20.921 45.8901 21.0062 45.7813 21.115C45.6667 21.2326 45.5286 21.4001 45.4551 21.6088C45.2846 22.0996 45.217 22.6199 45.2111 22.6551H46.6925C46.8159 22.6551 46.8571 22.711 46.8424 22.805L46.669 23.7691ZM53.432 27.7428C53.2968 28.1984 53.0881 28.5981 52.8089 28.9332C52.5297 29.2683 52.174 29.5357 51.7567 29.7268C51.3393 29.9178 50.8455 30.0148 50.29 30.0148C49.7345 30.0148 49.2407 29.9178 48.8204 29.7268C48.4031 29.5357 48.0474 29.2683 47.7682 28.9332C47.489 28.5981 47.2803 28.1984 47.1451 27.7428C47.0099 27.2902 46.9423 26.7964 46.9423 26.2703C46.9423 25.7442 47.0099 25.2504 47.1451 24.7978C47.2803 24.3422 47.489 23.9425 47.7682 23.6074C48.0474 23.2723 48.4031 23.0019 48.8204 22.808C49.2407 22.614 49.7316 22.514 50.29 22.514C50.8485 22.514 51.3423 22.611 51.7596 22.808C52.1799 23.0019 52.5326 23.2723 52.8118 23.6074C53.0911 23.9425 53.2997 24.3422 53.4349 24.7978C53.5672 25.2504 53.6348 25.7471 53.6348 26.2703C53.6348 26.7935 53.5672 27.2902 53.4349 27.7428H53.432ZM59.1164 22.8785V22.8579C59.0752 22.9843 58.8489 23.6192 58.7695 23.8308C58.7401 23.9101 58.6902 23.966 58.5991 23.9572C58.5991 23.9572 58.3316 23.8955 58.0906 23.8955C57.879 23.8955 57.6703 23.9248 57.4675 23.9836C57.2529 24.0512 57.056 24.1688 56.8943 24.3275C56.7268 24.4921 56.5887 24.7214 56.4887 25.0094C56.3859 25.3004 56.3359 25.7618 56.3359 26.2262V29.6944C56.3359 29.7708 56.2742 29.8355 56.1948 29.8355H54.978C54.9016 29.8355 54.8369 29.7738 54.8369 29.6944V22.7874C54.8369 22.711 54.8928 22.6463 54.9692 22.6463H56.1566C56.236 22.6463 56.2889 22.708 56.2889 22.7874V23.3517C56.4652 23.1107 56.7827 22.902 57.0707 22.7727C57.3617 22.6434 57.685 22.5434 58.2669 22.5816C58.5697 22.5993 58.9635 22.6845 59.0429 22.7139C59.0429 22.7139 59.0429 22.7139 59.0458 22.7139C59.1105 22.7404 59.1399 22.8168 59.1105 22.8785H59.1164ZM64.9741 29.6533C64.4568 29.859 63.7367 30.0001 63.0343 30.0001C61.8468 30.0001 60.9357 29.6592 60.3302 28.9832C59.7248 28.3101 59.4191 27.3901 59.4191 26.2556C59.4191 25.7295 59.4955 25.2328 59.6425 24.7801C59.7924 24.3246 60.0157 23.9248 60.3097 23.5898C60.6036 23.2547 60.9739 22.9843 61.4118 22.7903C61.8498 22.5963 62.3612 22.4964 62.9373 22.4964C63.3252 22.4964 63.6691 22.5199 63.966 22.564C64.2834 22.611 64.7037 22.7257 64.8801 22.7962C64.9124 22.808 65.0006 22.852 64.9653 22.9579C64.836 23.3223 64.7478 23.5604 64.6273 23.8925C64.5773 24.0336 64.4686 23.9866 64.4686 23.9866C64.016 23.8455 63.5839 23.7779 63.0196 23.7779C62.3436 23.7779 61.8321 24.0071 61.5 24.448C61.165 24.8948 60.9768 25.4767 60.9739 26.2527C60.971 27.105 61.1826 27.734 61.5617 28.1249C61.938 28.5158 62.467 28.7127 63.1283 28.7127C63.3958 28.7127 63.6486 28.6951 63.8778 28.6598C64.1041 28.6246 64.3157 28.554 64.5156 28.4776C64.5156 28.4776 64.6449 28.4276 64.692 28.5599L65.03 29.4887C65.0741 29.6033 64.9741 29.6503 64.9741 29.6503V29.6533ZM71.8459 26.5289C71.8341 26.6495 71.7107 26.6495 71.7107 26.6495H67.0668C67.0933 27.3519 67.2637 27.8486 67.6047 28.1896C67.9397 28.5217 68.4717 28.7363 69.1918 28.7363C70.294 28.7392 70.7643 28.5158 71.0964 28.3924C71.0964 28.3924 71.2257 28.3454 71.2698 28.4747L71.5726 29.3241C71.6343 29.4681 71.5843 29.5181 71.5343 29.5445C71.2463 29.7062 70.5409 30.006 69.2006 30.0089C68.5511 30.0089 67.9838 29.9178 67.5165 29.7356C67.0462 29.5534 66.6553 29.2947 66.3497 28.9626C66.044 28.6334 65.8177 28.2366 65.6766 27.784C65.5384 27.3343 65.4679 26.8376 65.4679 26.3026C65.4679 25.7677 65.5355 25.2798 65.6707 24.8242C65.8059 24.3628 66.0175 23.9601 66.2997 23.6192C66.5818 23.2782 66.9404 23.0049 67.3666 22.805C67.7928 22.6052 68.3189 22.5082 68.8979 22.5082C69.3535 22.5082 69.8061 22.5993 70.2264 22.7786C70.5174 22.902 70.8084 23.1283 71.1082 23.4487C71.2963 23.6515 71.5843 24.0953 71.7019 24.5333H71.7078C72.0046 25.5767 71.8518 26.479 71.8459 26.5289Z" fill="#F9F9F9"/>
</g>
<defs>
<clipPath id="clip0_830_134">
<rect width="79.9866" height="56" fill="white" transform="translate(0.00671387)"/>
</clipPath>
</defs>
</svg>
