<svg width="126" height="39" viewBox="0 0 1280 396" fill="none" xmlns="http://www.w3.org/2000/svg">
  <g transform="translate(0,396) scale(0.1,-0.1)" fill="#F9F9F9" stroke="none">
    <path
      d="M9193 3085 c-32 -16 -61 -41 -79 -67 -25 -36 -29 -50 -29 -114 0 -64
3 -77 30 -115 44 -63 104 -91 182 -87 49 3 71 10 104 33 99 70 116 211 36 302
-65 74 -156 92 -244 48z M870 2705 l0 -375 65 0 65 0 0 50 c0 76 28 197 61
267 79 165 242 263 462 275 l67 4 0 -828 c0 -560 -4 -843 -11 -878 -26 -120
-115 -179 -271 -180 l-88 0 0 -80 0 -80 570 0 570 0 0 80 0 80 -84 0 c-138 0
-212 37 -255 129 l-26 56 -3 851 -3 852 68 -5 c94 -7 184 -28 249 -59 75 -35
164 -120 203 -193 40 -76 71 -196 71 -278 l0 -64 65 3 66 3 0 370 0 370 -921
3 -920 2 0 -375z M3552 3018 l3 -63 65 -6 c98 -8 144 -38 175 -112 13 -32 15
-141 15 -857 0 -716 -2 -825 -15 -857 -31 -74 -77 -104 -175 -112 l-65 -6 -3
-62 -3 -63 356 0 355 0 0 65 0 65 -68 0 c-90 0 -147 28 -182 91 l-25 44 -2
805 -2 805 23 -70 c12 -38 136 -461 276 -938 l255 -868 64 3 64 3 253 910
c139 501 257 926 263 945 6 23 9 -248 10 -773 1 -706 -1 -812 -14 -844 -31
-73 -77 -103 -170 -112 l-60 -6 -3 -62 -3 -63 436 0 435 0 0 64 0 64 -69 4
c-82 4 -138 36 -167 95 -18 36 -19 74 -22 851 -2 574 1 826 9 855 22 82 105
137 207 137 l42 0 0 65 0 65 -352 0 -353 0 -210 -760 c-183 -663 -225 -802
-225 -748 0 10 -344 1275 -396 1456 l-15 52 -355 0 -355 0 3 -62z M7282 3018
l3 -63 68 -6 c85 -7 111 -29 127 -105 8 -38 10 -310 7 -926 -4 -755 -6 -884
-20 -953 -9 -44 -17 -81 -17 -82 0 -2 33 -3 74 -3 l74 0 51 80 c29 44 54 80
57 80 4 0 29 -20 57 -46 58 -52 188 -117 265 -133 76 -16 228 -14 297 4 102
26 165 63 245 144 118 118 183 268 209 476 51 419 -89 785 -348 909 -98 47
-165 59 -287 54 -86 -4 -110 -9 -167 -35 -36 -17 -86 -50 -110 -72 -24 -23
-47 -41 -51 -41 -3 0 -6 176 -6 390 l0 390 -265 0 -266 0 3 -62z m938 -740
c118 -60 183 -238 196 -541 14 -307 -41 -567 -141 -670 -52 -54 -91 -70 -160
-70 -193 1 -306 205 -322 579 -12 309 52 556 173 663 73 64 173 80 254 39z
M9832 3018 l3 -63 55 -5 c69 -7 96 -24 115 -75 14 -35 15 -152 13 -915 -3
-817 -4 -877 -21 -901 -24 -35 -58 -49 -122 -49 l-55 0 0 -65 0 -65 370 0 371
0 -3 63 -3 62 -65 5 c-36 3 -76 11 -88 18 -53 30 -52 4 -52 1067 l0 985 -260
0 -261 0 3 -62z M6411 2440 c-150 -32 -251 -89 -353 -198 -152 -165 -229 -439
-199 -709 16 -146 33 -210 92 -331 42 -87 63 -117 127 -181 85 -85 174 -138
282 -167 88 -23 263 -24 350 -1 303 80 493 346 516 723 12 189 -31 396 -113
542 -77 139 -220 256 -368 302 -79 25 -260 35 -334 20z m235 -151 c119 -57
182 -209 206 -497 26 -308 -24 -608 -122 -732 -96 -121 -293 -117 -387 7 -91
121 -135 406 -113 720 20 289 86 450 205 504 56 26 156 25 211 -2z M11175
2436 c-209 -49 -366 -206 -443 -446 -42 -129 -55 -233 -49 -395 6 -180 28
-277 94 -415 79 -165 216 -281 384 -326 79 -21 244 -24 319 -5 164 40 291 153
409 363 l32 56 -67 36 c-37 20 -68 35 -69 33 -77 -171 -177 -288 -278 -326
-104 -38 -227 -24 -305 36 -96 73 -155 261 -163 516 l-2 68 444 2 444 2 3 28
c6 53 -29 252 -62 349 -72 212 -187 341 -364 405 -84 31 -237 40 -327 19z
m218 -140 c40 -16 93 -76 117 -130 28 -66 51 -183 57 -288 l6 -98 -268 0 -268
0 7 88 c22 280 118 442 262 442 30 0 69 -6 87 -14z M8950 2340 l0 -60 38 -1
c59 0 104 -21 129 -58 l23 -34 0 -544 c0 -587 0 -585 -53 -615 -12 -7 -51 -15
-87 -18 l-65 -5 -3 -62 -3 -63 376 0 376 0 -3 63 -3 62 -68 6 c-77 6 -111 30
-127 88 -6 22 -10 281 -10 669 l0 632 -260 0 -260 0 0 -60z M870 1850 l0 -220
220 0 220 0 0 220 0 220 -220 0 -220 0 0 -220z M2270 1850 l0 -220 223 0 222
0 -2 217 -2 218 -221 3 -220 2 0 -220z"
    />
  </g>
</svg>
