<svg width="129" height="32" viewBox="0 0 129 32" fill="none" xmlns="http://www.w3.org/2000/svg">
  <path fill-rule="evenodd" clip-rule="evenodd"
    d="M71.428 19.8006C71.428 20.0577 71.4082 20.3149 71.3291 20.5325C71.1537 21.0466 70.8199 21.4919 70.3757 21.8047C69.9315 22.1174 69.3997 22.2814 68.8565 22.2732C67.8477 22.2732 67.0466 21.6995 67.0466 20.4731C67.0466 18.6137 69.0939 18.0994 71.428 18.1093V19.8006ZM75.0874 16.5566C75.0874 13.4905 73.772 10.7806 69.3412 10.7806C67.0664 10.7806 65.2565 11.4136 64.2674 11.9872L64.9894 14.4598C66.11 13.7952 67.3857 13.4371 68.6884 13.4213C70.9434 13.4213 71.3093 14.6972 71.3093 15.5082V15.706C66.4037 15.706 63.2982 17.3972 63.2982 20.8589C63.2982 22.9754 64.8806 24.9534 67.6301 24.9534C69.3115 24.9534 70.7258 24.2809 71.5764 23.2029H71.6555C71.6555 23.2029 72.2192 25.5469 75.3149 24.6469C75.1468 23.6677 75.0874 22.6292 75.0874 21.383V16.5566ZM0 6.59698L3.71877 21.8578C4.31219 24.3501 5.39023 25.2699 8.48591 24.6469L10.4936 16.5071C10.9981 14.4796 11.3442 13.0455 11.6706 10.9784H11.7201C11.9574 13.0554 12.2838 14.4895 12.6992 16.517L13.9256 22.1545C14.3509 24.093 15.508 25.3194 18.5543 24.6469L23.3214 6.59698H19.4642L17.8422 14.4005C17.3971 16.6752 17.0015 18.4555 16.6949 20.5325H16.6454C16.3685 18.4654 16.0125 16.7643 15.5575 14.5488L13.8761 6.59698H9.86067L8.04084 14.3411C7.53644 16.695 7.05181 18.594 6.7551 20.6017H6.69576C6.37927 18.7225 5.96387 16.3192 5.50892 14.0444L4.05504 6.59698H0ZM30.3732 19.8006C30.3732 20.0577 30.3534 20.3149 30.2743 20.5325C30.0989 21.0466 29.7651 21.4919 29.3209 21.8047C28.8767 22.1174 28.3449 22.2814 27.8017 22.2732C26.7929 22.2732 25.9918 21.6995 25.9918 20.4731C25.9918 18.6137 28.0391 18.0994 30.3732 18.1093V19.8006ZM34.0326 16.5566C34.0326 13.4905 32.7271 10.7806 28.2963 10.7806C26.0215 10.7806 24.2017 11.4136 23.2126 11.9872L23.9346 14.4598C25.0554 13.7957 26.3309 13.4375 27.6336 13.4213C29.8886 13.4213 30.2545 14.6972 30.2545 15.5082V15.706C25.3489 15.706 22.2434 17.3972 22.2434 20.8589C22.2434 22.9754 23.8258 24.9534 26.5753 24.9534C28.2567 24.9534 29.671 24.2809 30.5216 23.2029H30.6007C30.6007 23.2029 31.1645 25.5469 34.2601 24.6469C34.092 23.6677 34.0326 22.6292 34.0326 21.383V16.5566ZM39.6998 20.8094V6.60687H36.0404V24.6567H39.6998V20.8193M86.3427 6.60687V19.9193C86.3427 21.7589 86.6888 23.0446 87.4306 23.826C88.0735 24.5183 89.1317 24.9633 90.4076 24.9633C91.4955 24.9633 92.5538 24.7655 93.0582 24.5677L93.0186 21.6995C92.6428 21.7984 92.2076 21.8677 91.6241 21.8677C90.3779 21.8677 89.9526 21.0764 89.9526 19.4248V14.3312H93.1472V10.8696H89.9526V6.59698H86.3427M76.8776 11.0872V24.6469H80.6557V17.7038C80.6557 17.328 80.6854 17.0115 80.7447 16.7049C81.0216 15.251 82.1294 14.3213 83.7316 14.3213C84.1668 14.3213 84.4833 14.3609 84.8195 14.4202V10.8597C84.5466 10.8016 84.2678 10.775 83.9887 10.7806C82.5744 10.7806 80.9722 11.6905 80.2997 13.6488H80.2007V11.0773H76.8776M41.8361 11.0773V24.6469H45.4956V16.695C45.4956 16.3192 45.545 15.9236 45.6736 15.5873C45.9703 14.7862 46.722 13.8466 47.9088 13.8466C49.3923 13.8466 50.0946 15.1027 50.0946 16.9126V24.6469H53.7738V16.5961C53.7738 16.2401 53.8232 15.8049 53.932 15.4983C54.0764 15.0205 54.3708 14.602 54.7716 14.3045C55.1724 14.007 55.6582 13.8465 56.1573 13.8466C57.6607 13.8466 58.3827 15.0829 58.3827 17.2093V24.6469H62.0718V16.6555C62.0718 12.4521 59.9256 10.7806 57.5222 10.7806C56.4442 10.7806 55.6035 11.0476 54.8419 11.5125C54.1991 11.9081 53.6155 12.4718 53.121 13.2037H53.0617C52.7662 12.4644 52.2492 11.8346 51.5817 11.4008C50.9141 10.9669 50.1286 10.7503 49.333 10.7806C48.539 10.7336 47.7477 10.9097 47.0486 11.289C46.3495 11.6683 45.7704 12.2356 45.3769 12.9268H45.3274V11.0872H41.8262"
    fill="#F9F9F9" />
  <path fill-rule="evenodd" clip-rule="evenodd"
    d="M112.948 10.4838C113.68 10.4838 114.273 10.098 114.362 9.61341L115.074 1.46377C115.074 0.662653 114.135 0 112.948 0C111.761 0 110.821 0.662653 110.821 1.46377L111.543 9.61341C111.622 10.1079 112.226 10.4739 112.948 10.4739M108.546 13.0256C108.912 12.3926 108.883 11.6805 108.497 11.364L101.801 6.67598C101.109 6.27047 100.07 6.7551 99.4771 7.7837C98.8836 8.81229 98.9825 9.95957 99.6749 10.3552L107.093 13.8069C107.557 13.975 108.181 13.6487 108.546 13.0157M117.349 13.0157C117.715 13.6487 118.338 13.975 118.813 13.8069L126.221 10.3552C126.913 9.95957 127.012 8.81229 126.428 7.7837C125.835 6.7551 124.786 6.27047 124.094 6.67598L117.398 11.364C117.023 11.6805 116.993 12.3926 117.359 13.0256M112.948 20.6411C113.68 20.6411 114.273 21.0269 114.362 21.5115L115.074 29.6611C115.074 30.4622 114.135 31.1249 112.948 31.1249C111.761 31.1249 110.821 30.4622 110.821 29.6611L111.543 21.5115C111.622 21.017 112.226 20.651 112.948 20.651M117.349 18.1092C117.715 17.4762 118.338 17.1498 118.813 17.318L126.221 20.7697C126.913 21.1653 127.012 22.3225 126.428 23.3412C125.835 24.3698 124.786 24.8544 124.094 24.4489L117.398 19.7609C117.023 19.4444 116.993 18.7323 117.359 18.1092M108.546 18.1092C108.912 18.7323 108.883 19.4444 108.497 19.7609L101.801 24.4489C101.109 24.8445 100.07 24.3698 99.4771 23.3412C98.8836 22.3126 98.9825 21.1653 99.6749 20.7697L107.093 17.318C107.557 17.1498 108.181 17.4762 108.546 18.1092ZM127.783 23.7368H127.852C127.932 23.7368 128.001 23.7071 128.001 23.6379C128.001 23.5786 127.961 23.539 127.862 23.539H127.783V23.7368ZM127.783 24.0929H127.625V23.45L127.872 23.4302C128.001 23.4302 128.05 23.45 128.1 23.4797C128.139 23.5093 128.169 23.5588 128.169 23.6181C128.169 23.6973 128.11 23.7467 128.03 23.7764C128.09 23.7962 128.129 23.8555 128.149 23.9346C128.169 24.0335 128.179 24.0731 128.199 24.0929H128.04C128.021 24.0731 128.001 24.0137 127.981 23.9445C127.971 23.8753 127.932 23.8456 127.852 23.8456H127.773V24.1028L127.783 24.0929ZM127.882 23.2423C127.585 23.2423 127.378 23.4797 127.378 23.7665C127.378 24.0533 127.595 24.2808 127.882 24.2808C128.169 24.2808 128.377 24.0533 128.377 23.7665C128.381 23.6991 128.371 23.6316 128.348 23.5681C128.325 23.5047 128.289 23.4466 128.243 23.3975C128.196 23.3484 128.14 23.3093 128.078 23.2826C128.016 23.2559 127.95 23.2422 127.882 23.2423ZM127.882 23.1137C128.258 23.1137 128.545 23.4005 128.545 23.7665C128.545 24.1324 128.248 24.4192 127.882 24.4192C127.795 24.4219 127.708 24.407 127.626 24.3754C127.545 24.3437 127.47 24.2961 127.408 24.2352C127.345 24.1743 127.295 24.1015 127.261 24.0209C127.227 23.9404 127.21 23.8539 127.21 23.7665C127.21 23.4005 127.506 23.1137 127.882 23.1137Z"
    fill="#F9F9F9" />
</svg>
  