<svg width="109" height="26" viewBox="0 0 109 26" fill="none" xmlns="http://www.w3.org/2000/svg">
    <path fill-rule="evenodd" clip-rule="evenodd"
        d="M60.3093 16.5403C60.3093 16.7551 60.2928 16.9699 60.2267 17.1517C60.0801 17.5811 59.8013 17.9532 59.4303 18.2144C59.0592 18.4756 58.615 18.6126 58.1612 18.6058C57.3185 18.6058 56.6493 18.1266 56.6493 17.1021C56.6493 15.5489 58.3595 15.1193 60.3093 15.1275V16.5403ZM63.3662 13.8304C63.3662 11.2692 62.2674 9.0055 58.5661 9.0055C56.6658 9.0055 55.1539 9.53426 54.3277 10.0134L54.9309 12.0789C55.8669 11.5238 56.9326 11.2246 58.0208 11.2114C59.9045 11.2114 60.2102 12.2772 60.2102 12.9547V13.1199C56.1123 13.1199 53.5181 14.5327 53.5181 17.4243C53.5181 19.1923 54.84 20.8447 57.1368 20.8447C58.5413 20.8447 59.7227 20.2829 60.4332 19.3824H60.4993C60.4993 19.3824 60.9703 21.3404 63.5562 20.5886C63.4158 19.7707 63.3662 18.9032 63.3662 17.8622V13.8304ZM0.642334 5.51074L3.74878 18.2588C4.24449 20.3407 5.14503 21.1091 7.73099 20.5886L9.40814 13.7891C9.8295 12.0954 10.1187 10.8975 10.3913 9.17074H10.4326C10.6309 10.9057 10.9035 12.1037 11.2505 13.7974L12.275 18.5066C12.6303 20.1259 13.5969 21.1504 16.1415 20.5886L20.1237 5.51074H16.9016L15.5467 12.0293C15.1749 13.9296 14.8444 15.4167 14.5883 17.1517H14.547C14.3157 15.4249 14.0182 14.0039 13.6382 12.1533L12.2337 5.51074H8.87938L7.35921 11.9798C6.93785 13.9461 6.53302 15.5323 6.28517 17.2095H6.2356C5.97122 15.6398 5.62422 13.6321 5.24418 11.7319L4.02969 5.51074H0.642334ZM26.0144 16.5403C26.0144 16.7551 25.9979 16.9699 25.9318 17.1517C25.7853 17.5811 25.5065 17.9532 25.1354 18.2144C24.7643 18.4756 24.3201 18.6126 23.8664 18.6058C23.0236 18.6058 22.3544 18.1266 22.3544 17.1021C22.3544 15.5489 24.0646 15.1193 26.0144 15.1275V16.5403ZM29.0713 13.8304C29.0713 11.2692 27.9808 9.0055 24.2794 9.0055C22.3792 9.0055 20.859 9.53426 20.0329 10.0134L20.636 12.0789C21.5722 11.5241 22.6377 11.225 23.7259 11.2114C25.6096 11.2114 25.9153 12.2772 25.9153 12.9547V13.1199C21.8174 13.1199 19.2232 14.5327 19.2232 17.4243C19.2232 19.1923 20.5451 20.8447 22.8419 20.8447C24.2464 20.8447 25.4278 20.2829 26.1384 19.3824H26.2045C26.2045 19.3824 26.6754 21.3404 29.2613 20.5886C29.1209 19.7707 29.0713 18.9032 29.0713 17.8622V13.8304ZM33.8053 17.383V5.519H30.7485V20.5969H33.8053V17.3913M72.7682 5.519V16.6394C72.7682 18.1761 73.0573 19.2502 73.677 19.9029C74.214 20.4812 75.098 20.853 76.1638 20.853C77.0726 20.853 77.9566 20.6877 78.3779 20.5225L78.3449 18.1266C78.031 18.2092 77.6674 18.267 77.18 18.267C76.139 18.267 75.7837 17.6061 75.7837 16.2263V11.9715H78.4523V9.07985H75.7837V5.51074H72.7682M64.8616 9.26162V20.5886H68.0176V14.7888C68.0176 14.4748 68.0424 14.2105 68.092 13.9543C68.3233 12.7398 69.2486 11.9632 70.587 11.9632C70.9506 11.9632 71.2149 11.9963 71.4958 12.0459V9.07159C71.2678 9.02303 71.0349 9.00085 70.8018 9.0055C69.6204 9.0055 68.282 9.76559 67.7202 11.4014H67.6376V9.25335H64.8616M35.5899 9.25335V20.5886H38.6468V13.9461C38.6468 13.6321 38.6881 13.3017 38.7955 13.0208C39.0434 12.3515 39.6712 11.5667 40.6627 11.5667C41.9019 11.5667 42.4885 12.6159 42.4885 14.1278V20.5886H45.5619V13.8635C45.5619 13.566 45.6032 13.2025 45.6941 12.9464C45.8148 12.5473 46.0607 12.1977 46.3955 11.9492C46.7302 11.7007 47.1361 11.5666 47.553 11.5667C48.8088 11.5667 49.412 12.5994 49.412 14.3757V20.5886H52.4936V13.913C52.4936 10.4017 50.7008 9.0055 48.6932 9.0055C47.7926 9.0055 47.0904 9.22857 46.4542 9.61687C45.9172 9.94735 45.4297 10.4183 45.0167 11.0296H44.9671C44.7203 10.4121 44.2884 9.88596 43.7308 9.52355C43.1731 9.16115 42.517 8.98018 41.8524 9.0055C41.1891 8.96626 40.5281 9.11338 39.9441 9.4302C39.3601 9.74703 38.8764 10.2209 38.5476 10.7983H38.5063V9.26162H35.5816"
        fill="#F9F9F9" />
    <path fill-rule="evenodd" clip-rule="evenodd"
        d="M94.9927 8.75755C95.604 8.75755 96.0997 8.43534 96.1741 8.03051L96.769 1.22275C96.769 0.553543 95.9841 0 94.9927 0C94.0012 0 93.2164 0.553543 93.2164 1.22275L93.8195 8.03051C93.8856 8.4436 94.3895 8.74929 94.9927 8.74929M91.3161 10.8808C91.6218 10.3521 91.597 9.75723 91.2748 9.49285L85.6816 5.57674C85.1032 5.238 84.2358 5.64283 83.74 6.50207C83.2443 7.3613 83.327 8.31967 83.9053 8.65014L90.1017 11.5335C90.49 11.674 91.0105 11.4013 91.3161 10.8726M98.6692 10.8726C98.9749 11.4013 99.4954 11.674 99.8919 11.5335L106.08 8.65014C106.658 8.31967 106.741 7.3613 106.254 6.50207C105.758 5.64283 104.882 5.238 104.304 5.57674L98.7105 9.49285C98.3965 9.75723 98.3718 10.3521 98.6774 10.8808M94.9927 17.2425C95.604 17.2425 96.0997 17.5647 96.1741 17.9695L96.769 24.7772C96.769 25.4465 95.9841 26 94.9927 26C94.0012 26 93.2164 25.4465 93.2164 24.7772L93.8195 17.9695C93.8856 17.5564 94.3895 17.2507 94.9927 17.2507M98.6692 15.1274C98.9749 14.5987 99.4954 14.326 99.8919 14.4665L106.08 17.3499C106.658 17.6803 106.741 18.647 106.254 19.4979C105.758 20.3572 104.882 20.762 104.304 20.4233L98.7105 16.5071C98.3965 16.2428 98.3718 15.6479 98.6774 15.1274M91.3161 15.1274C91.6218 15.6479 91.597 16.2428 91.2748 16.5071L85.6816 20.4233C85.1032 20.7537 84.2358 20.3572 83.74 19.4979C83.2443 18.6387 83.327 17.6803 83.9053 17.3499L90.1017 14.4665C90.49 14.326 91.0105 14.5987 91.3161 15.1274ZM107.385 19.8284H107.443C107.509 19.8284 107.567 19.8036 107.567 19.7458C107.567 19.6962 107.534 19.6632 107.452 19.6632H107.385V19.8284ZM107.385 20.1258H107.253V19.5888L107.46 19.5723C107.567 19.5723 107.608 19.5888 107.65 19.6136C107.683 19.6384 107.708 19.6797 107.708 19.7293C107.708 19.7954 107.658 19.8367 107.592 19.8615C107.642 19.878 107.675 19.9276 107.691 19.9936C107.708 20.0763 107.716 20.1093 107.732 20.1258H107.6C107.584 20.1093 107.567 20.0597 107.551 20.0019C107.542 19.9441 107.509 19.9193 107.443 19.9193H107.377V20.1341L107.385 20.1258ZM107.468 19.4153C107.22 19.4153 107.047 19.6136 107.047 19.8532C107.047 20.0928 107.228 20.2828 107.468 20.2828C107.708 20.2828 107.881 20.0928 107.881 19.8532C107.885 19.7969 107.876 19.7405 107.857 19.6875C107.838 19.6345 107.808 19.586 107.769 19.5449C107.731 19.5039 107.684 19.4712 107.632 19.449C107.58 19.4267 107.524 19.4152 107.468 19.4153ZM107.468 19.3079C107.782 19.3079 108.022 19.5475 108.022 19.8532C108.022 20.1589 107.774 20.3985 107.468 20.3985C107.395 20.4007 107.322 20.3882 107.254 20.3618C107.186 20.3354 107.124 20.2956 107.072 20.2447C107.019 20.1939 106.978 20.133 106.949 20.0658C106.921 19.9985 106.906 19.9262 106.906 19.8532C106.906 19.5475 107.154 19.3079 107.468 19.3079Z"
        fill="#F9F9F9" />
</svg>